<svg xmlns="http://www.w3.org/2000/svg" xmlns:xlink="http://www.w3.org/1999/xlink" xmlns:lucid="lucid" width="1721" height="902"><g transform="translate(140.50000000788964 100.50000000458999)" lucid:page-tab-id="WXhAjn0EERuQ"><path d="M-500-500h2500v1500H-500z" fill="#fff"/><path d="M-140 386a6 6 0 0 1 6-6h348a6 6 0 0 1 6 6v249a6 6 0 0 1-6 6h-348a6 6 0 0 1-6-6z" stroke="#3a414a" fill="#fff"/><path d="M-140 417.6h360" stroke="#3a414a" fill="none"/><use xlink:href="#a" transform="matrix(1,0,0,1,-132,388) translate(115.125 14.6)"/><use xlink:href="#b" transform="matrix(1,0,0,1,-128,425.6) translate(0 68.44444444444446)"/><use xlink:href="#c" transform="matrix(1,0,0,1,-128,425.6) translate(0 95.11111111111111)"/><use xlink:href="#d" transform="matrix(1,0,0,1,-128,425.6) translate(13.518518518518519 95.11111111111111)"/><use xlink:href="#e" transform="matrix(1,0,0,1,-128,425.6) translate(57.49876543209877 95.11111111111111)"/><use xlink:href="#f" transform="matrix(1,0,0,1,-128,425.6) translate(70.72345679012346 95.11111111111111)"/><use xlink:href="#c" transform="matrix(1,0,0,1,-128,425.6) translate(0 121.77777777777777)"/><use xlink:href="#g" transform="matrix(1,0,0,1,-128,425.6) translate(13.518518518518519 121.77777777777777)"/><use xlink:href="#e" transform="matrix(1,0,0,1,-128,425.6) translate(68.2246913580247 121.77777777777777)"/><use xlink:href="#f" transform="matrix(1,0,0,1,-128,425.6) translate(81.44938271604939 121.77777777777777)"/><use xlink:href="#c" transform="matrix(1,0,0,1,-128,425.6) translate(0 148.44444444444446)"/><use xlink:href="#h" transform="matrix(1,0,0,1,-128,425.6) translate(13.518518518518519 148.44444444444446)"/><use xlink:href="#e" transform="matrix(1,0,0,1,-128,425.6) translate(169.54814814814813 148.44444444444446)"/><use xlink:href="#i" transform="matrix(1,0,0,1,-128,425.6) translate(182.77283950617283 148.44444444444446)"/><path d="M290 386a6 6 0 0 1 6-6h348a6 6 0 0 1 6 6v169a6 6 0 0 1-6 6H296a6 6 0 0 1-6-6z" stroke="#3a414a" fill="#fff"/><path d="M290 417.6h360" stroke="#3a414a" fill="none"/><use xlink:href="#j" transform="matrix(1,0,0,1,298,388) translate(118.6 14.6)"/><use xlink:href="#c" transform="matrix(1,0,0,1,302,425.6) translate(0 68.44444444444444)"/><use xlink:href="#k" transform="matrix(1,0,0,1,302,425.6) translate(13.518518518518519 68.44444444444444)"/><use xlink:href="#e" transform="matrix(1,0,0,1,302,425.6) translate(116.69876543209877 68.44444444444444)"/><use xlink:href="#l" transform="matrix(1,0,0,1,302,425.6) translate(129.92345679012345 68.44444444444444)"/><path d="M40 379v-4.83m0-4.84v-9.66m0-4.84v-9.66m0-4.84v-9.66m0-4.84v-9.66m0-4.84v-4.83l.07-.94.22-.9.35-.88.5-.8.6-.72.72-.6.8-.5.88-.37.9-.23.95-.07h4.95m4.95 0h9.9m4.94 0h9.9m4.94 0h9.9m4.95 0h9.9m4.94 0h9.9m4.95 0h9.9m4.94 0h9.9m4.95 0h9.9m4.95 0h9.9m4.95 0h9.9m4.94 0h9.9m4.94 0h9.9m4.95 0h9.9m4.94 0h9.9m4.95 0h9.9m4.94 0h9.9m4.95 0h9.9m4.95 0h9.9m4.95 0h9.9m4.94 0h9.9m4.95 0h9.88m4.95 0h9.9m4.94 0h9.9m4.95 0h9.9m4.94 0h9.9m4.95 0h9.9m4.95 0h9.9m4.95 0h9.9m4.94 0h9.9m4.94 0h9.9m4.95 0h9.9m4.94 0h9.9m4.95 0h9.9m4.94 0h9.9m4.95 0h9.9m4.95 0h9.9m4.95 0h9.9m4.94 0h9.9m4.95 0h9.88m4.95 0h9.9m4.94 0h9.9m4.95 0h9.9m4.94 0h9.9m4.95 0h9.9m4.95 0H714l.94-.07.9-.22.88-.35.8-.5.72-.6.6-.72.5-.8.37-.88.23-.9.07-.95v-5.56m0-5.55v-11.12m0-5.56v-11.1m0-5.56v-5.56" stroke="#3a414a" fill="none"/><path d="M40.5 379.5h-1v-.5h1z" stroke="#3a414a" stroke-width=".05" fill="#3a414a"/><path d="M720 222.48L732.73 244h-25.46zM1220 386a6 6 0 0 1 6-6h348a6 6 0 0 1 6 6v169a6 6 0 0 1-6 6h-348a6 6 0 0 1-6-6z" stroke="#3a414a" fill="#fff"/><path d="M1220 417.6h360" stroke="#3a414a" fill="none"/><use xlink:href="#m" transform="matrix(1,0,0,1,1228,388) translate(111.625 14.6)"/><path d="M1400 379v-4.83m0-4.84v-9.66m0-4.84v-9.66m0-4.84v-9.66m0-4.84v-9.66m0-4.84v-4.83l-.07-.94-.22-.9-.35-.88-.5-.8-.6-.72-.72-.6-.8-.5-.88-.37-.9-.23-.95-.07h-4.95m-4.95 0h-9.9m-4.94 0h-9.9m-4.94 0h-9.9m-4.95 0h-9.9m-4.94 0h-9.9m-4.95 0h-9.9m-4.94 0h-9.9m-4.95 0h-9.9m-4.95 0h-9.9m-4.95 0h-9.9m-4.94 0h-9.9m-4.94 0h-9.9m-4.95 0h-9.9m-4.94 0h-9.9m-4.95 0h-9.9m-4.94 0h-9.9m-4.95 0h-9.9m-4.95 0h-9.9m-4.95 0h-9.9m-4.94 0h-9.9m-4.95 0h-9.88m-4.95 0h-9.9m-4.94 0h-9.9m-4.95 0h-9.9m-4.94 0h-9.9m-4.95 0h-9.9m-4.95 0h-9.9m-4.95 0h-9.9m-4.94 0h-9.9m-4.94 0h-9.9m-4.95 0h-9.9m-4.94 0h-9.9m-4.95 0h-9.9m-4.94 0h-9.9m-4.95 0h-9.9m-4.95 0h-9.9m-4.95 0h-9.9m-4.94 0h-9.9m-4.95 0h-9.88m-4.95 0h-9.9m-4.94 0h-9.9m-4.95 0h-9.9m-4.94 0h-9.9m-4.95 0h-9.9m-4.95 0H726l-.94-.07-.9-.22-.88-.35-.8-.5-.72-.6-.6-.72-.5-.8-.37-.88-.23-.9-.07-.95v-5.56m0-5.55v-11.12m0-5.56v-11.1m0-5.56v-5.56" stroke="#3a414a" fill="none"/><path d="M1400.5 379.5h-1v-.5h1z" stroke="#3a414a" stroke-width=".05" fill="#3a414a"/><path d="M720 222.48L732.73 244h-25.46zM500-94a6 6 0 0 1 6-6h428a6 6 0 0 1 6 6v309a6 6 0 0 1-6 6H506a6 6 0 0 1-6-6z" stroke="#3a414a" fill="#fff"/><path d="M500-40.8h440M500 156.7h440" stroke="#3a414a" fill="none"/><use xlink:href="#n" transform="matrix(1,0,0,1,508,-92) translate(156.075 14.799999999999999)"/><use xlink:href="#o" transform="matrix(1,0,0,1,508,-92) translate(151.95 36.4)"/><use xlink:href="#b" transform="matrix(1,0,0,1,512,-32.8) translate(0 28.77777777777778)"/><use xlink:href="#c" transform="matrix(1,0,0,1,512,-32.8) translate(0 55.44444444444445)"/><use xlink:href="#p" transform="matrix(1,0,0,1,512,-32.8) translate(13.518518518518519 55.44444444444445)"/><use xlink:href="#e" transform="matrix(1,0,0,1,512,-32.8) translate(69.35061728395063 55.44444444444445)"/><use xlink:href="#f" transform="matrix(1,0,0,1,512,-32.8) translate(82.57530864197531 55.44444444444445)"/><use xlink:href="#c" transform="matrix(1,0,0,1,512,-32.8) translate(0 82.11111111111111)"/><use xlink:href="#q" transform="matrix(1,0,0,1,512,-32.8) translate(13.518518518518519 82.11111111111111)"/><use xlink:href="#e" transform="matrix(1,0,0,1,512,-32.8) translate(106.09135802469136 82.11111111111111)"/><use xlink:href="#f" transform="matrix(1,0,0,1,512,-32.8) translate(119.31604938271605 82.11111111111111)"/><use xlink:href="#c" transform="matrix(1,0,0,1,512,-32.8) translate(0 108.77777777777777)"/><use xlink:href="#r" transform="matrix(1,0,0,1,512,-32.8) translate(13.518518518518519 108.77777777777777)"/><use xlink:href="#e" transform="matrix(1,0,0,1,512,-32.8) translate(95.30617283950617 108.77777777777777)"/><use xlink:href="#f" transform="matrix(1,0,0,1,512,-32.8) translate(108.53086419753086 108.77777777777777)"/><use xlink:href="#c" transform="matrix(1,0,0,1,512,-32.8) translate(0 135.44444444444446)"/><use xlink:href="#s" transform="matrix(1,0,0,1,512,-32.8) translate(13.518518518518519 135.44444444444446)"/><use xlink:href="#e" transform="matrix(1,0,0,1,512,-32.8) translate(124.87654320987653 135.44444444444446)"/><use xlink:href="#f" transform="matrix(1,0,0,1,512,-32.8) translate(138.10123456790123 135.44444444444446)"/><use xlink:href="#t" transform="matrix(1,0,0,1,512,-32.8) translate(0 162.11111111111111)"/><g><use xlink:href="#u" transform="matrix(1,0,0,1,512,164.7) translate(0 28.944444444444443)"/><use xlink:href="#v" transform="matrix(1,0,0,1,512,164.7) translate(19.1358024691358 28.944444444444443)"/><use xlink:href="#w" transform="matrix(1,0,0,1,512,164.7) translate(137.77037037037036 28.944444444444443)"/><use xlink:href="#x" transform="matrix(1,0,0,1,512,164.7) translate(150.74814814814815 28.944444444444443)"/><use xlink:href="#y" transform="matrix(1,0,0,1,512,164.7) translate(219.8641975308642 28.944444444444443)"/><use xlink:href="#w" transform="matrix(1,0,0,1,512,164.7) translate(277.7012345679012 28.944444444444443)"/><use xlink:href="#z" transform="matrix(1,0,0,1,512,164.7) translate(290.679012345679 28.944444444444443)"/><use xlink:href="#e" transform="matrix(1,0,0,1,512,164.7) translate(360.4345679012346 28.944444444444443)"/><use xlink:href="#A" transform="matrix(1,0,0,1,512,164.7) translate(373.6592592592593 28.944444444444443)"/></g><path d="M290 626a6 6 0 0 1 6-6h348a6 6 0 0 1 6 6v169a6 6 0 0 1-6 6H296a6 6 0 0 1-6-6z" stroke="#3a414a" fill="#fff"/><path d="M290 657.6h360" stroke="#3a414a" fill="none"/><g><use xlink:href="#B" transform="matrix(1,0,0,1,298,628) translate(120.275 14.6)"/></g><path d="M470 619v-34.5" stroke="#3a414a" fill="none"/><path d="M470.5 619.5h-1v-.5h1z" stroke="#3a414a" stroke-width=".05" fill="#3a414a"/><path d="M470 562.48L482.73 584h-25.46zM740 386a6 6 0 0 1 6-6h348a6 6 0 0 1 6 6v303a6 6 0 0 1-6 6H746a6 6 0 0 1-6-6z" stroke="#3a414a" fill="#fff"/><path d="M740 417.6h360" stroke="#3a414a" fill="none"/><g><use xlink:href="#C" transform="matrix(1,0,0,1,748,388) translate(90.675 14.6)"/></g><g><use xlink:href="#b" transform="matrix(1,0,0,1,752,425.6) translate(0 68.27777777777777)"/><use xlink:href="#c" transform="matrix(1,0,0,1,752,425.6) translate(0 94.94444444444446)"/><use xlink:href="#p" transform="matrix(1,0,0,1,752,425.6) translate(13.518518518518519 94.94444444444446)"/><use xlink:href="#e" transform="matrix(1,0,0,1,752,425.6) translate(69.35061728395063 94.94444444444446)"/><use xlink:href="#f" transform="matrix(1,0,0,1,752,425.6) translate(82.57530864197531 94.94444444444446)"/><use xlink:href="#c" transform="matrix(1,0,0,1,752,425.6) translate(0 121.61111111111111)"/><use xlink:href="#q" transform="matrix(1,0,0,1,752,425.6) translate(13.518518518518519 121.61111111111111)"/><use xlink:href="#e" transform="matrix(1,0,0,1,752,425.6) translate(106.09135802469136 121.61111111111111)"/><use xlink:href="#f" transform="matrix(1,0,0,1,752,425.6) translate(119.31604938271605 121.61111111111111)"/><use xlink:href="#c" transform="matrix(1,0,0,1,752,425.6) translate(0 148.27777777777777)"/><use xlink:href="#r" transform="matrix(1,0,0,1,752,425.6) translate(13.518518518518519 148.27777777777777)"/><use xlink:href="#e" transform="matrix(1,0,0,1,752,425.6) translate(95.30617283950617 148.27777777777777)"/><use xlink:href="#f" transform="matrix(1,0,0,1,752,425.6) translate(108.53086419753086 148.27777777777777)"/><use xlink:href="#c" transform="matrix(1,0,0,1,752,425.6) translate(0 174.94444444444446)"/><use xlink:href="#s" transform="matrix(1,0,0,1,752,425.6) translate(13.518518518518519 174.94444444444446)"/><use xlink:href="#e" transform="matrix(1,0,0,1,752,425.6) translate(124.87654320987653 174.94444444444446)"/><use xlink:href="#f" transform="matrix(1,0,0,1,752,425.6) translate(138.10123456790123 174.94444444444446)"/><use xlink:href="#t" transform="matrix(1,0,0,1,752,425.6) translate(0 201.61111111111111)"/></g><path d="M920 379v-4.83m0-4.84v-9.66m0-4.84v-9.66m0-4.84v-9.66m0-4.84v-9.66m0-4.84v-4.83l-.07-.94-.22-.9-.35-.88-.5-.8-.6-.72-.72-.6-.8-.5-.88-.37-.9-.23-.95-.07h-4.82m-4.82 0h-9.64m-4.82 0h-9.64m-4.82 0h-9.65m-4.83 0h-9.64m-4.82 0h-9.63m-4.82 0h-9.64m-4.8 0h-9.65m-4.82 0h-9.64m-4.83 0h-9.64m-4.82 0h-9.64m-4.82 0h-9.64m-4.82 0h-9.64m-4.82 0H726l-.94-.07-.9-.22-.88-.35-.8-.5-.72-.6-.6-.72-.5-.8-.37-.88-.23-.9-.07-.95v-5.56m0-5.55v-11.12m0-5.56v-11.1m0-5.56v-5.56" stroke="#3a414a" fill="none"/><path d="M920.5 379.5h-1v-.5h1z" stroke="#3a414a" stroke-width=".05" fill="#3a414a"/><path d="M720 222.48L732.73 244h-25.46z" stroke="#3a414a" fill="#fff"/><path d="M470 379v-4.83m0-4.84v-9.66m0-4.84v-9.66m0-4.84v-9.66m0-4.84v-9.66m0-4.84v-4.83l.07-.94.22-.9.35-.88.5-.8.6-.72.72-.6.8-.5.88-.37.9-.23.95-.07h4.96m4.96 0h9.9m4.97 0h9.9m4.97 0h9.9m4.97 0h9.92m4.96 0h9.9m4.97 0h9.9m4.97 0h9.9m4.97 0h9.92m4.96 0h9.9m4.97 0h9.9m4.97 0h9.9m4.97 0h9.92m4.96 0h9.9m4.97 0h9.9m4.97 0h9.9m4.97 0H714l.94-.07.9-.22.88-.35.8-.5.72-.6.6-.72.5-.8.37-.88.23-.9.07-.95v-5.56m0-5.55v-11.12m0-5.56v-11.1m0-5.56v-5.56" stroke="#3a414a" fill="none"/><path d="M470.5 379.5h-1v-.5h1z" stroke="#3a414a" stroke-width=".05" fill="#3a414a"/><path d="M720 222.48L732.73 244h-25.46z" stroke="#3a414a" fill="#fff"/><defs><path d="M186 0v-106H76V0H24v-248h52v99h110v-99h50V0h-50" id="D"/><path d="M115-3C79 11 28 4 28-45v-112H4v-33h27l15-45h31v45h36v33H77v99c-1 23 16 31 38 25v30" id="E"/><path d="M220-157c-53 9-28 100-34 157h-49v-107c1-27-5-49-29-50C55-147 81-57 75 0H25l-1-190h47c2 12-1 28 3 38 10-53 101-56 108 0 13-22 24-43 59-42 82 1 51 116 57 194h-49v-107c-1-25-5-48-29-50" id="F"/><path d="M25 0v-261h50V0H25" id="G"/><path d="M24 0v-248h195v40H76v63h132v40H76v65h150V0H24" id="H"/><path d="M144 0l-44-69L55 0H2l70-98-66-92h53l41 62 40-62h54l-67 91 71 99h-54" id="I"/><path d="M135-194c53 0 70 44 70 98 0 56-19 98-73 100-31 1-45-17-59-34 3 33 2 69 2 105H25l-1-265h48c2 10 0 23 3 31 11-24 29-35 60-35zM114-30c33 0 39-31 40-66 0-38-9-64-40-64-56 0-55 130 0 130" id="J"/><path d="M110-194c64 0 96 36 96 99 0 64-35 99-97 99-61 0-95-36-95-99 0-62 34-99 96-99zm-1 164c35 0 45-28 45-65 0-40-10-65-43-65-34 0-45 26-45 65 0 36 10 65 43 65" id="K"/><path d="M135-150c-39-12-60 13-60 57V0H25l-1-190h47c2 13-1 29 3 40 6-28 27-53 61-41v41" id="L"/><path d="M185-48c-13 30-37 53-82 52C43 2 14-33 14-96s30-98 90-98c62 0 83 45 84 108H66c0 31 8 55 39 56 18 0 30-7 34-22zm-45-69c5-46-57-63-70-21-2 6-4 13-4 21h74" id="M"/><g id="a"><use transform="matrix(0.05,0,0,0.05,0,0)" xlink:href="#D"/><use transform="matrix(0.05,0,0,0.05,12.950000000000001,0)" xlink:href="#E"/><use transform="matrix(0.05,0,0,0.05,18.900000000000002,0)" xlink:href="#F"/><use transform="matrix(0.05,0,0,0.05,34.900000000000006,0)" xlink:href="#G"/><use transform="matrix(0.05,0,0,0.05,39.900000000000006,0)" xlink:href="#H"/><use transform="matrix(0.05,0,0,0.05,51.900000000000006,0)" xlink:href="#I"/><use transform="matrix(0.05,0,0,0.05,61.900000000000006,0)" xlink:href="#J"/><use transform="matrix(0.05,0,0,0.05,72.85000000000001,0)" xlink:href="#K"/><use transform="matrix(0.05,0,0,0.05,83.80000000000001,0)" xlink:href="#L"/><use transform="matrix(0.05,0,0,0.05,90.80000000000001,0)" xlink:href="#E"/><use transform="matrix(0.05,0,0,0.05,96.75000000000001,0)" xlink:href="#M"/><use transform="matrix(0.05,0,0,0.05,106.75,0)" xlink:href="#L"/></g><path fill="#3a414a" d="M16-82v-28h88v28H16" id="N"/><use transform="matrix(0.06172839506172839,0,0,0.06172839506172839,0,0)" xlink:href="#N" id="c"/><path fill="#660e7a" d="M115-3C79 11 28 4 28-45v-112H4v-33h27l15-45h31v45h36v33H77v99c-1 23 16 31 38 25v30" id="O"/><path fill="#660e7a" d="M25-224v-37h50v37H25zM25 0v-190h50V0H25" id="P"/><path fill="#660e7a" d="M25 0v-261h50V0H25" id="Q"/><path fill="#660e7a" d="M185-48c-13 30-37 53-82 52C43 2 14-33 14-96s30-98 90-98c62 0 83 45 84 108H66c0 31 8 55 39 56 18 0 30-7 34-22zm-45-69c5-46-57-63-70-21-2 6-4 13-4 21h74" id="R"/><g id="d"><use transform="matrix(0.05925925925925927,0,0,0.05925925925925927,0,0)" xlink:href="#O"/><use transform="matrix(0.05925925925925927,0,0,0.05925925925925927,7.051851851851853,0)" xlink:href="#P"/><use transform="matrix(0.05925925925925927,0,0,0.05925925925925927,12.97777777777778,0)" xlink:href="#O"/><use transform="matrix(0.05925925925925927,0,0,0.05925925925925927,20.029629629629632,0)" xlink:href="#Q"/><use transform="matrix(0.05925925925925927,0,0,0.05925925925925927,25.95555555555556,0)" xlink:href="#R"/></g><path fill="#383838" d="M35-132v-50h50v50H35zM35 0v-49h50V0H35" id="S"/><use transform="matrix(0.059259259259259255,0,0,0.059259259259259255,0,0)" xlink:href="#S" id="e"/><path fill="#8c6c41" d="M185-189c-5-48-123-54-124 2 14 75 158 14 163 119 3 78-121 87-175 55-17-10-28-26-33-46l33-7c5 56 141 63 141-1 0-78-155-14-162-118-5-82 145-84 179-34 5 7 8 16 11 25" id="T"/><path fill="#8c6c41" d="M59-47c-2 24 18 29 38 22v24C64 9 27 4 27-40v-127H5v-23h24l9-43h21v43h35v23H59v120" id="U"/><path fill="#8c6c41" d="M114-163C36-179 61-72 57 0H25l-1-190h30c1 12-1 29 2 39 6-27 23-49 58-41v29" id="V"/><path fill="#8c6c41" d="M24-231v-30h32v30H24zM24 0v-190h32V0H24" id="W"/><path fill="#8c6c41" d="M117-194c89-4 53 116 60 194h-32v-121c0-31-8-49-39-48C34-167 62-67 57 0H25l-1-190h30c1 10-1 24 2 32 11-22 29-35 61-36" id="X"/><path fill="#8c6c41" d="M177-190C167-65 218 103 67 71c-23-6-38-20-44-43l32-5c15 47 100 32 89-28v-30C133-14 115 1 83 1 29 1 15-40 15-95c0-56 16-97 71-98 29-1 48 16 59 35 1-10 0-23 2-32h30zM94-22c36 0 50-32 50-73 0-42-14-75-50-75-39 0-46 34-46 75s6 73 46 73" id="Y"/><g id="f"><use transform="matrix(0.05925925925925927,0,0,0.05925925925925927,0,0)" xlink:href="#T"/><use transform="matrix(0.05925925925925927,0,0,0.05925925925925927,14.222222222222225,0)" xlink:href="#U"/><use transform="matrix(0.05925925925925927,0,0,0.05925925925925927,20.148148148148152,0)" xlink:href="#V"/><use transform="matrix(0.05925925925925927,0,0,0.05925925925925927,27.200000000000006,0)" xlink:href="#W"/><use transform="matrix(0.05925925925925927,0,0,0.05925925925925927,31.881481481481487,0)" xlink:href="#X"/><use transform="matrix(0.05925925925925927,0,0,0.05925925925925927,43.73333333333334,0)" xlink:href="#Y"/></g><path fill="#660e7a" d="M137-138c1-29-70-34-71-4 15 46 118 7 119 86 1 83-164 76-172 9l43-7c4 19 20 25 44 25 33 8 57-30 24-41C81-84 22-81 20-136c-2-80 154-74 161-7" id="Z"/><path fill="#660e7a" d="M123 10C108 53 80 86 19 72V37c35 8 53-11 59-39L3-190h52l48 148c12-52 28-100 44-148h51" id="aa"/><g id="g"><use transform="matrix(0.05925925925925927,0,0,0.05925925925925927,0,0)" xlink:href="#Z"/><use transform="matrix(0.05925925925925927,0,0,0.05925925925925927,11.851851851851853,0)" xlink:href="#O"/><use transform="matrix(0.05925925925925927,0,0,0.05925925925925927,18.903703703703705,0)" xlink:href="#aa"/><use transform="matrix(0.05925925925925927,0,0,0.05925925925925927,30.75555555555556,0)" xlink:href="#Q"/><use transform="matrix(0.05925925925925927,0,0,0.05925925925925927,36.681481481481484,0)" xlink:href="#R"/></g><path fill="#660e7a" d="M144 0l-44-69L55 0H2l70-98-66-92h53l41 62 40-62h54l-67 91 71 99h-54" id="ab"/><path fill="#660e7a" d="M135-194c53 0 70 44 70 98 0 56-19 98-73 100-31 1-45-17-59-34 3 33 2 69 2 105H25l-1-265h48c2 10 0 23 3 31 11-24 29-35 60-35zM114-30c33 0 39-31 40-66 0-38-9-64-40-64-56 0-55 130 0 130" id="ac"/><path fill="#660e7a" d="M110-194c64 0 96 36 96 99 0 64-35 99-97 99-61 0-95-36-95-99 0-62 34-99 96-99zm-1 164c35 0 45-28 45-65 0-40-10-65-43-65-34 0-45 26-45 65 0 36 10 65 43 65" id="ad"/><path fill="#660e7a" d="M135-150c-39-12-60 13-60 57V0H25l-1-190h47c2 13-1 29 3 40 6-28 27-53 61-41v41" id="ae"/><path fill="#660e7a" d="M76-208v77h127v40H76V0H24v-248h183v40H76" id="af"/><path fill="#660e7a" d="M85 4C-2 5 27-109 22-190h50c7 57-23 150 33 157 60-5 35-97 40-157h50l1 190h-47c-2-12 1-28-3-38-12 25-28 42-61 42" id="ag"/><path fill="#660e7a" d="M186 0v-106H76V0H24v-248h52v99h110v-99h50V0h-50" id="ah"/><path fill="#660e7a" d="M220-157c-53 9-28 100-34 157h-49v-107c1-27-5-49-29-50C55-147 81-57 75 0H25l-1-190h47c2 12-1 28 3 38 10-53 101-56 108 0 13-22 24-43 59-42 82 1 51 116 57 194h-49v-107c-1-25-5-48-29-50" id="ai"/><g id="h"><use transform="matrix(0.05925925925925927,0,0,0.05925925925925927,0,0)" xlink:href="#R"/><use transform="matrix(0.05925925925925927,0,0,0.05925925925925927,11.851851851851853,0)" xlink:href="#ab"/><use transform="matrix(0.05925925925925927,0,0,0.05925925925925927,23.703703703703706,0)" xlink:href="#ac"/><use transform="matrix(0.05925925925925927,0,0,0.05925925925925927,36.681481481481484,0)" xlink:href="#ad"/><use transform="matrix(0.05925925925925927,0,0,0.05925925925925927,49.659259259259265,0)" xlink:href="#ae"/><use transform="matrix(0.05925925925925927,0,0,0.05925925925925927,57.95555555555556,0)" xlink:href="#O"/><use transform="matrix(0.05925925925925927,0,0,0.05925925925925927,65.00740740740741,0)" xlink:href="#af"/><use transform="matrix(0.05925925925925927,0,0,0.05925925925925927,77.98518518518519,0)" xlink:href="#ag"/><use transform="matrix(0.05925925925925927,0,0,0.05925925925925927,90.96296296296296,0)" xlink:href="#Q"/><use transform="matrix(0.05925925925925927,0,0,0.05925925925925927,96.88888888888889,0)" xlink:href="#Q"/><use transform="matrix(0.05925925925925927,0,0,0.05925925925925927,102.81481481481481,0)" xlink:href="#ah"/><use transform="matrix(0.05925925925925927,0,0,0.05925925925925927,118.16296296296296,0)" xlink:href="#O"/><use transform="matrix(0.05925925925925927,0,0,0.05925925925925927,125.2148148148148,0)" xlink:href="#ai"/><use transform="matrix(0.05925925925925927,0,0,0.05925925925925927,144.17777777777778,0)" xlink:href="#Q"/></g><path fill="#0f54d6" d="M115-194c53 0 69 39 70 98 0 66-23 100-70 100C84 3 66-7 56-30L54 0H23l1-261h32v101c10-23 28-34 59-34zm-8 174c40 0 45-34 45-75 0-40-5-75-45-74-42 0-51 32-51 76 0 43 10 73 51 73" id="aj"/><path fill="#0f54d6" d="M100-194c62-1 85 37 85 99 1 63-27 99-86 99S16-35 15-95c0-66 28-99 85-99zM99-20c44 1 53-31 53-75 0-43-8-75-51-75s-53 32-53 75 10 74 51 75" id="ak"/><path fill="#0f54d6" d="M24 0v-261h32V0H24" id="al"/><path fill="#0f54d6" d="M100-194c63 0 86 42 84 106H49c0 40 14 67 53 68 26 1 43-12 49-29l28 8c-11 28-37 45-77 45C44 4 14-33 15-96c1-61 26-98 85-98zm52 81c6-60-76-77-97-28-3 7-6 17-6 28h103" id="am"/><path fill="#0f54d6" d="M141-36C126-15 110 5 73 4 37 3 15-17 15-53c-1-64 63-63 125-63 3-35-9-54-41-54-24 1-41 7-42 31l-33-3c5-37 33-52 76-52 45 0 72 20 72 64v82c-1 20 7 32 28 27v20c-31 9-61-2-59-35zM48-53c0 20 12 33 32 33 41-3 63-29 60-74-43 2-92-5-92 41" id="an"/><path fill="#0f54d6" d="M117-194c89-4 53 116 60 194h-32v-121c0-31-8-49-39-48C34-167 62-67 57 0H25l-1-190h30c1 10-1 24 2 32 11-22 29-35 61-36" id="ao"/><g id="i"><use transform="matrix(0.05925925925925927,0,0,0.05925925925925927,0,0)" xlink:href="#aj"/><use transform="matrix(0.05925925925925927,0,0,0.05925925925925927,11.851851851851853,0)" xlink:href="#ak"/><use transform="matrix(0.05925925925925927,0,0,0.05925925925925927,23.703703703703706,0)" xlink:href="#ak"/><use transform="matrix(0.05925925925925927,0,0,0.05925925925925927,35.55555555555556,0)" xlink:href="#al"/><use transform="matrix(0.05925925925925927,0,0,0.05925925925925927,40.23703703703704,0)" xlink:href="#am"/><use transform="matrix(0.05925925925925927,0,0,0.05925925925925927,52.088888888888896,0)" xlink:href="#an"/><use transform="matrix(0.05925925925925927,0,0,0.05925925925925927,63.94074074074075,0)" xlink:href="#ao"/></g><path d="M67-125c0 53 21 87 73 88 37 1 54-22 65-47l45 17C233-25 199 4 140 4 58 4 20-42 15-125 8-235 124-281 211-232c18 10 29 29 36 50l-46 12c-8-25-30-41-62-41-52 0-71 34-72 86" id="ap"/><path d="M137-138c1-29-70-34-71-4 15 46 118 7 119 86 1 83-164 76-172 9l43-7c4 19 20 25 44 25 33 8 57-30 24-41C81-84 22-81 20-136c-2-80 154-74 161-7" id="aq"/><path d="M128 0H69L1-190h53L99-40l48-150h52" id="ar"/><g id="j"><use transform="matrix(0.05,0,0,0.05,0,0)" xlink:href="#ap"/><use transform="matrix(0.05,0,0,0.05,12.950000000000001,0)" xlink:href="#aq"/><use transform="matrix(0.05,0,0,0.05,22.950000000000003,0)" xlink:href="#ar"/><use transform="matrix(0.05,0,0,0.05,32.95,0)" xlink:href="#H"/><use transform="matrix(0.05,0,0,0.05,44.95,0)" xlink:href="#I"/><use transform="matrix(0.05,0,0,0.05,54.95,0)" xlink:href="#J"/><use transform="matrix(0.05,0,0,0.05,65.9,0)" xlink:href="#K"/><use transform="matrix(0.05,0,0,0.05,76.85000000000001,0)" xlink:href="#L"/><use transform="matrix(0.05,0,0,0.05,83.85000000000001,0)" xlink:href="#E"/><use transform="matrix(0.05,0,0,0.05,89.80000000000001,0)" xlink:href="#M"/><use transform="matrix(0.05,0,0,0.05,99.80000000000001,0)" xlink:href="#L"/></g><path fill="#660e7a" d="M133-34C117-15 103 5 69 4 32 3 11-16 11-54c-1-60 55-63 116-61 1-26-3-47-28-47-18 1-26 9-28 27l-52-2c7-38 36-58 82-57s74 22 75 68l1 82c-1 14 12 18 25 15v27c-30 8-71 5-69-32zm-48 3c29 0 43-24 42-57-32 0-66-3-65 30 0 17 8 27 23 27" id="as"/><g id="k"><use transform="matrix(0.05925925925925927,0,0,0.05925925925925927,0,0)" xlink:href="#Z"/><use transform="matrix(0.05925925925925927,0,0,0.05925925925925927,11.851851851851853,0)" xlink:href="#R"/><use transform="matrix(0.05925925925925927,0,0,0.05925925925925927,23.703703703703706,0)" xlink:href="#ac"/><use transform="matrix(0.05925925925925927,0,0,0.05925925925925927,36.681481481481484,0)" xlink:href="#as"/><use transform="matrix(0.05925925925925927,0,0,0.05925925925925927,48.53333333333334,0)" xlink:href="#ae"/><use transform="matrix(0.05925925925925927,0,0,0.05925925925925927,56.829629629629636,0)" xlink:href="#as"/><use transform="matrix(0.05925925925925927,0,0,0.05925925925925927,68.68148148148148,0)" xlink:href="#O"/><use transform="matrix(0.05925925925925927,0,0,0.05925925925925927,75.73333333333333,0)" xlink:href="#ad"/><use transform="matrix(0.05925925925925927,0,0,0.05925925925925927,88.71111111111111,0)" xlink:href="#ae"/></g><g id="l"><use transform="matrix(0.05925925925925927,0,0,0.05925925925925927,0,0)" xlink:href="#T"/><use transform="matrix(0.05925925925925927,0,0,0.05925925925925927,14.222222222222225,0)" xlink:href="#U"/><use transform="matrix(0.05925925925925927,0,0,0.05925925925925927,20.148148148148152,0)" xlink:href="#V"/><use transform="matrix(0.05925925925925927,0,0,0.05925925925925927,27.200000000000006,0)" xlink:href="#W"/><use transform="matrix(0.05925925925925927,0,0,0.05925925925925927,31.881481481481487,0)" xlink:href="#X"/><use transform="matrix(0.05925925925925927,0,0,0.05925925925925927,43.73333333333334,0)" xlink:href="#Y"/></g><path d="M24 0v-248h52v208h133V0H24" id="at"/><path d="M133-34C117-15 103 5 69 4 32 3 11-16 11-54c-1-60 55-63 116-61 1-26-3-47-28-47-18 1-26 9-28 27l-52-2c7-38 36-58 82-57s74 22 75 68l1 82c-1 14 12 18 25 15v27c-30 8-71 5-69-32zm-48 3c29 0 43-24 42-57-32 0-66-3-65 30 0 17 8 27 23 27" id="au"/><g id="m"><use transform="matrix(0.05,0,0,0.05,0,0)" xlink:href="#at"/><use transform="matrix(0.05,0,0,0.05,10.950000000000001,0)" xlink:href="#au"/><use transform="matrix(0.05,0,0,0.05,20.950000000000003,0)" xlink:href="#E"/><use transform="matrix(0.05,0,0,0.05,26.900000000000002,0)" xlink:href="#M"/><use transform="matrix(0.05,0,0,0.05,36.900000000000006,0)" xlink:href="#I"/><use transform="matrix(0.05,0,0,0.05,46.900000000000006,0)" xlink:href="#H"/><use transform="matrix(0.05,0,0,0.05,58.900000000000006,0)" xlink:href="#I"/><use transform="matrix(0.05,0,0,0.05,68.9,0)" xlink:href="#J"/><use transform="matrix(0.05,0,0,0.05,79.85000000000001,0)" xlink:href="#K"/><use transform="matrix(0.05,0,0,0.05,90.80000000000001,0)" xlink:href="#L"/><use transform="matrix(0.05,0,0,0.05,97.80000000000001,0)" xlink:href="#E"/><use transform="matrix(0.05,0,0,0.05,103.75,0)" xlink:href="#M"/><use transform="matrix(0.05,0,0,0.05,113.75,0)" xlink:href="#L"/></g><path d="M15-91v-56l181-69v40L49-119l147 57v40" id="av"/><path d="M135-194c52 0 70 43 70 98 0 56-19 99-73 100-30 1-46-15-58-35L72 0H24l1-261h50v104c11-23 29-37 60-37zM114-30c31 0 40-27 40-66 0-37-7-63-39-63s-41 28-41 65c0 36 8 64 40 64" id="aw"/><path d="M190-63c-7 42-38 67-86 67-59 0-84-38-90-98-12-110 154-137 174-36l-49 2c-2-19-15-32-35-32-30 0-35 28-38 64-6 74 65 87 74 30" id="ax"/><path d="M15-22v-40l146-57-146-57v-40l181 69v56" id="ay"/><g id="n"><use transform="matrix(0.05,0,0,0.05,0,0)" xlink:href="#av"/><use transform="matrix(0.05,0,0,0.05,10.5,0)" xlink:href="#av"/><use transform="matrix(0.05,0,0,0.05,21,0)" xlink:href="#au"/><use transform="matrix(0.05,0,0,0.05,31,0)" xlink:href="#aw"/><use transform="matrix(0.05,0,0,0.05,41.95,0)" xlink:href="#aq"/><use transform="matrix(0.05,0,0,0.05,51.95,0)" xlink:href="#E"/><use transform="matrix(0.05,0,0,0.05,57.900000000000006,0)" xlink:href="#L"/><use transform="matrix(0.05,0,0,0.05,64.9,0)" xlink:href="#au"/><use transform="matrix(0.05,0,0,0.05,74.9,0)" xlink:href="#ax"/><use transform="matrix(0.05,0,0,0.05,84.9,0)" xlink:href="#E"/><use transform="matrix(0.05,0,0,0.05,90.85000000000001,0)" xlink:href="#ay"/><use transform="matrix(0.05,0,0,0.05,101.35000000000001,0)" xlink:href="#ay"/></g><path d="M157-208L117 0H65l40-208H25l8-40h212l-8 40h-80" id="az"/><path d="M166-52c-4 17 5 29 24 23l-3 27c-30 11-74 1-67-34C105-15 91 4 56 4 23 4 3-15 2-49c0-64 63-67 128-67 10-22 3-53-29-45-13 3-22 10-25 24l-46-5c5-64 156-77 153 0-1 33-11 60-17 90zM97-88c-44-9-64 57-19 57 31 0 42-28 47-57H97" id="aA"/><path d="M87-160c15-17 32-34 63-34 99 1 59 172-1 192-36 12-78 0-87-29L54 0H6l52-261h49zm71 38c0-24-5-37-29-37-46 0-55 46-57 89-1 25 12 40 35 40 44 0 51-50 51-92" id="aB"/><path d="M6 0l51-261h49L55 0H6" id="aC"/><path d="M114-194c63-2 87 48 72 110H63c-3 28 1 55 31 54 21-1 32-13 37-29l44 13C160-14 137 4 91 4 41 4 11-22 11-73c0-71 33-119 103-121zm30 77c14-47-50-61-67-22-3 6-6 13-8 22h75" id="aD"/><path d="M6 0l48-248h195l-8 40H98l-12 63h132l-7 40H79L66-40h150l-8 40H6" id="aE"/><path d="M127 0L95-67 37 0h-53l89-99-49-91h52l30 61 52-61h54l-85 92 52 98h-52" id="aF"/><path d="M156-122c2-23-7-37-28-37-47 0-58 44-58 89 0 24 12 40 36 40 43 0 47-49 50-92zM-8 75l50-265h48c0 10-3 24-3 30 22-50 127-45 121 29-6 73-21 135-92 135-29 0-46-14-55-35L41 75H-8" id="aG"/><path d="M124-194c51 0 84 22 84 74C207-44 167 4 94 4 43 4 11-23 11-74c0-74 41-120 113-120zM99-30c46 0 58-42 58-86 0-27-11-44-37-44-44 0-55 40-57 84-1 27 10 45 36 46" id="aH"/><path d="M84-151c13-25 34-51 72-40l-8 41C67-170 71-64 56 0H6l36-190h47" id="aI"/><path d="M72-63c-8 23 5 39 32 30L98-1C54 14 12-6 23-64l18-93H15l7-33h28l24-45h31l-8 45h35l-6 33H90" id="aJ"/><g id="o"><use transform="matrix(0.05,0,0,0.05,0,0)" xlink:href="#az"/><use transform="matrix(0.05,0,0,0.05,10.3,0)" xlink:href="#aA"/><use transform="matrix(0.05,0,0,0.05,20.3,0)" xlink:href="#aB"/><use transform="matrix(0.05,0,0,0.05,31.25,0)" xlink:href="#aC"/><use transform="matrix(0.05,0,0,0.05,36.25,0)" xlink:href="#aD"/><use transform="matrix(0.05,0,0,0.05,46.25,0)" xlink:href="#aE"/><use transform="matrix(0.05,0,0,0.05,58.25,0)" xlink:href="#aF"/><use transform="matrix(0.05,0,0,0.05,68.25,0)" xlink:href="#aG"/><use transform="matrix(0.05,0,0,0.05,79.2,0)" xlink:href="#aH"/><use transform="matrix(0.05,0,0,0.05,90.15,0)" xlink:href="#aI"/><use transform="matrix(0.05,0,0,0.05,97.15,0)" xlink:href="#aJ"/><use transform="matrix(0.05,0,0,0.05,103.10000000000001,0)" xlink:href="#aD"/><use transform="matrix(0.05,0,0,0.05,113.10000000000001,0)" xlink:href="#aI"/></g><path fill="#660e7a" d="M135-194c52 0 70 43 70 98 0 56-19 99-73 100-30 1-46-15-58-35L72 0H24l1-261h50v104c11-23 29-37 60-37zM114-30c31 0 40-27 40-66 0-37-7-63-39-63s-41 28-41 65c0 36 8 64 40 64" id="aK"/><g id="p"><use transform="matrix(0.05925925925925927,0,0,0.05925925925925927,0,0)" xlink:href="#O"/><use transform="matrix(0.05925925925925927,0,0,0.05925925925925927,7.051851851851853,0)" xlink:href="#as"/><use transform="matrix(0.05925925925925927,0,0,0.05925925925925927,18.903703703703705,0)" xlink:href="#aK"/><use transform="matrix(0.05925925925925927,0,0,0.05925925925925927,31.881481481481487,0)" xlink:href="#Q"/><use transform="matrix(0.05925925925925927,0,0,0.05925925925925927,37.80740740740741,0)" xlink:href="#R"/></g><path fill="#660e7a" d="M121-226c-27-7-43 5-38 36h38v33H83V0H34v-157H6v-33h28c-9-59 32-81 87-68v32" id="aL"/><path fill="#660e7a" d="M135-194c87-1 58 113 63 194h-50c-7-57 23-157-34-157-59 0-34 97-39 157H25l-1-190h47c2 12-1 28 3 38 12-26 28-41 61-42" id="aM"/><g id="q"><use transform="matrix(0.05925925925925927,0,0,0.05925925925925927,0,0)" xlink:href="#aL"/><use transform="matrix(0.05925925925925927,0,0,0.05925925925925927,7.051851851851853,0)" xlink:href="#P"/><use transform="matrix(0.05925925925925927,0,0,0.05925925925925927,12.97777777777778,0)" xlink:href="#Q"/><use transform="matrix(0.05925925925925927,0,0,0.05925925925925927,18.903703703703705,0)" xlink:href="#R"/><use transform="matrix(0.05925925925925927,0,0,0.05925925925925927,30.75555555555556,0)" xlink:href="#aM"/><use transform="matrix(0.05925925925925927,0,0,0.05925925925925927,43.73333333333334,0)" xlink:href="#as"/><use transform="matrix(0.05925925925925927,0,0,0.05925925925925927,55.585185185185196,0)" xlink:href="#ai"/><use transform="matrix(0.05925925925925927,0,0,0.05925925925925927,74.54814814814816,0)" xlink:href="#R"/></g><path fill="#660e7a" d="M114-157C55-157 80-60 75 0H25v-261h50l-1 109c12-26 28-41 61-42 86-1 58 113 63 194h-50c-7-57 23-157-34-157" id="aN"/><g id="r"><use transform="matrix(0.05925925925925927,0,0,0.05925925925925927,0,0)" xlink:href="#aL"/><use transform="matrix(0.05925925925925927,0,0,0.05925925925925927,7.051851851851853,0)" xlink:href="#P"/><use transform="matrix(0.05925925925925927,0,0,0.05925925925925927,12.97777777777778,0)" xlink:href="#Q"/><use transform="matrix(0.05925925925925927,0,0,0.05925925925925927,18.903703703703705,0)" xlink:href="#R"/><use transform="matrix(0.05925925925925927,0,0,0.05925925925925927,30.75555555555556,0)" xlink:href="#ac"/><use transform="matrix(0.05925925925925927,0,0,0.05925925925925927,43.73333333333334,0)" xlink:href="#as"/><use transform="matrix(0.05925925925925927,0,0,0.05925925925925927,55.585185185185196,0)" xlink:href="#O"/><use transform="matrix(0.05925925925925927,0,0,0.05925925925925927,62.63703703703705,0)" xlink:href="#aN"/></g><path fill="#660e7a" d="M88-194c31-1 46 15 58 34l-1-101h50l1 261h-48c-2-10 0-23-3-31C134-8 116 4 84 4 32 4 16-41 15-95c0-56 19-97 73-99zm17 164c33 0 40-30 41-66 1-37-9-64-41-64s-38 30-39 65c0 43 13 65 39 65" id="aO"/><path fill="#660e7a" d="M140-251c80 0 125 45 125 126S219 4 139 4C58 4 15-44 15-125s44-126 125-126zm-1 214c52 0 73-35 73-88 0-50-21-86-72-86-52 0-73 35-73 86s22 88 72 88" id="aP"/><path fill="#660e7a" d="M24 0v-248h52v208h133V0H24" id="aQ"/><g id="s"><use transform="matrix(0.05925925925925927,0,0,0.05925925925925927,0,0)" xlink:href="#R"/><use transform="matrix(0.05925925925925927,0,0,0.05925925925925927,11.851851851851853,0)" xlink:href="#aM"/><use transform="matrix(0.05925925925925927,0,0,0.05925925925925927,24.829629629629633,0)" xlink:href="#aO"/><use transform="matrix(0.05925925925925927,0,0,0.05925925925925927,37.80740740740741,0)" xlink:href="#aP"/><use transform="matrix(0.05925925925925927,0,0,0.05925925925925927,54.400000000000006,0)" xlink:href="#aL"/><use transform="matrix(0.05925925925925927,0,0,0.05925925925925927,61.45185185185186,0)" xlink:href="#aQ"/><use transform="matrix(0.05925925925925927,0,0,0.05925925925925927,74.42962962962963,0)" xlink:href="#P"/><use transform="matrix(0.05925925925925927,0,0,0.05925925925925927,80.35555555555555,0)" xlink:href="#aM"/><use transform="matrix(0.05925925925925927,0,0,0.05925925925925927,93.33333333333333,0)" xlink:href="#R"/></g><path fill="#3a414a" d="M118-107v75H92v-75H18v-26h74v-75h26v75h74v26h-74" id="aR"/><use transform="matrix(0.06172839506172839,0,0,0.06172839506172839,0,0)" xlink:href="#aR" id="u"/><path fill="#6b2fba" d="M100-194c63 0 86 42 84 106H49c0 40 14 67 53 68 26 1 43-12 49-29l28 8c-11 28-37 45-77 45C44 4 14-33 15-96c1-61 26-98 85-98zm52 81c6-60-76-77-97-28-3 7-6 17-6 28h103" id="aS"/><path fill="#6b2fba" d="M141 0L90-78 38 0H4l68-98-65-92h35l48 74 47-74h35l-64 92 68 98h-35" id="aT"/><path fill="#6b2fba" d="M115-194c55 1 70 41 70 98S169 2 115 4C84 4 66-9 55-30l1 105H24l-1-265h31l2 30c10-21 28-34 59-34zm-8 174c40 0 45-34 45-75s-6-73-45-74c-42 0-51 32-51 76 0 43 10 73 51 73" id="aU"/><path fill="#6b2fba" d="M100-194c62-1 85 37 85 99 1 63-27 99-86 99S16-35 15-95c0-66 28-99 85-99zM99-20c44 1 53-31 53-75 0-43-8-75-51-75s-53 32-53 75 10 74 51 75" id="aV"/><path fill="#6b2fba" d="M114-163C36-179 61-72 57 0H25l-1-190h30c1 12-1 29 2 39 6-27 23-49 58-41v29" id="aW"/><path fill="#6b2fba" d="M59-47c-2 24 18 29 38 22v24C64 9 27 4 27-40v-127H5v-23h24l9-43h21v43h35v23H59v120" id="aX"/><path fill="#3a414a" d="M87 75C49 33 22-17 22-94c0-76 28-126 65-167h31c-38 41-64 92-64 168S80 34 118 75H87" id="aY"/><path fill="#1b6600" d="M59-47c-2 24 18 29 38 22v24C64 9 27 4 27-40v-127H5v-23h24l9-43h21v43h35v23H59v120" id="aZ"/><path fill="#1b6600" d="M141-36C126-15 110 5 73 4 37 3 15-17 15-53c-1-64 63-63 125-63 3-35-9-54-41-54-24 1-41 7-42 31l-33-3c5-37 33-52 76-52 45 0 72 20 72 64v82c-1 20 7 32 28 27v20c-31 9-61-2-59-35zM48-53c0 20 12 33 32 33 41-3 63-29 60-74-43 2-92-5-92 41" id="ba"/><path fill="#1b6600" d="M115-194c53 0 69 39 70 98 0 66-23 100-70 100C84 3 66-7 56-30L54 0H23l1-261h32v101c10-23 28-34 59-34zm-8 174c40 0 45-34 45-75 0-40-5-75-45-74-42 0-51 32-51 76 0 43 10 73 51 73" id="bb"/><path fill="#1b6600" d="M24 0v-261h32V0H24" id="bc"/><path fill="#1b6600" d="M100-194c63 0 86 42 84 106H49c0 40 14 67 53 68 26 1 43-12 49-29l28 8c-11 28-37 45-77 45C44 4 14-33 15-96c1-61 26-98 85-98zm52 81c6-60-76-77-97-28-3 7-6 17-6 28h103" id="bd"/><g id="v"><use transform="matrix(0.059259259259259255,0,0,0.059259259259259255,0,0)" xlink:href="#aS"/><use transform="matrix(0.059259259259259255,0,0,0.059259259259259255,11.851851851851851,0)" xlink:href="#aT"/><use transform="matrix(0.059259259259259255,0,0,0.059259259259259255,22.51851851851852,0)" xlink:href="#aU"/><use transform="matrix(0.059259259259259255,0,0,0.059259259259259255,34.37037037037037,0)" xlink:href="#aV"/><use transform="matrix(0.059259259259259255,0,0,0.059259259259259255,46.222222222222214,0)" xlink:href="#aW"/><use transform="matrix(0.059259259259259255,0,0,0.059259259259259255,53.274074074074065,0)" xlink:href="#aX"/><use transform="matrix(0.06172839506172839,0,0,0.06172839506172839,59.19999999999999,0)" xlink:href="#aY"/><use transform="matrix(0.05925925925925927,0,0,0.05925925925925927,66.54567901234567,0)" xlink:href="#aZ"/><use transform="matrix(0.05925925925925927,0,0,0.05925925925925927,72.4716049382716,0)" xlink:href="#ba"/><use transform="matrix(0.05925925925925927,0,0,0.05925925925925927,84.32345679012344,0)" xlink:href="#bb"/><use transform="matrix(0.05925925925925927,0,0,0.05925925925925927,96.17530864197529,0)" xlink:href="#bc"/><use transform="matrix(0.05925925925925927,0,0,0.05925925925925927,100.85679012345678,0)" xlink:href="#bd"/></g><use transform="matrix(0.059259259259259255,0,0,0.059259259259259255,0,0)" xlink:href="#S" id="w"/><path fill="#8c6c41" d="M33 0v-248h34V0H33" id="be"/><path fill="#8c6c41" d="M127-220V0H93v-220H8v-28h204v28h-85" id="bf"/><path fill="#8c6c41" d="M141-36C126-15 110 5 73 4 37 3 15-17 15-53c-1-64 63-63 125-63 3-35-9-54-41-54-24 1-41 7-42 31l-33-3c5-37 33-52 76-52 45 0 72 20 72 64v82c-1 20 7 32 28 27v20c-31 9-61-2-59-35zM48-53c0 20 12 33 32 33 41-3 63-29 60-74-43 2-92-5-92 41" id="bg"/><path fill="#8c6c41" d="M115-194c53 0 69 39 70 98 0 66-23 100-70 100C84 3 66-7 56-30L54 0H23l1-261h32v101c10-23 28-34 59-34zm-8 174c40 0 45-34 45-75 0-40-5-75-45-74-42 0-51 32-51 76 0 43 10 73 51 73" id="bh"/><path fill="#8c6c41" d="M24 0v-261h32V0H24" id="bi"/><path fill="#8c6c41" d="M100-194c63 0 86 42 84 106H49c0 40 14 67 53 68 26 1 43-12 49-29l28 8c-11 28-37 45-77 45C44 4 14-33 15-96c1-61 26-98 85-98zm52 81c6-60-76-77-97-28-3 7-6 17-6 28h103" id="bj"/><path fill="#3a414a" d="M68-38c1 34 0 65-14 84H32c9-13 17-26 17-46H33v-38h35" id="bk"/><g id="x"><use transform="matrix(0.05925925925925927,0,0,0.05925925925925927,0,0)" xlink:href="#be"/><use transform="matrix(0.05925925925925927,0,0,0.05925925925925927,5.9259259259259265,0)" xlink:href="#bf"/><use transform="matrix(0.05925925925925927,0,0,0.05925925925925927,16.533333333333335,0)" xlink:href="#bg"/><use transform="matrix(0.05925925925925927,0,0,0.05925925925925927,28.385185185185186,0)" xlink:href="#bh"/><use transform="matrix(0.05925925925925927,0,0,0.05925925925925927,40.23703703703704,0)" xlink:href="#bi"/><use transform="matrix(0.05925925925925927,0,0,0.05925925925925927,44.918518518518525,0)" xlink:href="#bj"/><use transform="matrix(0.06172839506172839,0,0,0.06172839506172839,56.77037037037038,0)" xlink:href="#bk"/></g><path fill="#1b6600" d="M206 0h-36l-40-164L89 0H53L-1-190h32L70-26l43-164h34l41 164 42-164h31" id="bl"/><path fill="#1b6600" d="M114-163C36-179 61-72 57 0H25l-1-190h30c1 12-1 29 2 39 6-27 23-49 58-41v29" id="bm"/><path fill="#1b6600" d="M24-231v-30h32v30H24zM24 0v-190h32V0H24" id="bn"/><g id="y"><use transform="matrix(0.05925925925925927,0,0,0.05925925925925927,0,0)" xlink:href="#bl"/><use transform="matrix(0.05925925925925927,0,0,0.05925925925925927,15.34814814814815,0)" xlink:href="#bm"/><use transform="matrix(0.05925925925925927,0,0,0.05925925925925927,22.400000000000002,0)" xlink:href="#bn"/><use transform="matrix(0.05925925925925927,0,0,0.05925925925925927,27.081481481481482,0)" xlink:href="#aZ"/><use transform="matrix(0.05925925925925927,0,0,0.05925925925925927,33.007407407407406,0)" xlink:href="#bd"/><use transform="matrix(0.05925925925925927,0,0,0.05925925925925927,44.85925925925926,0)" xlink:href="#bm"/></g><path fill="#8c6c41" d="M266 0h-40l-56-210L115 0H75L2-248h35L96-30l15-64 43-154h32l59 218 59-218h35" id="bo"/><path fill="#3a414a" d="M33-261c38 41 65 92 65 168S71 34 33 75H2C39 34 66-17 66-93S39-220 2-261h31" id="bp"/><g id="z"><use transform="matrix(0.05925925925925927,0,0,0.05925925925925927,0,0)" xlink:href="#bo"/><use transform="matrix(0.05925925925925927,0,0,0.05925925925925927,19.674074074074078,0)" xlink:href="#V"/><use transform="matrix(0.05925925925925927,0,0,0.05925925925925927,26.72592592592593,0)" xlink:href="#W"/><use transform="matrix(0.05925925925925927,0,0,0.05925925925925927,31.407407407407412,0)" xlink:href="#U"/><use transform="matrix(0.05925925925925927,0,0,0.05925925925925927,37.333333333333336,0)" xlink:href="#bj"/><use transform="matrix(0.05925925925925927,0,0,0.05925925925925927,49.18518518518519,0)" xlink:href="#V"/><use transform="matrix(0.06172839506172839,0,0,0.06172839506172839,56.23703703703704,0)" xlink:href="#bp"/></g><path fill="#0f54d6" d="M108 0H70L1-190h34L89-25l56-165h34" id="bq"/><path fill="#0f54d6" d="M24-231v-30h32v30H24zM24 0v-190h32V0H24" id="br"/><path fill="#0f54d6" d="M85-194c31 0 48 13 60 33l-1-100h32l1 261h-30c-2-10 0-23-3-31C134-8 116 4 85 4 32 4 16-35 15-94c0-66 23-100 70-100zm9 24c-40 0-46 34-46 75 0 40 6 74 45 74 42 0 51-32 51-76 0-42-9-74-50-73" id="bs"/><g id="A"><use transform="matrix(0.05925925925925927,0,0,0.05925925925925927,0,0)" xlink:href="#bq"/><use transform="matrix(0.05925925925925927,0,0,0.05925925925925927,10.666666666666668,0)" xlink:href="#ak"/><use transform="matrix(0.05925925925925927,0,0,0.05925925925925927,22.51851851851852,0)" xlink:href="#br"/><use transform="matrix(0.05925925925925927,0,0,0.05925925925925927,27.200000000000003,0)" xlink:href="#bs"/></g><path d="M136-208V0H84v-208H4v-40h212v40h-80" id="bt"/><g id="B"><use transform="matrix(0.05,0,0,0.05,0,0)" xlink:href="#bt"/><use transform="matrix(0.05,0,0,0.05,9.600000000000001,0)" xlink:href="#aq"/><use transform="matrix(0.05,0,0,0.05,19.6,0)" xlink:href="#ar"/><use transform="matrix(0.05,0,0,0.05,29.6,0)" xlink:href="#H"/><use transform="matrix(0.05,0,0,0.05,41.6,0)" xlink:href="#I"/><use transform="matrix(0.05,0,0,0.05,51.6,0)" xlink:href="#J"/><use transform="matrix(0.05,0,0,0.05,62.550000000000004,0)" xlink:href="#K"/><use transform="matrix(0.05,0,0,0.05,73.5,0)" xlink:href="#L"/><use transform="matrix(0.05,0,0,0.05,80.5,0)" xlink:href="#E"/><use transform="matrix(0.05,0,0,0.05,86.45,0)" xlink:href="#M"/><use transform="matrix(0.05,0,0,0.05,96.45,0)" xlink:href="#L"/></g><path d="M230 0l2-204L168 0h-37L68-204 70 0H24v-248h70l56 185 57-185h69V0h-46" id="bu"/><path d="M147 0L96-86 75-71V0H25v-261h50v150l67-79h53l-66 74L201 0h-54" id="bv"/><path d="M88-194c31-1 46 15 58 34l-1-101h50l1 261h-48c-2-10 0-23-3-31C134-8 116 4 84 4 32 4 16-41 15-95c0-56 19-97 73-99zm17 164c33 0 40-30 41-66 1-37-9-64-41-64s-38 30-39 65c0 43 13 65 39 65" id="bw"/><path d="M231 0h-52l-39-155L100 0H48L-1-190h46L77-45c9-52 24-97 36-145h53l37 145 32-145h46" id="bx"/><path d="M135-194c87-1 58 113 63 194h-50c-7-57 23-157-34-157-59 0-34 97-39 157H25l-1-190h47c2 12-1 28 3 38 12-26 28-41 61-42" id="by"/><g id="C"><use transform="matrix(0.05,0,0,0.05,0,0)" xlink:href="#bu"/><use transform="matrix(0.05,0,0,0.05,14.950000000000001,0)" xlink:href="#au"/><use transform="matrix(0.05,0,0,0.05,24.950000000000003,0)" xlink:href="#L"/><use transform="matrix(0.05,0,0,0.05,31.950000000000003,0)" xlink:href="#bv"/><use transform="matrix(0.05,0,0,0.05,41.95,0)" xlink:href="#bw"/><use transform="matrix(0.05,0,0,0.05,52.900000000000006,0)" xlink:href="#K"/><use transform="matrix(0.05,0,0,0.05,63.85,0)" xlink:href="#bx"/><use transform="matrix(0.05,0,0,0.05,77.85000000000001,0)" xlink:href="#by"/><use transform="matrix(0.05,0,0,0.05,88.80000000000001,0)" xlink:href="#H"/><use transform="matrix(0.05,0,0,0.05,100.80000000000001,0)" xlink:href="#I"/><use transform="matrix(0.05,0,0,0.05,110.80000000000001,0)" xlink:href="#J"/><use transform="matrix(0.05,0,0,0.05,121.75,0)" xlink:href="#K"/><use transform="matrix(0.05,0,0,0.05,132.70000000000002,0)" xlink:href="#L"/><use transform="matrix(0.05,0,0,0.05,139.70000000000002,0)" xlink:href="#E"/><use transform="matrix(0.05,0,0,0.05,145.65,0)" xlink:href="#M"/><use transform="matrix(0.05,0,0,0.05,155.65,0)" xlink:href="#L"/></g></defs></g></svg>