<svg xmlns="http://www.w3.org/2000/svg" xmlns:xlink="http://www.w3.org/1999/xlink" xmlns:lucid="lucid" width="2180.5" height="481"><g transform="translate(-240 -79.49999999788307)" lucid:page-tab-id="hbAVoGG5U~6y"><path d="M0 0h2500v1000H0z" fill="#fff"/><path d="M342.55 216.56h-93.8c-4.07 0-7.44 3.1-7.44 7.03v192.78c0 3.93 3.38 7.03 7.46 7.03h162.58c4.08 0 7.27-3.1 7.27-7.02V288.75c0-3.93-3.18-7.03-7.26-7.03h-54.07c-4.08 0-7.27-3.1-7.27-7.03v-51.1-.2c0-3.74-3.37-6.84-7.45-6.84z" stroke="#000" stroke-opacity="0" fill="#fff"/><path d="M339.18 225.5V274c0 9.88 8.28 17.65 18.54 17.86h51.12V414.5H251.16v-189h88.02m3.42-10.5h-95.04c-4.14 0-7.56 3.15-7.56 7.14v195.72c0 4 3.42 7.14 7.56 7.14h164.88c4.14 0 7.56-3.15 7.56-7.14V288.3c0-4-3.42-7.15-7.56-7.15h-54.72c-4.14 0-7.56-3.15-7.56-7.14v-51.86c0-4-3.24-7.14-7.56-7.14z" stroke="#000" stroke-opacity="0" fill="url(#a)"/><path d="M417.12 282.5l-69.48-65.94v53.74c-.07 6.73 5.63 12.14 12.65 12.2z" stroke="#000" stroke-opacity="0" fill="#0078d4"/><path d="M276.14 310.55h107.72c4.9 0 7.34 2.35 7.34 7.04v1.55c0 4.7-2.45 7.05-7.34 7.05H276.14c-4.9 0-7.34-2.35-7.34-7.05v-1.56c0-4.7 2.45-7.05 7.34-7.05zM276.14 338.7h107.72c4.9 0 7.34 2.34 7.34 7.03v1.56c0 4.7-2.45 7.03-7.34 7.03H276.14c-4.9 0-7.34-2.34-7.34-7.03v-1.57c0-4.7 2.45-7.04 7.34-7.04zM276.2 366.62h62.4c4.95 0 7.42 2.35 7.42 7.04v1.56c0 4.7-2.47 7.04-7.4 7.04h-62.4c-4.95 0-7.42-2.34-7.42-7.03v-1.57c0-4.7 2.47-7.04 7.4-7.04z" stroke="#000" stroke-opacity="0" fill="#5ea0ef"/><use xlink:href="#b" transform="matrix(1,0,0,1,210,434) translate(49.675 14.4)"/><use xlink:href="#c" transform="matrix(1,0,0,1,210,434) translate(161.47500000000002 14.4)"/><path d="M640 86a6 6 0 0 1 6-6h928a6 6 0 0 1 6 6v468a6 6 0 0 1-6 6H646a6 6 0 0 1-6-6z" stroke="#3a414a" fill="#e3fae3"/><use xlink:href="#d" transform="matrix(1,0,0,1,652,92) translate(0 24.888888888888886)"/><path d="M1840 126a6 6 0 0 1 6-6h568a6 6 0 0 1 6 6v388a6 6 0 0 1-6 6h-568a6 6 0 0 1-6-6z" stroke="#3a414a" fill="#e3fae3"/><use xlink:href="#e" transform="matrix(1,0,0,1,1852,132) translate(0 24.888888888888886)"/><path d="M760 231a6 6 0 0 1 6-6h228a6 6 0 0 1 6 6v178a6 6 0 0 1-6 6H766a6 6 0 0 1-6-6z" stroke="#fe7070" fill="#fff"/><use xlink:href="#f" transform="matrix(1,0,0,1,772,237) translate(17.96913580246914 74.84027777777777)"/><use xlink:href="#g" transform="matrix(1,0,0,1,772,237) translate(83.3395061728395 74.84027777777777)"/><use xlink:href="#h" transform="matrix(1,0,0,1,772,237) translate(128.89506172839506 74.84027777777777)"/><use xlink:href="#i" transform="matrix(1,0,0,1,772,237) translate(75.34567901234567 101.50694444444446)"/><path d="M1240 231a6 6 0 0 1 6-6h228a6 6 0 0 1 6 6v178a6 6 0 0 1-6 6h-228a6 6 0 0 1-6-6z" stroke="#fe7070" fill="#fff"/><use xlink:href="#j" transform="matrix(1,0,0,1,1252,237) translate(9.975308641975317 85.21527777777777)"/><use xlink:href="#k" transform="matrix(1,0,0,1,1252,237) translate(114.79012345679013 85.21527777777777)"/><path d="M420.5 320H639" stroke="#3a414a" fill="none"/><path d="M420.5 320.5h-.5v-1h.5zM639.5 320.5h-.5v-1h.5z" stroke="#3a414a" stroke-width=".05" fill="#3a414a"/><path d="M639 320h-39.5 143.62" stroke="#3a414a" fill="none"/><path d="M639.5 320.5h-.5v-1h.5z" stroke="#3a414a" stroke-width=".05" fill="#3a414a"/><path d="M757.88 320l-14.26 4.63v-9.26z" stroke="#3a414a" fill="#3a414a"/><path d="M1044.27 320.5H1001v-1h43.34zm178.85 0h-54.25l.04-.5-.03-.5h54.25z" stroke="#1071e5" stroke-width=".05" fill="#1071e5"/><path d="M1001 320.5h-.5v-1h.5z" fill="#1071e5"/><path d="M1001.04 320.52h-.56v-1.04h.56zm-.5-1v.96h.45v-.96z" stroke="#1071e5" stroke-width=".05" fill="#1071e5"/><path d="M1237.88 320l-14.26 4.63v-9.26z" fill="#1071e5"/><path d="M1239.5 320l-16.38 5.32v-10.64zm-15.38 3.95l12.14-3.95-12.14-3.95z" stroke="#1071e5" stroke-width=".05" fill="#1071e5"/><path d="M1044.8 320a14.67 14.67 0 0 1 14.67-14.67h94.27A14.67 14.67 0 0 1 1168.4 320a14.67 14.67 0 0 1-14.66 14.67h-94.27A14.67 14.67 0 0 1 1044.8 320z" stroke="#1071e5" fill-opacity="0"/><use xlink:href="#l" transform="matrix(1,0,0,1,1056.8064239699395,309.3333333333333) translate(0 14.222222222222223)"/><use xlink:href="#m" transform="matrix(1,0,0,1,1056.8064239699395,309.3333333333333) translate(63.11111111111112 14.222222222222223)"/><path d="M1626.73 242.8h-70.7l-.9.06-.83.2-.8.34-.73.45-.66.56-.55.66-.45.74-.33.8-.2.84-.07.88V314l-.08 1-.24 1-.4.93-.52.87-.66.78-.78.66-.87.53-.94.38-.98.24-1 .08H1481v-1h62.98l.88-.07.84-.2.8-.33.73-.45.66-.56.55-.67.45-.73.33-.8.2-.84.07-.88v-65.7l.08-1 .24-1 .4-.94.52-.87.66-.77.78-.66.87-.54.94-.4.98-.23 1-.08h70.83zm196.4 0h-71.8l.05-.5-.04-.5h71.78z" stroke="#1071e5" stroke-width=".05" fill="#1071e5"/><path d="M1481 320.5h-.5v-1h.5z" fill="#1071e5"/><path d="M1481.04 320.52h-.57v-1.04h.57zm-.5-1v.96h.45v-.96z" stroke="#1071e5" stroke-width=".05" fill="#1071e5"/><path d="M1837.88 242.3l-14.26 4.63v-9.27z" fill="#1071e5"/><path d="M1839.5 242.3l-16.38 5.32v-10.65zm-15.38 3.94l12.14-3.95-12.14-3.95z" stroke="#1071e5" stroke-width=".05" fill="#1071e5"/><path d="M1627.27 242.3a14.67 14.67 0 0 1 14.67-14.67h94.27a14.67 14.67 0 0 1 14.68 14.66 14.67 14.67 0 0 1-14.67 14.66h-94.26a14.67 14.67 0 0 1-14.67-14.66z" stroke="#1071e5" fill-opacity="0"/><use xlink:href="#l" transform="matrix(1,0,0,1,1639.2732301289834,231.62832945294986) translate(0 14.222222222222223)"/><use xlink:href="#m" transform="matrix(1,0,0,1,1639.2732301289834,231.62832945294986) translate(63.11111111111112 14.222222222222223)"/><path d="M1545.02 319.58l1 .24.93.4.87.52.78.66.66.78.53.87.38.94.24.98.08 1v67.42l.07.88.2.84.33.8.45.73.56.66.67.57.73.45.8.33.84.2.88.07h64.54l-.08 1h-64.5l-1-.08-1-.23-.93-.4-.87-.52-.78-.66-.66-.78-.53-.87-.38-.94-.24-1-.08-1v-67.4l-.07-.9-.2-.83-.33-.8-.45-.73-.56-.66-.67-.55-.73-.45-.8-.33-.84-.2-.88-.07H1481v-1h63.02zm278.1 79.34v1h-63.6l.03-.5-.04-.5z" stroke="#1071e5" stroke-width=".05" fill="#1071e5"/><path d="M1481 320.5h-.5v-1h.5z" fill="#1071e5"/><path d="M1481.04 320.52h-.57v-1.04h.57zm-.5-1v.96h.45v-.96z" stroke="#1071e5" stroke-width=".05" fill="#1071e5"/><path d="M1837.88 399.42l-14.26 4.64v-9.27z" fill="#1071e5"/><path d="M1839.5 399.42l-16.38 5.32V394.1zm-15.38 3.95l12.14-3.95-12.14-3.94z" stroke="#1071e5" stroke-width=".05" fill="#1071e5"/><path d="M1621.02 399.42a14.67 14.67 0 0 1 14.67-14.67h108.68a14.67 14.67 0 0 1 14.67 14.67 14.67 14.67 0 0 1-14.67 14.67h-108.7a14.67 14.67 0 0 1-14.66-14.68z" stroke="#1071e5" fill-opacity="0"/><g><use xlink:href="#n" transform="matrix(1,0,0,1,1633.0214294007103,388.7551933537961) translate(0 14.222222222222223)"/><use xlink:href="#o" transform="matrix(1,0,0,1,1633.0214294007103,388.7551933537961) translate(69.03703703703704 14.222222222222223)"/></g><path d="M2010 231a6 6 0 0 1 6-6h228a6 6 0 0 1 6 6v178a6 6 0 0 1-6 6h-228a6 6 0 0 1-6-6z" stroke="#fe7070" fill="#fff"/><g><use xlink:href="#p" transform="matrix(1,0,0,1,2022,237) translate(54.41975308641975 74.84027777777777)"/><use xlink:href="#q" transform="matrix(1,0,0,1,2022,237) translate(52.56790123456789 101.50694444444446)"/></g><defs><linearGradient gradientUnits="userSpaceOnUse" id="a" x1="330" y1="425" x2="330" y2="215"><stop offset="0%" stop-color="#0078d4"/><stop offset="81.7%" stop-color="#5ea0ef"/></linearGradient><path d="M212-179c-10-28-35-45-73-45-59 0-87 40-87 99 0 60 29 101 89 101 43 0 62-24 78-52l27 14C228-24 195 4 139 4 59 4 22-46 18-125c-6-104 99-153 187-111 19 9 31 26 39 46" id="r"/><path d="M100-194c62-1 85 37 85 99 1 63-27 99-86 99S16-35 15-95c0-66 28-99 85-99zM99-20c44 1 53-31 53-75 0-43-8-75-51-75s-53 32-53 75 10 74 51 75" id="s"/><path d="M117-194c89-4 53 116 60 194h-32v-121c0-31-8-49-39-48C34-167 62-67 57 0H25l-1-190h30c1 10-1 24 2 32 11-22 29-35 61-36" id="t"/><path d="M101-234c-31-9-42 10-38 44h38v23H63V0H32v-167H5v-23h27c-7-52 17-82 69-68v24" id="u"/><path d="M24-231v-30h32v30H24zM24 0v-190h32V0H24" id="v"/><path d="M177-190C167-65 218 103 67 71c-23-6-38-20-44-43l32-5c15 47 100 32 89-28v-30C133-14 115 1 83 1 29 1 15-40 15-95c0-56 16-97 71-98 29-1 48 16 59 35 1-10 0-23 2-32h30zM94-22c36 0 50-32 50-73 0-42-14-75-50-75-39 0-46 34-46 75s6 73 46 73" id="w"/><path d="M84 4C-5 8 30-112 23-190h32v120c0 31 7 50 39 49 72-2 45-101 50-169h31l1 190h-30c-1-10 1-25-2-33-11 22-28 36-60 37" id="x"/><path d="M114-163C36-179 61-72 57 0H25l-1-190h30c1 12-1 29 2 39 6-27 23-49 58-41v29" id="y"/><path d="M141-36C126-15 110 5 73 4 37 3 15-17 15-53c-1-64 63-63 125-63 3-35-9-54-41-54-24 1-41 7-42 31l-33-3c5-37 33-52 76-52 45 0 72 20 72 64v82c-1 20 7 32 28 27v20c-31 9-61-2-59-35zM48-53c0 20 12 33 32 33 41-3 63-29 60-74-43 2-92-5-92 41" id="z"/><path d="M59-47c-2 24 18 29 38 22v24C64 9 27 4 27-40v-127H5v-23h24l9-43h21v43h35v23H59v120" id="A"/><g id="b"><use transform="matrix(0.05,0,0,0.05,0,0)" xlink:href="#r"/><use transform="matrix(0.05,0,0,0.05,12.950000000000001,0)" xlink:href="#s"/><use transform="matrix(0.05,0,0,0.05,22.950000000000003,0)" xlink:href="#t"/><use transform="matrix(0.05,0,0,0.05,32.95,0)" xlink:href="#u"/><use transform="matrix(0.05,0,0,0.05,37.95,0)" xlink:href="#v"/><use transform="matrix(0.05,0,0,0.05,41.900000000000006,0)" xlink:href="#w"/><use transform="matrix(0.05,0,0,0.05,51.900000000000006,0)" xlink:href="#x"/><use transform="matrix(0.05,0,0,0.05,61.900000000000006,0)" xlink:href="#y"/><use transform="matrix(0.05,0,0,0.05,67.85000000000001,0)" xlink:href="#z"/><use transform="matrix(0.05,0,0,0.05,77.85000000000001,0)" xlink:href="#A"/><use transform="matrix(0.05,0,0,0.05,82.85000000000001,0)" xlink:href="#v"/><use transform="matrix(0.05,0,0,0.05,86.80000000000001,0)" xlink:href="#s"/><use transform="matrix(0.05,0,0,0.05,96.80000000000001,0)" xlink:href="#t"/></g><path d="M63-220v92h138v28H63V0H30v-248h175v28H63" id="B"/><path d="M24 0v-261h32V0H24" id="C"/><path d="M100-194c63 0 86 42 84 106H49c0 40 14 67 53 68 26 1 43-12 49-29l28 8c-11 28-37 45-77 45C44 4 14-33 15-96c1-61 26-98 85-98zm52 81c6-60-76-77-97-28-3 7-6 17-6 28h103" id="D"/><g id="c"><use transform="matrix(0.05,0,0,0.05,0,0)" xlink:href="#B"/><use transform="matrix(0.05,0,0,0.05,10.950000000000001,0)" xlink:href="#v"/><use transform="matrix(0.05,0,0,0.05,14.9,0)" xlink:href="#C"/><use transform="matrix(0.05,0,0,0.05,18.85,0)" xlink:href="#D"/></g><path fill="#3a414a" d="M76-208v77h127v40H76V0H24v-248h183v40H76" id="E"/><path fill="#3a414a" d="M135-150c-39-12-60 13-60 57V0H25l-1-190h47c2 13-1 29 3 40 6-28 27-53 61-41v41" id="F"/><path fill="#3a414a" d="M110-194c64 0 96 36 96 99 0 64-35 99-97 99-61 0-95-36-95-99 0-62 34-99 96-99zm-1 164c35 0 45-28 45-65 0-40-10-65-43-65-34 0-45 26-45 65 0 36 10 65 43 65" id="G"/><path fill="#3a414a" d="M135-194c87-1 58 113 63 194h-50c-7-57 23-157-34-157-59 0-34 97-39 157H25l-1-190h47c2 12-1 28 3 38 12-26 28-41 61-42" id="H"/><path fill="#3a414a" d="M115-3C79 11 28 4 28-45v-112H4v-33h27l15-45h31v45h36v33H77v99c-1 23 16 31 38 25v30" id="I"/><path fill="#3a414a" d="M185-48c-13 30-37 53-82 52C43 2 14-33 14-96s30-98 90-98c62 0 83 45 84 108H66c0 31 8 55 39 56 18 0 30-7 34-22zm-45-69c5-46-57-63-70-21-2 6-4 13-4 21h74" id="J"/><path fill="#3a414a" d="M88-194c31-1 46 15 58 34l-1-101h50l1 261h-48c-2-10 0-23-3-31C134-8 116 4 84 4 32 4 16-41 15-95c0-56 19-97 73-99zm17 164c33 0 40-30 41-66 1-37-9-64-41-64s-38 30-39 65c0 43 13 65 39 65" id="K"/><g id="d"><use transform="matrix(0.08641975308641973,0,0,0.08641975308641973,0,0)" xlink:href="#E"/><use transform="matrix(0.08641975308641973,0,0,0.08641975308641973,18.92592592592592,0)" xlink:href="#F"/><use transform="matrix(0.08641975308641973,0,0,0.08641975308641973,31.024691358024686,0)" xlink:href="#G"/><use transform="matrix(0.08641975308641973,0,0,0.08641975308641973,49.950617283950606,0)" xlink:href="#H"/><use transform="matrix(0.08641975308641973,0,0,0.08641975308641973,68.87654320987653,0)" xlink:href="#I"/><use transform="matrix(0.08641975308641973,0,0,0.08641975308641973,79.16049382716048,0)" xlink:href="#J"/><use transform="matrix(0.08641975308641973,0,0,0.08641975308641973,96.44444444444443,0)" xlink:href="#H"/><use transform="matrix(0.08641975308641973,0,0,0.08641975308641973,115.37037037037035,0)" xlink:href="#K"/></g><path fill="#3a414a" d="M240-174c0 40-23 61-54 70L253 0h-59l-57-94H76V0H24v-248c93 4 217-23 216 74zM76-134c48-2 112 12 112-38 0-48-66-32-112-35v73" id="L"/><path fill="#3a414a" d="M85 4C-2 5 27-109 22-190h50c7 57-23 150 33 157 60-5 35-97 40-157h50l1 190h-47c-2-12 1-28-3-38-12 25-28 42-61 42" id="M"/><path fill="#3a414a" d="M25-224v-37h50v37H25zM25 0v-190h50V0H25" id="N"/><path fill="#3a414a" d="M220-157c-53 9-28 100-34 157h-49v-107c1-27-5-49-29-50C55-147 81-57 75 0H25l-1-190h47c2 12-1 28 3 38 10-53 101-56 108 0 13-22 24-43 59-42 82 1 51 116 57 194h-49v-107c-1-25-5-48-29-50" id="O"/><g id="e"><use transform="matrix(0.08641975308641973,0,0,0.08641975308641973,0,0)" xlink:href="#L"/><use transform="matrix(0.08641975308641973,0,0,0.08641975308641973,22.38271604938271,0)" xlink:href="#M"/><use transform="matrix(0.08641975308641973,0,0,0.08641975308641973,41.30864197530863,0)" xlink:href="#H"/><use transform="matrix(0.08641975308641973,0,0,0.08641975308641973,60.234567901234556,0)" xlink:href="#I"/><use transform="matrix(0.08641975308641973,0,0,0.08641975308641973,70.5185185185185,0)" xlink:href="#N"/><use transform="matrix(0.08641975308641973,0,0,0.08641975308641973,79.16049382716048,0)" xlink:href="#O"/><use transform="matrix(0.08641975308641973,0,0,0.08641975308641973,106.8148148148148,0)" xlink:href="#J"/></g><path fill="#3a414a" d="M24 0v-248h52v208h133V0H24" id="P"/><path fill="#3a414a" d="M144 0l-44-69L55 0H2l70-98-66-92h53l41 62 40-62h54l-67 91 71 99h-54" id="Q"/><g id="f"><use transform="matrix(0.06172839506172839,0,0,0.06172839506172839,0,0)" xlink:href="#P"/><use transform="matrix(0.06172839506172839,0,0,0.06172839506172839,13.518518518518517,0)" xlink:href="#J"/><use transform="matrix(0.06172839506172839,0,0,0.06172839506172839,25.864197530864196,0)" xlink:href="#Q"/><use transform="matrix(0.06172839506172839,0,0,0.06172839506172839,38.20987654320987,0)" xlink:href="#J"/><use transform="matrix(0.06172839506172839,0,0,0.06172839506172839,50.55555555555555,0)" xlink:href="#F"/></g><path fill="#3a414a" d="M133-34C117-15 103 5 69 4 32 3 11-16 11-54c-1-60 55-63 116-61 1-26-3-47-28-47-18 1-26 9-28 27l-52-2c7-38 36-58 82-57s74 22 75 68l1 82c-1 14 12 18 25 15v27c-30 8-71 5-69-32zm-48 3c29 0 43-24 42-57-32 0-66-3-65 30 0 17 8 27 23 27" id="R"/><g id="g"><use transform="matrix(0.06172839506172839,0,0,0.06172839506172839,0,0)" xlink:href="#R"/><use transform="matrix(0.06172839506172839,0,0,0.06172839506172839,12.345679012345679,0)" xlink:href="#H"/><use transform="matrix(0.06172839506172839,0,0,0.06172839506172839,25.864197530864196,0)" xlink:href="#K"/></g><path fill="#3a414a" d="M24-248c93 1 206-16 204 79-1 75-69 88-152 82V0H24v-248zm52 121c47 0 100 7 100-41 0-47-54-39-100-39v80" id="S"/><path fill="#3a414a" d="M137-138c1-29-70-34-71-4 15 46 118 7 119 86 1 83-164 76-172 9l43-7c4 19 20 25 44 25 33 8 57-30 24-41C81-84 22-81 20-136c-2-80 154-74 161-7" id="T"/><g id="h"><use transform="matrix(0.06172839506172839,0,0,0.06172839506172839,0,0)" xlink:href="#S"/><use transform="matrix(0.06172839506172839,0,0,0.06172839506172839,14.814814814814813,0)" xlink:href="#R"/><use transform="matrix(0.06172839506172839,0,0,0.06172839506172839,27.160493827160494,0)" xlink:href="#F"/><use transform="matrix(0.06172839506172839,0,0,0.06172839506172839,35.80246913580247,0)" xlink:href="#T"/><use transform="matrix(0.06172839506172839,0,0,0.06172839506172839,48.148148148148145,0)" xlink:href="#J"/><use transform="matrix(0.06172839506172839,0,0,0.06172839506172839,60.49382716049382,0)" xlink:href="#F"/></g><path fill="#3a414a" d="M87 75C49 33 22-17 22-94c0-76 28-126 65-167h31c-38 41-64 92-64 168S80 34 118 75H87" id="U"/><path fill="#3a414a" d="M195 0l-74-108L45 0H8l94-129-87-119h37l69 98 67-98h37l-84 118L233 0h-38" id="V"/><path fill="#3a414a" d="M59-47c-2 24 18 29 38 22v24C64 9 27 4 27-40v-127H5v-23h24l9-43h21v43h35v23H59v120" id="W"/><path fill="#3a414a" d="M100-194c63 0 86 42 84 106H49c0 40 14 67 53 68 26 1 43-12 49-29l28 8c-11 28-37 45-77 45C44 4 14-33 15-96c1-61 26-98 85-98zm52 81c6-60-76-77-97-28-3 7-6 17-6 28h103" id="X"/><path fill="#3a414a" d="M141 0L90-78 38 0H4l68-98-65-92h35l48 74 47-74h35l-64 92 68 98h-35" id="Y"/><path fill="#3a414a" d="M33-261c38 41 65 92 65 168S71 34 33 75H2C39 34 66-17 66-93S39-220 2-261h31" id="Z"/><g id="i"><use transform="matrix(0.06172839506172839,0,0,0.06172839506172839,0,0)" xlink:href="#U"/><use transform="matrix(0.06172839506172839,0,0,0.06172839506172839,7.345679012345679,0)" xlink:href="#V"/><use transform="matrix(0.06172839506172839,0,0,0.06172839506172839,22.160493827160494,0)" xlink:href="#W"/><use transform="matrix(0.06172839506172839,0,0,0.06172839506172839,28.333333333333332,0)" xlink:href="#X"/><use transform="matrix(0.06172839506172839,0,0,0.06172839506172839,40.67901234567901,0)" xlink:href="#Y"/><use transform="matrix(0.06172839506172839,0,0,0.06172839506172839,51.79012345679013,0)" xlink:href="#W"/><use transform="matrix(0.06172839506172839,0,0,0.06172839506172839,57.96296296296297,0)" xlink:href="#Z"/></g><path fill="#3a414a" d="M169-182c-1-43-94-46-97-3 18 66 151 10 154 114 3 95-165 93-204 36-6-8-10-19-12-30l50-8c3 46 112 56 116 5-17-69-150-10-154-114-4-87 153-88 188-35 5 8 8 18 10 28" id="aa"/><path fill="#3a414a" d="M190-63c-7 42-38 67-86 67-59 0-84-38-90-98-12-110 154-137 174-36l-49 2c-2-19-15-32-35-32-30 0-35 28-38 64-6 74 65 87 74 30" id="ab"/><g id="j"><use transform="matrix(0.06172839506172839,0,0,0.06172839506172839,0,0)" xlink:href="#aa"/><use transform="matrix(0.06172839506172839,0,0,0.06172839506172839,14.814814814814813,0)" xlink:href="#J"/><use transform="matrix(0.06172839506172839,0,0,0.06172839506172839,27.160493827160494,0)" xlink:href="#O"/><use transform="matrix(0.06172839506172839,0,0,0.06172839506172839,46.91358024691358,0)" xlink:href="#R"/><use transform="matrix(0.06172839506172839,0,0,0.06172839506172839,59.25925925925926,0)" xlink:href="#H"/><use transform="matrix(0.06172839506172839,0,0,0.06172839506172839,72.77777777777777,0)" xlink:href="#I"/><use transform="matrix(0.06172839506172839,0,0,0.06172839506172839,80.12345679012346,0)" xlink:href="#N"/><use transform="matrix(0.06172839506172839,0,0,0.06172839506172839,86.29629629629629,0)" xlink:href="#ab"/></g><path fill="#3a414a" d="M199 0l-22-63H83L61 0H9l90-248h61L250 0h-51zm-33-102l-36-108c-10 38-24 72-36 108h72" id="ac"/><path fill="#3a414a" d="M25 0v-261h50V0H25" id="ad"/><path fill="#3a414a" d="M123 10C108 53 80 86 19 72V37c35 8 53-11 59-39L3-190h52l48 148c12-52 28-100 44-148h51" id="ae"/><g id="k"><use transform="matrix(0.06172839506172839,0,0,0.06172839506172839,0,0)" xlink:href="#ac"/><use transform="matrix(0.06172839506172839,0,0,0.06172839506172839,15.987654320987653,0)" xlink:href="#H"/><use transform="matrix(0.06172839506172839,0,0,0.06172839506172839,29.50617283950617,0)" xlink:href="#R"/><use transform="matrix(0.06172839506172839,0,0,0.06172839506172839,41.85185185185185,0)" xlink:href="#ad"/><use transform="matrix(0.06172839506172839,0,0,0.06172839506172839,48.02469135802469,0)" xlink:href="#ae"/><use transform="matrix(0.06172839506172839,0,0,0.06172839506172839,60.37037037037037,0)" xlink:href="#T"/><use transform="matrix(0.06172839506172839,0,0,0.06172839506172839,72.71604938271605,0)" xlink:href="#N"/><use transform="matrix(0.06172839506172839,0,0,0.06172839506172839,78.88888888888889,0)" xlink:href="#T"/></g><path fill="#1071e5" d="M169-182c-1-43-94-46-97-3 18 66 151 10 154 114 3 95-165 93-204 36-6-8-10-19-12-30l50-8c3 46 112 56 116 5-17-69-150-10-154-114-4-87 153-88 188-35 5 8 8 18 10 28" id="af"/><path fill="#1071e5" d="M123 10C108 53 80 86 19 72V37c35 8 53-11 59-39L3-190h52l48 148c12-52 28-100 44-148h51" id="ag"/><path fill="#1071e5" d="M135-194c87-1 58 113 63 194h-50c-7-57 23-157-34-157-59 0-34 97-39 157H25l-1-190h47c2 12-1 28 3 38 12-26 28-41 61-42" id="ah"/><path fill="#1071e5" d="M115-3C79 11 28 4 28-45v-112H4v-33h27l15-45h31v45h36v33H77v99c-1 23 16 31 38 25v30" id="ai"/><path fill="#1071e5" d="M133-34C117-15 103 5 69 4 32 3 11-16 11-54c-1-60 55-63 116-61 1-26-3-47-28-47-18 1-26 9-28 27l-52-2c7-38 36-58 82-57s74 22 75 68l1 82c-1 14 12 18 25 15v27c-30 8-71 5-69-32zm-48 3c29 0 43-24 42-57-32 0-66-3-65 30 0 17 8 27 23 27" id="aj"/><path fill="#1071e5" d="M144 0l-44-69L55 0H2l70-98-66-92h53l41 62 40-62h54l-67 91 71 99h-54" id="ak"/><g id="l"><use transform="matrix(0.04938271604938272,0,0,0.04938271604938272,0,0)" xlink:href="#af"/><use transform="matrix(0.04938271604938272,0,0,0.04938271604938272,11.851851851851853,0)" xlink:href="#ag"/><use transform="matrix(0.04938271604938272,0,0,0.04938271604938272,21.7283950617284,0)" xlink:href="#ah"/><use transform="matrix(0.04938271604938272,0,0,0.04938271604938272,32.543209876543216,0)" xlink:href="#ai"/><use transform="matrix(0.04938271604938272,0,0,0.04938271604938272,38.41975308641976,0)" xlink:href="#aj"/><use transform="matrix(0.04938271604938272,0,0,0.04938271604938272,48.296296296296305,0)" xlink:href="#ak"/></g><path fill="#1071e5" d="M136-208V0H84v-208H4v-40h212v40h-80" id="al"/><path fill="#1071e5" d="M135-150c-39-12-60 13-60 57V0H25l-1-190h47c2 13-1 29 3 40 6-28 27-53 61-41v41" id="am"/><path fill="#1071e5" d="M185-48c-13 30-37 53-82 52C43 2 14-33 14-96s30-98 90-98c62 0 83 45 84 108H66c0 31 8 55 39 56 18 0 30-7 34-22zm-45-69c5-46-57-63-70-21-2 6-4 13-4 21h74" id="an"/><g id="m"><use transform="matrix(0.04938271604938272,0,0,0.04938271604938272,0,0)" xlink:href="#al"/><use transform="matrix(0.04938271604938272,0,0,0.04938271604938272,9.82716049382716,0)" xlink:href="#am"/><use transform="matrix(0.04938271604938272,0,0,0.04938271604938272,16.74074074074074,0)" xlink:href="#an"/><use transform="matrix(0.04938271604938272,0,0,0.04938271604938272,26.617283950617285,0)" xlink:href="#an"/></g><path fill="#1071e5" d="M220-157c-53 9-28 100-34 157h-49v-107c1-27-5-49-29-50C55-147 81-57 75 0H25l-1-190h47c2 12-1 28 3 38 10-53 101-56 108 0 13-22 24-43 59-42 82 1 51 116 57 194h-49v-107c-1-25-5-48-29-50" id="ao"/><path fill="#1071e5" d="M135-194c52 0 70 43 70 98 0 56-19 99-73 100-30 1-46-15-58-35L72 0H24l1-261h50v104c11-23 29-37 60-37zM114-30c31 0 40-27 40-66 0-37-7-63-39-63s-41 28-41 65c0 36 8 64 40 64" id="ap"/><path fill="#1071e5" d="M110-194c64 0 96 36 96 99 0 64-35 99-97 99-61 0-95-36-95-99 0-62 34-99 96-99zm-1 164c35 0 45-28 45-65 0-40-10-65-43-65-34 0-45 26-45 65 0 36 10 65 43 65" id="aq"/><path fill="#1071e5" d="M25 0v-261h50V0H25" id="ar"/><g id="n"><use transform="matrix(0.04938271604938272,0,0,0.04938271604938272,0,0)" xlink:href="#af"/><use transform="matrix(0.04938271604938272,0,0,0.04938271604938272,11.851851851851853,0)" xlink:href="#ag"/><use transform="matrix(0.04938271604938272,0,0,0.04938271604938272,21.7283950617284,0)" xlink:href="#ao"/><use transform="matrix(0.04938271604938272,0,0,0.04938271604938272,37.53086419753087,0)" xlink:href="#ap"/><use transform="matrix(0.04938271604938272,0,0,0.04938271604938272,48.345679012345684,0)" xlink:href="#aq"/><use transform="matrix(0.04938271604938272,0,0,0.04938271604938272,59.1604938271605,0)" xlink:href="#ar"/></g><g id="o"><use transform="matrix(0.04938271604938272,0,0,0.04938271604938272,0,0)" xlink:href="#al"/><use transform="matrix(0.04938271604938272,0,0,0.04938271604938272,9.481481481481481,0)" xlink:href="#aj"/><use transform="matrix(0.04938271604938272,0,0,0.04938271604938272,19.358024691358025,0)" xlink:href="#ap"/><use transform="matrix(0.04938271604938272,0,0,0.04938271604938272,30.172839506172842,0)" xlink:href="#ar"/><use transform="matrix(0.04938271604938272,0,0,0.04938271604938272,35.111111111111114,0)" xlink:href="#an"/></g><g id="p"><use transform="matrix(0.06172839506172839,0,0,0.06172839506172839,0,0)" xlink:href="#aa"/><use transform="matrix(0.06172839506172839,0,0,0.06172839506172839,14.814814814814813,0)" xlink:href="#I"/><use transform="matrix(0.06172839506172839,0,0,0.06172839506172839,22.160493827160494,0)" xlink:href="#R"/><use transform="matrix(0.06172839506172839,0,0,0.06172839506172839,34.50617283950617,0)" xlink:href="#I"/><use transform="matrix(0.06172839506172839,0,0,0.06172839506172839,41.85185185185185,0)" xlink:href="#J"/><use transform="matrix(0.06172839506172839,0,0,0.06172839506172839,54.197530864197525,0)" xlink:href="#O"/><use transform="matrix(0.06172839506172839,0,0,0.06172839506172839,73.9506172839506,0)" xlink:href="#J"/><use transform="matrix(0.06172839506172839,0,0,0.06172839506172839,86.29629629629629,0)" xlink:href="#H"/><use transform="matrix(0.06172839506172839,0,0,0.06172839506172839,99.81481481481481,0)" xlink:href="#I"/></g><path fill="#3a414a" d="M24 0v-248h52V0H24" id="as"/><path fill="#3a414a" d="M135-194c53 0 70 44 70 98 0 56-19 98-73 100-31 1-45-17-59-34 3 33 2 69 2 105H25l-1-265h48c2 10 0 23 3 31 11-24 29-35 60-35zM114-30c33 0 39-31 40-66 0-38-9-64-40-64-56 0-55 130 0 130" id="at"/><g id="q"><use transform="matrix(0.06172839506172839,0,0,0.06172839506172839,0,0)" xlink:href="#as"/><use transform="matrix(0.06172839506172839,0,0,0.06172839506172839,6.172839506172839,0)" xlink:href="#H"/><use transform="matrix(0.06172839506172839,0,0,0.06172839506172839,19.691358024691358,0)" xlink:href="#I"/><use transform="matrix(0.06172839506172839,0,0,0.06172839506172839,27.037037037037038,0)" xlink:href="#J"/><use transform="matrix(0.06172839506172839,0,0,0.06172839506172839,39.382716049382715,0)" xlink:href="#F"/><use transform="matrix(0.06172839506172839,0,0,0.06172839506172839,48.02469135802469,0)" xlink:href="#at"/><use transform="matrix(0.06172839506172839,0,0,0.06172839506172839,61.54320987654321,0)" xlink:href="#F"/><use transform="matrix(0.06172839506172839,0,0,0.06172839506172839,70.18518518518519,0)" xlink:href="#J"/><use transform="matrix(0.06172839506172839,0,0,0.06172839506172839,82.53086419753087,0)" xlink:href="#I"/><use transform="matrix(0.06172839506172839,0,0,0.06172839506172839,89.87654320987656,0)" xlink:href="#J"/><use transform="matrix(0.06172839506172839,0,0,0.06172839506172839,102.22222222222224,0)" xlink:href="#F"/></g></defs></g></svg>