<svg xmlns="http://www.w3.org/2000/svg" xmlns:xlink="http://www.w3.org/1999/xlink" xmlns:lucid="lucid" width="1231.44" height="569.34"><g transform="translate(298.9341422046581 140.53452431008813)" lucid:page-tab-id="JiiADe7Hlfi2"><path d="M-500-500h1500V500H-500z" fill="#fff"/><path d="M412 215.3a6 6 0 0 1 6-6h508a6 6 0 0 1 6 6v207a6 6 0 0 1-6 6H418a6 6 0 0 1-6-6z" stroke="#3a414a" fill="#fff"/><path d="M412 246.9h520M412 364.4h520" stroke="#3a414a" fill="none"/><use xlink:href="#a" transform="matrix(1,0,0,1,420.0084095917812,217.30768256788429) translate(193.175 14.6)"/><use xlink:href="#b" transform="matrix(1,0,0,1,424.0084095917812,254.90768256788428) translate(0 28.77777777777778)"/><use xlink:href="#c" transform="matrix(1,0,0,1,424.0084095917812,254.90768256788428) translate(0 55.44444444444445)"/><use xlink:href="#d" transform="matrix(1,0,0,1,424.0084095917812,254.90768256788428) translate(13.518518518518519 55.44444444444445)"/><use xlink:href="#e" transform="matrix(1,0,0,1,424.0084095917812,254.90768256788428) translate(120.1358024691358 55.44444444444445)"/><use xlink:href="#f" transform="matrix(1,0,0,1,424.0084095917812,254.90768256788428) translate(133.3604938271605 55.44444444444445)"/><use xlink:href="#g" transform="matrix(1,0,0,1,424.0084095917812,254.90768256788428) translate(0 82.11111111111111)"/><use xlink:href="#h" transform="matrix(1,0,0,1,424.0084095917812,372.4076825678843) translate(0 28.944444444444443)"/><use xlink:href="#i" transform="matrix(1,0,0,1,424.0084095917812,372.4076825678843) translate(19.1358024691358 28.944444444444443)"/><use xlink:href="#e" transform="matrix(1,0,0,1,424.0084095917812,372.4076825678843) translate(144.11851851851853 28.944444444444443)"/><use xlink:href="#j" transform="matrix(1,0,0,1,424.0084095917812,372.4076825678843) translate(157.34320987654323 28.944444444444443)"/><path d="M-298.43-134.03a6 6 0 0 1 6-6h568a6 6 0 0 1 6 6v223a6 6 0 0 1-6 6h-568a6 6 0 0 1-6-6z" stroke="#3a414a" fill="#fff"/><path d="M-298.43-102.44h580" stroke="#3a414a" fill="none"/><use xlink:href="#k" transform="matrix(1,0,0,1,-290.4341421958486,-132.03452430662946) translate(237.1 14.6)"/><use xlink:href="#l" transform="matrix(1,0,0,1,-286.4341421958486,-94.43452430662947) translate(0 68.27777777777777)"/><use xlink:href="#m" transform="matrix(1,0,0,1,-286.4341421958486,-94.43452430662947) translate(18.888888888888886 68.27777777777777)"/><use xlink:href="#n" transform="matrix(1,0,0,1,-286.4341421958486,-94.43452430662947) translate(195.1259259259259 68.27777777777777)"/><use xlink:href="#o" transform="matrix(1,0,0,1,-286.4341421958486,-94.43452430662947) translate(208.1037037037037 68.27777777777777)"/><use xlink:href="#p" transform="matrix(1,0,0,1,-286.4341421958486,-94.43452430662947) translate(282.5925925925926 68.27777777777777)"/><use xlink:href="#q" transform="matrix(1,0,0,1,-286.4341421958486,-94.43452430662947) translate(295.57037037037037 68.27777777777777)"/><use xlink:href="#r" transform="matrix(1,0,0,1,-286.4341421958486,-94.43452430662947) translate(416.8740740740741 68.27777777777777)"/><use xlink:href="#h" transform="matrix(1,0,0,1,-286.4341421958486,-94.43452430662947) translate(0 94.94444444444443)"/><use xlink:href="#s" transform="matrix(1,0,0,1,-286.4341421958486,-94.43452430662947) translate(19.1358024691358 94.94444444444443)"/><use xlink:href="#n" transform="matrix(1,0,0,1,-286.4341421958486,-94.43452430662947) translate(268.08148148148143 94.94444444444443)"/><use xlink:href="#t" transform="matrix(1,0,0,1,-286.4341421958486,-94.43452430662947) translate(281.0592592592592 94.94444444444443)"/><use xlink:href="#u" transform="matrix(1,0,0,1,-286.4341421958486,-94.43452430662947) translate(0 121.61111111111111)"/><use xlink:href="#v" transform="matrix(1,0,0,1,-286.4341421958486,-94.43452430662947) translate(234.56790123456778 121.61111111111111)"/><use xlink:href="#n" transform="matrix(1,0,0,1,-286.4341421958486,-94.43452430662947) translate(297.3234567901233 121.61111111111111)"/><use xlink:href="#q" transform="matrix(1,0,0,1,-286.4341421958486,-94.43452430662947) translate(310.3012345679011 121.61111111111111)"/><use xlink:href="#w" transform="matrix(1,0,0,1,-286.4341421958486,-94.43452430662947) translate(431.6049382716048 121.61111111111111)"/><path d="M-248.43 234.3a6 6 0 0 1 6-6h468a6 6 0 0 1 6 6v169a6 6 0 0 1-6 6h-468a6 6 0 0 1-6-6z" stroke="#3a414a" fill="#fff"/><path d="M-248.43 265.9h480" stroke="#3a414a" fill="none"/><g><use xlink:href="#x" transform="matrix(1,0,0,1,-240.4341421958486,236.30768256788429) translate(203.625 14.6)"/></g><g><use xlink:href="#h" transform="matrix(1,0,0,1,-236.4341421958486,273.9076825678843) translate(0 28.44444444444445)"/><use xlink:href="#y" transform="matrix(1,0,0,1,-236.4341421958486,273.9076825678843) translate(19.1358024691358 28.44444444444445)"/><use xlink:href="#e" transform="matrix(1,0,0,1,-236.4341421958486,273.9076825678843) translate(158.9975308641975 28.44444444444445)"/><use xlink:href="#q" transform="matrix(1,0,0,1,-236.4341421958486,273.9076825678843) translate(172.2222222222222 28.44444444444445)"/><use xlink:href="#z" transform="matrix(1,0,0,1,-236.4341421958486,273.9076825678843) translate(293.5259259259259 28.44444444444445)"/><use xlink:href="#h" transform="matrix(1,0,0,1,-236.4341421958486,273.9076825678843) translate(0 55.11111111111112)"/><use xlink:href="#A" transform="matrix(1,0,0,1,-236.4341421958486,273.9076825678843) translate(19.1358024691358 55.11111111111112)"/><use xlink:href="#n" transform="matrix(1,0,0,1,-236.4341421958486,273.9076825678843) translate(168.53827160493825 55.11111111111112)"/><use xlink:href="#B" transform="matrix(1,0,0,1,-236.4341421958486,273.9076825678843) translate(181.51604938271603 55.11111111111112)"/><use xlink:href="#h" transform="matrix(1,0,0,1,-236.4341421958486,273.9076825678843) translate(0 81.77777777777777)"/><use xlink:href="#C" transform="matrix(1,0,0,1,-236.4341421958486,273.9076825678843) translate(19.1358024691358 81.77777777777777)"/><use xlink:href="#e" transform="matrix(1,0,0,1,-236.4341421958486,273.9076825678843) translate(134.04938271604937 81.77777777777777)"/><use xlink:href="#D" transform="matrix(1,0,0,1,-236.4341421958486,273.9076825678843) translate(147.27407407407406 81.77777777777777)"/><use xlink:href="#h" transform="matrix(1,0,0,1,-236.4341421958486,273.9076825678843) translate(0 108.44444444444446)"/><use xlink:href="#E" transform="matrix(1,0,0,1,-236.4341421958486,273.9076825678843) translate(19.1358024691358 108.44444444444446)"/><use xlink:href="#e" transform="matrix(1,0,0,1,-236.4341421958486,273.9076825678843) translate(122.31604938271605 108.44444444444446)"/><use xlink:href="#F" transform="matrix(1,0,0,1,-236.4341421958486,273.9076825678843) translate(135.54074074074074 108.44444444444446)"/></g><path d="M-8.43 95.97V226.9" stroke="#3a414a" fill="none"/><path d="M-7.93 95.98h-1v-.52h1z" stroke="#3a414a" stroke-width=".05" fill="#3a414a"/><path d="M-18.6 209.6l10.17 17.22 10.18-17.2M411 318.8H233" stroke="#3a414a" fill="none"/><path d="M411.5 319.3h-.5v-1h.5z" stroke="#3a414a" stroke-width=".05" fill="#3a414a"/><path d="M250.26 308.63l-17.2 10.18 17.2 10.2" stroke="#3a414a" fill="none"/><defs><path d="M67-125c0 53 21 87 73 88 37 1 54-22 65-47l45 17C233-25 199 4 140 4 58 4 20-42 15-125 8-235 124-281 211-232c18 10 29 29 36 50l-46 12c-8-25-30-41-62-41-52 0-71 34-72 86" id="G"/><path d="M110-194c64 0 96 36 96 99 0 64-35 99-97 99-61 0-95-36-95-99 0-62 34-99 96-99zm-1 164c35 0 45-28 45-65 0-40-10-65-43-65-34 0-45 26-45 65 0 36 10 65 43 65" id="H"/><path d="M135-194c87-1 58 113 63 194h-50c-7-57 23-157-34-157-59 0-34 97-39 157H25l-1-190h47c2 12-1 28 3 38 12-26 28-41 61-42" id="I"/><path d="M121-226c-27-7-43 5-38 36h38v33H83V0H34v-157H6v-33h28c-9-59 32-81 87-68v32" id="J"/><path d="M25-224v-37h50v37H25zM25 0v-190h50V0H25" id="K"/><path d="M195-6C206 82 75 100 31 46c-4-6-6-13-8-21l49-6c3 16 16 24 34 25 40 0 42-37 40-79-11 22-30 35-61 35-53 0-70-43-70-97 0-56 18-96 73-97 30 0 46 14 59 34l2-30h47zm-90-29c32 0 41-27 41-63 0-35-9-62-40-62-32 0-39 29-40 63 0 36 9 62 39 62" id="L"/><path d="M240-174c0 40-23 61-54 70L253 0h-59l-57-94H76V0H24v-248c93 4 217-23 216 74zM76-134c48-2 112 12 112-38 0-48-66-32-112-35v73" id="M"/><path d="M185-48c-13 30-37 53-82 52C43 2 14-33 14-96s30-98 90-98c62 0 83 45 84 108H66c0 31 8 55 39 56 18 0 30-7 34-22zm-45-69c5-46-57-63-70-21-2 6-4 13-4 21h74" id="N"/><path d="M133-34C117-15 103 5 69 4 32 3 11-16 11-54c-1-60 55-63 116-61 1-26-3-47-28-47-18 1-26 9-28 27l-52-2c7-38 36-58 82-57s74 22 75 68l1 82c-1 14 12 18 25 15v27c-30 8-71 5-69-32zm-48 3c29 0 43-24 42-57-32 0-66-3-65 30 0 17 8 27 23 27" id="O"/><path d="M88-194c31-1 46 15 58 34l-1-101h50l1 261h-48c-2-10 0-23-3-31C134-8 116 4 84 4 32 4 16-41 15-95c0-56 19-97 73-99zm17 164c33 0 40-30 41-66 1-37-9-64-41-64s-38 30-39 65c0 43 13 65 39 65" id="P"/><path d="M135-150c-39-12-60 13-60 57V0H25l-1-190h47c2 13-1 29 3 40 6-28 27-53 61-41v41" id="Q"/><g id="a"><use transform="matrix(0.05,0,0,0.05,0,0)" xlink:href="#G"/><use transform="matrix(0.05,0,0,0.05,12.950000000000001,0)" xlink:href="#H"/><use transform="matrix(0.05,0,0,0.05,23.900000000000002,0)" xlink:href="#I"/><use transform="matrix(0.05,0,0,0.05,34.85,0)" xlink:href="#J"/><use transform="matrix(0.05,0,0,0.05,40.800000000000004,0)" xlink:href="#K"/><use transform="matrix(0.05,0,0,0.05,45.800000000000004,0)" xlink:href="#L"/><use transform="matrix(0.05,0,0,0.05,56.75,0)" xlink:href="#M"/><use transform="matrix(0.05,0,0,0.05,69.7,0)" xlink:href="#N"/><use transform="matrix(0.05,0,0,0.05,79.7,0)" xlink:href="#O"/><use transform="matrix(0.05,0,0,0.05,89.7,0)" xlink:href="#P"/><use transform="matrix(0.05,0,0,0.05,100.65,0)" xlink:href="#N"/><use transform="matrix(0.05,0,0,0.05,110.65,0)" xlink:href="#Q"/></g><path fill="#3a414a" d="M16-82v-28h88v28H16" id="R"/><use transform="matrix(0.06172839506172839,0,0,0.06172839506172839,0,0)" xlink:href="#R" id="c"/><path fill="#660e7a" d="M190-63c-7 42-38 67-86 67-59 0-84-38-90-98-12-110 154-137 174-36l-49 2c-2-19-15-32-35-32-30 0-35 28-38 64-6 74 65 87 74 30" id="S"/><path fill="#660e7a" d="M110-194c64 0 96 36 96 99 0 64-35 99-97 99-61 0-95-36-95-99 0-62 34-99 96-99zm-1 164c35 0 45-28 45-65 0-40-10-65-43-65-34 0-45 26-45 65 0 36 10 65 43 65" id="T"/><path fill="#660e7a" d="M135-194c87-1 58 113 63 194h-50c-7-57 23-157-34-157-59 0-34 97-39 157H25l-1-190h47c2 12-1 28 3 38 12-26 28-41 61-42" id="U"/><path fill="#660e7a" d="M121-226c-27-7-43 5-38 36h38v33H83V0H34v-157H6v-33h28c-9-59 32-81 87-68v32" id="V"/><path fill="#660e7a" d="M25-224v-37h50v37H25zM25 0v-190h50V0H25" id="W"/><path fill="#660e7a" d="M195-6C206 82 75 100 31 46c-4-6-6-13-8-21l49-6c3 16 16 24 34 25 40 0 42-37 40-79-11 22-30 35-61 35-53 0-70-43-70-97 0-56 18-96 73-97 30 0 46 14 59 34l2-30h47zm-90-29c32 0 41-27 41-63 0-35-9-62-40-62-32 0-39 29-40 63 0 36 9 62 39 62" id="X"/><path fill="#660e7a" d="M76-208v77h127v40H76V0H24v-248h183v40H76" id="Y"/><path fill="#660e7a" d="M25 0v-261h50V0H25" id="Z"/><path fill="#660e7a" d="M185-48c-13 30-37 53-82 52C43 2 14-33 14-96s30-98 90-98c62 0 83 45 84 108H66c0 31 8 55 39 56 18 0 30-7 34-22zm-45-69c5-46-57-63-70-21-2 6-4 13-4 21h74" id="aa"/><g id="d"><use transform="matrix(0.05925925925925927,0,0,0.05925925925925927,0,0)" xlink:href="#S"/><use transform="matrix(0.05925925925925927,0,0,0.05925925925925927,11.851851851851853,0)" xlink:href="#T"/><use transform="matrix(0.05925925925925927,0,0,0.05925925925925927,24.829629629629633,0)" xlink:href="#U"/><use transform="matrix(0.05925925925925927,0,0,0.05925925925925927,37.80740740740741,0)" xlink:href="#V"/><use transform="matrix(0.05925925925925927,0,0,0.05925925925925927,44.85925925925926,0)" xlink:href="#W"/><use transform="matrix(0.05925925925925927,0,0,0.05925925925925927,50.785185185185185,0)" xlink:href="#X"/><use transform="matrix(0.05925925925925927,0,0,0.05925925925925927,63.76296296296297,0)" xlink:href="#Y"/><use transform="matrix(0.05925925925925927,0,0,0.05925925925925927,76.74074074074075,0)" xlink:href="#W"/><use transform="matrix(0.05925925925925927,0,0,0.05925925925925927,82.66666666666667,0)" xlink:href="#Z"/><use transform="matrix(0.05925925925925927,0,0,0.05925925925925927,88.5925925925926,0)" xlink:href="#aa"/></g><path fill="#383838" d="M35-132v-50h50v50H35zM35 0v-49h50V0H35" id="ab"/><use transform="matrix(0.059259259259259255,0,0,0.059259259259259255,0,0)" xlink:href="#ab" id="e"/><path fill="#8c6c41" d="M185-189c-5-48-123-54-124 2 14 75 158 14 163 119 3 78-121 87-175 55-17-10-28-26-33-46l33-7c5 56 141 63 141-1 0-78-155-14-162-118-5-82 145-84 179-34 5 7 8 16 11 25" id="ac"/><path fill="#8c6c41" d="M59-47c-2 24 18 29 38 22v24C64 9 27 4 27-40v-127H5v-23h24l9-43h21v43h35v23H59v120" id="ad"/><path fill="#8c6c41" d="M114-163C36-179 61-72 57 0H25l-1-190h30c1 12-1 29 2 39 6-27 23-49 58-41v29" id="ae"/><path fill="#8c6c41" d="M24-231v-30h32v30H24zM24 0v-190h32V0H24" id="af"/><path fill="#8c6c41" d="M117-194c89-4 53 116 60 194h-32v-121c0-31-8-49-39-48C34-167 62-67 57 0H25l-1-190h30c1 10-1 24 2 32 11-22 29-35 61-36" id="ag"/><path fill="#8c6c41" d="M177-190C167-65 218 103 67 71c-23-6-38-20-44-43l32-5c15 47 100 32 89-28v-30C133-14 115 1 83 1 29 1 15-40 15-95c0-56 16-97 71-98 29-1 48 16 59 35 1-10 0-23 2-32h30zM94-22c36 0 50-32 50-73 0-42-14-75-50-75-39 0-46 34-46 75s6 73 46 73" id="ah"/><g id="f"><use transform="matrix(0.05925925925925927,0,0,0.05925925925925927,0,0)" xlink:href="#ac"/><use transform="matrix(0.05925925925925927,0,0,0.05925925925925927,14.222222222222225,0)" xlink:href="#ad"/><use transform="matrix(0.05925925925925927,0,0,0.05925925925925927,20.148148148148152,0)" xlink:href="#ae"/><use transform="matrix(0.05925925925925927,0,0,0.05925925925925927,27.200000000000006,0)" xlink:href="#af"/><use transform="matrix(0.05925925925925927,0,0,0.05925925925925927,31.881481481481487,0)" xlink:href="#ag"/><use transform="matrix(0.05925925925925927,0,0,0.05925925925925927,43.73333333333334,0)" xlink:href="#ah"/></g><path fill="#3a414a" d="M118-107v75H92v-75H18v-26h74v-75h26v75h74v26h-74" id="ai"/><use transform="matrix(0.06172839506172839,0,0,0.06172839506172839,0,0)" xlink:href="#ai" id="h"/><path fill="#6b2fba" d="M114-163C36-179 61-72 57 0H25l-1-190h30c1 12-1 29 2 39 6-27 23-49 58-41v29" id="aj"/><path fill="#6b2fba" d="M100-194c63 0 86 42 84 106H49c0 40 14 67 53 68 26 1 43-12 49-29l28 8c-11 28-37 45-77 45C44 4 14-33 15-96c1-61 26-98 85-98zm52 81c6-60-76-77-97-28-3 7-6 17-6 28h103" id="ak"/><path fill="#6b2fba" d="M141-36C126-15 110 5 73 4 37 3 15-17 15-53c-1-64 63-63 125-63 3-35-9-54-41-54-24 1-41 7-42 31l-33-3c5-37 33-52 76-52 45 0 72 20 72 64v82c-1 20 7 32 28 27v20c-31 9-61-2-59-35zM48-53c0 20 12 33 32 33 41-3 63-29 60-74-43 2-92-5-92 41" id="al"/><path fill="#6b2fba" d="M85-194c31 0 48 13 60 33l-1-100h32l1 261h-30c-2-10 0-23-3-31C134-8 116 4 85 4 32 4 16-35 15-94c0-66 23-100 70-100zm9 24c-40 0-46 34-46 75 0 40 6 74 45 74 42 0 51-32 51-76 0-42-9-74-50-73" id="am"/><path fill="#6b2fba" d="M212-179c-10-28-35-45-73-45-59 0-87 40-87 99 0 60 29 101 89 101 43 0 62-24 78-52l27 14C228-24 195 4 139 4 59 4 22-46 18-125c-6-104 99-153 187-111 19 9 31 26 39 46" id="an"/><path fill="#6b2fba" d="M100-194c62-1 85 37 85 99 1 63-27 99-86 99S16-35 15-95c0-66 28-99 85-99zM99-20c44 1 53-31 53-75 0-43-8-75-51-75s-53 32-53 75 10 74 51 75" id="ao"/><path fill="#6b2fba" d="M117-194c89-4 53 116 60 194h-32v-121c0-31-8-49-39-48C34-167 62-67 57 0H25l-1-190h30c1 10-1 24 2 32 11-22 29-35 61-36" id="ap"/><path fill="#6b2fba" d="M101-234c-31-9-42 10-38 44h38v23H63V0H32v-167H5v-23h27c-7-52 17-82 69-68v24" id="aq"/><path fill="#6b2fba" d="M24-231v-30h32v30H24zM24 0v-190h32V0H24" id="ar"/><path fill="#6b2fba" d="M177-190C167-65 218 103 67 71c-23-6-38-20-44-43l32-5c15 47 100 32 89-28v-30C133-14 115 1 83 1 29 1 15-40 15-95c0-56 16-97 71-98 29-1 48 16 59 35 1-10 0-23 2-32h30zM94-22c36 0 50-32 50-73 0-42-14-75-50-75-39 0-46 34-46 75s6 73 46 73" id="as"/><path fill="#3a414a" d="M87 75C49 33 22-17 22-94c0-76 28-126 65-167h31c-38 41-64 92-64 168S80 34 118 75H87" id="at"/><path fill="#3a414a" d="M33-261c38 41 65 92 65 168S71 34 33 75H2C39 34 66-17 66-93S39-220 2-261h31" id="au"/><g id="i"><use transform="matrix(0.059259259259259255,0,0,0.059259259259259255,0,0)" xlink:href="#aj"/><use transform="matrix(0.059259259259259255,0,0,0.059259259259259255,7.051851851851851,0)" xlink:href="#ak"/><use transform="matrix(0.059259259259259255,0,0,0.059259259259259255,18.9037037037037,0)" xlink:href="#al"/><use transform="matrix(0.059259259259259255,0,0,0.059259259259259255,30.755555555555553,0)" xlink:href="#am"/><use transform="matrix(0.059259259259259255,0,0,0.059259259259259255,42.60740740740741,0)" xlink:href="#an"/><use transform="matrix(0.059259259259259255,0,0,0.059259259259259255,57.955555555555556,0)" xlink:href="#ao"/><use transform="matrix(0.059259259259259255,0,0,0.059259259259259255,69.80740740740741,0)" xlink:href="#ap"/><use transform="matrix(0.059259259259259255,0,0,0.059259259259259255,81.65925925925926,0)" xlink:href="#aq"/><use transform="matrix(0.059259259259259255,0,0,0.059259259259259255,87.58518518518518,0)" xlink:href="#ar"/><use transform="matrix(0.059259259259259255,0,0,0.059259259259259255,92.26666666666667,0)" xlink:href="#as"/><use transform="matrix(0.06172839506172839,0,0,0.06172839506172839,104.11851851851851,0)" xlink:href="#at"/><use transform="matrix(0.06172839506172839,0,0,0.06172839506172839,111.4641975308642,0)" xlink:href="#au"/></g><path fill="#8c6c41" d="M33 0v-248h34V0H33" id="av"/><path fill="#8c6c41" d="M127-220V0H93v-220H8v-28h204v28h-85" id="aw"/><path fill="#8c6c41" d="M141-36C126-15 110 5 73 4 37 3 15-17 15-53c-1-64 63-63 125-63 3-35-9-54-41-54-24 1-41 7-42 31l-33-3c5-37 33-52 76-52 45 0 72 20 72 64v82c-1 20 7 32 28 27v20c-31 9-61-2-59-35zM48-53c0 20 12 33 32 33 41-3 63-29 60-74-43 2-92-5-92 41" id="ax"/><path fill="#8c6c41" d="M115-194c53 0 69 39 70 98 0 66-23 100-70 100C84 3 66-7 56-30L54 0H23l1-261h32v101c10-23 28-34 59-34zm-8 174c40 0 45-34 45-75 0-40-5-75-45-74-42 0-51 32-51 76 0 43 10 73 51 73" id="ay"/><path fill="#8c6c41" d="M24 0v-261h32V0H24" id="az"/><path fill="#8c6c41" d="M100-194c63 0 86 42 84 106H49c0 40 14 67 53 68 26 1 43-12 49-29l28 8c-11 28-37 45-77 45C44 4 14-33 15-96c1-61 26-98 85-98zm52 81c6-60-76-77-97-28-3 7-6 17-6 28h103" id="aA"/><g id="j"><use transform="matrix(0.05925925925925927,0,0,0.05925925925925927,0,0)" xlink:href="#av"/><use transform="matrix(0.05925925925925927,0,0,0.05925925925925927,5.9259259259259265,0)" xlink:href="#aw"/><use transform="matrix(0.05925925925925927,0,0,0.05925925925925927,16.533333333333335,0)" xlink:href="#ax"/><use transform="matrix(0.05925925925925927,0,0,0.05925925925925927,28.385185185185186,0)" xlink:href="#ay"/><use transform="matrix(0.05925925925925927,0,0,0.05925925925925927,40.23703703703704,0)" xlink:href="#az"/><use transform="matrix(0.05925925925925927,0,0,0.05925925925925927,44.918518518518525,0)" xlink:href="#aA"/></g><path d="M24 0v-248h52V0H24" id="aB"/><path d="M115-3C79 11 28 4 28-45v-112H4v-33h27l15-45h31v45h36v33H77v99c-1 23 16 31 38 25v30" id="aC"/><path d="M135-194c53 0 70 44 70 98 0 56-19 98-73 100-31 1-45-17-59-34 3 33 2 69 2 105H25l-1-265h48c2 10 0 23 3 31 11-24 29-35 60-35zM114-30c33 0 39-31 40-66 0-38-9-64-40-64-56 0-55 130 0 130" id="aD"/><g id="k"><use transform="matrix(0.05,0,0,0.05,0,0)" xlink:href="#aB"/><use transform="matrix(0.05,0,0,0.05,5,0)" xlink:href="#I"/><use transform="matrix(0.05,0,0,0.05,15.950000000000001,0)" xlink:href="#aC"/><use transform="matrix(0.05,0,0,0.05,21.900000000000002,0)" xlink:href="#N"/><use transform="matrix(0.05,0,0,0.05,31.900000000000002,0)" xlink:href="#Q"/><use transform="matrix(0.05,0,0,0.05,38.900000000000006,0)" xlink:href="#aD"/><use transform="matrix(0.05,0,0,0.05,49.85000000000001,0)" xlink:href="#Q"/><use transform="matrix(0.05,0,0,0.05,56.85,0)" xlink:href="#N"/><use transform="matrix(0.05,0,0,0.05,66.85000000000001,0)" xlink:href="#aC"/><use transform="matrix(0.05,0,0,0.05,72.80000000000001,0)" xlink:href="#N"/><use transform="matrix(0.05,0,0,0.05,82.80000000000001,0)" xlink:href="#Q"/></g><use transform="matrix(0.061728395061728385,0,0,0.061728395061728385,0,0)" xlink:href="#ai" id="l"/><path fill="#6b2fba" d="M115-194c53 0 69 39 70 98 0 66-23 100-70 100C84 3 66-7 56-30L54 0H23l1-261h32v101c10-23 28-34 59-34zm-8 174c40 0 45-34 45-75 0-40-5-75-45-74-42 0-51 32-51 76 0 43 10 73 51 73" id="aE"/><path fill="#6b2fba" d="M84 4C-5 8 30-112 23-190h32v120c0 31 7 50 39 49 72-2 45-101 50-169h31l1 190h-30c-1-10 1-25-2-33-11 22-28 36-60 37" id="aF"/><path fill="#6b2fba" d="M24 0v-261h32V0H24" id="aG"/><path fill="#6b2fba" d="M127-220V0H93v-220H8v-28h204v28h-85" id="aH"/><path fill="#6b2fba" d="M135-143c-3-34-86-38-87 0 15 53 115 12 119 90S17 21 10-45l28-5c4 36 97 45 98 0-10-56-113-15-118-90-4-57 82-63 122-42 12 7 21 19 24 35" id="aI"/><path fill="#383838" d="M67-93c0 74 22 123 53 168H70C40 30 18-18 18-93s22-123 52-168h50c-32 44-53 94-53 168" id="aJ"/><path fill="#1b6600" d="M96-169c-40 0-48 33-48 73s9 75 48 75c24 0 41-14 43-38l32 2c-6 37-31 61-74 61-59 0-76-41-82-99-10-93 101-131 147-64 4 7 5 14 7 22l-32 3c-4-21-16-35-41-35" id="aK"/><path fill="#1b6600" d="M100-194c62-1 85 37 85 99 1 63-27 99-86 99S16-35 15-95c0-66 28-99 85-99zM99-20c44 1 53-31 53-75 0-43-8-75-51-75s-53 32-53 75 10 74 51 75" id="aL"/><path fill="#1b6600" d="M117-194c89-4 53 116 60 194h-32v-121c0-31-8-49-39-48C34-167 62-67 57 0H25l-1-190h30c1 10-1 24 2 32 11-22 29-35 61-36" id="aM"/><path fill="#1b6600" d="M101-234c-31-9-42 10-38 44h38v23H63V0H32v-167H5v-23h27c-7-52 17-82 69-68v24" id="aN"/><path fill="#1b6600" d="M24-231v-30h32v30H24zM24 0v-190h32V0H24" id="aO"/><path fill="#1b6600" d="M177-190C167-65 218 103 67 71c-23-6-38-20-44-43l32-5c15 47 100 32 89-28v-30C133-14 115 1 83 1 29 1 15-40 15-95c0-56 16-97 71-98 29-1 48 16 59 35 1-10 0-23 2-32h30zM94-22c36 0 50-32 50-73 0-42-14-75-50-75-39 0-46 34-46 75s6 73 46 73" id="aP"/><g id="m"><use transform="matrix(0.059259259259259255,0,0,0.059259259259259255,0,0)" xlink:href="#aE"/><use transform="matrix(0.059259259259259255,0,0,0.059259259259259255,11.851851851851851,0)" xlink:href="#aF"/><use transform="matrix(0.059259259259259255,0,0,0.059259259259259255,23.703703703703702,0)" xlink:href="#ar"/><use transform="matrix(0.059259259259259255,0,0,0.059259259259259255,28.385185185185183,0)" xlink:href="#aG"/><use transform="matrix(0.059259259259259255,0,0,0.059259259259259255,33.06666666666666,0)" xlink:href="#am"/><use transform="matrix(0.059259259259259255,0,0,0.059259259259259255,44.91851851851851,0)" xlink:href="#aH"/><use transform="matrix(0.059259259259259255,0,0,0.059259259259259255,55.52592592592592,0)" xlink:href="#al"/><use transform="matrix(0.059259259259259255,0,0,0.059259259259259255,67.37777777777777,0)" xlink:href="#aE"/><use transform="matrix(0.059259259259259255,0,0,0.059259259259259255,79.22962962962961,0)" xlink:href="#aG"/><use transform="matrix(0.059259259259259255,0,0,0.059259259259259255,83.9111111111111,0)" xlink:href="#ak"/><use transform="matrix(0.059259259259259255,0,0,0.059259259259259255,95.76296296296294,0)" xlink:href="#aI"/><use transform="matrix(0.059259259259259255,0,0,0.059259259259259255,106.42962962962962,0)" xlink:href="#aJ"/><use transform="matrix(0.059259259259259255,0,0,0.059259259259259255,113.48148148148147,0)" xlink:href="#aK"/><use transform="matrix(0.059259259259259255,0,0,0.059259259259259255,124.14814814814814,0)" xlink:href="#aL"/><use transform="matrix(0.059259259259259255,0,0,0.059259259259259255,136,0)" xlink:href="#aM"/><use transform="matrix(0.059259259259259255,0,0,0.059259259259259255,147.85185185185185,0)" xlink:href="#aN"/><use transform="matrix(0.059259259259259255,0,0,0.059259259259259255,153.77777777777777,0)" xlink:href="#aO"/><use transform="matrix(0.059259259259259255,0,0,0.059259259259259255,158.45925925925926,0)" xlink:href="#aP"/></g><use transform="matrix(0.059259259259259255,0,0,0.059259259259259255,0,0)" xlink:href="#ab" id="n"/><path fill="#8c6c41" d="M212-179c-10-28-35-45-73-45-59 0-87 40-87 99 0 60 29 101 89 101 43 0 62-24 78-52l27 14C228-24 195 4 139 4 59 4 22-46 18-125c-6-104 99-153 187-111 19 9 31 26 39 46" id="aQ"/><path fill="#8c6c41" d="M100-194c62-1 85 37 85 99 1 63-27 99-86 99S16-35 15-95c0-66 28-99 85-99zM99-20c44 1 53-31 53-75 0-43-8-75-51-75s-53 32-53 75 10 74 51 75" id="aR"/><path fill="#8c6c41" d="M101-234c-31-9-42 10-38 44h38v23H63V0H32v-167H5v-23h27c-7-52 17-82 69-68v24" id="aS"/><path fill="#383838" d="M102-93c0 74-22 123-52 168H0C30 29 54-18 53-93c0-74-22-123-53-168h50c30 45 52 94 52 168" id="aT"/><g id="o"><use transform="matrix(0.059259259259259255,0,0,0.059259259259259255,0,0)" xlink:href="#aQ"/><use transform="matrix(0.059259259259259255,0,0,0.059259259259259255,15.348148148148146,0)" xlink:href="#aR"/><use transform="matrix(0.059259259259259255,0,0,0.059259259259259255,27.199999999999996,0)" xlink:href="#ag"/><use transform="matrix(0.059259259259259255,0,0,0.059259259259259255,39.05185185185185,0)" xlink:href="#aS"/><use transform="matrix(0.059259259259259255,0,0,0.059259259259259255,44.977777777777774,0)" xlink:href="#af"/><use transform="matrix(0.059259259259259255,0,0,0.059259259259259255,49.65925925925926,0)" xlink:href="#ah"/><use transform="matrix(0.059259259259259255,0,0,0.059259259259259255,61.511111111111106,0)" xlink:href="#aT"/></g><use transform="matrix(0.059259259259259255,0,0,0.059259259259259255,0,0)" xlink:href="#ab" id="p"/><path fill="#8c6c41" d="M240 0l2-218c-23 76-54 145-80 218h-23L58-218 59 0H30v-248h44l77 211c21-75 51-140 76-211h43V0h-30" id="aU"/><path fill="#8c6c41" d="M115-194c55 1 70 41 70 98S169 2 115 4C84 4 66-9 55-30l1 105H24l-1-265h31l2 30c10-21 28-34 59-34zm-8 174c40 0 45-34 45-75s-6-73-45-74c-42 0-51 32-51 76 0 43 10 73 51 73" id="aV"/><path fill="#383838" d="M18-100v-36l175-74v27L42-118l151 64v27" id="aW"/><path fill="#383838" d="M76-54c-1 42 2 86-19 110H24C36 42 46 24 48 0H25v-54h51" id="aX"/><g id="q"><use transform="matrix(0.05925925925925927,0,0,0.05925925925925927,0,0)" xlink:href="#aU"/><use transform="matrix(0.05925925925925927,0,0,0.05925925925925927,17.718518518518522,0)" xlink:href="#ax"/><use transform="matrix(0.05925925925925927,0,0,0.05925925925925927,29.570370370370377,0)" xlink:href="#aV"/><use transform="matrix(0.05925925925925927,0,0,0.05925925925925927,41.42222222222223,0)" xlink:href="#aW"/><use transform="matrix(0.05925925925925927,0,0,0.05925925925925927,53.866666666666674,0)" xlink:href="#ac"/><use transform="matrix(0.05925925925925927,0,0,0.05925925925925927,68.0888888888889,0)" xlink:href="#ad"/><use transform="matrix(0.05925925925925927,0,0,0.05925925925925927,74.01481481481483,0)" xlink:href="#ae"/><use transform="matrix(0.05925925925925927,0,0,0.05925925925925927,81.06666666666668,0)" xlink:href="#af"/><use transform="matrix(0.05925925925925927,0,0,0.05925925925925927,85.74814814814816,0)" xlink:href="#ag"/><use transform="matrix(0.05925925925925927,0,0,0.05925925925925927,97.60000000000001,0)" xlink:href="#ah"/><use transform="matrix(0.05925925925925927,0,0,0.05925925925925927,109.45185185185186,0)" xlink:href="#aX"/></g><path fill="#383838" d="M18-27v-27l151-64-151-65v-27l175 74v36" id="aY"/><g id="r"><use transform="matrix(0.05925925925925927,0,0,0.05925925925925927,0,0)" xlink:href="#av"/><use transform="matrix(0.05925925925925927,0,0,0.05925925925925927,5.9259259259259265,0)" xlink:href="#aw"/><use transform="matrix(0.05925925925925927,0,0,0.05925925925925927,16.533333333333335,0)" xlink:href="#ax"/><use transform="matrix(0.05925925925925927,0,0,0.05925925925925927,28.385185185185186,0)" xlink:href="#ay"/><use transform="matrix(0.05925925925925927,0,0,0.05925925925925927,40.23703703703704,0)" xlink:href="#az"/><use transform="matrix(0.05925925925925927,0,0,0.05925925925925927,44.918518518518525,0)" xlink:href="#aA"/><use transform="matrix(0.05925925925925927,0,0,0.05925925925925927,56.77037037037038,0)" xlink:href="#aY"/></g><path fill="#6b2fba" d="M141 0L90-78 38 0H4l68-98-65-92h35l48 74 47-74h35l-64 92 68 98h-35" id="aZ"/><path fill="#6b2fba" d="M96-169c-40 0-48 33-48 73s9 75 48 75c24 0 41-14 43-38l32 2c-6 37-31 61-74 61-59 0-76-41-82-99-10-93 101-131 147-64 4 7 5 14 7 22l-32 3c-4-21-16-35-41-35" id="ba"/><path fill="#6b2fba" d="M59-47c-2 24 18 29 38 22v24C64 9 27 4 27-40v-127H5v-23h24l9-43h21v43h35v23H59v120" id="bb"/><path fill="#6b2fba" d="M140-251c81 0 123 46 123 126C263-46 219 4 140 4 59 4 17-45 17-125s42-126 123-126zm0 227c63 0 89-41 89-101s-29-99-89-99c-61 0-89 39-89 99S79-25 140-24" id="bc"/><path fill="#6b2fba" d="M115-194c55 1 70 41 70 98S169 2 115 4C84 4 66-9 55-30l1 105H24l-1-265h31l2 30c10-21 28-34 59-34zm-8 174c40 0 45-34 45-75s-6-73-45-74c-42 0-51 32-51 76 0 43 10 73 51 73" id="bd"/><g id="s"><use transform="matrix(0.059259259259259255,0,0,0.059259259259259255,0,0)" xlink:href="#ak"/><use transform="matrix(0.059259259259259255,0,0,0.059259259259259255,11.851851851851851,0)" xlink:href="#aZ"/><use transform="matrix(0.059259259259259255,0,0,0.059259259259259255,22.51851851851852,0)" xlink:href="#ak"/><use transform="matrix(0.059259259259259255,0,0,0.059259259259259255,34.37037037037037,0)" xlink:href="#ba"/><use transform="matrix(0.059259259259259255,0,0,0.059259259259259255,45.03703703703703,0)" xlink:href="#aF"/><use transform="matrix(0.059259259259259255,0,0,0.059259259259259255,56.888888888888886,0)" xlink:href="#bb"/><use transform="matrix(0.059259259259259255,0,0,0.059259259259259255,62.81481481481481,0)" xlink:href="#ak"/><use transform="matrix(0.059259259259259255,0,0,0.059259259259259255,74.66666666666666,0)" xlink:href="#bc"/><use transform="matrix(0.059259259259259255,0,0,0.059259259259259255,91.25925925925925,0)" xlink:href="#bd"/><use transform="matrix(0.059259259259259255,0,0,0.059259259259259255,103.1111111111111,0)" xlink:href="#ak"/><use transform="matrix(0.059259259259259255,0,0,0.059259259259259255,114.96296296296295,0)" xlink:href="#aj"/><use transform="matrix(0.059259259259259255,0,0,0.059259259259259255,122.0148148148148,0)" xlink:href="#al"/><use transform="matrix(0.059259259259259255,0,0,0.059259259259259255,133.86666666666665,0)" xlink:href="#bb"/><use transform="matrix(0.059259259259259255,0,0,0.059259259259259255,139.79259259259257,0)" xlink:href="#ar"/><use transform="matrix(0.059259259259259255,0,0,0.059259259259259255,144.47407407407405,0)" xlink:href="#ao"/><use transform="matrix(0.059259259259259255,0,0,0.059259259259259255,156.3259259259259,0)" xlink:href="#ap"/><use transform="matrix(0.059259259259259255,0,0,0.059259259259259255,168.17777777777775,0)" xlink:href="#aI"/><use transform="matrix(0.06172839506172839,0,0,0.06172839506172839,178.8444444444444,0)" xlink:href="#at"/><use transform="matrix(0.059259259259259255,0,0,0.059259259259259255,186.19012345679008,0)" xlink:href="#aK"/><use transform="matrix(0.059259259259259255,0,0,0.059259259259259255,196.85679012345673,0)" xlink:href="#aL"/><use transform="matrix(0.059259259259259255,0,0,0.059259259259259255,208.70864197530858,0)" xlink:href="#aM"/><use transform="matrix(0.059259259259259255,0,0,0.059259259259259255,220.56049382716043,0)" xlink:href="#aN"/><use transform="matrix(0.059259259259259255,0,0,0.059259259259259255,226.48641975308635,0)" xlink:href="#aO"/><use transform="matrix(0.059259259259259255,0,0,0.059259259259259255,231.16790123456784,0)" xlink:href="#aP"/></g><path fill="#3a414a" d="M68-38c1 34 0 65-14 84H32c9-13 17-26 17-46H33v-38h35" id="be"/><g id="t"><use transform="matrix(0.059259259259259255,0,0,0.059259259259259255,0,0)" xlink:href="#aQ"/><use transform="matrix(0.059259259259259255,0,0,0.059259259259259255,15.348148148148146,0)" xlink:href="#aR"/><use transform="matrix(0.059259259259259255,0,0,0.059259259259259255,27.199999999999996,0)" xlink:href="#ag"/><use transform="matrix(0.059259259259259255,0,0,0.059259259259259255,39.05185185185185,0)" xlink:href="#aS"/><use transform="matrix(0.059259259259259255,0,0,0.059259259259259255,44.977777777777774,0)" xlink:href="#af"/><use transform="matrix(0.059259259259259255,0,0,0.059259259259259255,49.65925925925926,0)" xlink:href="#ah"/><use transform="matrix(0.06172839506172839,0,0,0.06172839506172839,61.511111111111106,0)" xlink:href="#be"/></g><path fill="#1b6600" d="M59-47c-2 24 18 29 38 22v24C64 9 27 4 27-40v-127H5v-23h24l9-43h21v43h35v23H59v120" id="bf"/><path fill="#1b6600" d="M141-36C126-15 110 5 73 4 37 3 15-17 15-53c-1-64 63-63 125-63 3-35-9-54-41-54-24 1-41 7-42 31l-33-3c5-37 33-52 76-52 45 0 72 20 72 64v82c-1 20 7 32 28 27v20c-31 9-61-2-59-35zM48-53c0 20 12 33 32 33 41-3 63-29 60-74-43 2-92-5-92 41" id="bg"/><path fill="#1b6600" d="M115-194c53 0 69 39 70 98 0 66-23 100-70 100C84 3 66-7 56-30L54 0H23l1-261h32v101c10-23 28-34 59-34zm-8 174c40 0 45-34 45-75 0-40-5-75-45-74-42 0-51 32-51 76 0 43 10 73 51 73" id="bh"/><path fill="#1b6600" d="M24 0v-261h32V0H24" id="bi"/><path fill="#1b6600" d="M100-194c63 0 86 42 84 106H49c0 40 14 67 53 68 26 1 43-12 49-29l28 8c-11 28-37 45-77 45C44 4 14-33 15-96c1-61 26-98 85-98zm52 81c6-60-76-77-97-28-3 7-6 17-6 28h103" id="bj"/><path fill="#1b6600" d="M135-143c-3-34-86-38-87 0 15 53 115 12 119 90S17 21 10-45l28-5c4 36 97 45 98 0-10-56-113-15-118-90-4-57 82-63 122-42 12 7 21 19 24 35" id="bk"/><g id="v"><use transform="matrix(0.059259259259259255,0,0,0.059259259259259255,0,0)" xlink:href="#bf"/><use transform="matrix(0.059259259259259255,0,0,0.059259259259259255,5.925925925925926,0)" xlink:href="#bg"/><use transform="matrix(0.059259259259259255,0,0,0.059259259259259255,17.77777777777778,0)" xlink:href="#bh"/><use transform="matrix(0.059259259259259255,0,0,0.059259259259259255,29.62962962962963,0)" xlink:href="#bi"/><use transform="matrix(0.059259259259259255,0,0,0.059259259259259255,34.31111111111111,0)" xlink:href="#bj"/><use transform="matrix(0.059259259259259255,0,0,0.059259259259259255,46.162962962962965,0)" xlink:href="#bk"/></g><g id="w"><use transform="matrix(0.05925925925925927,0,0,0.05925925925925927,0,0)" xlink:href="#av"/><use transform="matrix(0.05925925925925927,0,0,0.05925925925925927,5.9259259259259265,0)" xlink:href="#aw"/><use transform="matrix(0.05925925925925927,0,0,0.05925925925925927,16.533333333333335,0)" xlink:href="#ax"/><use transform="matrix(0.05925925925925927,0,0,0.05925925925925927,28.385185185185186,0)" xlink:href="#ay"/><use transform="matrix(0.05925925925925927,0,0,0.05925925925925927,40.23703703703704,0)" xlink:href="#az"/><use transform="matrix(0.05925925925925927,0,0,0.05925925925925927,44.918518518518525,0)" xlink:href="#aA"/><use transform="matrix(0.05925925925925927,0,0,0.05925925925925927,56.77037037037038,0)" xlink:href="#aY"/><use transform="matrix(0.06172839506172839,0,0,0.06172839506172839,69.21481481481483,0)" xlink:href="#au"/></g><g id="x"><use transform="matrix(0.05,0,0,0.05,0,0)" xlink:href="#G"/><use transform="matrix(0.05,0,0,0.05,12.950000000000001,0)" xlink:href="#H"/><use transform="matrix(0.05,0,0,0.05,23.900000000000002,0)" xlink:href="#I"/><use transform="matrix(0.05,0,0,0.05,34.85,0)" xlink:href="#J"/><use transform="matrix(0.05,0,0,0.05,40.800000000000004,0)" xlink:href="#K"/><use transform="matrix(0.05,0,0,0.05,45.800000000000004,0)" xlink:href="#L"/></g><path fill="#660e7a" d="M115-3C79 11 28 4 28-45v-112H4v-33h27l15-45h31v45h36v33H77v99c-1 23 16 31 38 25v30" id="bl"/><path fill="#660e7a" d="M133-34C117-15 103 5 69 4 32 3 11-16 11-54c-1-60 55-63 116-61 1-26-3-47-28-47-18 1-26 9-28 27l-52-2c7-38 36-58 82-57s74 22 75 68l1 82c-1 14 12 18 25 15v27c-30 8-71 5-69-32zm-48 3c29 0 43-24 42-57-32 0-66-3-65 30 0 17 8 27 23 27" id="bm"/><path fill="#660e7a" d="M135-194c52 0 70 43 70 98 0 56-19 99-73 100-30 1-46-15-58-35L72 0H24l1-261h50v104c11-23 29-37 60-37zM114-30c31 0 40-27 40-66 0-37-7-63-39-63s-41 28-41 65c0 36 8 64 40 64" id="bn"/><path fill="#660e7a" d="M169-182c-1-43-94-46-97-3 18 66 151 10 154 114 3 95-165 93-204 36-6-8-10-19-12-30l50-8c3 46 112 56 116 5-17-69-150-10-154-114-4-87 153-88 188-35 5 8 8 18 10 28" id="bo"/><path fill="#660e7a" d="M85 4C-2 5 27-109 22-190h50c7 57-23 150 33 157 60-5 35-97 40-157h50l1 190h-47c-2-12 1-28-3-38-12 25-28 42-61 42" id="bp"/><path fill="#660e7a" d="M135-150c-39-12-60 13-60 57V0H25l-1-190h47c2 13-1 29 3 40 6-28 27-53 61-41v41" id="bq"/><path fill="#660e7a" d="M137-138c1-29-70-34-71-4 15 46 118 7 119 86 1 83-164 76-172 9l43-7c4 19 20 25 44 25 33 8 57-30 24-41C81-84 22-81 20-136c-2-80 154-74 161-7" id="br"/><g id="y"><use transform="matrix(0.05925925925925927,0,0,0.05925925925925927,0,0)" xlink:href="#bl"/><use transform="matrix(0.05925925925925927,0,0,0.05925925925925927,7.051851851851853,0)" xlink:href="#bm"/><use transform="matrix(0.05925925925925927,0,0,0.05925925925925927,18.903703703703705,0)" xlink:href="#bn"/><use transform="matrix(0.05925925925925927,0,0,0.05925925925925927,31.881481481481487,0)" xlink:href="#Z"/><use transform="matrix(0.05925925925925927,0,0,0.05925925925925927,37.80740740740741,0)" xlink:href="#aa"/><use transform="matrix(0.05925925925925927,0,0,0.05925925925925927,49.659259259259265,0)" xlink:href="#bo"/><use transform="matrix(0.05925925925925927,0,0,0.05925925925925927,63.881481481481494,0)" xlink:href="#T"/><use transform="matrix(0.05925925925925927,0,0,0.05925925925925927,76.85925925925926,0)" xlink:href="#bp"/><use transform="matrix(0.05925925925925927,0,0,0.05925925925925927,89.83703703703704,0)" xlink:href="#bq"/><use transform="matrix(0.05925925925925927,0,0,0.05925925925925927,98.13333333333333,0)" xlink:href="#S"/><use transform="matrix(0.05925925925925927,0,0,0.05925925925925927,109.98518518518517,0)" xlink:href="#aa"/><use transform="matrix(0.05925925925925927,0,0,0.05925925925925927,121.83703703703704,0)" xlink:href="#br"/></g><path fill="#8c6c41" d="M84 4C-5 8 30-112 23-190h32v120c0 31 7 50 39 49 72-2 45-101 50-169h31l1 190h-30c-1-10 1-25-2-33-11 22-28 36-60 37" id="bs"/><path fill="#8c6c41" d="M96-169c-40 0-48 33-48 73s9 75 48 75c24 0 41-14 43-38l32 2c-6 37-31 61-74 61-59 0-76-41-82-99-10-93 101-131 147-64 4 7 5 14 7 22l-32 3c-4-21-16-35-41-35" id="bt"/><g id="z"><use transform="matrix(0.05925925925925927,0,0,0.05925925925925927,0,0)" xlink:href="#aw"/><use transform="matrix(0.05925925925925927,0,0,0.05925925925925927,10.60740740740741,0)" xlink:href="#ax"/><use transform="matrix(0.05925925925925927,0,0,0.05925925925925927,22.459259259259262,0)" xlink:href="#ay"/><use transform="matrix(0.05925925925925927,0,0,0.05925925925925927,34.31111111111112,0)" xlink:href="#az"/><use transform="matrix(0.05925925925925927,0,0,0.05925925925925927,38.9925925925926,0)" xlink:href="#aA"/><use transform="matrix(0.05925925925925927,0,0,0.05925925925925927,50.844444444444456,0)" xlink:href="#ac"/><use transform="matrix(0.05925925925925927,0,0,0.05925925925925927,65.06666666666668,0)" xlink:href="#aR"/><use transform="matrix(0.05925925925925927,0,0,0.05925925925925927,76.91851851851852,0)" xlink:href="#bs"/><use transform="matrix(0.05925925925925927,0,0,0.05925925925925927,88.77037037037037,0)" xlink:href="#ae"/><use transform="matrix(0.05925925925925927,0,0,0.05925925925925927,95.82222222222222,0)" xlink:href="#bt"/><use transform="matrix(0.05925925925925927,0,0,0.05925925925925927,106.4888888888889,0)" xlink:href="#aA"/><use transform="matrix(0.05925925925925927,0,0,0.05925925925925927,118.34074074074074,0)" xlink:href="#aY"/></g><path fill="#660e7a" d="M114-157C55-157 80-60 75 0H25v-261h50l-1 109c12-26 28-41 61-42 86-1 58 113 63 194h-50c-7-57 23-157-34-157" id="bu"/><path fill="#660e7a" d="M220-157c-53 9-28 100-34 157h-49v-107c1-27-5-49-29-50C55-147 81-57 75 0H25l-1-190h47c2 12-1 28 3 38 10-53 101-56 108 0 13-22 24-43 59-42 82 1 51 116 57 194h-49v-107c-1-25-5-48-29-50" id="bv"/><g id="A"><use transform="matrix(0.05925925925925927,0,0,0.05925925925925927,0,0)" xlink:href="#bl"/><use transform="matrix(0.05925925925925927,0,0,0.05925925925925927,7.051851851851853,0)" xlink:href="#bm"/><use transform="matrix(0.05925925925925927,0,0,0.05925925925925927,18.903703703703705,0)" xlink:href="#bn"/><use transform="matrix(0.05925925925925927,0,0,0.05925925925925927,31.881481481481487,0)" xlink:href="#Z"/><use transform="matrix(0.05925925925925927,0,0,0.05925925925925927,37.80740740740741,0)" xlink:href="#aa"/><use transform="matrix(0.05925925925925927,0,0,0.05925925925925927,49.659259259259265,0)" xlink:href="#bo"/><use transform="matrix(0.05925925925925927,0,0,0.05925925925925927,63.881481481481494,0)" xlink:href="#S"/><use transform="matrix(0.05925925925925927,0,0,0.05925925925925927,75.73333333333333,0)" xlink:href="#bu"/><use transform="matrix(0.05925925925925927,0,0,0.05925925925925927,88.71111111111111,0)" xlink:href="#aa"/><use transform="matrix(0.05925925925925927,0,0,0.05925925925925927,100.56296296296296,0)" xlink:href="#bv"/><use transform="matrix(0.05925925925925927,0,0,0.05925925925925927,119.52592592592592,0)" xlink:href="#bm"/><use transform="matrix(0.05925925925925927,0,0,0.05925925925925927,131.37777777777777,0)" xlink:href="#br"/></g><path fill="#8c6c41" d="M30 0v-248h33v221h125V0H30" id="bw"/><path fill="#8c6c41" d="M135-143c-3-34-86-38-87 0 15 53 115 12 119 90S17 21 10-45l28-5c4 36 97 45 98 0-10-56-113-15-118-90-4-57 82-63 122-42 12 7 21 19 24 35" id="bx"/><path fill="#8c6c41" d="M106-169C34-169 62-67 57 0H25v-261h32l-1 103c12-21 28-36 61-36 89 0 53 116 60 194h-32v-121c2-32-8-49-39-48" id="by"/><path fill="#8c6c41" d="M210-169c-67 3-38 105-44 169h-31v-121c0-29-5-50-35-48C34-165 62-65 56 0H25l-1-190h30c1 10-1 24 2 32 10-44 99-50 107 0 11-21 27-35 58-36 85-2 47 119 55 194h-31v-121c0-29-5-49-35-48" id="bz"/><g id="B"><use transform="matrix(0.05925925925925927,0,0,0.05925925925925927,0,0)" xlink:href="#bw"/><use transform="matrix(0.05925925925925927,0,0,0.05925925925925927,11.851851851851853,0)" xlink:href="#af"/><use transform="matrix(0.05925925925925927,0,0,0.05925925925925927,16.533333333333335,0)" xlink:href="#bx"/><use transform="matrix(0.05925925925925927,0,0,0.05925925925925927,27.200000000000003,0)" xlink:href="#ad"/><use transform="matrix(0.05925925925925927,0,0,0.05925925925925927,33.12592592592593,0)" xlink:href="#aW"/><use transform="matrix(0.05925925925925927,0,0,0.05925925925925927,45.57037037037037,0)" xlink:href="#aw"/><use transform="matrix(0.05925925925925927,0,0,0.05925925925925927,56.17777777777778,0)" xlink:href="#ax"/><use transform="matrix(0.05925925925925927,0,0,0.05925925925925927,68.02962962962962,0)" xlink:href="#ay"/><use transform="matrix(0.05925925925925927,0,0,0.05925925925925927,79.88148148148147,0)" xlink:href="#az"/><use transform="matrix(0.05925925925925927,0,0,0.05925925925925927,84.56296296296296,0)" xlink:href="#aA"/><use transform="matrix(0.05925925925925927,0,0,0.05925925925925927,96.4148148148148,0)" xlink:href="#ac"/><use transform="matrix(0.05925925925925927,0,0,0.05925925925925927,110.63703703703703,0)" xlink:href="#bt"/><use transform="matrix(0.05925925925925927,0,0,0.05925925925925927,121.3037037037037,0)" xlink:href="#by"/><use transform="matrix(0.05925925925925927,0,0,0.05925925925925927,133.15555555555557,0)" xlink:href="#aA"/><use transform="matrix(0.05925925925925927,0,0,0.05925925925925927,145.0074074074074,0)" xlink:href="#bz"/><use transform="matrix(0.05925925925925927,0,0,0.05925925925925927,162.72592592592594,0)" xlink:href="#ax"/><use transform="matrix(0.05925925925925927,0,0,0.05925925925925927,174.57777777777778,0)" xlink:href="#aY"/></g><path fill="#660e7a" d="M135-194c53 0 70 44 70 98 0 56-19 98-73 100-31 1-45-17-59-34 3 33 2 69 2 105H25l-1-265h48c2 10 0 23 3 31 11-24 29-35 60-35zM114-30c33 0 39-31 40-66 0-38-9-64-40-64-56 0-55 130 0 130" id="bA"/><g id="C"><use transform="matrix(0.05925925925925927,0,0,0.05925925925925927,0,0)" xlink:href="#T"/><use transform="matrix(0.05925925925925927,0,0,0.05925925925925927,12.97777777777778,0)" xlink:href="#bA"/><use transform="matrix(0.05925925925925927,0,0,0.05925925925925927,25.95555555555556,0)" xlink:href="#aa"/><use transform="matrix(0.05925925925925927,0,0,0.05925925925925927,37.80740740740741,0)" xlink:href="#bq"/><use transform="matrix(0.05925925925925927,0,0,0.05925925925925927,46.10370370370371,0)" xlink:href="#bm"/><use transform="matrix(0.05925925925925927,0,0,0.05925925925925927,57.95555555555556,0)" xlink:href="#bl"/><use transform="matrix(0.05925925925925927,0,0,0.05925925925925927,65.00740740740741,0)" xlink:href="#W"/><use transform="matrix(0.05925925925925927,0,0,0.05925925925925927,70.93333333333334,0)" xlink:href="#T"/><use transform="matrix(0.05925925925925927,0,0,0.05925925925925927,83.91111111111111,0)" xlink:href="#U"/><use transform="matrix(0.05925925925925927,0,0,0.05925925925925927,96.88888888888889,0)" xlink:href="#br"/></g><path fill="#8c6c41" d="M140-251c81 0 123 46 123 126C263-46 219 4 140 4 59 4 17-45 17-125s42-126 123-126zm0 227c63 0 89-41 89-101s-29-99-89-99c-61 0-89 39-89 99S79-25 140-24" id="bB"/><g id="D"><use transform="matrix(0.05925925925925927,0,0,0.05925925925925927,0,0)" xlink:href="#bw"/><use transform="matrix(0.05925925925925927,0,0,0.05925925925925927,11.851851851851853,0)" xlink:href="#af"/><use transform="matrix(0.05925925925925927,0,0,0.05925925925925927,16.533333333333335,0)" xlink:href="#bx"/><use transform="matrix(0.05925925925925927,0,0,0.05925925925925927,27.200000000000003,0)" xlink:href="#ad"/><use transform="matrix(0.05925925925925927,0,0,0.05925925925925927,33.12592592592593,0)" xlink:href="#aW"/><use transform="matrix(0.05925925925925927,0,0,0.05925925925925927,45.57037037037037,0)" xlink:href="#aw"/><use transform="matrix(0.05925925925925927,0,0,0.05925925925925927,56.17777777777778,0)" xlink:href="#ax"/><use transform="matrix(0.05925925925925927,0,0,0.05925925925925927,68.02962962962962,0)" xlink:href="#ay"/><use transform="matrix(0.05925925925925927,0,0,0.05925925925925927,79.88148148148147,0)" xlink:href="#az"/><use transform="matrix(0.05925925925925927,0,0,0.05925925925925927,84.56296296296296,0)" xlink:href="#aA"/><use transform="matrix(0.05925925925925927,0,0,0.05925925925925927,96.4148148148148,0)" xlink:href="#bB"/><use transform="matrix(0.05925925925925927,0,0,0.05925925925925927,113.0074074074074,0)" xlink:href="#aV"/><use transform="matrix(0.05925925925925927,0,0,0.05925925925925927,124.85925925925925,0)" xlink:href="#aA"/><use transform="matrix(0.05925925925925927,0,0,0.05925925925925927,136.7111111111111,0)" xlink:href="#ae"/><use transform="matrix(0.05925925925925927,0,0,0.05925925925925927,143.76296296296297,0)" xlink:href="#ax"/><use transform="matrix(0.05925925925925927,0,0,0.05925925925925927,155.61481481481482,0)" xlink:href="#ad"/><use transform="matrix(0.05925925925925927,0,0,0.05925925925925927,161.54074074074074,0)" xlink:href="#af"/><use transform="matrix(0.05925925925925927,0,0,0.05925925925925927,166.22222222222223,0)" xlink:href="#aR"/><use transform="matrix(0.05925925925925927,0,0,0.05925925925925927,178.07407407407408,0)" xlink:href="#ag"/><use transform="matrix(0.05925925925925927,0,0,0.05925925925925927,189.92592592592592,0)" xlink:href="#aY"/></g><path fill="#660e7a" d="M144 0l-44-69L55 0H2l70-98-66-92h53l41 62 40-62h54l-67 91 71 99h-54" id="bC"/><g id="E"><use transform="matrix(0.05925925925925927,0,0,0.05925925925925927,0,0)" xlink:href="#aa"/><use transform="matrix(0.05925925925925927,0,0,0.05925925925925927,11.851851851851853,0)" xlink:href="#bC"/><use transform="matrix(0.05925925925925927,0,0,0.05925925925925927,23.703703703703706,0)" xlink:href="#bA"/><use transform="matrix(0.05925925925925927,0,0,0.05925925925925927,36.681481481481484,0)" xlink:href="#T"/><use transform="matrix(0.05925925925925927,0,0,0.05925925925925927,49.659259259259265,0)" xlink:href="#bq"/><use transform="matrix(0.05925925925925927,0,0,0.05925925925925927,57.95555555555556,0)" xlink:href="#bl"/><use transform="matrix(0.05925925925925927,0,0,0.05925925925925927,65.00740740740741,0)" xlink:href="#aa"/><use transform="matrix(0.05925925925925927,0,0,0.05925925925925927,76.85925925925926,0)" xlink:href="#bq"/><use transform="matrix(0.05925925925925927,0,0,0.05925925925925927,85.15555555555557,0)" xlink:href="#br"/></g><path fill="#3a414a" d="M18-100v-36l175-74v27L42-118l151 64v27" id="bD"/><path fill="#8c6c41" d="M30 0v-248h187v28H63v79h144v27H63v87h162V0H30" id="bE"/><path fill="#8c6c41" d="M141 0L90-78 38 0H4l68-98-65-92h35l48 74 47-74h35l-64 92 68 98h-35" id="bF"/><path fill="#3a414a" d="M18-27v-27l151-64-151-65v-27l175 74v36" id="bG"/><g id="F"><use transform="matrix(0.05925925925925927,0,0,0.05925925925925927,0,0)" xlink:href="#bw"/><use transform="matrix(0.05925925925925927,0,0,0.05925925925925927,11.851851851851853,0)" xlink:href="#af"/><use transform="matrix(0.05925925925925927,0,0,0.05925925925925927,16.533333333333335,0)" xlink:href="#bx"/><use transform="matrix(0.05925925925925927,0,0,0.05925925925925927,27.200000000000003,0)" xlink:href="#ad"/><use transform="matrix(0.06172839506172839,0,0,0.06172839506172839,33.12592592592593,0)" xlink:href="#bD"/><use transform="matrix(0.05925925925925927,0,0,0.05925925925925927,46.08888888888889,0)" xlink:href="#aw"/><use transform="matrix(0.05925925925925927,0,0,0.05925925925925927,56.696296296296296,0)" xlink:href="#ax"/><use transform="matrix(0.05925925925925927,0,0,0.05925925925925927,68.54814814814814,0)" xlink:href="#ay"/><use transform="matrix(0.05925925925925927,0,0,0.05925925925925927,80.39999999999999,0)" xlink:href="#az"/><use transform="matrix(0.05925925925925927,0,0,0.05925925925925927,85.08148148148148,0)" xlink:href="#aA"/><use transform="matrix(0.05925925925925927,0,0,0.05925925925925927,96.93333333333332,0)" xlink:href="#bE"/><use transform="matrix(0.05925925925925927,0,0,0.05925925925925927,111.15555555555555,0)" xlink:href="#bF"/><use transform="matrix(0.05925925925925927,0,0,0.05925925925925927,121.82222222222221,0)" xlink:href="#aV"/><use transform="matrix(0.05925925925925927,0,0,0.05925925925925927,133.67407407407407,0)" xlink:href="#aR"/><use transform="matrix(0.05925925925925927,0,0,0.05925925925925927,145.52592592592592,0)" xlink:href="#ae"/><use transform="matrix(0.05925925925925927,0,0,0.05925925925925927,152.57777777777778,0)" xlink:href="#ad"/><use transform="matrix(0.05925925925925927,0,0,0.05925925925925927,158.5037037037037,0)" xlink:href="#aA"/><use transform="matrix(0.05925925925925927,0,0,0.05925925925925927,170.35555555555555,0)" xlink:href="#ae"/><use transform="matrix(0.06172839506172839,0,0,0.06172839506172839,177.40740740740742,0)" xlink:href="#bG"/></g></defs></g></svg>