<svg xmlns="http://www.w3.org/2000/svg" xmlns:xlink="http://www.w3.org/1999/xlink" xmlns:lucid="lucid" width="481" height="236"><g transform="translate(830.5000000088095 900.5000000041977)" lucid:page-tab-id="GxBKn.cwmk19"><path d="M-3000-1500h8000v3500h-8000z" fill="#fff"/><path d="M-830-894a6 6 0 0 1 6-6h468a6 6 0 0 1 6 6v223a6 6 0 0 1-6 6h-468a6 6 0 0 1-6-6z" stroke="#3a414a" fill="#fff"/><path d="M-830-862.4h480" stroke="#3a414a" fill="none"/><use xlink:href="#a" transform="matrix(1,0,0,1,-822,-892) translate(165.14999999999998 14.6)"/><use xlink:href="#b" transform="matrix(1,0,0,1,-818,-854.4) translate(0 28.27777777777778)"/><use xlink:href="#c" transform="matrix(1,0,0,1,-818,-854.4) translate(13.518518518518519 28.27777777777778)"/><use xlink:href="#d" transform="matrix(1,0,0,1,-818,-854.4) translate(153.3802469135802 28.27777777777778)"/><use xlink:href="#e" transform="matrix(1,0,0,1,-818,-854.4) translate(166.6049382716049 28.27777777777778)"/><use xlink:href="#f" transform="matrix(1,0,0,1,-818,-854.4) translate(287.9086419753086 28.27777777777778)"/><use xlink:href="#b" transform="matrix(1,0,0,1,-818,-854.4) translate(0 54.94444444444445)"/><use xlink:href="#g" transform="matrix(1,0,0,1,-818,-854.4) translate(13.518518518518519 54.94444444444445)"/><use xlink:href="#h" transform="matrix(1,0,0,1,-818,-854.4) translate(162.92098765432098 54.94444444444445)"/><use xlink:href="#i" transform="matrix(1,0,0,1,-818,-854.4) translate(175.89876543209877 54.94444444444445)"/><use xlink:href="#b" transform="matrix(1,0,0,1,-818,-854.4) translate(0 81.61111111111111)"/><use xlink:href="#j" transform="matrix(1,0,0,1,-818,-854.4) translate(13.518518518518519 81.61111111111111)"/><use xlink:href="#d" transform="matrix(1,0,0,1,-818,-854.4) translate(128.4320987654321 81.61111111111111)"/><use xlink:href="#k" transform="matrix(1,0,0,1,-818,-854.4) translate(141.6567901234568 81.61111111111111)"/><use xlink:href="#b" transform="matrix(1,0,0,1,-818,-854.4) translate(0 108.27777777777777)"/><use xlink:href="#l" transform="matrix(1,0,0,1,-818,-854.4) translate(13.518518518518519 108.27777777777777)"/><use xlink:href="#d" transform="matrix(1,0,0,1,-818,-854.4) translate(81.20246913580247 108.27777777777777)"/><use xlink:href="#m" transform="matrix(1,0,0,1,-818,-854.4) translate(94.42716049382716 108.27777777777777)"/><use xlink:href="#b" transform="matrix(1,0,0,1,-818,-854.4) translate(0 134.94444444444446)"/><use xlink:href="#n" transform="matrix(1,0,0,1,-818,-854.4) translate(13.518518518518519 134.94444444444446)"/><use xlink:href="#d" transform="matrix(1,0,0,1,-818,-854.4) translate(86.00246913580247 134.94444444444446)"/><use xlink:href="#o" transform="matrix(1,0,0,1,-818,-854.4) translate(99.22716049382716 134.94444444444446)"/><use xlink:href="#p" transform="matrix(1,0,0,1,-818,-854.4) translate(0 161.61111111111111)"/><defs><path d="M24 0v-248h52V0H24" id="q"/><path d="M135-194c87-1 58 113 63 194h-50c-7-57 23-157-34-157-59 0-34 97-39 157H25l-1-190h47c2 12-1 28 3 38 12-26 28-41 61-42" id="r"/><path d="M115-3C79 11 28 4 28-45v-112H4v-33h27l15-45h31v45h36v33H77v99c-1 23 16 31 38 25v30" id="s"/><path d="M185-48c-13 30-37 53-82 52C43 2 14-33 14-96s30-98 90-98c62 0 83 45 84 108H66c0 31 8 55 39 56 18 0 30-7 34-22zm-45-69c5-46-57-63-70-21-2 6-4 13-4 21h74" id="t"/><path d="M135-150c-39-12-60 13-60 57V0H25l-1-190h47c2 13-1 29 3 40 6-28 27-53 61-41v41" id="u"/><path d="M135-194c53 0 70 44 70 98 0 56-19 98-73 100-31 1-45-17-59-34 3 33 2 69 2 105H25l-1-265h48c2 10 0 23 3 31 11-24 29-35 60-35zM114-30c33 0 39-31 40-66 0-38-9-64-40-64-56 0-55 130 0 130" id="v"/><path d="M169-182c-1-43-94-46-97-3 18 66 151 10 154 114 3 95-165 93-204 36-6-8-10-19-12-30l50-8c3 46 112 56 116 5-17-69-150-10-154-114-4-87 153-88 188-35 5 8 8 18 10 28" id="w"/><path d="M133-34C117-15 103 5 69 4 32 3 11-16 11-54c-1-60 55-63 116-61 1-26-3-47-28-47-18 1-26 9-28 27l-52-2c7-38 36-58 82-57s74 22 75 68l1 82c-1 14 12 18 25 15v27c-30 8-71 5-69-32zm-48 3c29 0 43-24 42-57-32 0-66-3-65 30 0 17 8 27 23 27" id="x"/><g id="a"><use transform="matrix(0.05,0,0,0.05,0,0)" xlink:href="#q"/><use transform="matrix(0.05,0,0,0.05,5,0)" xlink:href="#r"/><use transform="matrix(0.05,0,0,0.05,15.950000000000001,0)" xlink:href="#s"/><use transform="matrix(0.05,0,0,0.05,21.900000000000002,0)" xlink:href="#t"/><use transform="matrix(0.05,0,0,0.05,31.900000000000002,0)" xlink:href="#u"/><use transform="matrix(0.05,0,0,0.05,38.900000000000006,0)" xlink:href="#v"/><use transform="matrix(0.05,0,0,0.05,49.85000000000001,0)" xlink:href="#u"/><use transform="matrix(0.05,0,0,0.05,56.85,0)" xlink:href="#t"/><use transform="matrix(0.05,0,0,0.05,66.85000000000001,0)" xlink:href="#s"/><use transform="matrix(0.05,0,0,0.05,72.80000000000001,0)" xlink:href="#t"/><use transform="matrix(0.05,0,0,0.05,82.80000000000001,0)" xlink:href="#u"/><use transform="matrix(0.05,0,0,0.05,89.80000000000001,0)" xlink:href="#w"/><use transform="matrix(0.05,0,0,0.05,101.80000000000001,0)" xlink:href="#s"/><use transform="matrix(0.05,0,0,0.05,107.75,0)" xlink:href="#x"/><use transform="matrix(0.05,0,0,0.05,117.75,0)" xlink:href="#s"/><use transform="matrix(0.05,0,0,0.05,123.7,0)" xlink:href="#t"/></g><path fill="#3a414a" d="M16-82v-28h88v28H16" id="y"/><use transform="matrix(0.06172839506172839,0,0,0.06172839506172839,0,0)" xlink:href="#y" id="b"/><path fill="#660e7a" d="M115-3C79 11 28 4 28-45v-112H4v-33h27l15-45h31v45h36v33H77v99c-1 23 16 31 38 25v30" id="z"/><path fill="#660e7a" d="M133-34C117-15 103 5 69 4 32 3 11-16 11-54c-1-60 55-63 116-61 1-26-3-47-28-47-18 1-26 9-28 27l-52-2c7-38 36-58 82-57s74 22 75 68l1 82c-1 14 12 18 25 15v27c-30 8-71 5-69-32zm-48 3c29 0 43-24 42-57-32 0-66-3-65 30 0 17 8 27 23 27" id="A"/><path fill="#660e7a" d="M135-194c52 0 70 43 70 98 0 56-19 99-73 100-30 1-46-15-58-35L72 0H24l1-261h50v104c11-23 29-37 60-37zM114-30c31 0 40-27 40-66 0-37-7-63-39-63s-41 28-41 65c0 36 8 64 40 64" id="B"/><path fill="#660e7a" d="M25 0v-261h50V0H25" id="C"/><path fill="#660e7a" d="M185-48c-13 30-37 53-82 52C43 2 14-33 14-96s30-98 90-98c62 0 83 45 84 108H66c0 31 8 55 39 56 18 0 30-7 34-22zm-45-69c5-46-57-63-70-21-2 6-4 13-4 21h74" id="D"/><path fill="#660e7a" d="M169-182c-1-43-94-46-97-3 18 66 151 10 154 114 3 95-165 93-204 36-6-8-10-19-12-30l50-8c3 46 112 56 116 5-17-69-150-10-154-114-4-87 153-88 188-35 5 8 8 18 10 28" id="E"/><path fill="#660e7a" d="M110-194c64 0 96 36 96 99 0 64-35 99-97 99-61 0-95-36-95-99 0-62 34-99 96-99zm-1 164c35 0 45-28 45-65 0-40-10-65-43-65-34 0-45 26-45 65 0 36 10 65 43 65" id="F"/><path fill="#660e7a" d="M85 4C-2 5 27-109 22-190h50c7 57-23 150 33 157 60-5 35-97 40-157h50l1 190h-47c-2-12 1-28-3-38-12 25-28 42-61 42" id="G"/><path fill="#660e7a" d="M135-150c-39-12-60 13-60 57V0H25l-1-190h47c2 13-1 29 3 40 6-28 27-53 61-41v41" id="H"/><path fill="#660e7a" d="M190-63c-7 42-38 67-86 67-59 0-84-38-90-98-12-110 154-137 174-36l-49 2c-2-19-15-32-35-32-30 0-35 28-38 64-6 74 65 87 74 30" id="I"/><path fill="#660e7a" d="M137-138c1-29-70-34-71-4 15 46 118 7 119 86 1 83-164 76-172 9l43-7c4 19 20 25 44 25 33 8 57-30 24-41C81-84 22-81 20-136c-2-80 154-74 161-7" id="J"/><g id="c"><use transform="matrix(0.05925925925925927,0,0,0.05925925925925927,0,0)" xlink:href="#z"/><use transform="matrix(0.05925925925925927,0,0,0.05925925925925927,7.051851851851853,0)" xlink:href="#A"/><use transform="matrix(0.05925925925925927,0,0,0.05925925925925927,18.903703703703705,0)" xlink:href="#B"/><use transform="matrix(0.05925925925925927,0,0,0.05925925925925927,31.881481481481487,0)" xlink:href="#C"/><use transform="matrix(0.05925925925925927,0,0,0.05925925925925927,37.80740740740741,0)" xlink:href="#D"/><use transform="matrix(0.05925925925925927,0,0,0.05925925925925927,49.659259259259265,0)" xlink:href="#E"/><use transform="matrix(0.05925925925925927,0,0,0.05925925925925927,63.881481481481494,0)" xlink:href="#F"/><use transform="matrix(0.05925925925925927,0,0,0.05925925925925927,76.85925925925926,0)" xlink:href="#G"/><use transform="matrix(0.05925925925925927,0,0,0.05925925925925927,89.83703703703704,0)" xlink:href="#H"/><use transform="matrix(0.05925925925925927,0,0,0.05925925925925927,98.13333333333333,0)" xlink:href="#I"/><use transform="matrix(0.05925925925925927,0,0,0.05925925925925927,109.98518518518517,0)" xlink:href="#D"/><use transform="matrix(0.05925925925925927,0,0,0.05925925925925927,121.83703703703704,0)" xlink:href="#J"/></g><path fill="#383838" d="M35-132v-50h50v50H35zM35 0v-49h50V0H35" id="K"/><use transform="matrix(0.059259259259259255,0,0,0.059259259259259255,0,0)" xlink:href="#K" id="d"/><path fill="#8c6c41" d="M240 0l2-218c-23 76-54 145-80 218h-23L58-218 59 0H30v-248h44l77 211c21-75 51-140 76-211h43V0h-30" id="L"/><path fill="#8c6c41" d="M141-36C126-15 110 5 73 4 37 3 15-17 15-53c-1-64 63-63 125-63 3-35-9-54-41-54-24 1-41 7-42 31l-33-3c5-37 33-52 76-52 45 0 72 20 72 64v82c-1 20 7 32 28 27v20c-31 9-61-2-59-35zM48-53c0 20 12 33 32 33 41-3 63-29 60-74-43 2-92-5-92 41" id="M"/><path fill="#8c6c41" d="M115-194c55 1 70 41 70 98S169 2 115 4C84 4 66-9 55-30l1 105H24l-1-265h31l2 30c10-21 28-34 59-34zm-8 174c40 0 45-34 45-75s-6-73-45-74c-42 0-51 32-51 76 0 43 10 73 51 73" id="N"/><path fill="#383838" d="M18-100v-36l175-74v27L42-118l151 64v27" id="O"/><path fill="#8c6c41" d="M185-189c-5-48-123-54-124 2 14 75 158 14 163 119 3 78-121 87-175 55-17-10-28-26-33-46l33-7c5 56 141 63 141-1 0-78-155-14-162-118-5-82 145-84 179-34 5 7 8 16 11 25" id="P"/><path fill="#8c6c41" d="M59-47c-2 24 18 29 38 22v24C64 9 27 4 27-40v-127H5v-23h24l9-43h21v43h35v23H59v120" id="Q"/><path fill="#8c6c41" d="M114-163C36-179 61-72 57 0H25l-1-190h30c1 12-1 29 2 39 6-27 23-49 58-41v29" id="R"/><path fill="#8c6c41" d="M24-231v-30h32v30H24zM24 0v-190h32V0H24" id="S"/><path fill="#8c6c41" d="M117-194c89-4 53 116 60 194h-32v-121c0-31-8-49-39-48C34-167 62-67 57 0H25l-1-190h30c1 10-1 24 2 32 11-22 29-35 61-36" id="T"/><path fill="#8c6c41" d="M177-190C167-65 218 103 67 71c-23-6-38-20-44-43l32-5c15 47 100 32 89-28v-30C133-14 115 1 83 1 29 1 15-40 15-95c0-56 16-97 71-98 29-1 48 16 59 35 1-10 0-23 2-32h30zM94-22c36 0 50-32 50-73 0-42-14-75-50-75-39 0-46 34-46 75s6 73 46 73" id="U"/><path fill="#383838" d="M76-54c-1 42 2 86-19 110H24C36 42 46 24 48 0H25v-54h51" id="V"/><g id="e"><use transform="matrix(0.05925925925925927,0,0,0.05925925925925927,0,0)" xlink:href="#L"/><use transform="matrix(0.05925925925925927,0,0,0.05925925925925927,17.718518518518522,0)" xlink:href="#M"/><use transform="matrix(0.05925925925925927,0,0,0.05925925925925927,29.570370370370377,0)" xlink:href="#N"/><use transform="matrix(0.05925925925925927,0,0,0.05925925925925927,41.42222222222223,0)" xlink:href="#O"/><use transform="matrix(0.05925925925925927,0,0,0.05925925925925927,53.866666666666674,0)" xlink:href="#P"/><use transform="matrix(0.05925925925925927,0,0,0.05925925925925927,68.0888888888889,0)" xlink:href="#Q"/><use transform="matrix(0.05925925925925927,0,0,0.05925925925925927,74.01481481481483,0)" xlink:href="#R"/><use transform="matrix(0.05925925925925927,0,0,0.05925925925925927,81.06666666666668,0)" xlink:href="#S"/><use transform="matrix(0.05925925925925927,0,0,0.05925925925925927,85.74814814814816,0)" xlink:href="#T"/><use transform="matrix(0.05925925925925927,0,0,0.05925925925925927,97.60000000000001,0)" xlink:href="#U"/><use transform="matrix(0.05925925925925927,0,0,0.05925925925925927,109.45185185185186,0)" xlink:href="#V"/></g><path fill="#8c6c41" d="M127-220V0H93v-220H8v-28h204v28h-85" id="W"/><path fill="#8c6c41" d="M115-194c53 0 69 39 70 98 0 66-23 100-70 100C84 3 66-7 56-30L54 0H23l1-261h32v101c10-23 28-34 59-34zm-8 174c40 0 45-34 45-75 0-40-5-75-45-74-42 0-51 32-51 76 0 43 10 73 51 73" id="X"/><path fill="#8c6c41" d="M24 0v-261h32V0H24" id="Y"/><path fill="#8c6c41" d="M100-194c63 0 86 42 84 106H49c0 40 14 67 53 68 26 1 43-12 49-29l28 8c-11 28-37 45-77 45C44 4 14-33 15-96c1-61 26-98 85-98zm52 81c6-60-76-77-97-28-3 7-6 17-6 28h103" id="Z"/><path fill="#8c6c41" d="M100-194c62-1 85 37 85 99 1 63-27 99-86 99S16-35 15-95c0-66 28-99 85-99zM99-20c44 1 53-31 53-75 0-43-8-75-51-75s-53 32-53 75 10 74 51 75" id="aa"/><path fill="#8c6c41" d="M84 4C-5 8 30-112 23-190h32v120c0 31 7 50 39 49 72-2 45-101 50-169h31l1 190h-30c-1-10 1-25-2-33-11 22-28 36-60 37" id="ab"/><path fill="#8c6c41" d="M96-169c-40 0-48 33-48 73s9 75 48 75c24 0 41-14 43-38l32 2c-6 37-31 61-74 61-59 0-76-41-82-99-10-93 101-131 147-64 4 7 5 14 7 22l-32 3c-4-21-16-35-41-35" id="ac"/><path fill="#383838" d="M18-27v-27l151-64-151-65v-27l175 74v36" id="ad"/><g id="f"><use transform="matrix(0.05925925925925927,0,0,0.05925925925925927,0,0)" xlink:href="#W"/><use transform="matrix(0.05925925925925927,0,0,0.05925925925925927,10.60740740740741,0)" xlink:href="#M"/><use transform="matrix(0.05925925925925927,0,0,0.05925925925925927,22.459259259259262,0)" xlink:href="#X"/><use transform="matrix(0.05925925925925927,0,0,0.05925925925925927,34.31111111111112,0)" xlink:href="#Y"/><use transform="matrix(0.05925925925925927,0,0,0.05925925925925927,38.9925925925926,0)" xlink:href="#Z"/><use transform="matrix(0.05925925925925927,0,0,0.05925925925925927,50.844444444444456,0)" xlink:href="#P"/><use transform="matrix(0.05925925925925927,0,0,0.05925925925925927,65.06666666666668,0)" xlink:href="#aa"/><use transform="matrix(0.05925925925925927,0,0,0.05925925925925927,76.91851851851852,0)" xlink:href="#ab"/><use transform="matrix(0.05925925925925927,0,0,0.05925925925925927,88.77037037037037,0)" xlink:href="#R"/><use transform="matrix(0.05925925925925927,0,0,0.05925925925925927,95.82222222222222,0)" xlink:href="#ac"/><use transform="matrix(0.05925925925925927,0,0,0.05925925925925927,106.4888888888889,0)" xlink:href="#Z"/><use transform="matrix(0.05925925925925927,0,0,0.05925925925925927,118.34074074074074,0)" xlink:href="#ad"/></g><path fill="#660e7a" d="M114-157C55-157 80-60 75 0H25v-261h50l-1 109c12-26 28-41 61-42 86-1 58 113 63 194h-50c-7-57 23-157-34-157" id="ae"/><path fill="#660e7a" d="M220-157c-53 9-28 100-34 157h-49v-107c1-27-5-49-29-50C55-147 81-57 75 0H25l-1-190h47c2 12-1 28 3 38 10-53 101-56 108 0 13-22 24-43 59-42 82 1 51 116 57 194h-49v-107c-1-25-5-48-29-50" id="af"/><g id="g"><use transform="matrix(0.05925925925925927,0,0,0.05925925925925927,0,0)" xlink:href="#z"/><use transform="matrix(0.05925925925925927,0,0,0.05925925925925927,7.051851851851853,0)" xlink:href="#A"/><use transform="matrix(0.05925925925925927,0,0,0.05925925925925927,18.903703703703705,0)" xlink:href="#B"/><use transform="matrix(0.05925925925925927,0,0,0.05925925925925927,31.881481481481487,0)" xlink:href="#C"/><use transform="matrix(0.05925925925925927,0,0,0.05925925925925927,37.80740740740741,0)" xlink:href="#D"/><use transform="matrix(0.05925925925925927,0,0,0.05925925925925927,49.659259259259265,0)" xlink:href="#E"/><use transform="matrix(0.05925925925925927,0,0,0.05925925925925927,63.881481481481494,0)" xlink:href="#I"/><use transform="matrix(0.05925925925925927,0,0,0.05925925925925927,75.73333333333333,0)" xlink:href="#ae"/><use transform="matrix(0.05925925925925927,0,0,0.05925925925925927,88.71111111111111,0)" xlink:href="#D"/><use transform="matrix(0.05925925925925927,0,0,0.05925925925925927,100.56296296296296,0)" xlink:href="#af"/><use transform="matrix(0.05925925925925927,0,0,0.05925925925925927,119.52592592592592,0)" xlink:href="#A"/><use transform="matrix(0.05925925925925927,0,0,0.05925925925925927,131.37777777777777,0)" xlink:href="#J"/></g><use transform="matrix(0.059259259259259255,0,0,0.059259259259259255,0,0)" xlink:href="#K" id="h"/><path fill="#8c6c41" d="M30 0v-248h33v221h125V0H30" id="ag"/><path fill="#8c6c41" d="M135-143c-3-34-86-38-87 0 15 53 115 12 119 90S17 21 10-45l28-5c4 36 97 45 98 0-10-56-113-15-118-90-4-57 82-63 122-42 12 7 21 19 24 35" id="ah"/><path fill="#8c6c41" d="M106-169C34-169 62-67 57 0H25v-261h32l-1 103c12-21 28-36 61-36 89 0 53 116 60 194h-32v-121c2-32-8-49-39-48" id="ai"/><path fill="#8c6c41" d="M210-169c-67 3-38 105-44 169h-31v-121c0-29-5-50-35-48C34-165 62-65 56 0H25l-1-190h30c1 10-1 24 2 32 10-44 99-50 107 0 11-21 27-35 58-36 85-2 47 119 55 194h-31v-121c0-29-5-49-35-48" id="aj"/><g id="i"><use transform="matrix(0.05925925925925927,0,0,0.05925925925925927,0,0)" xlink:href="#ag"/><use transform="matrix(0.05925925925925927,0,0,0.05925925925925927,11.851851851851853,0)" xlink:href="#S"/><use transform="matrix(0.05925925925925927,0,0,0.05925925925925927,16.533333333333335,0)" xlink:href="#ah"/><use transform="matrix(0.05925925925925927,0,0,0.05925925925925927,27.200000000000003,0)" xlink:href="#Q"/><use transform="matrix(0.05925925925925927,0,0,0.05925925925925927,33.12592592592593,0)" xlink:href="#O"/><use transform="matrix(0.05925925925925927,0,0,0.05925925925925927,45.57037037037037,0)" xlink:href="#W"/><use transform="matrix(0.05925925925925927,0,0,0.05925925925925927,56.17777777777778,0)" xlink:href="#M"/><use transform="matrix(0.05925925925925927,0,0,0.05925925925925927,68.02962962962962,0)" xlink:href="#X"/><use transform="matrix(0.05925925925925927,0,0,0.05925925925925927,79.88148148148147,0)" xlink:href="#Y"/><use transform="matrix(0.05925925925925927,0,0,0.05925925925925927,84.56296296296296,0)" xlink:href="#Z"/><use transform="matrix(0.05925925925925927,0,0,0.05925925925925927,96.4148148148148,0)" xlink:href="#P"/><use transform="matrix(0.05925925925925927,0,0,0.05925925925925927,110.63703703703703,0)" xlink:href="#ac"/><use transform="matrix(0.05925925925925927,0,0,0.05925925925925927,121.3037037037037,0)" xlink:href="#ai"/><use transform="matrix(0.05925925925925927,0,0,0.05925925925925927,133.15555555555557,0)" xlink:href="#Z"/><use transform="matrix(0.05925925925925927,0,0,0.05925925925925927,145.0074074074074,0)" xlink:href="#aj"/><use transform="matrix(0.05925925925925927,0,0,0.05925925925925927,162.72592592592594,0)" xlink:href="#M"/><use transform="matrix(0.05925925925925927,0,0,0.05925925925925927,174.57777777777778,0)" xlink:href="#ad"/></g><path fill="#660e7a" d="M135-194c53 0 70 44 70 98 0 56-19 98-73 100-31 1-45-17-59-34 3 33 2 69 2 105H25l-1-265h48c2 10 0 23 3 31 11-24 29-35 60-35zM114-30c33 0 39-31 40-66 0-38-9-64-40-64-56 0-55 130 0 130" id="ak"/><path fill="#660e7a" d="M25-224v-37h50v37H25zM25 0v-190h50V0H25" id="al"/><path fill="#660e7a" d="M135-194c87-1 58 113 63 194h-50c-7-57 23-157-34-157-59 0-34 97-39 157H25l-1-190h47c2 12-1 28 3 38 12-26 28-41 61-42" id="am"/><g id="j"><use transform="matrix(0.05925925925925927,0,0,0.05925925925925927,0,0)" xlink:href="#F"/><use transform="matrix(0.05925925925925927,0,0,0.05925925925925927,12.97777777777778,0)" xlink:href="#ak"/><use transform="matrix(0.05925925925925927,0,0,0.05925925925925927,25.95555555555556,0)" xlink:href="#D"/><use transform="matrix(0.05925925925925927,0,0,0.05925925925925927,37.80740740740741,0)" xlink:href="#H"/><use transform="matrix(0.05925925925925927,0,0,0.05925925925925927,46.10370370370371,0)" xlink:href="#A"/><use transform="matrix(0.05925925925925927,0,0,0.05925925925925927,57.95555555555556,0)" xlink:href="#z"/><use transform="matrix(0.05925925925925927,0,0,0.05925925925925927,65.00740740740741,0)" xlink:href="#al"/><use transform="matrix(0.05925925925925927,0,0,0.05925925925925927,70.93333333333334,0)" xlink:href="#F"/><use transform="matrix(0.05925925925925927,0,0,0.05925925925925927,83.91111111111111,0)" xlink:href="#am"/><use transform="matrix(0.05925925925925927,0,0,0.05925925925925927,96.88888888888889,0)" xlink:href="#J"/></g><path fill="#8c6c41" d="M140-251c81 0 123 46 123 126C263-46 219 4 140 4 59 4 17-45 17-125s42-126 123-126zm0 227c63 0 89-41 89-101s-29-99-89-99c-61 0-89 39-89 99S79-25 140-24" id="an"/><g id="k"><use transform="matrix(0.05925925925925927,0,0,0.05925925925925927,0,0)" xlink:href="#ag"/><use transform="matrix(0.05925925925925927,0,0,0.05925925925925927,11.851851851851853,0)" xlink:href="#S"/><use transform="matrix(0.05925925925925927,0,0,0.05925925925925927,16.533333333333335,0)" xlink:href="#ah"/><use transform="matrix(0.05925925925925927,0,0,0.05925925925925927,27.200000000000003,0)" xlink:href="#Q"/><use transform="matrix(0.05925925925925927,0,0,0.05925925925925927,33.12592592592593,0)" xlink:href="#O"/><use transform="matrix(0.05925925925925927,0,0,0.05925925925925927,45.57037037037037,0)" xlink:href="#W"/><use transform="matrix(0.05925925925925927,0,0,0.05925925925925927,56.17777777777778,0)" xlink:href="#M"/><use transform="matrix(0.05925925925925927,0,0,0.05925925925925927,68.02962962962962,0)" xlink:href="#X"/><use transform="matrix(0.05925925925925927,0,0,0.05925925925925927,79.88148148148147,0)" xlink:href="#Y"/><use transform="matrix(0.05925925925925927,0,0,0.05925925925925927,84.56296296296296,0)" xlink:href="#Z"/><use transform="matrix(0.05925925925925927,0,0,0.05925925925925927,96.4148148148148,0)" xlink:href="#an"/><use transform="matrix(0.05925925925925927,0,0,0.05925925925925927,113.0074074074074,0)" xlink:href="#N"/><use transform="matrix(0.05925925925925927,0,0,0.05925925925925927,124.85925925925925,0)" xlink:href="#Z"/><use transform="matrix(0.05925925925925927,0,0,0.05925925925925927,136.7111111111111,0)" xlink:href="#R"/><use transform="matrix(0.05925925925925927,0,0,0.05925925925925927,143.76296296296297,0)" xlink:href="#M"/><use transform="matrix(0.05925925925925927,0,0,0.05925925925925927,155.61481481481482,0)" xlink:href="#Q"/><use transform="matrix(0.05925925925925927,0,0,0.05925925925925927,161.54074074074074,0)" xlink:href="#S"/><use transform="matrix(0.05925925925925927,0,0,0.05925925925925927,166.22222222222223,0)" xlink:href="#aa"/><use transform="matrix(0.05925925925925927,0,0,0.05925925925925927,178.07407407407408,0)" xlink:href="#T"/><use transform="matrix(0.05925925925925927,0,0,0.05925925925925927,189.92592592592592,0)" xlink:href="#ad"/></g><g id="l"><use transform="matrix(0.05925925925925927,0,0,0.05925925925925927,0,0)" xlink:href="#z"/><use transform="matrix(0.05925925925925927,0,0,0.05925925925925927,7.051851851851853,0)" xlink:href="#A"/><use transform="matrix(0.05925925925925927,0,0,0.05925925925925927,18.903703703703705,0)" xlink:href="#B"/><use transform="matrix(0.05925925925925927,0,0,0.05925925925925927,31.881481481481487,0)" xlink:href="#C"/><use transform="matrix(0.05925925925925927,0,0,0.05925925925925927,37.80740740740741,0)" xlink:href="#D"/><use transform="matrix(0.05925925925925927,0,0,0.05925925925925927,49.659259259259265,0)" xlink:href="#J"/></g><path fill="#383838" d="M68-38c1 34 0 65-14 84H32c9-13 17-26 17-46H33v-38h35" id="ao"/><g id="m"><use transform="matrix(0.05925925925925927,0,0,0.05925925925925927,0,0)" xlink:href="#L"/><use transform="matrix(0.05925925925925927,0,0,0.05925925925925927,17.718518518518522,0)" xlink:href="#M"/><use transform="matrix(0.05925925925925927,0,0,0.05925925925925927,29.570370370370377,0)" xlink:href="#N"/><use transform="matrix(0.05925925925925927,0,0,0.05925925925925927,41.42222222222223,0)" xlink:href="#O"/><use transform="matrix(0.05925925925925927,0,0,0.05925925925925927,53.866666666666674,0)" xlink:href="#P"/><use transform="matrix(0.05925925925925927,0,0,0.05925925925925927,68.0888888888889,0)" xlink:href="#Q"/><use transform="matrix(0.05925925925925927,0,0,0.05925925925925927,74.01481481481483,0)" xlink:href="#R"/><use transform="matrix(0.05925925925925927,0,0,0.05925925925925927,81.06666666666668,0)" xlink:href="#S"/><use transform="matrix(0.05925925925925927,0,0,0.05925925925925927,85.74814814814816,0)" xlink:href="#T"/><use transform="matrix(0.05925925925925927,0,0,0.05925925925925927,97.60000000000001,0)" xlink:href="#U"/><use transform="matrix(0.05925925925925927,0,0,0.05925925925925927,109.45185185185186,0)" xlink:href="#ao"/><use transform="matrix(0.05925925925925927,0,0,0.05925925925925927,115.37777777777778,0)" xlink:href="#W"/><use transform="matrix(0.05925925925925927,0,0,0.05925925925925927,125.98518518518517,0)" xlink:href="#M"/><use transform="matrix(0.05925925925925927,0,0,0.05925925925925927,137.83703703703705,0)" xlink:href="#X"/><use transform="matrix(0.05925925925925927,0,0,0.05925925925925927,149.6888888888889,0)" xlink:href="#Y"/><use transform="matrix(0.05925925925925927,0,0,0.05925925925925927,154.37037037037038,0)" xlink:href="#Z"/><use transform="matrix(0.05925925925925927,0,0,0.05925925925925927,166.22222222222223,0)" xlink:href="#ad"/></g><path fill="#660e7a" d="M128 0H69L1-190h53L99-40l48-150h52" id="ap"/><g id="n"><use transform="matrix(0.05925925925925927,0,0,0.05925925925925927,0,0)" xlink:href="#ap"/><use transform="matrix(0.05925925925925927,0,0,0.05925925925925927,11.851851851851853,0)" xlink:href="#A"/><use transform="matrix(0.05925925925925927,0,0,0.05925925925925927,23.703703703703706,0)" xlink:href="#C"/><use transform="matrix(0.05925925925925927,0,0,0.05925925925925927,29.629629629629633,0)" xlink:href="#G"/><use transform="matrix(0.05925925925925927,0,0,0.05925925925925927,42.607407407407415,0)" xlink:href="#D"/><use transform="matrix(0.05925925925925927,0,0,0.05925925925925927,54.45925925925927,0)" xlink:href="#J"/></g><path fill="#8c6c41" d="M137 0h-34L2-248h35l83 218 83-218h36" id="aq"/><g id="o"><use transform="matrix(0.05925925925925927,0,0,0.05925925925925927,0,0)" xlink:href="#L"/><use transform="matrix(0.05925925925925927,0,0,0.05925925925925927,17.718518518518522,0)" xlink:href="#M"/><use transform="matrix(0.05925925925925927,0,0,0.05925925925925927,29.570370370370377,0)" xlink:href="#N"/><use transform="matrix(0.05925925925925927,0,0,0.05925925925925927,41.42222222222223,0)" xlink:href="#O"/><use transform="matrix(0.05925925925925927,0,0,0.05925925925925927,53.866666666666674,0)" xlink:href="#P"/><use transform="matrix(0.05925925925925927,0,0,0.05925925925925927,68.0888888888889,0)" xlink:href="#Q"/><use transform="matrix(0.05925925925925927,0,0,0.05925925925925927,74.01481481481483,0)" xlink:href="#R"/><use transform="matrix(0.05925925925925927,0,0,0.05925925925925927,81.06666666666668,0)" xlink:href="#S"/><use transform="matrix(0.05925925925925927,0,0,0.05925925925925927,85.74814814814816,0)" xlink:href="#T"/><use transform="matrix(0.05925925925925927,0,0,0.05925925925925927,97.60000000000001,0)" xlink:href="#U"/><use transform="matrix(0.05925925925925927,0,0,0.05925925925925927,109.45185185185186,0)" xlink:href="#ao"/><use transform="matrix(0.05925925925925927,0,0,0.05925925925925927,115.37777777777778,0)" xlink:href="#aq"/><use transform="matrix(0.05925925925925927,0,0,0.05925925925925927,128,0)" xlink:href="#M"/><use transform="matrix(0.05925925925925927,0,0,0.05925925925925927,139.85185185185185,0)" xlink:href="#Y"/><use transform="matrix(0.05925925925925927,0,0,0.05925925925925927,144.53333333333333,0)" xlink:href="#ab"/><use transform="matrix(0.05925925925925927,0,0,0.05925925925925927,156.38518518518518,0)" xlink:href="#Z"/><use transform="matrix(0.05925925925925927,0,0,0.05925925925925927,168.23703703703703,0)" xlink:href="#ad"/></g></defs></g></svg>