<svg xmlns="http://www.w3.org/2000/svg" xmlns:xlink="http://www.w3.org/1999/xlink" xmlns:lucid="lucid" width="2021" height="566"><g transform="translate(106.76666667717221 -179.499999995185)" lucid:page-tab-id="-GhAMeh~inSo"><path d="M-500 0h2500v1000H-500z" fill="#fff"/><path d="M693.73 186a6 6 0 0 1 6-6h408a6 6 0 0 1 6 6v155a6 6 0 0 1-6 6h-408a6 6 0 0 1-6-6z" stroke="#3a414a" fill="#fff"/><path d="M693.73 239.2h420" stroke="#3a414a" fill="none"/><use xlink:href="#a" transform="matrix(1,0,0,1,701.7333333333332,188) translate(143.575 14.799999999999999)"/><use xlink:href="#b" transform="matrix(1,0,0,1,701.7333333333332,188) translate(136.825 36.4)"/><use xlink:href="#c" transform="matrix(1,0,0,1,705.7333333333332,247.2) translate(0 50.44444444444444)"/><use xlink:href="#d" transform="matrix(1,0,0,1,705.7333333333332,247.2) translate(18.888888888888886 50.44444444444444)"/><use xlink:href="#e" transform="matrix(1,0,0,1,705.7333333333332,247.2) translate(163.36296296296294 50.44444444444444)"/><use xlink:href="#f" transform="matrix(1,0,0,1,705.7333333333332,247.2) translate(176.34074074074073 50.44444444444444)"/><use xlink:href="#g" transform="matrix(1,0,0,1,705.7333333333332,247.2) translate(250.8296296296296 50.44444444444444)"/><use xlink:href="#h" transform="matrix(1,0,0,1,705.7333333333332,247.2) translate(263.80740740740737 50.44444444444444)"/><path d="M313.73 526a6 6 0 0 1 6-6h328a6 6 0 0 1 6 6v160a6 6 0 0 1-6 6h-328a6 6 0 0 1-6-6z" stroke="#3a414a" fill="#fff"/><path d="M313.73 557.6h340" stroke="#3a414a" fill="none"/><use xlink:href="#i" transform="matrix(1,0,0,1,321.73333333333323,528) translate(60.275000000000006 14.6)"/><use xlink:href="#j" transform="matrix(1,0,0,1,325.73333333333323,565.6) translate(0 50.611111111111114)"/><use xlink:href="#k" transform="matrix(1,0,0,1,325.73333333333323,565.6) translate(13.518518518518519 50.611111111111114)"/><use xlink:href="#l" transform="matrix(1,0,0,1,325.73333333333323,565.6) translate(69.1037037037037 50.611111111111114)"/><use xlink:href="#m" transform="matrix(1,0,0,1,325.73333333333323,565.6) translate(82.32839506172839 50.611111111111114)"/><use xlink:href="#j" transform="matrix(1,0,0,1,325.73333333333323,565.6) translate(0 77.27777777777777)"/><use xlink:href="#n" transform="matrix(1,0,0,1,325.73333333333323,565.6) translate(13.518518518518519 77.27777777777777)"/><use xlink:href="#l" transform="matrix(1,0,0,1,325.73333333333323,565.6) translate(107.21728395061729 77.27777777777777)"/><use xlink:href="#o" transform="matrix(1,0,0,1,325.73333333333323,565.6) translate(120.44197530864197 77.27777777777777)"/><path d="M-106.27 526a6 6 0 0 1 6-6h328a6 6 0 0 1 6 6v187a6 6 0 0 1-6 6h-328a6 6 0 0 1-6-6z" stroke="#3a414a" fill="#fff"/><path d="M-106.27 557.6h340" stroke="#3a414a" fill="none"/><use xlink:href="#p" transform="matrix(1,0,0,1,-98.26666666666677,528) translate(61.750000000000014 14.6)"/><use xlink:href="#j" transform="matrix(1,0,0,1,-94.26666666666677,565.6) translate(0 50.27777777777778)"/><use xlink:href="#k" transform="matrix(1,0,0,1,-94.26666666666677,565.6) translate(13.518518518518519 50.27777777777778)"/><use xlink:href="#l" transform="matrix(1,0,0,1,-94.26666666666677,565.6) translate(69.1037037037037 50.27777777777778)"/><use xlink:href="#m" transform="matrix(1,0,0,1,-94.26666666666677,565.6) translate(82.32839506172839 50.27777777777778)"/><use xlink:href="#j" transform="matrix(1,0,0,1,-94.26666666666677,565.6) translate(0 76.94444444444446)"/><use xlink:href="#q" transform="matrix(1,0,0,1,-94.26666666666677,565.6) translate(13.518518518518519 76.94444444444446)"/><use xlink:href="#l" transform="matrix(1,0,0,1,-94.26666666666677,565.6) translate(95.36543209876544 76.94444444444446)"/><use xlink:href="#m" transform="matrix(1,0,0,1,-94.26666666666677,565.6) translate(108.59012345679012 76.94444444444446)"/><use xlink:href="#j" transform="matrix(1,0,0,1,-94.26666666666677,565.6) translate(0 103.61111111111111)"/><use xlink:href="#r" transform="matrix(1,0,0,1,-94.26666666666677,565.6) translate(13.518518518518519 103.61111111111111)"/><use xlink:href="#l" transform="matrix(1,0,0,1,-94.26666666666677,565.6) translate(75.27654320987656 103.61111111111111)"/><use xlink:href="#s" transform="matrix(1,0,0,1,-94.26666666666677,565.6) translate(88.50123456790125 103.61111111111111)"/><path d="M733.73 526a6 6 0 0 1 6-6h328a6 6 0 0 1 6 6v187a6 6 0 0 1-6 6h-328a6 6 0 0 1-6-6z" stroke="#3a414a" fill="#fff"/><path d="M733.73 557.6h340" stroke="#3a414a" fill="none"/><use xlink:href="#t" transform="matrix(1,0,0,1,741.7333333333332,528) translate(63.77500000000002 14.6)"/><use xlink:href="#j" transform="matrix(1,0,0,1,745.7333333333332,565.6) translate(0 50.27777777777778)"/><use xlink:href="#u" transform="matrix(1,0,0,1,745.7333333333332,565.6) translate(13.518518518518519 50.27777777777778)"/><use xlink:href="#l" transform="matrix(1,0,0,1,745.7333333333332,565.6) translate(75.0888888888889 50.27777777777778)"/><use xlink:href="#m" transform="matrix(1,0,0,1,745.7333333333332,565.6) translate(88.31358024691359 50.27777777777778)"/><use xlink:href="#j" transform="matrix(1,0,0,1,745.7333333333332,565.6) translate(0 76.94444444444446)"/><use xlink:href="#n" transform="matrix(1,0,0,1,745.7333333333332,565.6) translate(13.518518518518519 76.94444444444446)"/><use xlink:href="#l" transform="matrix(1,0,0,1,745.7333333333332,565.6) translate(107.21728395061729 76.94444444444446)"/><use xlink:href="#v" transform="matrix(1,0,0,1,745.7333333333332,565.6) translate(120.44197530864197 76.94444444444446)"/><use xlink:href="#j" transform="matrix(1,0,0,1,745.7333333333332,565.6) translate(0 103.61111111111111)"/><use xlink:href="#w" transform="matrix(1,0,0,1,745.7333333333332,565.6) translate(13.518518518518519 103.61111111111111)"/><use xlink:href="#l" transform="matrix(1,0,0,1,745.7333333333332,565.6) translate(157.69629629629628 103.61111111111111)"/><use xlink:href="#x" transform="matrix(1,0,0,1,745.7333333333332,565.6) translate(170.92098765432098 103.61111111111111)"/><path d="M1153.73 526a6 6 0 0 1 6-6h328a6 6 0 0 1 6 6v187a6 6 0 0 1-6 6h-328a6 6 0 0 1-6-6z" stroke="#3a414a" fill="#fff"/><path d="M1153.73 557.6h340" stroke="#3a414a" fill="none"/><g><use xlink:href="#y" transform="matrix(1,0,0,1,1161.7333333333331,528) translate(68.22500000000001 14.6)"/></g><g><use xlink:href="#j" transform="matrix(1,0,0,1,1165.7333333333331,565.6) translate(0 50.27777777777778)"/><use xlink:href="#k" transform="matrix(1,0,0,1,1165.7333333333331,565.6) translate(13.518518518518519 50.27777777777778)"/><use xlink:href="#l" transform="matrix(1,0,0,1,1165.7333333333331,565.6) translate(69.1037037037037 50.27777777777778)"/><use xlink:href="#m" transform="matrix(1,0,0,1,1165.7333333333331,565.6) translate(82.32839506172839 50.27777777777778)"/><use xlink:href="#j" transform="matrix(1,0,0,1,1165.7333333333331,565.6) translate(0 76.94444444444446)"/><use xlink:href="#n" transform="matrix(1,0,0,1,1165.7333333333331,565.6) translate(13.518518518518519 76.94444444444446)"/><use xlink:href="#l" transform="matrix(1,0,0,1,1165.7333333333331,565.6) translate(107.21728395061729 76.94444444444446)"/><use xlink:href="#z" transform="matrix(1,0,0,1,1165.7333333333331,565.6) translate(120.44197530864197 76.94444444444446)"/><use xlink:href="#A" transform="matrix(1,0,0,1,1165.7333333333331,565.6) translate(0 103.61111111111111)"/><use xlink:href="#B" transform="matrix(1,0,0,1,1165.7333333333331,565.6) translate(13.518518518518519 103.61111111111111)"/><use xlink:href="#l" transform="matrix(1,0,0,1,1165.7333333333331,565.6) translate(73.90370370370371 103.61111111111111)"/><use xlink:href="#C" transform="matrix(1,0,0,1,1165.7333333333331,565.6) translate(87.1283950617284 103.61111111111111)"/></g><path d="M483.73 519v-5.3m0-5.3v-10.6m0-5.3v-10.6m0-5.3V466m0-5.3v-10.6m0-5.3v-5.3l.08-.94.23-.9.36-.88.48-.8.6-.72.73-.6.8-.5.88-.37.92-.23.93-.07h5.04m5.04 0h10.08m5.04 0H525m5.03 0h10.07m5.04 0h10.08m5.03 0h10.08m5.03 0h10.08m5.03 0h10.08m5.04 0h10.06m5.04 0h10.07m5.04 0h10.08m5.04 0H661m5.03 0h10.07m5.04 0h10.08m5.03 0h10.08m5.03 0h10.08m5.03 0h10.08m5.04 0h10.06m5.04 0h10.07m5.04 0h10.08m5.04 0H797m5.03 0h10.07m5.04 0h10.08m5.03 0h10.08m5.03 0h10.08m5.03 0h10.08m5.04 0h10.06m5.04 0h5.03l.94-.07.92-.22.86-.35.8-.5.72-.6.6-.72.5-.8.36-.88.22-.9.07-.95v-4.75m0-4.75v-9.5m0-4.75v-9.5m0-4.75V380m0-4.75v-4.75" stroke="#3a414a" fill="none"/><path d="M484.23 519.5h-1v-.5h1z" stroke="#3a414a" stroke-width=".05" fill="#3a414a"/><path d="M903.73 348.48L916.46 370H891z" stroke="#3a414a" fill="#fff"/><path d="M63.73 519v-5.3m0-5.3v-10.6m0-5.3v-10.6m0-5.3V466m0-5.3v-10.6m0-5.3v-5.3l.08-.94.23-.9.36-.88.48-.8.6-.72.73-.6.8-.5.88-.37.92-.23.93-.07h5.02m5.02 0H89.8m5.02 0h10.04m5.02 0h10.04m5 0h10.05m5.02 0H150m5.02 0h10.04m5.02 0h10.03m5.02 0h10.04m5 0h10.04m5.02 0h10.04m5 0h10.05m5.02 0h10.04m5.02 0h10.04m5.02 0h10.03m5.03 0h10.04m5.02 0h10.02m5.02 0h10.04m5.02 0h10.03m5.02 0h10.04m5 0h10.04m5.02 0h10.04m5.02 0h10.03m5.02 0H421m5.02 0h10.04m5.02 0h10.04m5 0h10.05m5.02 0h10.02m5.02 0h10.04m5.02 0h10.03m5.02 0h10.04m5 0h10.04m5.02 0h10.04m5 0h10.05m5.02 0h10.04m5.02 0h10.04m5.02 0h10.04m5 0h10.05m5.02 0h10.02m5.02 0h10.04m5.02 0h10.03m5.02 0H692m5 0h10.04m5.02 0h10.04m5 0h10.05m5.02 0h10.04m5.02 0h10.04m5.02 0h10.04m5 0h10.05m5.02 0h10.02m5.02 0h10.04m5.02 0h10.03m5.02 0h10.04m5 0h10.04m5.02 0h10.04m5 0h5.03l.94-.07.92-.22.86-.35.8-.5.72-.6.6-.72.5-.8.36-.88.22-.9.07-.95v-4.75m0-4.75v-9.5m0-4.75v-9.5m0-4.75V380m0-4.75v-4.75" stroke="#3a414a" fill="none"/><path d="M64.23 519.5h-1v-.5h1z" stroke="#3a414a" stroke-width=".05" fill="#3a414a"/><path d="M903.73 348.48L916.46 370H891z" stroke="#3a414a" fill="#fff"/><path d="M903.73 519v-4.95m0-4.95v-9.9m0-4.95v-9.9m0-4.95v-9.9m0-4.95v-9.9m0-4.95v-9.9m0-4.95v-9.9m0-4.95v-9.9m0-4.95v-9.9m0-4.95v-9.9m0-4.95v-4.95" stroke="#3a414a" fill="none"/><path d="M904.23 519.5h-1v-.5h1z" stroke="#3a414a" stroke-width=".05" fill="#3a414a"/><path d="M903.73 348.48L916.46 370H891z" stroke="#3a414a" fill="#fff"/><path d="M1323.73 519v-5.3m0-5.3v-10.6m0-5.3v-10.6m0-5.3V466m0-5.3v-10.6m0-5.3v-5.3l-.07-.94-.22-.9-.36-.88-.5-.8-.6-.72-.72-.6-.8-.5-.87-.37-.93-.23-.94-.07h-5.03m-5.04 0h-10.08m-5.03 0h-10.08m-5.03 0h-10.08m-5.03 0h-10.08m-5.04 0h-10.06m-5.04 0h-10.07m-5.04 0h-10.08m-5.04 0h-10.07m-5.03 0h-10.07m-5.04 0h-10.08m-5.03 0h-10.08m-5.03 0h-10.08m-5.03 0h-10.08m-5.04 0h-10.06m-5.04 0h-10.07m-5.04 0h-10.08m-5.04 0h-10.07m-5.03 0h-10.07m-5.04 0h-10.08m-5.03 0h-10.08m-5.03 0h-10.08m-5.03 0h-10.08m-5.03 0h-10.08m-5.04 0h-10.07m-5.04 0H934.9m-5.04 0H919.8m-5.03 0h-5.04l-.94-.07-.92-.22-.87-.35-.8-.5-.7-.6-.62-.72-.5-.8-.35-.88-.22-.9-.07-.95v-4.75m0-4.75v-9.5m0-4.75v-9.5m0-4.75V380m0-4.75v-4.75" stroke="#3a414a" fill="none"/><path d="M1324.23 519.5h-1v-.5h1z" stroke="#3a414a" stroke-width=".05" fill="#3a414a"/><path d="M903.73 348.48L916.46 370H891zM1573.73 526a6 6 0 0 1 6-6h328a6 6 0 0 1 6 6v213a6 6 0 0 1-6 6h-328a6 6 0 0 1-6-6z" stroke="#3a414a" fill="#fff"/><path d="M1573.73 557.6h340" stroke="#3a414a" fill="none"/><g><use xlink:href="#D" transform="matrix(1,0,0,1,1581.7333333333331,528) translate(91.175 14.6)"/></g><g><use xlink:href="#j" transform="matrix(1,0,0,1,1585.7333333333331,565.6) translate(0 50.44444444444445)"/><use xlink:href="#k" transform="matrix(1,0,0,1,1585.7333333333331,565.6) translate(13.518518518518519 50.44444444444445)"/><use xlink:href="#l" transform="matrix(1,0,0,1,1585.7333333333331,565.6) translate(69.1037037037037 50.44444444444445)"/><use xlink:href="#m" transform="matrix(1,0,0,1,1585.7333333333331,565.6) translate(82.32839506172839 50.44444444444445)"/><use xlink:href="#j" transform="matrix(1,0,0,1,1585.7333333333331,565.6) translate(0 77.11111111111111)"/><use xlink:href="#E" transform="matrix(1,0,0,1,1585.7333333333331,565.6) translate(13.518518518518519 77.11111111111111)"/><use xlink:href="#l" transform="matrix(1,0,0,1,1585.7333333333331,565.6) translate(95.05925925925926 77.11111111111111)"/><use xlink:href="#m" transform="matrix(1,0,0,1,1585.7333333333331,565.6) translate(108.28395061728395 77.11111111111111)"/><use xlink:href="#j" transform="matrix(1,0,0,1,1585.7333333333331,565.6) translate(0 103.77777777777777)"/><use xlink:href="#F" transform="matrix(1,0,0,1,1585.7333333333331,565.6) translate(13.518518518518519 103.77777777777777)"/><use xlink:href="#l" transform="matrix(1,0,0,1,1585.7333333333331,565.6) translate(105.84444444444445 103.77777777777777)"/><use xlink:href="#m" transform="matrix(1,0,0,1,1585.7333333333331,565.6) translate(119.06913580246913 103.77777777777777)"/><use xlink:href="#j" transform="matrix(1,0,0,1,1585.7333333333331,565.6) translate(0 130.44444444444446)"/><use xlink:href="#G" transform="matrix(1,0,0,1,1585.7333333333331,565.6) translate(13.518518518518519 130.44444444444446)"/><use xlink:href="#l" transform="matrix(1,0,0,1,1585.7333333333331,565.6) translate(104.60000000000001 130.44444444444446)"/><use xlink:href="#H" transform="matrix(1,0,0,1,1585.7333333333331,565.6) translate(117.8246913580247 130.44444444444446)"/></g><path d="M1743.73 519v-5.3m0-5.3v-10.6m0-5.3v-10.6m0-5.3V466m0-5.3v-10.6m0-5.3v-5.3l-.07-.94-.22-.9-.36-.88-.5-.8-.6-.72-.72-.6-.8-.5-.87-.37-.93-.23-.94-.07h-5.02m-5 0h-10.04m-5.02 0h-10.03m-5 0h-10.05m-5.02 0h-10.03m-5.02 0h-10.04m-5.02 0h-10.03m-5.03 0h-10.04m-5 0h-10.05m-5.02 0h-10.04m-5 0h-10.05m-5.02 0h-10.04m-5 0h-10.04m-5.02 0H1537m-5 0h-10.05m-5.02 0h-10.03m-5.02 0h-10.04m-5.02 0h-10.03m-5.03 0h-10.04m-5.02 0h-10.02m-5.02 0h-10.04m-5 0h-10.05m-5.02 0h-10.03m-5.02 0h-10.04m-5.02 0h-10.03m-5 0h-10.05m-5.02 0h-10.03m-5.02 0h-10.04m-5.02 0h-10.03m-5.03 0h-10.04m-5.02 0h-10.02m-5.02 0h-10.04m-5 0h-10.05m-5.02 0h-10.04m-5 0h-10.04m-5.02 0h-10.03m-5 0h-10.05m-5.02 0h-10.03m-5.02 0h-10.04m-5.02 0h-10.03m-5.03 0h-10.04m-5 0h-10.05m-5.02 0h-10.04m-5 0h-10.05m-5.02 0h-10.03m-5.02 0h-10.04m-5.02 0h-10.03m-5 0h-10.05m-5.02 0h-10.03m-5.02 0h-10.04m-5.02 0H980m-5.03 0h-10.04m-5 0h-10.05m-5.02 0h-10.04m-5 0h-10.05m-5.02 0h-5.02l-.94-.07-.92-.22-.87-.35-.8-.5-.7-.6-.62-.72-.5-.8-.35-.88-.22-.9-.07-.95v-4.75m0-4.75v-9.5m0-4.75v-9.5m0-4.75V380m0-4.75v-4.75" stroke="#3a414a" fill="none"/><path d="M1744.23 519.5h-1v-.5h1z" stroke="#3a414a" stroke-width=".05" fill="#3a414a"/><path d="M903.73 348.48L916.46 370H891z" stroke="#3a414a" fill="#fff"/><defs><path d="M15-91v-56l181-69v40L49-119l147 57v40" id="I"/><path d="M25-224v-37h50v37H25zM25 0v-190h50V0H25" id="J"/><path d="M135-194c87-1 58 113 63 194h-50c-7-57 23-157-34-157-59 0-34 97-39 157H25l-1-190h47c2 12-1 28 3 38 12-26 28-41 61-42" id="K"/><path d="M115-3C79 11 28 4 28-45v-112H4v-33h27l15-45h31v45h36v33H77v99c-1 23 16 31 38 25v30" id="L"/><path d="M185-48c-13 30-37 53-82 52C43 2 14-33 14-96s30-98 90-98c62 0 83 45 84 108H66c0 31 8 55 39 56 18 0 30-7 34-22zm-45-69c5-46-57-63-70-21-2 6-4 13-4 21h74" id="M"/><path d="M135-150c-39-12-60 13-60 57V0H25l-1-190h47c2 13-1 29 3 40 6-28 27-53 61-41v41" id="N"/><path d="M121-226c-27-7-43 5-38 36h38v33H83V0H34v-157H6v-33h28c-9-59 32-81 87-68v32" id="O"/><path d="M133-34C117-15 103 5 69 4 32 3 11-16 11-54c-1-60 55-63 116-61 1-26-3-47-28-47-18 1-26 9-28 27l-52-2c7-38 36-58 82-57s74 22 75 68l1 82c-1 14 12 18 25 15v27c-30 8-71 5-69-32zm-48 3c29 0 43-24 42-57-32 0-66-3-65 30 0 17 8 27 23 27" id="P"/><path d="M190-63c-7 42-38 67-86 67-59 0-84-38-90-98-12-110 154-137 174-36l-49 2c-2-19-15-32-35-32-30 0-35 28-38 64-6 74 65 87 74 30" id="Q"/><path d="M15-22v-40l146-57-146-57v-40l181 69v56" id="R"/><g id="a"><use transform="matrix(0.05,0,0,0.05,0,0)" xlink:href="#I"/><use transform="matrix(0.05,0,0,0.05,10.5,0)" xlink:href="#I"/><use transform="matrix(0.05,0,0,0.05,21,0)" xlink:href="#J"/><use transform="matrix(0.05,0,0,0.05,26,0)" xlink:href="#K"/><use transform="matrix(0.05,0,0,0.05,36.95,0)" xlink:href="#L"/><use transform="matrix(0.05,0,0,0.05,42.900000000000006,0)" xlink:href="#M"/><use transform="matrix(0.05,0,0,0.05,52.900000000000006,0)" xlink:href="#N"/><use transform="matrix(0.05,0,0,0.05,59.900000000000006,0)" xlink:href="#O"/><use transform="matrix(0.05,0,0,0.05,65.85000000000001,0)" xlink:href="#P"/><use transform="matrix(0.05,0,0,0.05,75.85000000000001,0)" xlink:href="#Q"/><use transform="matrix(0.05,0,0,0.05,85.85000000000001,0)" xlink:href="#M"/><use transform="matrix(0.05,0,0,0.05,95.85000000000001,0)" xlink:href="#R"/><use transform="matrix(0.05,0,0,0.05,106.35000000000001,0)" xlink:href="#R"/></g><path d="M136-208V0H84v-208H4v-40h212v40h-80" id="S"/><path d="M135-194c52 0 70 43 70 98 0 56-19 99-73 100-30 1-46-15-58-35L72 0H24l1-261h50v104c11-23 29-37 60-37zM114-30c31 0 40-27 40-66 0-37-7-63-39-63s-41 28-41 65c0 36 8 64 40 64" id="T"/><path d="M25 0v-261h50V0H25" id="U"/><path d="M140-251c80 0 125 45 125 126S219 4 139 4C58 4 15-44 15-125s44-126 125-126zm-1 214c52 0 73-35 73-88 0-50-21-86-72-86-52 0-73 35-73 86s22 88 72 88" id="V"/><path d="M135-194c53 0 70 44 70 98 0 56-19 98-73 100-31 1-45-17-59-34 3 33 2 69 2 105H25l-1-265h48c2 10 0 23 3 31 11-24 29-35 60-35zM114-30c33 0 39-31 40-66 0-38-9-64-40-64-56 0-55 130 0 130" id="W"/><path d="M110-194c64 0 96 36 96 99 0 64-35 99-97 99-61 0-95-36-95-99 0-62 34-99 96-99zm-1 164c35 0 45-28 45-65 0-40-10-65-43-65-34 0-45 26-45 65 0 36 10 65 43 65" id="X"/><g id="b"><use transform="matrix(0.05,0,0,0.05,0,0)" xlink:href="#S"/><use transform="matrix(0.05,0,0,0.05,9.600000000000001,0)" xlink:href="#P"/><use transform="matrix(0.05,0,0,0.05,19.6,0)" xlink:href="#T"/><use transform="matrix(0.05,0,0,0.05,30.55,0)" xlink:href="#U"/><use transform="matrix(0.05,0,0,0.05,35.550000000000004,0)" xlink:href="#M"/><use transform="matrix(0.05,0,0,0.05,45.550000000000004,0)" xlink:href="#V"/><use transform="matrix(0.05,0,0,0.05,59.550000000000004,0)" xlink:href="#W"/><use transform="matrix(0.05,0,0,0.05,70.5,0)" xlink:href="#M"/><use transform="matrix(0.05,0,0,0.05,80.5,0)" xlink:href="#N"/><use transform="matrix(0.05,0,0,0.05,87.5,0)" xlink:href="#P"/><use transform="matrix(0.05,0,0,0.05,97.5,0)" xlink:href="#L"/><use transform="matrix(0.05,0,0,0.05,103.45,0)" xlink:href="#J"/><use transform="matrix(0.05,0,0,0.05,108.45,0)" xlink:href="#X"/><use transform="matrix(0.05,0,0,0.05,119.4,0)" xlink:href="#K"/></g><path fill="#3a414a" d="M118-107v75H92v-75H18v-26h74v-75h26v75h74v26h-74" id="Y"/><use transform="matrix(0.061728395061728385,0,0,0.061728395061728385,0,0)" xlink:href="#Y" id="c"/><path fill="#6b2fba" d="M100-194c63 0 86 42 84 106H49c0 40 14 67 53 68 26 1 43-12 49-29l28 8c-11 28-37 45-77 45C44 4 14-33 15-96c1-61 26-98 85-98zm52 81c6-60-76-77-97-28-3 7-6 17-6 28h103" id="Z"/><path fill="#6b2fba" d="M141 0L90-78 38 0H4l68-98-65-92h35l48 74 47-74h35l-64 92 68 98h-35" id="aa"/><path fill="#6b2fba" d="M96-169c-40 0-48 33-48 73s9 75 48 75c24 0 41-14 43-38l32 2c-6 37-31 61-74 61-59 0-76-41-82-99-10-93 101-131 147-64 4 7 5 14 7 22l-32 3c-4-21-16-35-41-35" id="ab"/><path fill="#6b2fba" d="M84 4C-5 8 30-112 23-190h32v120c0 31 7 50 39 49 72-2 45-101 50-169h31l1 190h-30c-1-10 1-25-2-33-11 22-28 36-60 37" id="ac"/><path fill="#6b2fba" d="M59-47c-2 24 18 29 38 22v24C64 9 27 4 27-40v-127H5v-23h24l9-43h21v43h35v23H59v120" id="ad"/><path fill="#383838" d="M67-93c0 74 22 123 53 168H70C40 30 18-18 18-93s22-123 52-168h50c-32 44-53 94-53 168" id="ae"/><path fill="#1b6600" d="M96-169c-40 0-48 33-48 73s9 75 48 75c24 0 41-14 43-38l32 2c-6 37-31 61-74 61-59 0-76-41-82-99-10-93 101-131 147-64 4 7 5 14 7 22l-32 3c-4-21-16-35-41-35" id="af"/><path fill="#1b6600" d="M100-194c62-1 85 37 85 99 1 63-27 99-86 99S16-35 15-95c0-66 28-99 85-99zM99-20c44 1 53-31 53-75 0-43-8-75-51-75s-53 32-53 75 10 74 51 75" id="ag"/><path fill="#1b6600" d="M117-194c89-4 53 116 60 194h-32v-121c0-31-8-49-39-48C34-167 62-67 57 0H25l-1-190h30c1 10-1 24 2 32 11-22 29-35 61-36" id="ah"/><path fill="#1b6600" d="M101-234c-31-9-42 10-38 44h38v23H63V0H32v-167H5v-23h27c-7-52 17-82 69-68v24" id="ai"/><path fill="#1b6600" d="M24-231v-30h32v30H24zM24 0v-190h32V0H24" id="aj"/><path fill="#1b6600" d="M177-190C167-65 218 103 67 71c-23-6-38-20-44-43l32-5c15 47 100 32 89-28v-30C133-14 115 1 83 1 29 1 15-40 15-95c0-56 16-97 71-98 29-1 48 16 59 35 1-10 0-23 2-32h30zM94-22c36 0 50-32 50-73 0-42-14-75-50-75-39 0-46 34-46 75s6 73 46 73" id="ak"/><g id="d"><use transform="matrix(0.059259259259259255,0,0,0.059259259259259255,0,0)" xlink:href="#Z"/><use transform="matrix(0.059259259259259255,0,0,0.059259259259259255,11.851851851851851,0)" xlink:href="#aa"/><use transform="matrix(0.059259259259259255,0,0,0.059259259259259255,22.51851851851852,0)" xlink:href="#Z"/><use transform="matrix(0.059259259259259255,0,0,0.059259259259259255,34.37037037037037,0)" xlink:href="#ab"/><use transform="matrix(0.059259259259259255,0,0,0.059259259259259255,45.03703703703703,0)" xlink:href="#ac"/><use transform="matrix(0.059259259259259255,0,0,0.059259259259259255,56.888888888888886,0)" xlink:href="#ad"/><use transform="matrix(0.059259259259259255,0,0,0.059259259259259255,62.81481481481481,0)" xlink:href="#Z"/><use transform="matrix(0.059259259259259255,0,0,0.059259259259259255,74.66666666666666,0)" xlink:href="#ae"/><use transform="matrix(0.059259259259259255,0,0,0.059259259259259255,81.71851851851851,0)" xlink:href="#af"/><use transform="matrix(0.059259259259259255,0,0,0.059259259259259255,92.38518518518518,0)" xlink:href="#ag"/><use transform="matrix(0.059259259259259255,0,0,0.059259259259259255,104.23703703703703,0)" xlink:href="#ah"/><use transform="matrix(0.059259259259259255,0,0,0.059259259259259255,116.08888888888887,0)" xlink:href="#ai"/><use transform="matrix(0.059259259259259255,0,0,0.059259259259259255,122.0148148148148,0)" xlink:href="#aj"/><use transform="matrix(0.059259259259259255,0,0,0.059259259259259255,126.69629629629628,0)" xlink:href="#ak"/></g><path fill="#383838" d="M35-132v-50h50v50H35zM35 0v-49h50V0H35" id="al"/><use transform="matrix(0.059259259259259255,0,0,0.059259259259259255,0,0)" xlink:href="#al" id="e"/><path fill="#8c6c41" d="M212-179c-10-28-35-45-73-45-59 0-87 40-87 99 0 60 29 101 89 101 43 0 62-24 78-52l27 14C228-24 195 4 139 4 59 4 22-46 18-125c-6-104 99-153 187-111 19 9 31 26 39 46" id="am"/><path fill="#8c6c41" d="M100-194c62-1 85 37 85 99 1 63-27 99-86 99S16-35 15-95c0-66 28-99 85-99zM99-20c44 1 53-31 53-75 0-43-8-75-51-75s-53 32-53 75 10 74 51 75" id="an"/><path fill="#8c6c41" d="M117-194c89-4 53 116 60 194h-32v-121c0-31-8-49-39-48C34-167 62-67 57 0H25l-1-190h30c1 10-1 24 2 32 11-22 29-35 61-36" id="ao"/><path fill="#8c6c41" d="M101-234c-31-9-42 10-38 44h38v23H63V0H32v-167H5v-23h27c-7-52 17-82 69-68v24" id="ap"/><path fill="#8c6c41" d="M24-231v-30h32v30H24zM24 0v-190h32V0H24" id="aq"/><path fill="#8c6c41" d="M177-190C167-65 218 103 67 71c-23-6-38-20-44-43l32-5c15 47 100 32 89-28v-30C133-14 115 1 83 1 29 1 15-40 15-95c0-56 16-97 71-98 29-1 48 16 59 35 1-10 0-23 2-32h30zM94-22c36 0 50-32 50-73 0-42-14-75-50-75-39 0-46 34-46 75s6 73 46 73" id="ar"/><path fill="#383838" d="M102-93c0 74-22 123-52 168H0C30 29 54-18 53-93c0-74-22-123-53-168h50c30 45 52 94 52 168" id="as"/><g id="f"><use transform="matrix(0.059259259259259255,0,0,0.059259259259259255,0,0)" xlink:href="#am"/><use transform="matrix(0.059259259259259255,0,0,0.059259259259259255,15.348148148148146,0)" xlink:href="#an"/><use transform="matrix(0.059259259259259255,0,0,0.059259259259259255,27.199999999999996,0)" xlink:href="#ao"/><use transform="matrix(0.059259259259259255,0,0,0.059259259259259255,39.05185185185185,0)" xlink:href="#ap"/><use transform="matrix(0.059259259259259255,0,0,0.059259259259259255,44.977777777777774,0)" xlink:href="#aq"/><use transform="matrix(0.059259259259259255,0,0,0.059259259259259255,49.65925925925926,0)" xlink:href="#ar"/><use transform="matrix(0.059259259259259255,0,0,0.059259259259259255,61.511111111111106,0)" xlink:href="#as"/></g><use transform="matrix(0.059259259259259255,0,0,0.059259259259259255,0,0)" xlink:href="#al" id="g"/><path fill="#0f54d6" d="M108 0H70L1-190h34L89-25l56-165h34" id="at"/><path fill="#0f54d6" d="M100-194c62-1 85 37 85 99 1 63-27 99-86 99S16-35 15-95c0-66 28-99 85-99zM99-20c44 1 53-31 53-75 0-43-8-75-51-75s-53 32-53 75 10 74 51 75" id="au"/><path fill="#0f54d6" d="M24-231v-30h32v30H24zM24 0v-190h32V0H24" id="av"/><path fill="#0f54d6" d="M85-194c31 0 48 13 60 33l-1-100h32l1 261h-30c-2-10 0-23-3-31C134-8 116 4 85 4 32 4 16-35 15-94c0-66 23-100 70-100zm9 24c-40 0-46 34-46 75 0 40 6 74 45 74 42 0 51-32 51-76 0-42-9-74-50-73" id="aw"/><g id="h"><use transform="matrix(0.059259259259259255,0,0,0.059259259259259255,0,0)" xlink:href="#at"/><use transform="matrix(0.059259259259259255,0,0,0.059259259259259255,10.666666666666666,0)" xlink:href="#au"/><use transform="matrix(0.059259259259259255,0,0,0.059259259259259255,22.51851851851852,0)" xlink:href="#av"/><use transform="matrix(0.059259259259259255,0,0,0.059259259259259255,27.2,0)" xlink:href="#aw"/></g><path d="M24-248c120-7 223 5 221 122C244-46 201 0 124 0H24v-248zM76-40c74 7 117-18 117-86 0-67-45-88-117-82v168" id="ax"/><path d="M67-125c0 53 21 87 73 88 37 1 54-22 65-47l45 17C233-25 199 4 140 4 58 4 20-42 15-125 8-235 124-281 211-232c18 10 29 29 36 50l-46 12c-8-25-30-41-62-41-52 0-71 34-72 86" id="ay"/><path d="M85 4C-2 5 27-109 22-190h50c7 57-23 150 33 157 60-5 35-97 40-157h50l1 190h-47c-2-12 1-28-3-38-12 25-28 42-61 42" id="az"/><path d="M220-157c-53 9-28 100-34 157h-49v-107c1-27-5-49-29-50C55-147 81-57 75 0H25l-1-190h47c2 12-1 28 3 38 10-53 101-56 108 0 13-22 24-43 59-42 82 1 51 116 57 194h-49v-107c-1-25-5-48-29-50" id="aA"/><path d="M137-138c1-29-70-34-71-4 15 46 118 7 119 86 1 83-164 76-172 9l43-7c4 19 20 25 44 25 33 8 57-30 24-41C81-84 22-81 20-136c-2-80 154-74 161-7" id="aB"/><g id="i"><use transform="matrix(0.05,0,0,0.05,0,0)" xlink:href="#ax"/><use transform="matrix(0.05,0,0,0.05,12.950000000000001,0)" xlink:href="#N"/><use transform="matrix(0.05,0,0,0.05,19.950000000000003,0)" xlink:href="#X"/><use transform="matrix(0.05,0,0,0.05,30.900000000000006,0)" xlink:href="#W"/><use transform="matrix(0.05,0,0,0.05,41.85000000000001,0)" xlink:href="#ay"/><use transform="matrix(0.05,0,0,0.05,54.80000000000001,0)" xlink:href="#X"/><use transform="matrix(0.05,0,0,0.05,65.75000000000001,0)" xlink:href="#U"/><use transform="matrix(0.05,0,0,0.05,70.75000000000001,0)" xlink:href="#az"/><use transform="matrix(0.05,0,0,0.05,81.70000000000002,0)" xlink:href="#aA"/><use transform="matrix(0.05,0,0,0.05,97.70000000000002,0)" xlink:href="#K"/><use transform="matrix(0.05,0,0,0.05,108.65000000000003,0)" xlink:href="#aB"/><use transform="matrix(0.05,0,0,0.05,118.65000000000003,0)" xlink:href="#V"/><use transform="matrix(0.05,0,0,0.05,132.65000000000003,0)" xlink:href="#W"/><use transform="matrix(0.05,0,0,0.05,143.60000000000002,0)" xlink:href="#M"/><use transform="matrix(0.05,0,0,0.05,153.60000000000002,0)" xlink:href="#N"/><use transform="matrix(0.05,0,0,0.05,160.60000000000002,0)" xlink:href="#P"/><use transform="matrix(0.05,0,0,0.05,170.60000000000002,0)" xlink:href="#L"/><use transform="matrix(0.05,0,0,0.05,176.55,0)" xlink:href="#J"/><use transform="matrix(0.05,0,0,0.05,181.55,0)" xlink:href="#X"/><use transform="matrix(0.05,0,0,0.05,192.5,0)" xlink:href="#K"/></g><path fill="#3a414a" d="M16-82v-28h88v28H16" id="aC"/><use transform="matrix(0.06172839506172839,0,0,0.06172839506172839,0,0)" xlink:href="#aC" id="j"/><path fill="#660e7a" d="M115-3C79 11 28 4 28-45v-112H4v-33h27l15-45h31v45h36v33H77v99c-1 23 16 31 38 25v30" id="aD"/><path fill="#660e7a" d="M133-34C117-15 103 5 69 4 32 3 11-16 11-54c-1-60 55-63 116-61 1-26-3-47-28-47-18 1-26 9-28 27l-52-2c7-38 36-58 82-57s74 22 75 68l1 82c-1 14 12 18 25 15v27c-30 8-71 5-69-32zm-48 3c29 0 43-24 42-57-32 0-66-3-65 30 0 17 8 27 23 27" id="aE"/><path fill="#660e7a" d="M135-194c52 0 70 43 70 98 0 56-19 99-73 100-30 1-46-15-58-35L72 0H24l1-261h50v104c11-23 29-37 60-37zM114-30c31 0 40-27 40-66 0-37-7-63-39-63s-41 28-41 65c0 36 8 64 40 64" id="aF"/><path fill="#660e7a" d="M25 0v-261h50V0H25" id="aG"/><path fill="#660e7a" d="M185-48c-13 30-37 53-82 52C43 2 14-33 14-96s30-98 90-98c62 0 83 45 84 108H66c0 31 8 55 39 56 18 0 30-7 34-22zm-45-69c5-46-57-63-70-21-2 6-4 13-4 21h74" id="aH"/><g id="k"><use transform="matrix(0.05925925925925927,0,0,0.05925925925925927,0,0)" xlink:href="#aD"/><use transform="matrix(0.05925925925925927,0,0,0.05925925925925927,7.051851851851853,0)" xlink:href="#aE"/><use transform="matrix(0.05925925925925927,0,0,0.05925925925925927,18.903703703703705,0)" xlink:href="#aF"/><use transform="matrix(0.05925925925925927,0,0,0.05925925925925927,31.881481481481487,0)" xlink:href="#aG"/><use transform="matrix(0.05925925925925927,0,0,0.05925925925925927,37.80740740740741,0)" xlink:href="#aH"/></g><use transform="matrix(0.059259259259259255,0,0,0.059259259259259255,0,0)" xlink:href="#al" id="l"/><path fill="#8c6c41" d="M185-189c-5-48-123-54-124 2 14 75 158 14 163 119 3 78-121 87-175 55-17-10-28-26-33-46l33-7c5 56 141 63 141-1 0-78-155-14-162-118-5-82 145-84 179-34 5 7 8 16 11 25" id="aI"/><path fill="#8c6c41" d="M59-47c-2 24 18 29 38 22v24C64 9 27 4 27-40v-127H5v-23h24l9-43h21v43h35v23H59v120" id="aJ"/><path fill="#8c6c41" d="M114-163C36-179 61-72 57 0H25l-1-190h30c1 12-1 29 2 39 6-27 23-49 58-41v29" id="aK"/><g id="m"><use transform="matrix(0.059259259259259255,0,0,0.059259259259259255,0,0)" xlink:href="#aI"/><use transform="matrix(0.059259259259259255,0,0,0.059259259259259255,14.222222222222221,0)" xlink:href="#aJ"/><use transform="matrix(0.059259259259259255,0,0,0.059259259259259255,20.148148148148145,0)" xlink:href="#aK"/><use transform="matrix(0.059259259259259255,0,0,0.059259259259259255,27.199999999999996,0)" xlink:href="#aq"/><use transform="matrix(0.059259259259259255,0,0,0.059259259259259255,31.88148148148148,0)" xlink:href="#ao"/><use transform="matrix(0.059259259259259255,0,0,0.059259259259259255,43.73333333333333,0)" xlink:href="#ar"/></g><path fill="#660e7a" d="M190-63c-7 42-38 67-86 67-59 0-84-38-90-98-12-110 154-137 174-36l-49 2c-2-19-15-32-35-32-30 0-35 28-38 64-6 74 65 87 74 30" id="aL"/><path fill="#660e7a" d="M110-194c64 0 96 36 96 99 0 64-35 99-97 99-61 0-95-36-95-99 0-62 34-99 96-99zm-1 164c35 0 45-28 45-65 0-40-10-65-43-65-34 0-45 26-45 65 0 36 10 65 43 65" id="aM"/><path fill="#660e7a" d="M85 4C-2 5 27-109 22-190h50c7 57-23 150 33 157 60-5 35-97 40-157h50l1 190h-47c-2-12 1-28-3-38-12 25-28 42-61 42" id="aN"/><path fill="#660e7a" d="M220-157c-53 9-28 100-34 157h-49v-107c1-27-5-49-29-50C55-147 81-57 75 0H25l-1-190h47c2 12-1 28 3 38 10-53 101-56 108 0 13-22 24-43 59-42 82 1 51 116 57 194h-49v-107c-1-25-5-48-29-50" id="aO"/><path fill="#660e7a" d="M135-194c87-1 58 113 63 194h-50c-7-57 23-157-34-157-59 0-34 97-39 157H25l-1-190h47c2 12-1 28 3 38 12-26 28-41 61-42" id="aP"/><path fill="#660e7a" d="M137-138c1-29-70-34-71-4 15 46 118 7 119 86 1 83-164 76-172 9l43-7c4 19 20 25 44 25 33 8 57-30 24-41C81-84 22-81 20-136c-2-80 154-74 161-7" id="aQ"/><g id="n"><use transform="matrix(0.05925925925925927,0,0,0.05925925925925927,0,0)" xlink:href="#aL"/><use transform="matrix(0.05925925925925927,0,0,0.05925925925925927,11.851851851851853,0)" xlink:href="#aM"/><use transform="matrix(0.05925925925925927,0,0,0.05925925925925927,24.829629629629633,0)" xlink:href="#aG"/><use transform="matrix(0.05925925925925927,0,0,0.05925925925925927,30.75555555555556,0)" xlink:href="#aN"/><use transform="matrix(0.05925925925925927,0,0,0.05925925925925927,43.73333333333334,0)" xlink:href="#aO"/><use transform="matrix(0.05925925925925927,0,0,0.05925925925925927,62.6962962962963,0)" xlink:href="#aP"/><use transform="matrix(0.05925925925925927,0,0,0.05925925925925927,75.67407407407408,0)" xlink:href="#aQ"/></g><path fill="#8c6c41" d="M30 0v-248h33v221h125V0H30" id="aR"/><path fill="#8c6c41" d="M135-143c-3-34-86-38-87 0 15 53 115 12 119 90S17 21 10-45l28-5c4 36 97 45 98 0-10-56-113-15-118-90-4-57 82-63 122-42 12 7 21 19 24 35" id="aS"/><path fill="#383838" d="M18-100v-36l175-74v27L42-118l151 64v27" id="aT"/><path fill="#383838" d="M18-27v-27l151-64-151-65v-27l175 74v36" id="aU"/><g id="o"><use transform="matrix(0.059259259259259255,0,0,0.059259259259259255,0,0)" xlink:href="#aR"/><use transform="matrix(0.059259259259259255,0,0,0.059259259259259255,11.851851851851851,0)" xlink:href="#aq"/><use transform="matrix(0.059259259259259255,0,0,0.059259259259259255,16.53333333333333,0)" xlink:href="#aS"/><use transform="matrix(0.059259259259259255,0,0,0.059259259259259255,27.199999999999996,0)" xlink:href="#aJ"/><use transform="matrix(0.059259259259259255,0,0,0.059259259259259255,33.12592592592592,0)" xlink:href="#aT"/><use transform="matrix(0.059259259259259255,0,0,0.059259259259259255,45.57037037037036,0)" xlink:href="#aI"/><use transform="matrix(0.059259259259259255,0,0,0.059259259259259255,59.792592592592584,0)" xlink:href="#aJ"/><use transform="matrix(0.059259259259259255,0,0,0.059259259259259255,65.71851851851851,0)" xlink:href="#aK"/><use transform="matrix(0.059259259259259255,0,0,0.059259259259259255,72.77037037037036,0)" xlink:href="#aq"/><use transform="matrix(0.059259259259259255,0,0,0.059259259259259255,77.45185185185184,0)" xlink:href="#ao"/><use transform="matrix(0.059259259259259255,0,0,0.059259259259259255,89.30370370370369,0)" xlink:href="#ar"/><use transform="matrix(0.059259259259259255,0,0,0.059259259259259255,101.15555555555554,0)" xlink:href="#aU"/></g><path d="M24 0v-248h52V0H24" id="aV"/><g id="p"><use transform="matrix(0.05,0,0,0.05,0,0)" xlink:href="#aV"/><use transform="matrix(0.05,0,0,0.05,5,0)" xlink:href="#K"/><use transform="matrix(0.05,0,0,0.05,15.950000000000001,0)" xlink:href="#aB"/><use transform="matrix(0.05,0,0,0.05,25.950000000000003,0)" xlink:href="#M"/><use transform="matrix(0.05,0,0,0.05,35.95,0)" xlink:href="#N"/><use transform="matrix(0.05,0,0,0.05,42.95,0)" xlink:href="#L"/><use transform="matrix(0.05,0,0,0.05,48.900000000000006,0)" xlink:href="#ay"/><use transform="matrix(0.05,0,0,0.05,61.85,0)" xlink:href="#X"/><use transform="matrix(0.05,0,0,0.05,72.80000000000001,0)" xlink:href="#U"/><use transform="matrix(0.05,0,0,0.05,77.80000000000001,0)" xlink:href="#az"/><use transform="matrix(0.05,0,0,0.05,88.75000000000001,0)" xlink:href="#aA"/><use transform="matrix(0.05,0,0,0.05,104.75,0)" xlink:href="#K"/><use transform="matrix(0.05,0,0,0.05,115.7,0)" xlink:href="#V"/><use transform="matrix(0.05,0,0,0.05,129.70000000000002,0)" xlink:href="#W"/><use transform="matrix(0.05,0,0,0.05,140.65,0)" xlink:href="#M"/><use transform="matrix(0.05,0,0,0.05,150.65,0)" xlink:href="#N"/><use transform="matrix(0.05,0,0,0.05,157.65,0)" xlink:href="#P"/><use transform="matrix(0.05,0,0,0.05,167.65,0)" xlink:href="#L"/><use transform="matrix(0.05,0,0,0.05,173.6,0)" xlink:href="#J"/><use transform="matrix(0.05,0,0,0.05,178.6,0)" xlink:href="#X"/><use transform="matrix(0.05,0,0,0.05,189.54999999999998,0)" xlink:href="#K"/></g><g id="q"><use transform="matrix(0.05925925925925927,0,0,0.05925925925925927,0,0)" xlink:href="#aL"/><use transform="matrix(0.05925925925925927,0,0,0.05925925925925927,11.851851851851853,0)" xlink:href="#aM"/><use transform="matrix(0.05925925925925927,0,0,0.05925925925925927,24.829629629629633,0)" xlink:href="#aG"/><use transform="matrix(0.05925925925925927,0,0,0.05925925925925927,30.75555555555556,0)" xlink:href="#aN"/><use transform="matrix(0.05925925925925927,0,0,0.05925925925925927,43.73333333333334,0)" xlink:href="#aO"/><use transform="matrix(0.05925925925925927,0,0,0.05925925925925927,62.6962962962963,0)" xlink:href="#aP"/></g><path fill="#660e7a" d="M25-224v-37h50v37H25zM25 0v-190h50V0H25" id="aW"/><path fill="#660e7a" d="M88-194c31-1 46 15 58 34l-1-101h50l1 261h-48c-2-10 0-23-3-31C134-8 116 4 84 4 32 4 16-41 15-95c0-56 19-97 73-99zm17 164c33 0 40-30 41-66 1-37-9-64-41-64s-38 30-39 65c0 43 13 65 39 65" id="aX"/><path fill="#660e7a" d="M144 0l-44-69L55 0H2l70-98-66-92h53l41 62 40-62h54l-67 91 71 99h-54" id="aY"/><g id="r"><use transform="matrix(0.05925925925925927,0,0,0.05925925925925927,0,0)" xlink:href="#aW"/><use transform="matrix(0.05925925925925927,0,0,0.05925925925925927,5.9259259259259265,0)" xlink:href="#aP"/><use transform="matrix(0.05925925925925927,0,0,0.05925925925925927,18.903703703703705,0)" xlink:href="#aX"/><use transform="matrix(0.05925925925925927,0,0,0.05925925925925927,31.881481481481487,0)" xlink:href="#aH"/><use transform="matrix(0.05925925925925927,0,0,0.05925925925925927,43.73333333333334,0)" xlink:href="#aY"/></g><path fill="#8c6c41" d="M33 0v-248h34V0H33" id="aZ"/><path fill="#8c6c41" d="M100-194c63 0 86 42 84 106H49c0 40 14 67 53 68 26 1 43-12 49-29l28 8c-11 28-37 45-77 45C44 4 14-33 15-96c1-61 26-98 85-98zm52 81c6-60-76-77-97-28-3 7-6 17-6 28h103" id="ba"/><g id="s"><use transform="matrix(0.059259259259259255,0,0,0.059259259259259255,0,0)" xlink:href="#aZ"/><use transform="matrix(0.059259259259259255,0,0,0.059259259259259255,5.925925925925926,0)" xlink:href="#ao"/><use transform="matrix(0.059259259259259255,0,0,0.059259259259259255,17.77777777777778,0)" xlink:href="#aJ"/><use transform="matrix(0.059259259259259255,0,0,0.059259259259259255,23.703703703703702,0)" xlink:href="#ba"/><use transform="matrix(0.059259259259259255,0,0,0.059259259259259255,35.55555555555556,0)" xlink:href="#ar"/><use transform="matrix(0.059259259259259255,0,0,0.059259259259259255,47.407407407407405,0)" xlink:href="#ba"/><use transform="matrix(0.059259259259259255,0,0,0.059259259259259255,59.25925925925925,0)" xlink:href="#aK"/></g><path d="M199 0l-22-63H83L61 0H9l90-248h61L250 0h-51zm-33-102l-36-108c-10 38-24 72-36 108h72" id="bb"/><path d="M88-194c31-1 46 15 58 34l-1-101h50l1 261h-48c-2-10 0-23-3-31C134-8 116 4 84 4 32 4 16-41 15-95c0-56 19-97 73-99zm17 164c33 0 40-30 41-66 1-37-9-64-41-64s-38 30-39 65c0 43 13 65 39 65" id="bc"/><g id="t"><use transform="matrix(0.05,0,0,0.05,0,0)" xlink:href="#bb"/><use transform="matrix(0.05,0,0,0.05,12.950000000000001,0)" xlink:href="#bc"/><use transform="matrix(0.05,0,0,0.05,23.900000000000002,0)" xlink:href="#bc"/><use transform="matrix(0.05,0,0,0.05,34.85,0)" xlink:href="#ay"/><use transform="matrix(0.05,0,0,0.05,47.800000000000004,0)" xlink:href="#X"/><use transform="matrix(0.05,0,0,0.05,58.75,0)" xlink:href="#U"/><use transform="matrix(0.05,0,0,0.05,63.75,0)" xlink:href="#az"/><use transform="matrix(0.05,0,0,0.05,74.7,0)" xlink:href="#aA"/><use transform="matrix(0.05,0,0,0.05,90.7,0)" xlink:href="#K"/><use transform="matrix(0.05,0,0,0.05,101.65,0)" xlink:href="#aB"/><use transform="matrix(0.05,0,0,0.05,111.65,0)" xlink:href="#V"/><use transform="matrix(0.05,0,0,0.05,125.65,0)" xlink:href="#W"/><use transform="matrix(0.05,0,0,0.05,136.6,0)" xlink:href="#M"/><use transform="matrix(0.05,0,0,0.05,146.6,0)" xlink:href="#N"/><use transform="matrix(0.05,0,0,0.05,153.6,0)" xlink:href="#P"/><use transform="matrix(0.05,0,0,0.05,163.6,0)" xlink:href="#L"/><use transform="matrix(0.05,0,0,0.05,169.54999999999998,0)" xlink:href="#J"/><use transform="matrix(0.05,0,0,0.05,174.54999999999998,0)" xlink:href="#X"/><use transform="matrix(0.05,0,0,0.05,185.49999999999997,0)" xlink:href="#K"/></g><g id="u"><use transform="matrix(0.05925925925925927,0,0,0.05925925925925927,0,0)" xlink:href="#aP"/><use transform="matrix(0.05925925925925927,0,0,0.05925925925925927,12.97777777777778,0)" xlink:href="#aE"/><use transform="matrix(0.05925925925925927,0,0,0.05925925925925927,24.829629629629633,0)" xlink:href="#aO"/><use transform="matrix(0.05925925925925927,0,0,0.05925925925925927,43.7925925925926,0)" xlink:href="#aH"/></g><g id="v"><use transform="matrix(0.059259259259259255,0,0,0.059259259259259255,0,0)" xlink:href="#aR"/><use transform="matrix(0.059259259259259255,0,0,0.059259259259259255,11.851851851851851,0)" xlink:href="#aq"/><use transform="matrix(0.059259259259259255,0,0,0.059259259259259255,16.53333333333333,0)" xlink:href="#aS"/><use transform="matrix(0.059259259259259255,0,0,0.059259259259259255,27.199999999999996,0)" xlink:href="#aJ"/><use transform="matrix(0.059259259259259255,0,0,0.059259259259259255,33.12592592592592,0)" xlink:href="#aT"/><use transform="matrix(0.059259259259259255,0,0,0.059259259259259255,45.57037037037036,0)" xlink:href="#aI"/><use transform="matrix(0.059259259259259255,0,0,0.059259259259259255,59.792592592592584,0)" xlink:href="#aJ"/><use transform="matrix(0.059259259259259255,0,0,0.059259259259259255,65.71851851851851,0)" xlink:href="#aK"/><use transform="matrix(0.059259259259259255,0,0,0.059259259259259255,72.77037037037036,0)" xlink:href="#aq"/><use transform="matrix(0.059259259259259255,0,0,0.059259259259259255,77.45185185185184,0)" xlink:href="#ao"/><use transform="matrix(0.059259259259259255,0,0,0.059259259259259255,89.30370370370369,0)" xlink:href="#ar"/><use transform="matrix(0.059259259259259255,0,0,0.059259259259259255,101.15555555555554,0)" xlink:href="#aU"/></g><path fill="#660e7a" d="M135-150c-39-12-60 13-60 57V0H25l-1-190h47c2 13-1 29 3 40 6-28 27-53 61-41v41" id="bd"/><path fill="#660e7a" d="M195-6C206 82 75 100 31 46c-4-6-6-13-8-21l49-6c3 16 16 24 34 25 40 0 42-37 40-79-11 22-30 35-61 35-53 0-70-43-70-97 0-56 18-96 73-97 30 0 46 14 59 34l2-30h47zm-90-29c32 0 41-27 41-63 0-35-9-62-40-62-32 0-39 29-40 63 0 36 9 62 39 62" id="be"/><path fill="#660e7a" d="M67-125c0 53 21 87 73 88 37 1 54-22 65-47l45 17C233-25 199 4 140 4 58 4 20-42 15-125 8-235 124-281 211-232c18 10 29 29 36 50l-46 12c-8-25-30-41-62-41-52 0-71 34-72 86" id="bf"/><g id="w"><use transform="matrix(0.05925925925925927,0,0,0.05925925925925927,0,0)" xlink:href="#aD"/><use transform="matrix(0.05925925925925927,0,0,0.05925925925925927,7.051851851851853,0)" xlink:href="#aE"/><use transform="matrix(0.05925925925925927,0,0,0.05925925925925927,18.903703703703705,0)" xlink:href="#bd"/><use transform="matrix(0.05925925925925927,0,0,0.05925925925925927,27.200000000000003,0)" xlink:href="#be"/><use transform="matrix(0.05925925925925927,0,0,0.05925925925925927,40.177777777777784,0)" xlink:href="#aH"/><use transform="matrix(0.05925925925925927,0,0,0.05925925925925927,52.02962962962964,0)" xlink:href="#aD"/><use transform="matrix(0.05925925925925927,0,0,0.05925925925925927,59.08148148148149,0)" xlink:href="#bf"/><use transform="matrix(0.05925925925925927,0,0,0.05925925925925927,74.42962962962964,0)" xlink:href="#aM"/><use transform="matrix(0.05925925925925927,0,0,0.05925925925925927,87.40740740740742,0)" xlink:href="#aG"/><use transform="matrix(0.05925925925925927,0,0,0.05925925925925927,93.33333333333334,0)" xlink:href="#aN"/><use transform="matrix(0.05925925925925927,0,0,0.05925925925925927,106.31111111111112,0)" xlink:href="#aO"/><use transform="matrix(0.05925925925925927,0,0,0.05925925925925927,125.27407407407406,0)" xlink:href="#aP"/></g><g id="x"><use transform="matrix(0.059259259259259255,0,0,0.059259259259259255,0,0)" xlink:href="#aI"/><use transform="matrix(0.059259259259259255,0,0,0.059259259259259255,14.222222222222221,0)" xlink:href="#aJ"/><use transform="matrix(0.059259259259259255,0,0,0.059259259259259255,20.148148148148145,0)" xlink:href="#aK"/><use transform="matrix(0.059259259259259255,0,0,0.059259259259259255,27.199999999999996,0)" xlink:href="#aq"/><use transform="matrix(0.059259259259259255,0,0,0.059259259259259255,31.88148148148148,0)" xlink:href="#ao"/><use transform="matrix(0.059259259259259255,0,0,0.059259259259259255,43.73333333333333,0)" xlink:href="#ar"/></g><path d="M76-208v77h127v40H76V0H24v-248h183v40H76" id="bg"/><g id="y"><use transform="matrix(0.05,0,0,0.05,0,0)" xlink:href="#bg"/><use transform="matrix(0.05,0,0,0.05,10.950000000000001,0)" xlink:href="#J"/><use transform="matrix(0.05,0,0,0.05,15.950000000000001,0)" xlink:href="#U"/><use transform="matrix(0.05,0,0,0.05,20.950000000000003,0)" xlink:href="#U"/><use transform="matrix(0.05,0,0,0.05,25.950000000000003,0)" xlink:href="#ay"/><use transform="matrix(0.05,0,0,0.05,38.900000000000006,0)" xlink:href="#X"/><use transform="matrix(0.05,0,0,0.05,49.85000000000001,0)" xlink:href="#U"/><use transform="matrix(0.05,0,0,0.05,54.85,0)" xlink:href="#az"/><use transform="matrix(0.05,0,0,0.05,65.80000000000001,0)" xlink:href="#aA"/><use transform="matrix(0.05,0,0,0.05,81.80000000000001,0)" xlink:href="#K"/><use transform="matrix(0.05,0,0,0.05,92.75000000000001,0)" xlink:href="#aB"/><use transform="matrix(0.05,0,0,0.05,102.75,0)" xlink:href="#V"/><use transform="matrix(0.05,0,0,0.05,116.75,0)" xlink:href="#W"/><use transform="matrix(0.05,0,0,0.05,127.7,0)" xlink:href="#M"/><use transform="matrix(0.05,0,0,0.05,137.70000000000002,0)" xlink:href="#N"/><use transform="matrix(0.05,0,0,0.05,144.70000000000002,0)" xlink:href="#P"/><use transform="matrix(0.05,0,0,0.05,154.70000000000002,0)" xlink:href="#L"/><use transform="matrix(0.05,0,0,0.05,160.65,0)" xlink:href="#J"/><use transform="matrix(0.05,0,0,0.05,165.65,0)" xlink:href="#X"/><use transform="matrix(0.05,0,0,0.05,176.6,0)" xlink:href="#K"/></g><g id="z"><use transform="matrix(0.059259259259259255,0,0,0.059259259259259255,0,0)" xlink:href="#aR"/><use transform="matrix(0.059259259259259255,0,0,0.059259259259259255,11.851851851851851,0)" xlink:href="#aq"/><use transform="matrix(0.059259259259259255,0,0,0.059259259259259255,16.53333333333333,0)" xlink:href="#aS"/><use transform="matrix(0.059259259259259255,0,0,0.059259259259259255,27.199999999999996,0)" xlink:href="#aJ"/><use transform="matrix(0.059259259259259255,0,0,0.059259259259259255,33.12592592592592,0)" xlink:href="#aT"/><use transform="matrix(0.059259259259259255,0,0,0.059259259259259255,45.57037037037036,0)" xlink:href="#aI"/><use transform="matrix(0.059259259259259255,0,0,0.059259259259259255,59.792592592592584,0)" xlink:href="#aJ"/><use transform="matrix(0.059259259259259255,0,0,0.059259259259259255,65.71851851851851,0)" xlink:href="#aK"/><use transform="matrix(0.059259259259259255,0,0,0.059259259259259255,72.77037037037036,0)" xlink:href="#aq"/><use transform="matrix(0.059259259259259255,0,0,0.059259259259259255,77.45185185185184,0)" xlink:href="#ao"/><use transform="matrix(0.059259259259259255,0,0,0.059259259259259255,89.30370370370369,0)" xlink:href="#ar"/><use transform="matrix(0.059259259259259255,0,0,0.059259259259259255,101.15555555555554,0)" xlink:href="#aU"/></g><use transform="matrix(0.06172839506172839,0,0,0.06172839506172839,0,0)" xlink:href="#aC" id="A"/><path fill="#660e7a" d="M128 0H69L1-190h53L99-40l48-150h52" id="bh"/><g id="B"><use transform="matrix(0.05925925925925927,0,0,0.05925925925925927,0,0)" xlink:href="#bh"/><use transform="matrix(0.05925925925925927,0,0,0.05925925925925927,11.851851851851853,0)" xlink:href="#aE"/><use transform="matrix(0.05925925925925927,0,0,0.05925925925925927,23.703703703703706,0)" xlink:href="#aG"/><use transform="matrix(0.05925925925925927,0,0,0.05925925925925927,29.629629629629633,0)" xlink:href="#aN"/><use transform="matrix(0.05925925925925927,0,0,0.05925925925925927,42.607407407407415,0)" xlink:href="#aH"/></g><path fill="#8c6c41" d="M137 0h-34L2-248h35l83 218 83-218h36" id="bi"/><path fill="#8c6c41" d="M141-36C126-15 110 5 73 4 37 3 15-17 15-53c-1-64 63-63 125-63 3-35-9-54-41-54-24 1-41 7-42 31l-33-3c5-37 33-52 76-52 45 0 72 20 72 64v82c-1 20 7 32 28 27v20c-31 9-61-2-59-35zM48-53c0 20 12 33 32 33 41-3 63-29 60-74-43 2-92-5-92 41" id="bj"/><path fill="#8c6c41" d="M24 0v-261h32V0H24" id="bk"/><path fill="#8c6c41" d="M84 4C-5 8 30-112 23-190h32v120c0 31 7 50 39 49 72-2 45-101 50-169h31l1 190h-30c-1-10 1-25-2-33-11 22-28 36-60 37" id="bl"/><g id="C"><use transform="matrix(0.059259259259259255,0,0,0.059259259259259255,0,0)" xlink:href="#bi"/><use transform="matrix(0.059259259259259255,0,0,0.059259259259259255,12.622222222222222,0)" xlink:href="#bj"/><use transform="matrix(0.059259259259259255,0,0,0.059259259259259255,24.474074074074075,0)" xlink:href="#bk"/><use transform="matrix(0.059259259259259255,0,0,0.059259259259259255,29.155555555555555,0)" xlink:href="#bl"/><use transform="matrix(0.059259259259259255,0,0,0.059259259259259255,41.007407407407406,0)" xlink:href="#ba"/></g><path d="M24 0v-248h195v40H76v63h132v40H76v65h150V0H24" id="bm"/><path d="M144 0l-44-69L55 0H2l70-98-66-92h53l41 62 40-62h54l-67 91 71 99h-54" id="bn"/><g id="D"><use transform="matrix(0.05,0,0,0.05,0,0)" xlink:href="#bm"/><use transform="matrix(0.05,0,0,0.05,12,0)" xlink:href="#bn"/><use transform="matrix(0.05,0,0,0.05,22,0)" xlink:href="#W"/><use transform="matrix(0.05,0,0,0.05,32.95,0)" xlink:href="#X"/><use transform="matrix(0.05,0,0,0.05,43.900000000000006,0)" xlink:href="#N"/><use transform="matrix(0.05,0,0,0.05,50.900000000000006,0)" xlink:href="#L"/><use transform="matrix(0.05,0,0,0.05,56.85,0)" xlink:href="#V"/><use transform="matrix(0.05,0,0,0.05,70.85000000000001,0)" xlink:href="#W"/><use transform="matrix(0.05,0,0,0.05,81.80000000000001,0)" xlink:href="#M"/><use transform="matrix(0.05,0,0,0.05,91.80000000000001,0)" xlink:href="#N"/><use transform="matrix(0.05,0,0,0.05,98.80000000000001,0)" xlink:href="#P"/><use transform="matrix(0.05,0,0,0.05,108.80000000000001,0)" xlink:href="#L"/><use transform="matrix(0.05,0,0,0.05,114.75,0)" xlink:href="#J"/><use transform="matrix(0.05,0,0,0.05,119.75,0)" xlink:href="#X"/><use transform="matrix(0.05,0,0,0.05,130.70000000000002,0)" xlink:href="#K"/></g><path fill="#660e7a" d="M121-226c-27-7-43 5-38 36h38v33H83V0H34v-157H6v-33h28c-9-59 32-81 87-68v32" id="bo"/><path fill="#660e7a" d="M135-194c53 0 70 44 70 98 0 56-19 98-73 100-31 1-45-17-59-34 3 33 2 69 2 105H25l-1-265h48c2 10 0 23 3 31 11-24 29-35 60-35zM114-30c33 0 39-31 40-66 0-38-9-64-40-64-56 0-55 130 0 130" id="bp"/><path fill="#660e7a" d="M114-157C55-157 80-60 75 0H25v-261h50l-1 109c12-26 28-41 61-42 86-1 58 113 63 194h-50c-7-57 23-157-34-157" id="bq"/><g id="E"><use transform="matrix(0.05925925925925927,0,0,0.05925925925925927,0,0)" xlink:href="#bo"/><use transform="matrix(0.05925925925925927,0,0,0.05925925925925927,7.051851851851853,0)" xlink:href="#aW"/><use transform="matrix(0.05925925925925927,0,0,0.05925925925925927,12.97777777777778,0)" xlink:href="#aG"/><use transform="matrix(0.05925925925925927,0,0,0.05925925925925927,18.903703703703705,0)" xlink:href="#aH"/><use transform="matrix(0.05925925925925927,0,0,0.05925925925925927,30.75555555555556,0)" xlink:href="#bp"/><use transform="matrix(0.05925925925925927,0,0,0.05925925925925927,43.73333333333334,0)" xlink:href="#aE"/><use transform="matrix(0.05925925925925927,0,0,0.05925925925925927,55.585185185185196,0)" xlink:href="#aD"/><use transform="matrix(0.05925925925925927,0,0,0.05925925925925927,62.63703703703705,0)" xlink:href="#bq"/></g><g id="F"><use transform="matrix(0.05925925925925927,0,0,0.05925925925925927,0,0)" xlink:href="#bo"/><use transform="matrix(0.05925925925925927,0,0,0.05925925925925927,7.051851851851853,0)" xlink:href="#aW"/><use transform="matrix(0.05925925925925927,0,0,0.05925925925925927,12.97777777777778,0)" xlink:href="#aG"/><use transform="matrix(0.05925925925925927,0,0,0.05925925925925927,18.903703703703705,0)" xlink:href="#aH"/><use transform="matrix(0.05925925925925927,0,0,0.05925925925925927,30.75555555555556,0)" xlink:href="#aP"/><use transform="matrix(0.05925925925925927,0,0,0.05925925925925927,43.73333333333334,0)" xlink:href="#aE"/><use transform="matrix(0.05925925925925927,0,0,0.05925925925925927,55.585185185185196,0)" xlink:href="#aO"/><use transform="matrix(0.05925925925925927,0,0,0.05925925925925927,74.54814814814816,0)" xlink:href="#aH"/></g><g id="G"><use transform="matrix(0.05925925925925927,0,0,0.05925925925925927,0,0)" xlink:href="#aH"/><use transform="matrix(0.05925925925925927,0,0,0.05925925925925927,11.851851851851853,0)" xlink:href="#aY"/><use transform="matrix(0.05925925925925927,0,0,0.05925925925925927,23.703703703703706,0)" xlink:href="#bp"/><use transform="matrix(0.05925925925925927,0,0,0.05925925925925927,36.681481481481484,0)" xlink:href="#aM"/><use transform="matrix(0.05925925925925927,0,0,0.05925925925925927,49.659259259259265,0)" xlink:href="#bd"/><use transform="matrix(0.05925925925925927,0,0,0.05925925925925927,57.95555555555556,0)" xlink:href="#aD"/><use transform="matrix(0.05925925925925927,0,0,0.05925925925925927,65.00740740740741,0)" xlink:href="#aH"/><use transform="matrix(0.05925925925925927,0,0,0.05925925925925927,76.85925925925926,0)" xlink:href="#bd"/></g><path fill="#8c6c41" d="M127-220V0H93v-220H8v-28h204v28h-85" id="br"/><path fill="#8c6c41" d="M115-194c53 0 69 39 70 98 0 66-23 100-70 100C84 3 66-7 56-30L54 0H23l1-261h32v101c10-23 28-34 59-34zm-8 174c40 0 45-34 45-75 0-40-5-75-45-74-42 0-51 32-51 76 0 43 10 73 51 73" id="bs"/><path fill="#8c6c41" d="M30 0v-248h187v28H63v79h144v27H63v87h162V0H30" id="bt"/><path fill="#8c6c41" d="M141 0L90-78 38 0H4l68-98-65-92h35l48 74 47-74h35l-64 92 68 98h-35" id="bu"/><path fill="#8c6c41" d="M115-194c55 1 70 41 70 98S169 2 115 4C84 4 66-9 55-30l1 105H24l-1-265h31l2 30c10-21 28-34 59-34zm-8 174c40 0 45-34 45-75s-6-73-45-74c-42 0-51 32-51 76 0 43 10 73 51 73" id="bv"/><g id="H"><use transform="matrix(0.059259259259259255,0,0,0.059259259259259255,0,0)" xlink:href="#br"/><use transform="matrix(0.059259259259259255,0,0,0.059259259259259255,10.607407407407406,0)" xlink:href="#bj"/><use transform="matrix(0.059259259259259255,0,0,0.059259259259259255,22.459259259259255,0)" xlink:href="#bs"/><use transform="matrix(0.059259259259259255,0,0,0.059259259259259255,34.3111111111111,0)" xlink:href="#bk"/><use transform="matrix(0.059259259259259255,0,0,0.059259259259259255,38.99259259259259,0)" xlink:href="#ba"/><use transform="matrix(0.059259259259259255,0,0,0.059259259259259255,50.844444444444434,0)" xlink:href="#bt"/><use transform="matrix(0.059259259259259255,0,0,0.059259259259259255,65.06666666666666,0)" xlink:href="#bu"/><use transform="matrix(0.059259259259259255,0,0,0.059259259259259255,75.73333333333333,0)" xlink:href="#bv"/><use transform="matrix(0.059259259259259255,0,0,0.059259259259259255,87.58518518518518,0)" xlink:href="#an"/><use transform="matrix(0.059259259259259255,0,0,0.059259259259259255,99.43703703703703,0)" xlink:href="#aK"/><use transform="matrix(0.059259259259259255,0,0,0.059259259259259255,106.48888888888888,0)" xlink:href="#aJ"/><use transform="matrix(0.059259259259259255,0,0,0.059259259259259255,112.4148148148148,0)" xlink:href="#ba"/><use transform="matrix(0.059259259259259255,0,0,0.059259259259259255,124.26666666666665,0)" xlink:href="#aK"/></g></defs></g></svg>