<svg xmlns="http://www.w3.org/2000/svg" xmlns:xlink="http://www.w3.org/1999/xlink" xmlns:lucid="lucid" width="1941" height="1086"><g transform="translate(-759.4999999877217 -199.99999999999994)" lucid:page-tab-id="GxBKn.cwmk19"><path d="M-3000-1500h8000v3500h-8000z" fill="#fff"/><path d="M1952.36 1092.5a6 6 0 0 1 6-6h328a6 6 0 0 1 6 6v187a6 6 0 0 1-6 6h-328a6 6 0 0 1-6-6z" stroke="#3a414a" fill="#fff"/><path d="M1952.36 1124.1h340" stroke="#3a414a" fill="none"/><use xlink:href="#a" transform="matrix(1,0,0,1,1960.35719602584,1094.5) translate(57.22500000000002 14.6)"/><use xlink:href="#b" transform="matrix(1,0,0,1,1964.35719602584,1132.1) translate(0 50.27777777777778)"/><use xlink:href="#c" transform="matrix(1,0,0,1,1964.35719602584,1132.1) translate(13.518518518518519 50.27777777777778)"/><use xlink:href="#d" transform="matrix(1,0,0,1,1964.35719602584,1132.1) translate(69.1037037037037 50.27777777777778)"/><use xlink:href="#e" transform="matrix(1,0,0,1,1964.35719602584,1132.1) translate(82.32839506172839 50.27777777777778)"/><use xlink:href="#f" transform="matrix(1,0,0,1,1964.35719602584,1132.1) translate(0 76.94444444444446)"/><use xlink:href="#g" transform="matrix(1,0,0,1,1964.35719602584,1132.1) translate(13.518518518518519 76.94444444444446)"/><use xlink:href="#d" transform="matrix(1,0,0,1,1964.35719602584,1132.1) translate(84.45185185185186 76.94444444444446)"/><use xlink:href="#h" transform="matrix(1,0,0,1,1964.35719602584,1132.1) translate(97.67654320987654 76.94444444444446)"/><use xlink:href="#b" transform="matrix(1,0,0,1,1964.35719602584,1132.1) translate(0 103.61111111111111)"/><use xlink:href="#i" transform="matrix(1,0,0,1,1964.35719602584,1132.1) translate(13.518518518518519 103.61111111111111)"/><use xlink:href="#d" transform="matrix(1,0,0,1,1964.35719602584,1132.1) translate(107.21728395061729 103.61111111111111)"/><use xlink:href="#j" transform="matrix(1,0,0,1,1964.35719602584,1132.1) translate(120.44197530864197 103.61111111111111)"/><path d="M2360 806a6 6 0 0 1 6-6h328a6 6 0 0 1 6 6v213a6 6 0 0 1-6 6h-328a6 6 0 0 1-6-6z" stroke="#3a414a" fill="#fff"/><path d="M2360 837.6h340" stroke="#3a414a" fill="none"/><use xlink:href="#k" transform="matrix(1,0,0,1,2368,808) translate(91.175 14.6)"/><use xlink:href="#b" transform="matrix(1,0,0,1,2372,845.6) translate(0 50.44444444444445)"/><use xlink:href="#c" transform="matrix(1,0,0,1,2372,845.6) translate(13.518518518518519 50.44444444444445)"/><use xlink:href="#d" transform="matrix(1,0,0,1,2372,845.6) translate(69.1037037037037 50.44444444444445)"/><use xlink:href="#l" transform="matrix(1,0,0,1,2372,845.6) translate(82.32839506172839 50.44444444444445)"/><use xlink:href="#b" transform="matrix(1,0,0,1,2372,845.6) translate(0 77.11111111111111)"/><use xlink:href="#m" transform="matrix(1,0,0,1,2372,845.6) translate(13.518518518518519 77.11111111111111)"/><use xlink:href="#d" transform="matrix(1,0,0,1,2372,845.6) translate(95.05925925925926 77.11111111111111)"/><use xlink:href="#l" transform="matrix(1,0,0,1,2372,845.6) translate(108.28395061728395 77.11111111111111)"/><use xlink:href="#b" transform="matrix(1,0,0,1,2372,845.6) translate(0 103.77777777777777)"/><use xlink:href="#n" transform="matrix(1,0,0,1,2372,845.6) translate(13.518518518518519 103.77777777777777)"/><use xlink:href="#d" transform="matrix(1,0,0,1,2372,845.6) translate(105.84444444444445 103.77777777777777)"/><use xlink:href="#l" transform="matrix(1,0,0,1,2372,845.6) translate(119.06913580246913 103.77777777777777)"/><use xlink:href="#b" transform="matrix(1,0,0,1,2372,845.6) translate(0 130.44444444444446)"/><use xlink:href="#o" transform="matrix(1,0,0,1,2372,845.6) translate(13.518518518518519 130.44444444444446)"/><use xlink:href="#d" transform="matrix(1,0,0,1,2372,845.6) translate(104.60000000000001 130.44444444444446)"/><use xlink:href="#p" transform="matrix(1,0,0,1,2372,845.6) translate(117.8246913580247 130.44444444444446)"/><path d="M2360 1086a6 6 0 0 1 6-6h328a6 6 0 0 1 6 6v187a6 6 0 0 1-6 6h-328a6 6 0 0 1-6-6z" stroke="#3a414a" fill="#fff"/><path d="M2360 1117.6h340" stroke="#3a414a" fill="none"/><use xlink:href="#q" transform="matrix(1,0,0,1,2368,1088) translate(45.32500000000002 14.6)"/><use xlink:href="#b" transform="matrix(1,0,0,1,2372,1125.6) translate(0 50.27777777777778)"/><use xlink:href="#c" transform="matrix(1,0,0,1,2372,1125.6) translate(13.518518518518519 50.27777777777778)"/><use xlink:href="#d" transform="matrix(1,0,0,1,2372,1125.6) translate(69.1037037037037 50.27777777777778)"/><use xlink:href="#e" transform="matrix(1,0,0,1,2372,1125.6) translate(82.32839506172839 50.27777777777778)"/><use xlink:href="#f" transform="matrix(1,0,0,1,2372,1125.6) translate(0 76.94444444444446)"/><use xlink:href="#g" transform="matrix(1,0,0,1,2372,1125.6) translate(13.518518518518519 76.94444444444446)"/><use xlink:href="#d" transform="matrix(1,0,0,1,2372,1125.6) translate(84.45185185185186 76.94444444444446)"/><use xlink:href="#h" transform="matrix(1,0,0,1,2372,1125.6) translate(97.67654320987654 76.94444444444446)"/><use xlink:href="#b" transform="matrix(1,0,0,1,2372,1125.6) translate(0 103.61111111111111)"/><use xlink:href="#i" transform="matrix(1,0,0,1,2372,1125.6) translate(13.518518518518519 103.61111111111111)"/><use xlink:href="#d" transform="matrix(1,0,0,1,2372,1125.6) translate(107.21728395061729 103.61111111111111)"/><use xlink:href="#j" transform="matrix(1,0,0,1,2372,1125.6) translate(120.44197530864197 103.61111111111111)"/><path d="M760 386a6 6 0 0 1 6-6h328a6 6 0 0 1 6 6v160a6 6 0 0 1-6 6H766a6 6 0 0 1-6-6z" stroke="#3a414a" fill="#fff"/><path d="M760 417.6h340" stroke="#3a414a" fill="none"/><use xlink:href="#r" transform="matrix(1,0,0,1,768,388) translate(93.125 14.6)"/><use xlink:href="#b" transform="matrix(1,0,0,1,772,425.6) translate(0 50.611111111111114)"/><use xlink:href="#c" transform="matrix(1,0,0,1,772,425.6) translate(13.518518518518519 50.611111111111114)"/><use xlink:href="#d" transform="matrix(1,0,0,1,772,425.6) translate(69.1037037037037 50.611111111111114)"/><use xlink:href="#s" transform="matrix(1,0,0,1,772,425.6) translate(82.32839506172839 50.611111111111114)"/><use xlink:href="#b" transform="matrix(1,0,0,1,772,425.6) translate(0 77.27777777777777)"/><use xlink:href="#i" transform="matrix(1,0,0,1,772,425.6) translate(13.518518518518519 77.27777777777777)"/><use xlink:href="#d" transform="matrix(1,0,0,1,772,425.6) translate(107.21728395061729 77.27777777777777)"/><use xlink:href="#j" transform="matrix(1,0,0,1,772,425.6) translate(120.44197530864197 77.27777777777777)"/><path d="M760 626a6 6 0 0 1 6-6h328a6 6 0 0 1 6 6v160a6 6 0 0 1-6 6H766a6 6 0 0 1-6-6z" stroke="#3a414a" fill="#fff"/><path d="M760 657.6h340" stroke="#3a414a" fill="none"/><use xlink:href="#t" transform="matrix(1,0,0,1,768,628) translate(92.64999999999999 14.6)"/><use xlink:href="#b" transform="matrix(1,0,0,1,772,665.6) translate(0 50.611111111111114)"/><use xlink:href="#c" transform="matrix(1,0,0,1,772,665.6) translate(13.518518518518519 50.611111111111114)"/><use xlink:href="#d" transform="matrix(1,0,0,1,772,665.6) translate(69.1037037037037 50.611111111111114)"/><use xlink:href="#s" transform="matrix(1,0,0,1,772,665.6) translate(82.32839506172839 50.611111111111114)"/><use xlink:href="#b" transform="matrix(1,0,0,1,772,665.6) translate(0 77.27777777777777)"/><use xlink:href="#i" transform="matrix(1,0,0,1,772,665.6) translate(13.518518518518519 77.27777777777777)"/><use xlink:href="#d" transform="matrix(1,0,0,1,772,665.6) translate(107.21728395061729 77.27777777777777)"/><use xlink:href="#j" transform="matrix(1,0,0,1,772,665.6) translate(120.44197530864197 77.27777777777777)"/><path d="M760 866a6 6 0 0 1 6-6h328a6 6 0 0 1 6 6v160a6 6 0 0 1-6 6H766a6 6 0 0 1-6-6z" stroke="#3a414a" fill="#fff"/><path d="M760 897.6h340" stroke="#3a414a" fill="none"/><use xlink:href="#u" transform="matrix(1,0,0,1,768,868) translate(92.15 14.6)"/><use xlink:href="#b" transform="matrix(1,0,0,1,772,905.6) translate(0 50.611111111111114)"/><use xlink:href="#c" transform="matrix(1,0,0,1,772,905.6) translate(13.518518518518519 50.611111111111114)"/><use xlink:href="#d" transform="matrix(1,0,0,1,772,905.6) translate(69.1037037037037 50.611111111111114)"/><use xlink:href="#s" transform="matrix(1,0,0,1,772,905.6) translate(82.32839506172839 50.611111111111114)"/><use xlink:href="#b" transform="matrix(1,0,0,1,772,905.6) translate(0 77.27777777777777)"/><use xlink:href="#v" transform="matrix(1,0,0,1,772,905.6) translate(13.518518518518519 77.27777777777777)"/><use xlink:href="#d" transform="matrix(1,0,0,1,772,905.6) translate(114.3283950617284 77.27777777777777)"/><use xlink:href="#w" transform="matrix(1,0,0,1,772,905.6) translate(127.55308641975309 77.27777777777777)"/><path d="M760 1106a6 6 0 0 1 6-6h328a6 6 0 0 1 6 6v160a6 6 0 0 1-6 6H766a6 6 0 0 1-6-6z" stroke="#3a414a" fill="#fff"/><path d="M760 1137.6h340" stroke="#3a414a" fill="none"/><use xlink:href="#x" transform="matrix(1,0,0,1,768,1108) translate(71.22500000000001 14.6)"/><use xlink:href="#b" transform="matrix(1,0,0,1,772,1145.6) translate(0 50.611111111111114)"/><use xlink:href="#c" transform="matrix(1,0,0,1,772,1145.6) translate(13.518518518518519 50.611111111111114)"/><use xlink:href="#d" transform="matrix(1,0,0,1,772,1145.6) translate(69.1037037037037 50.611111111111114)"/><use xlink:href="#s" transform="matrix(1,0,0,1,772,1145.6) translate(82.32839506172839 50.611111111111114)"/><use xlink:href="#b" transform="matrix(1,0,0,1,772,1145.6) translate(0 77.27777777777777)"/><use xlink:href="#v" transform="matrix(1,0,0,1,772,1145.6) translate(13.518518518518519 77.27777777777777)"/><use xlink:href="#d" transform="matrix(1,0,0,1,772,1145.6) translate(114.3283950617284 77.27777777777777)"/><use xlink:href="#w" transform="matrix(1,0,0,1,772,1145.6) translate(127.55308641975309 77.27777777777777)"/><path d="M1160 866a6 6 0 0 1 6-6h328a6 6 0 0 1 6 6v160a6 6 0 0 1-6 6h-328a6 6 0 0 1-6-6z" stroke="#3a414a" fill="#fff"/><path d="M1160 897.6h340" stroke="#3a414a" fill="none"/><use xlink:href="#y" transform="matrix(1,0,0,1,1168,868) translate(93.725 14.6)"/><use xlink:href="#b" transform="matrix(1,0,0,1,1172,905.6) translate(0 50.611111111111114)"/><use xlink:href="#c" transform="matrix(1,0,0,1,1172,905.6) translate(13.518518518518519 50.611111111111114)"/><use xlink:href="#d" transform="matrix(1,0,0,1,1172,905.6) translate(69.1037037037037 50.611111111111114)"/><use xlink:href="#s" transform="matrix(1,0,0,1,1172,905.6) translate(82.32839506172839 50.611111111111114)"/><use xlink:href="#b" transform="matrix(1,0,0,1,1172,905.6) translate(0 77.27777777777777)"/><use xlink:href="#i" transform="matrix(1,0,0,1,1172,905.6) translate(13.518518518518519 77.27777777777777)"/><use xlink:href="#d" transform="matrix(1,0,0,1,1172,905.6) translate(107.21728395061729 77.27777777777777)"/><use xlink:href="#j" transform="matrix(1,0,0,1,1172,905.6) translate(120.44197530864197 77.27777777777777)"/><path d="M1160 1106a6 6 0 0 1 6-6h328a6 6 0 0 1 6 6v160a6 6 0 0 1-6 6h-328a6 6 0 0 1-6-6z" stroke="#3a414a" fill="#fff"/><path d="M1160 1137.6h340" stroke="#3a414a" fill="none"/><use xlink:href="#z" transform="matrix(1,0,0,1,1168,1108) translate(102.125 14.6)"/><use xlink:href="#b" transform="matrix(1,0,0,1,1172,1145.6) translate(0 50.611111111111114)"/><use xlink:href="#c" transform="matrix(1,0,0,1,1172,1145.6) translate(13.518518518518519 50.611111111111114)"/><use xlink:href="#d" transform="matrix(1,0,0,1,1172,1145.6) translate(69.1037037037037 50.611111111111114)"/><use xlink:href="#s" transform="matrix(1,0,0,1,1172,1145.6) translate(82.32839506172839 50.611111111111114)"/><use xlink:href="#b" transform="matrix(1,0,0,1,1172,1145.6) translate(0 77.27777777777777)"/><use xlink:href="#i" transform="matrix(1,0,0,1,1172,1145.6) translate(13.518518518518519 77.27777777777777)"/><use xlink:href="#d" transform="matrix(1,0,0,1,1172,1145.6) translate(107.21728395061729 77.27777777777777)"/><use xlink:href="#j" transform="matrix(1,0,0,1,1172,1145.6) translate(120.44197530864197 77.27777777777777)"/><path d="M1560 866a6 6 0 0 1 6-6h328a6 6 0 0 1 6 6v160a6 6 0 0 1-6 6h-328a6 6 0 0 1-6-6z" stroke="#3a414a" fill="#fff"/><path d="M1560 897.6h340" stroke="#3a414a" fill="none"/><use xlink:href="#A" transform="matrix(1,0,0,1,1568,868) translate(104.14999999999999 14.6)"/><use xlink:href="#b" transform="matrix(1,0,0,1,1572,905.6) translate(0 50.611111111111114)"/><use xlink:href="#c" transform="matrix(1,0,0,1,1572,905.6) translate(13.518518518518519 50.611111111111114)"/><use xlink:href="#d" transform="matrix(1,0,0,1,1572,905.6) translate(69.1037037037037 50.611111111111114)"/><use xlink:href="#s" transform="matrix(1,0,0,1,1572,905.6) translate(82.32839506172839 50.611111111111114)"/><use xlink:href="#b" transform="matrix(1,0,0,1,1572,905.6) translate(0 77.27777777777777)"/><use xlink:href="#i" transform="matrix(1,0,0,1,1572,905.6) translate(13.518518518518519 77.27777777777777)"/><use xlink:href="#d" transform="matrix(1,0,0,1,1572,905.6) translate(107.21728395061729 77.27777777777777)"/><use xlink:href="#j" transform="matrix(1,0,0,1,1572,905.6) translate(120.44197530864197 77.27777777777777)"/><path d="M1560 1106a6 6 0 0 1 6-6h328a6 6 0 0 1 6 6v160a6 6 0 0 1-6 6h-328a6 6 0 0 1-6-6z" stroke="#3a414a" fill="#fff"/><path d="M1560 1137.6h340" stroke="#3a414a" fill="none"/><g><use xlink:href="#B" transform="matrix(1,0,0,1,1568,1108) translate(100.125 14.6)"/></g><g><use xlink:href="#b" transform="matrix(1,0,0,1,1572,1145.6) translate(0 50.611111111111114)"/><use xlink:href="#c" transform="matrix(1,0,0,1,1572,1145.6) translate(13.518518518518519 50.611111111111114)"/><use xlink:href="#d" transform="matrix(1,0,0,1,1572,1145.6) translate(69.1037037037037 50.611111111111114)"/><use xlink:href="#s" transform="matrix(1,0,0,1,1572,1145.6) translate(82.32839506172839 50.611111111111114)"/><use xlink:href="#b" transform="matrix(1,0,0,1,1572,1145.6) translate(0 77.27777777777777)"/><use xlink:href="#i" transform="matrix(1,0,0,1,1572,1145.6) translate(13.518518518518519 77.27777777777777)"/><use xlink:href="#d" transform="matrix(1,0,0,1,1572,1145.6) translate(107.21728395061729 77.27777777777777)"/><use xlink:href="#j" transform="matrix(1,0,0,1,1572,1145.6) translate(120.44197530864197 77.27777777777777)"/></g><path d="M1952.36 866a6 6 0 0 1 6-6h328a6 6 0 0 1 6 6v160a6 6 0 0 1-6 6h-328a6 6 0 0 1-6-6z" stroke="#3a414a" fill="#fff"/><path d="M1952.36 897.6h340" stroke="#3a414a" fill="none"/><g><use xlink:href="#C" transform="matrix(1,0,0,1,1960.35719602584,868) translate(96.64999999999999 14.6)"/></g><g><use xlink:href="#b" transform="matrix(1,0,0,1,1964.35719602584,905.6) translate(0 50.611111111111114)"/><use xlink:href="#c" transform="matrix(1,0,0,1,1964.35719602584,905.6) translate(13.518518518518519 50.611111111111114)"/><use xlink:href="#d" transform="matrix(1,0,0,1,1964.35719602584,905.6) translate(69.1037037037037 50.611111111111114)"/><use xlink:href="#s" transform="matrix(1,0,0,1,1964.35719602584,905.6) translate(82.32839506172839 50.611111111111114)"/><use xlink:href="#b" transform="matrix(1,0,0,1,1964.35719602584,905.6) translate(0 77.27777777777777)"/><use xlink:href="#i" transform="matrix(1,0,0,1,1964.35719602584,905.6) translate(13.518518518518519 77.27777777777777)"/><use xlink:href="#d" transform="matrix(1,0,0,1,1964.35719602584,905.6) translate(107.21728395061729 77.27777777777777)"/><use xlink:href="#j" transform="matrix(1,0,0,1,1964.35719602584,905.6) translate(120.44197530864197 77.27777777777777)"/></g><path d="M1280 246.5a6 6 0 0 1 6-6h560.36a6 6 0 0 1 6 6v362a6 6 0 0 1-6 6H1286a6 6 0 0 1-6-6z" stroke="#3a414a" fill="#fff"/><path d="M1280 299.7h572.36M1280 443.87h572.36" stroke="#3a414a" fill="none"/><g><use xlink:href="#D" transform="matrix(1,0,0,1,1288,248.4999741577626) translate(222.575 14.799999999999999)"/><use xlink:href="#E" transform="matrix(1,0,0,1,1288,248.4999741577626) translate(212.975 36.4)"/></g><g><use xlink:href="#F" transform="matrix(1,0,0,1,1292,307.6999741577626) translate(0 28.94444444444445)"/><use xlink:href="#b" transform="matrix(1,0,0,1,1292,307.6999741577626) translate(0 55.61111111111112)"/><use xlink:href="#G" transform="matrix(1,0,0,1,1292,307.6999741577626) translate(13.518518518518519 55.61111111111112)"/><use xlink:href="#d" transform="matrix(1,0,0,1,1292,307.6999741577626) translate(129.2617283950617 55.61111111111112)"/><use xlink:href="#H" transform="matrix(1,0,0,1,1292,307.6999741577626) translate(142.4864197530864 55.61111111111112)"/><use xlink:href="#b" transform="matrix(1,0,0,1,1292,307.6999741577626) translate(0 82.27777777777777)"/><use xlink:href="#I" transform="matrix(1,0,0,1,1292,307.6999741577626) translate(13.518518518518519 82.27777777777777)"/><use xlink:href="#d" transform="matrix(1,0,0,1,1292,307.6999741577626) translate(217.3802469135802 82.27777777777777)"/><use xlink:href="#H" transform="matrix(1,0,0,1,1292,307.6999741577626) translate(230.6049382716049 82.27777777777777)"/><use xlink:href="#J" transform="matrix(1,0,0,1,1292,307.6999741577626) translate(0 108.94444444444446)"/></g><g><use xlink:href="#K" transform="matrix(1,0,0,1,1292,451.8666408244293) translate(0 28.611111111111118)"/><use xlink:href="#L" transform="matrix(1,0,0,1,1292,451.8666408244293) translate(18.888888888888886 28.611111111111118)"/><use xlink:href="#M" transform="matrix(1,0,0,1,1292,451.8666408244293) translate(168.99259259259262 28.611111111111118)"/><use xlink:href="#N" transform="matrix(1,0,0,1,1292,451.8666408244293) translate(181.9703703703704 28.611111111111118)"/><use xlink:href="#O" transform="matrix(1,0,0,1,1292,451.8666408244293) translate(0 55.277777777777786)"/><use xlink:href="#P" transform="matrix(1,0,0,1,1292,451.8666408244293) translate(18.888888888888886 55.277777777777786)"/><use xlink:href="#M" transform="matrix(1,0,0,1,1292,451.8666408244293) translate(262.08888888888885 55.277777777777786)"/><use xlink:href="#N" transform="matrix(1,0,0,1,1292,451.8666408244293) translate(275.0666666666666 55.277777777777786)"/><use xlink:href="#O" transform="matrix(1,0,0,1,1292,451.8666408244293) translate(0 81.94444444444444)"/><use xlink:href="#Q" transform="matrix(1,0,0,1,1292,451.8666408244293) translate(18.888888888888886 81.94444444444444)"/><use xlink:href="#M" transform="matrix(1,0,0,1,1292,451.8666408244293) translate(125.3185185185185 81.94444444444444)"/><use xlink:href="#R" transform="matrix(1,0,0,1,1292,451.8666408244293) translate(138.29629629629628 81.94444444444444)"/><use xlink:href="#K" transform="matrix(1,0,0,1,1292,451.8666408244293) translate(0 108.61111111111111)"/><use xlink:href="#S" transform="matrix(1,0,0,1,1292,451.8666408244293) translate(18.888888888888886 108.61111111111111)"/><use xlink:href="#M" transform="matrix(1,0,0,1,1292,451.8666408244293) translate(134.56296296296296 108.61111111111111)"/><use xlink:href="#T" transform="matrix(1,0,0,1,1292,451.8666408244293) translate(147.54074074074074 108.61111111111111)"/><use xlink:href="#K" transform="matrix(1,0,0,1,1292,451.8666408244293) translate(0 135.27777777777777)"/><use xlink:href="#U" transform="matrix(1,0,0,1,1292,451.8666408244293) translate(18.888888888888886 135.27777777777777)"/><use xlink:href="#V" transform="matrix(1,0,0,1,1292,451.8666408244293) translate(236.78518518518513 135.27777777777777)"/><use xlink:href="#W" transform="matrix(1,0,0,1,1292,451.8666408244293) translate(249.76296296296292 135.27777777777777)"/><use xlink:href="#M" transform="matrix(1,0,0,1,1292,451.8666408244293) translate(397.67407407407404 135.27777777777777)"/><use xlink:href="#X" transform="matrix(1,0,0,1,1292,451.8666408244293) translate(410.6518518518518 135.27777777777777)"/></g><path d="M2236.25 353.75v-4.93m0-4.92v-9.85m0-4.93v-9.85m0-4.92v-9.85m0-4.93v-9.84m0-4.93v-9.85m0-4.93v-9.84m0-4.93v-9.85m0-4.93v-9.84m0-4.93v-9.85m0-4.92V206l-.07-.94-.22-.9-.36-.88-.5-.8-.6-.72-.72-.6-.8-.5-.88-.37-.9-.23-.95-.07h-4.98m-4.98 0h-9.96m-4.98 0h-9.96m-4.97 0h-9.96m-4.98 0h-9.97m-4.97 0h-9.96m-4.98 0h-9.95m-4.98 0h-9.97m-4.98 0h-9.95m-4.98 0h-9.96m-4.97 0h-9.97m-4.98 0H2061m-4.98 0h-9.96m-4.98 0h-9.95m-4.98 0h-9.96m-5 0h-9.94m-4.98 0h-9.96m-4.98 0h-9.95m-5 0h-9.95m-4.97 0h-9.96m-4.98 0h-9.95m-5 0h-9.95m-4.98 0h-9.95m-4.98 0h-9.96m-4.98 0h-9.95m-4.98 0h-9.96m-4.97 0h-9.95m-4.98 0h-9.95m-4.98 0h-9.96m-4.97 0h-9.95m-4.98 0h-9.96m-4.98 0h-9.95m-4.97 0h-9.96m-4.97 0h-9.96m-4.98 0h-9.95m-4.97 0h-4.98l-.94.07-.9.22-.88.35-.8.5-.7.6-.63.72-.5.8-.36.88-.22.9-.07.95v3.67m0 3.66V217" stroke="#3a414a" fill="none"/><path d="M2236.75 354.25h-1v-.5h1z" stroke="#3a414a" stroke-width=".05" fill="#3a414a"/><path d="M1701.55 239.02l-12.73-21.52h25.45z" stroke="#3a414a" fill="#fff"/><path d="M2009.13 427.5h-155.36" stroke="#3a414a" fill="none"/><path d="M2038.8 427.5l-14.86 14.85-15.15-14.85 15.14-14.85z" stroke="#3a414a" fill="#3a414a"/><path d="M1871.05 417.32l-17.2 10.18 17.2 10.18" stroke="#3a414a" fill="none"/><path d="M2040 360.75a6 6 0 0 1 6-6h380.5a6 6 0 0 1 6 6v133a6 6 0 0 1-6 6H2046a6 6 0 0 1-6-6z" stroke="#3a414a" fill="#fff"/><path d="M2040 392.35h392.5" stroke="#3a414a" fill="none"/><g><use xlink:href="#Y" transform="matrix(1,0,0,1,2048,362.7499749745215) translate(99.72500000000001 14.6)"/></g><g><use xlink:href="#b" transform="matrix(1,0,0,1,2052,400.3499749745215) translate(0 50.44444444444444)"/><use xlink:href="#Z" transform="matrix(1,0,0,1,2052,400.3499749745215) translate(13.518518518518519 50.44444444444444)"/><use xlink:href="#d" transform="matrix(1,0,0,1,2052,400.3499749745215) translate(128.4320987654321 50.44444444444444)"/><use xlink:href="#aa" transform="matrix(1,0,0,1,2052,400.3499749745215) translate(141.6567901234568 50.44444444444444)"/></g><path d="M1566.18 615.9v5.16m0 5.15v10.3m0 5.16v10.3m0 5.15v10.3m0 5.15v10.3m0 5.15v10.3m0 5.15v10.3m0 5.15v10.3m0 5.15v5.15M1576.36 633.2l-10.18-17.22L1556 633.2M1566.18 739.5v.5M1101 466h4.88m4.87 0h9.75m4.88 0h9.74m4.88 0h9.75m4.88 0h4.87" stroke="#3a414a" fill="none"/><path d="M1101 466.5h-.5v-1h.5z" stroke="#3a414a" stroke-width=".05" fill="#3a414a"/><path d="M1159.5 466h.5M1101 706h5.23m5.24 0h10.46m5.24 0h10.46m5.24 0h10.46m5.24 0h10.46m5.24 0h5.23" stroke="#3a414a" fill="none"/><path d="M1101 706.5h-.5v-1h.5z" stroke="#3a414a" stroke-width=".05" fill="#3a414a"/><path d="M1179.5 706h.5M1330 859v-4.42m0-4.4v-8.85m0-4.4v-8.85m0-4.4v-8.85m0-4.4V806l.07-.94.22-.9.35-.88.5-.8.6-.72.72-.6.8-.5.88-.37.9-.23.95-.07h5.3m5.28 0h10.6m5.28 0h10.58m5.3 0h10.58m5.3 0h5.28" stroke="#3a414a" fill="none"/><path d="M1330.5 859.5h-1v-.5h1z" stroke="#3a414a" stroke-width=".05" fill="#3a414a"/><path d="M1399.5 800h.5M1730 859v-4.42m0-4.4v-8.85m0-4.4v-8.85m0-4.4v-8.85m0-4.4V806l-.07-.94-.22-.9-.35-.88-.5-.8-.6-.72-.72-.6-.8-.5-.88-.37-.9-.23-.95-.07h-5.3m-5.28 0h-10.6m-5.28 0h-10.58m-5.3 0h-10.58m-5.3 0h-5.28" stroke="#3a414a" fill="none"/><path d="M1730.5 859.5h-1v-.5h1z" stroke="#3a414a" stroke-width=".05" fill="#3a414a"/><path d="M1660.5 800h-.5M2122.36 859v-4.42m0-4.4v-8.85m0-4.4v-8.85m0-4.4v-8.85m0-4.4V806l-.08-.94-.22-.9-.36-.88-.5-.8-.6-.72-.72-.6-.8-.5-.87-.37-.9-.23-.94-.07h-5.33m-5.32 0h-10.64m-5.33 0h-10.65m-5.33 0h-10.65m-5.32 0h-10.65m-5.33 0h-10.65m-5.33 0h-5.32" stroke="#3a414a" fill="none"/><path d="M2122.86 859.5h-1v-.5h1z" stroke="#3a414a" stroke-width=".05" fill="#3a414a"/><path d="M2020.5 800h-.5M2530 799v-4.42m0-4.4v-8.85m0-4.4v-8.85m0-4.4v-8.85m0-4.4V746l-.07-.94-.22-.9-.35-.88-.5-.8-.6-.72-.72-.6-.8-.5-.88-.37-.9-.23-.95-.07h-4.64m-4.64 0h-9.28m-4.63 0h-9.27m-4.64 0h-9.3m-4.63 0h-9.28m-4.64 0h-9.28m-4.64 0h-4.64" stroke="#3a414a" fill="none"/><path d="M2530.5 799.5h-1v-.5h1z" stroke="#3a414a" stroke-width=".05" fill="#3a414a"/><path d="M2440.5 740h-.5M1101 946h4.33m4.34 0h4.33l.94-.07.9-.22.88-.35.8-.5.72-.6.6-.72.5-.8.37-.88.23-.9.07-.95v-5.3m0-5.3v-10.6m0-5.3v-10.6m0-5.3V887m0-5.3v-10.6m0-5.3v-5.3" stroke="#3a414a" fill="none"/><path d="M1101 946.5h-.5v-1h.5z" stroke="#3a414a" stroke-width=".05" fill="#3a414a"/><path d="M1120 860.5v-.5M1101 1186h5.5m5.5 0h11m5.5 0h5.5l.94-.07.9-.22.88-.35.8-.5.72-.6.6-.72.5-.8.37-.88.23-.9.07-.95v-4.98m0-4.98v-9.96m0-4.98v-9.95m0-4.98v-9.96m0-4.97v-9.96m0-4.98v-9.97m0-4.98v-9.95m0-4.98v-9.96m0-4.98v-4.98" stroke="#3a414a" fill="none"/><path d="M1101 1186.5h-.5v-1h.5z" stroke="#3a414a" stroke-width=".05" fill="#3a414a"/><path d="M1140 1060.5v-.5M1501 1186h4.33m4.34 0h4.33l.94-.07.9-.22.88-.35.8-.5.72-.6.6-.72.5-.8.37-.88.23-.9.07-.95v-4.74m0-4.74v-9.47m0-4.74v-9.47m0-4.73v-9.48m0-4.74v-9.48m0-4.73v-9.48m0-4.75v-9.47m0-4.74v-4.74" stroke="#3a414a" fill="none"/><path d="M1501 1186.5h-.5v-1h.5z" stroke="#3a414a" stroke-width=".05" fill="#3a414a"/><path d="M1520 1080.5v-.5M1559 1186h-4.33m-4.34 0H1546l-.94-.07-.9-.22-.88-.35-.8-.5-.72-.6-.6-.72-.5-.8-.37-.88-.23-.9-.07-.95v-4.74m0-4.74v-9.47m0-4.74v-9.47m0-4.73v-9.48m0-4.74v-9.48m0-4.73v-9.48m0-4.75v-9.47m0-4.74v-4.74" stroke="#3a414a" fill="none"/><path d="M1559.5 1186.5h-.5v-1h.5z" stroke="#3a414a" stroke-width=".05" fill="#3a414a"/><path d="M1540 1080.5v-.5M1951.36 1186h-4.23m-4.23 0h-8.45m-4.22 0H1926l-.94-.07-.9-.22-.88-.35-.8-.5-.72-.6-.6-.72-.5-.8-.37-.88-.23-.9-.07-.95v-4.74m0-4.74v-9.47m0-4.74v-9.47m0-4.73v-9.48m0-4.74v-9.48m0-4.73v-9.48m0-4.75v-9.47m0-4.74v-4.74" stroke="#3a414a" fill="none"/><path d="M1951.86 1186.5h-.52v-1h.52z" stroke="#3a414a" stroke-width=".05" fill="#3a414a"/><path d="M1920 1080.5v-.5M2359 1179.5h-4.33m-4.34 0H2346l-.94-.07-.9-.22-.88-.35-.8-.5-.72-.6-.6-.72-.5-.8-.37-.88-.23-.9-.07-.95v-5.17m0-5.16v-10.34m0-5.16v-10.34m0-5.16v-10.34m0-5.16v-10.34m0-5.16v-10.34m0-5.16v-5.17" stroke="#3a414a" fill="none"/><path d="M2359.5 1180h-.5v-1h.5z" stroke="#3a414a" stroke-width=".05" fill="#3a414a"/><path d="M2340 1080.5v-.5" stroke="#3a414a" fill="none"/><path d="M1446.18 738a6 6 0 0 1 6-6h228a6 6 0 0 1 6 6v48a6 6 0 0 1-6 6h-228a6 6 0 0 1-6-6z" fill="none"/><g><use xlink:href="#ab" transform="matrix(1,0,0,1,1446.17859801292,732) translate(105.18518518518519 37.11111111111111)"/></g><path d="M1100 678a6 6 0 0 1 6-6h228a6 6 0 0 1 6 6v48a6 6 0 0 1-6 6h-228a6 6 0 0 1-6-6z" fill="none"/><g><use xlink:href="#ab" transform="matrix(1,0,0,1,1100,672) translate(105.18518518518519 37.11111111111111)"/></g><path d="M1080 442a6 6 0 0 1 6-6h228a6 6 0 0 1 6 6v48a6 6 0 0 1-6 6h-228a6 6 0 0 1-6-6z" fill="none"/><g><use xlink:href="#ab" transform="matrix(1,0,0,1,1080,436) translate(105.18518518518519 37.11111111111111)"/></g><path d="M1406.18 1026a6 6 0 0 1 6-6h228a6 6 0 0 1 6 6v48a6 6 0 0 1-6 6h-228a6 6 0 0 1-6-6z" fill="none"/><g><use xlink:href="#ab" transform="matrix(1,0,0,1,1406.17859801292,1020) translate(105.18518518518519 37.11111111111111)"/></g><path d="M1860 766a6 6 0 0 1 6-6h228a6 6 0 0 1 6 6v48a6 6 0 0 1-6 6h-228a6 6 0 0 1-6-6z" fill="none"/><g><use xlink:href="#ab" transform="matrix(1,0,0,1,1860,760) translate(105.18518518518519 37.11111111111111)"/></g><path d="M2292.36 706a6 6 0 0 1 6-6h228a6 6 0 0 1 6 6v48a6 6 0 0 1-6 6h-228a6 6 0 0 1-6-6z" fill="none"/><g><use xlink:href="#ab" transform="matrix(1,0,0,1,2292.35719602584,700) translate(105.18518518518519 37.11111111111111)"/></g><path d="M1300 772a6 6 0 0 1 6-6h228a6 6 0 0 1 6 6v48a6 6 0 0 1-6 6h-228a6 6 0 0 1-6-6z" fill="none"/><g><use xlink:href="#ab" transform="matrix(1,0,0,1,1300,766) translate(105.18518518518519 37.11111111111111)"/></g><path d="M1520 772a6 6 0 0 1 6-6h228a6 6 0 0 1 6 6v48a6 6 0 0 1-6 6h-228a6 6 0 0 1-6-6z" fill="none"/><g><use xlink:href="#ab" transform="matrix(1,0,0,1,1520,766) translate(105.18518518518519 37.11111111111111)"/></g><path d="M2220 1038a6 6 0 0 1 6-6h228a6 6 0 0 1 6 6v48a6 6 0 0 1-6 6h-228a6 6 0 0 1-6-6z" fill="none"/><g><use xlink:href="#ab" transform="matrix(1,0,0,1,2220,1032) translate(105.18518518518519 37.11111111111111)"/></g><path d="M1800 1031a6 6 0 0 1 6-6h228a6 6 0 0 1 6 6v48a6 6 0 0 1-6 6h-228a6 6 0 0 1-6-6z" fill="none"/><g><use xlink:href="#ab" transform="matrix(1,0,0,1,1800,1025) translate(105.18518518518519 37.11111111111111)"/></g><path d="M1000 806a6 6 0 0 1 6-6h228a6 6 0 0 1 6 6v48a6 6 0 0 1-6 6h-228a6 6 0 0 1-6-6z" fill="none"/><g><use xlink:href="#ab" transform="matrix(1,0,0,1,1000,800) translate(105.18518518518519 37.11111111111111)"/></g><path d="M1020 1026a6 6 0 0 1 6-6h228a6 6 0 0 1 6 6v48a6 6 0 0 1-6 6h-228a6 6 0 0 1-6-6z" fill="none"/><g><use xlink:href="#ab" transform="matrix(1,0,0,1,1020,1020) translate(105.18518518518519 37.11111111111111)"/></g><defs><path d="M67-125c0 53 21 87 73 88 37 1 54-22 65-47l45 17C233-25 199 4 140 4 58 4 20-42 15-125 8-235 124-281 211-232c18 10 29 29 36 50l-46 12c-8-25-30-41-62-41-52 0-71 34-72 86" id="ac"/><path d="M110-194c64 0 96 36 96 99 0 64-35 99-97 99-61 0-95-36-95-99 0-62 34-99 96-99zm-1 164c35 0 45-28 45-65 0-40-10-65-43-65-34 0-45 26-45 65 0 36 10 65 43 65" id="ad"/><path d="M135-194c87-1 58 113 63 194h-50c-7-57 23-157-34-157-59 0-34 97-39 157H25l-1-190h47c2 12-1 28 3 38 12-26 28-41 61-42" id="ae"/><path d="M190-63c-7 42-38 67-86 67-59 0-84-38-90-98-12-110 154-137 174-36l-49 2c-2-19-15-32-35-32-30 0-35 28-38 64-6 74 65 87 74 30" id="af"/><path d="M133-34C117-15 103 5 69 4 32 3 11-16 11-54c-1-60 55-63 116-61 1-26-3-47-28-47-18 1-26 9-28 27l-52-2c7-38 36-58 82-57s74 22 75 68l1 82c-1 14 12 18 25 15v27c-30 8-71 5-69-32zm-48 3c29 0 43-24 42-57-32 0-66-3-65 30 0 17 8 27 23 27" id="ag"/><path d="M115-3C79 11 28 4 28-45v-112H4v-33h27l15-45h31v45h36v33H77v99c-1 23 16 31 38 25v30" id="ah"/><path d="M147 0H94L2-248h55l64 206c17-72 42-137 63-206h54" id="ai"/><path d="M185-48c-13 30-37 53-82 52C43 2 14-33 14-96s30-98 90-98c62 0 83 45 84 108H66c0 31 8 55 39 56 18 0 30-7 34-22zm-45-69c5-46-57-63-70-21-2 6-4 13-4 21h74" id="aj"/><path d="M135-150c-39-12-60 13-60 57V0H25l-1-190h47c2 13-1 29 3 40 6-28 27-53 61-41v41" id="ak"/><path d="M25-224v-37h50v37H25zM25 0v-190h50V0H25" id="al"/><path d="M25 0v-261h50V0H25" id="am"/><path d="M140-251c80 0 125 45 125 126S219 4 139 4C58 4 15-44 15-125s44-126 125-126zm-1 214c52 0 73-35 73-88 0-50-21-86-72-86-52 0-73 35-73 86s22 88 72 88" id="an"/><path d="M135-194c53 0 70 44 70 98 0 56-19 98-73 100-31 1-45-17-59-34 3 33 2 69 2 105H25l-1-265h48c2 10 0 23 3 31 11-24 29-35 60-35zM114-30c33 0 39-31 40-66 0-38-9-64-40-64-56 0-55 130 0 130" id="ao"/><g id="a"><use transform="matrix(0.05,0,0,0.05,0,0)" xlink:href="#ac"/><use transform="matrix(0.05,0,0,0.05,12.950000000000001,0)" xlink:href="#ad"/><use transform="matrix(0.05,0,0,0.05,23.900000000000002,0)" xlink:href="#ae"/><use transform="matrix(0.05,0,0,0.05,34.85,0)" xlink:href="#af"/><use transform="matrix(0.05,0,0,0.05,44.85,0)" xlink:href="#ag"/><use transform="matrix(0.05,0,0,0.05,54.85,0)" xlink:href="#ah"/><use transform="matrix(0.05,0,0,0.05,60.800000000000004,0)" xlink:href="#ai"/><use transform="matrix(0.05,0,0,0.05,71.80000000000001,0)" xlink:href="#aj"/><use transform="matrix(0.05,0,0,0.05,81.80000000000001,0)" xlink:href="#ak"/><use transform="matrix(0.05,0,0,0.05,88.80000000000001,0)" xlink:href="#ah"/><use transform="matrix(0.05,0,0,0.05,94.75000000000001,0)" xlink:href="#al"/><use transform="matrix(0.05,0,0,0.05,99.75000000000001,0)" xlink:href="#af"/><use transform="matrix(0.05,0,0,0.05,109.75,0)" xlink:href="#ag"/><use transform="matrix(0.05,0,0,0.05,119.75,0)" xlink:href="#am"/><use transform="matrix(0.05,0,0,0.05,124.75,0)" xlink:href="#an"/><use transform="matrix(0.05,0,0,0.05,138.75,0)" xlink:href="#ao"/><use transform="matrix(0.05,0,0,0.05,149.7,0)" xlink:href="#aj"/><use transform="matrix(0.05,0,0,0.05,159.7,0)" xlink:href="#ak"/><use transform="matrix(0.05,0,0,0.05,166.7,0)" xlink:href="#ag"/><use transform="matrix(0.05,0,0,0.05,176.7,0)" xlink:href="#ah"/><use transform="matrix(0.05,0,0,0.05,182.64999999999998,0)" xlink:href="#al"/><use transform="matrix(0.05,0,0,0.05,187.64999999999998,0)" xlink:href="#ad"/><use transform="matrix(0.05,0,0,0.05,198.59999999999997,0)" xlink:href="#ae"/></g><path fill="#3a414a" d="M16-82v-28h88v28H16" id="ap"/><use transform="matrix(0.06172839506172839,0,0,0.06172839506172839,0,0)" xlink:href="#ap" id="b"/><path fill="#660e7a" d="M115-3C79 11 28 4 28-45v-112H4v-33h27l15-45h31v45h36v33H77v99c-1 23 16 31 38 25v30" id="aq"/><path fill="#660e7a" d="M133-34C117-15 103 5 69 4 32 3 11-16 11-54c-1-60 55-63 116-61 1-26-3-47-28-47-18 1-26 9-28 27l-52-2c7-38 36-58 82-57s74 22 75 68l1 82c-1 14 12 18 25 15v27c-30 8-71 5-69-32zm-48 3c29 0 43-24 42-57-32 0-66-3-65 30 0 17 8 27 23 27" id="ar"/><path fill="#660e7a" d="M135-194c52 0 70 43 70 98 0 56-19 99-73 100-30 1-46-15-58-35L72 0H24l1-261h50v104c11-23 29-37 60-37zM114-30c31 0 40-27 40-66 0-37-7-63-39-63s-41 28-41 65c0 36 8 64 40 64" id="as"/><path fill="#660e7a" d="M25 0v-261h50V0H25" id="at"/><path fill="#660e7a" d="M185-48c-13 30-37 53-82 52C43 2 14-33 14-96s30-98 90-98c62 0 83 45 84 108H66c0 31 8 55 39 56 18 0 30-7 34-22zm-45-69c5-46-57-63-70-21-2 6-4 13-4 21h74" id="au"/><g id="c"><use transform="matrix(0.05925925925925927,0,0,0.05925925925925927,0,0)" xlink:href="#aq"/><use transform="matrix(0.05925925925925927,0,0,0.05925925925925927,7.051851851851853,0)" xlink:href="#ar"/><use transform="matrix(0.05925925925925927,0,0,0.05925925925925927,18.903703703703705,0)" xlink:href="#as"/><use transform="matrix(0.05925925925925927,0,0,0.05925925925925927,31.881481481481487,0)" xlink:href="#at"/><use transform="matrix(0.05925925925925927,0,0,0.05925925925925927,37.80740740740741,0)" xlink:href="#au"/></g><path fill="#383838" d="M35-132v-50h50v50H35zM35 0v-49h50V0H35" id="av"/><use transform="matrix(0.059259259259259255,0,0,0.059259259259259255,0,0)" xlink:href="#av" id="d"/><path fill="#8c6c41" d="M127-220V0H93v-220H8v-28h204v28h-85" id="aw"/><path fill="#8c6c41" d="M141-36C126-15 110 5 73 4 37 3 15-17 15-53c-1-64 63-63 125-63 3-35-9-54-41-54-24 1-41 7-42 31l-33-3c5-37 33-52 76-52 45 0 72 20 72 64v82c-1 20 7 32 28 27v20c-31 9-61-2-59-35zM48-53c0 20 12 33 32 33 41-3 63-29 60-74-43 2-92-5-92 41" id="ax"/><path fill="#8c6c41" d="M115-194c53 0 69 39 70 98 0 66-23 100-70 100C84 3 66-7 56-30L54 0H23l1-261h32v101c10-23 28-34 59-34zm-8 174c40 0 45-34 45-75 0-40-5-75-45-74-42 0-51 32-51 76 0 43 10 73 51 73" id="ay"/><path fill="#8c6c41" d="M24 0v-261h32V0H24" id="az"/><path fill="#8c6c41" d="M100-194c63 0 86 42 84 106H49c0 40 14 67 53 68 26 1 43-12 49-29l28 8c-11 28-37 45-77 45C44 4 14-33 15-96c1-61 26-98 85-98zm52 81c6-60-76-77-97-28-3 7-6 17-6 28h103" id="aA"/><g id="e"><use transform="matrix(0.059259259259259255,0,0,0.059259259259259255,0,0)" xlink:href="#aw"/><use transform="matrix(0.059259259259259255,0,0,0.059259259259259255,10.607407407407406,0)" xlink:href="#ax"/><use transform="matrix(0.059259259259259255,0,0,0.059259259259259255,22.459259259259255,0)" xlink:href="#ay"/><use transform="matrix(0.059259259259259255,0,0,0.059259259259259255,34.3111111111111,0)" xlink:href="#az"/><use transform="matrix(0.059259259259259255,0,0,0.059259259259259255,38.99259259259259,0)" xlink:href="#aA"/></g><use transform="matrix(0.06172839506172839,0,0,0.06172839506172839,0,0)" xlink:href="#ap" id="f"/><path fill="#660e7a" d="M110-194c64 0 96 36 96 99 0 64-35 99-97 99-61 0-95-36-95-99 0-62 34-99 96-99zm-1 164c35 0 45-28 45-65 0-40-10-65-43-65-34 0-45 26-45 65 0 36 10 65 43 65" id="aB"/><path fill="#660e7a" d="M114-157C55-157 80-60 75 0H25v-261h50l-1 109c12-26 28-41 61-42 86-1 58 113 63 194h-50c-7-57 23-157-34-157" id="aC"/><path fill="#660e7a" d="M135-150c-39-12-60 13-60 57V0H25l-1-190h47c2 13-1 29 3 40 6-28 27-53 61-41v41" id="aD"/><path fill="#660e7a" d="M137-138c1-29-70-34-71-4 15 46 118 7 119 86 1 83-164 76-172 9l43-7c4 19 20 25 44 25 33 8 57-30 24-41C81-84 22-81 20-136c-2-80 154-74 161-7" id="aE"/><g id="g"><use transform="matrix(0.05925925925925927,0,0,0.05925925925925927,0,0)" xlink:href="#aB"/><use transform="matrix(0.05925925925925927,0,0,0.05925925925925927,12.97777777777778,0)" xlink:href="#aq"/><use transform="matrix(0.05925925925925927,0,0,0.05925925925925927,20.029629629629632,0)" xlink:href="#aC"/><use transform="matrix(0.05925925925925927,0,0,0.05925925925925927,33.00740740740741,0)" xlink:href="#au"/><use transform="matrix(0.05925925925925927,0,0,0.05925925925925927,44.85925925925927,0)" xlink:href="#aD"/><use transform="matrix(0.05925925925925927,0,0,0.05925925925925927,53.155555555555566,0)" xlink:href="#aE"/></g><path fill="#8c6c41" d="M30 0v-248h33v221h125V0H30" id="aF"/><path fill="#8c6c41" d="M24-231v-30h32v30H24zM24 0v-190h32V0H24" id="aG"/><path fill="#8c6c41" d="M135-143c-3-34-86-38-87 0 15 53 115 12 119 90S17 21 10-45l28-5c4 36 97 45 98 0-10-56-113-15-118-90-4-57 82-63 122-42 12 7 21 19 24 35" id="aH"/><path fill="#8c6c41" d="M59-47c-2 24 18 29 38 22v24C64 9 27 4 27-40v-127H5v-23h24l9-43h21v43h35v23H59v120" id="aI"/><path fill="#383838" d="M18-100v-36l175-74v27L42-118l151 64v27" id="aJ"/><path fill="#383838" d="M18-27v-27l151-64-151-65v-27l175 74v36" id="aK"/><g id="h"><use transform="matrix(0.059259259259259255,0,0,0.059259259259259255,0,0)" xlink:href="#aF"/><use transform="matrix(0.059259259259259255,0,0,0.059259259259259255,11.851851851851851,0)" xlink:href="#aG"/><use transform="matrix(0.059259259259259255,0,0,0.059259259259259255,16.53333333333333,0)" xlink:href="#aH"/><use transform="matrix(0.059259259259259255,0,0,0.059259259259259255,27.199999999999996,0)" xlink:href="#aI"/><use transform="matrix(0.059259259259259255,0,0,0.059259259259259255,33.12592592592592,0)" xlink:href="#aJ"/><use transform="matrix(0.059259259259259255,0,0,0.059259259259259255,45.57037037037036,0)" xlink:href="#aw"/><use transform="matrix(0.059259259259259255,0,0,0.059259259259259255,56.17777777777776,0)" xlink:href="#ax"/><use transform="matrix(0.059259259259259255,0,0,0.059259259259259255,68.02962962962961,0)" xlink:href="#ay"/><use transform="matrix(0.059259259259259255,0,0,0.059259259259259255,79.88148148148146,0)" xlink:href="#az"/><use transform="matrix(0.059259259259259255,0,0,0.059259259259259255,84.56296296296294,0)" xlink:href="#aA"/><use transform="matrix(0.059259259259259255,0,0,0.059259259259259255,96.41481481481479,0)" xlink:href="#aK"/></g><path fill="#660e7a" d="M190-63c-7 42-38 67-86 67-59 0-84-38-90-98-12-110 154-137 174-36l-49 2c-2-19-15-32-35-32-30 0-35 28-38 64-6 74 65 87 74 30" id="aL"/><path fill="#660e7a" d="M85 4C-2 5 27-109 22-190h50c7 57-23 150 33 157 60-5 35-97 40-157h50l1 190h-47c-2-12 1-28-3-38-12 25-28 42-61 42" id="aM"/><path fill="#660e7a" d="M220-157c-53 9-28 100-34 157h-49v-107c1-27-5-49-29-50C55-147 81-57 75 0H25l-1-190h47c2 12-1 28 3 38 10-53 101-56 108 0 13-22 24-43 59-42 82 1 51 116 57 194h-49v-107c-1-25-5-48-29-50" id="aN"/><path fill="#660e7a" d="M135-194c87-1 58 113 63 194h-50c-7-57 23-157-34-157-59 0-34 97-39 157H25l-1-190h47c2 12-1 28 3 38 12-26 28-41 61-42" id="aO"/><g id="i"><use transform="matrix(0.05925925925925927,0,0,0.05925925925925927,0,0)" xlink:href="#aL"/><use transform="matrix(0.05925925925925927,0,0,0.05925925925925927,11.851851851851853,0)" xlink:href="#aB"/><use transform="matrix(0.05925925925925927,0,0,0.05925925925925927,24.829629629629633,0)" xlink:href="#at"/><use transform="matrix(0.05925925925925927,0,0,0.05925925925925927,30.75555555555556,0)" xlink:href="#aM"/><use transform="matrix(0.05925925925925927,0,0,0.05925925925925927,43.73333333333334,0)" xlink:href="#aN"/><use transform="matrix(0.05925925925925927,0,0,0.05925925925925927,62.6962962962963,0)" xlink:href="#aO"/><use transform="matrix(0.05925925925925927,0,0,0.05925925925925927,75.67407407407408,0)" xlink:href="#aE"/></g><path fill="#8c6c41" d="M185-189c-5-48-123-54-124 2 14 75 158 14 163 119 3 78-121 87-175 55-17-10-28-26-33-46l33-7c5 56 141 63 141-1 0-78-155-14-162-118-5-82 145-84 179-34 5 7 8 16 11 25" id="aP"/><path fill="#8c6c41" d="M114-163C36-179 61-72 57 0H25l-1-190h30c1 12-1 29 2 39 6-27 23-49 58-41v29" id="aQ"/><path fill="#8c6c41" d="M117-194c89-4 53 116 60 194h-32v-121c0-31-8-49-39-48C34-167 62-67 57 0H25l-1-190h30c1 10-1 24 2 32 11-22 29-35 61-36" id="aR"/><path fill="#8c6c41" d="M177-190C167-65 218 103 67 71c-23-6-38-20-44-43l32-5c15 47 100 32 89-28v-30C133-14 115 1 83 1 29 1 15-40 15-95c0-56 16-97 71-98 29-1 48 16 59 35 1-10 0-23 2-32h30zM94-22c36 0 50-32 50-73 0-42-14-75-50-75-39 0-46 34-46 75s6 73 46 73" id="aS"/><g id="j"><use transform="matrix(0.059259259259259255,0,0,0.059259259259259255,0,0)" xlink:href="#aF"/><use transform="matrix(0.059259259259259255,0,0,0.059259259259259255,11.851851851851851,0)" xlink:href="#aG"/><use transform="matrix(0.059259259259259255,0,0,0.059259259259259255,16.53333333333333,0)" xlink:href="#aH"/><use transform="matrix(0.059259259259259255,0,0,0.059259259259259255,27.199999999999996,0)" xlink:href="#aI"/><use transform="matrix(0.059259259259259255,0,0,0.059259259259259255,33.12592592592592,0)" xlink:href="#aJ"/><use transform="matrix(0.059259259259259255,0,0,0.059259259259259255,45.57037037037036,0)" xlink:href="#aP"/><use transform="matrix(0.059259259259259255,0,0,0.059259259259259255,59.792592592592584,0)" xlink:href="#aI"/><use transform="matrix(0.059259259259259255,0,0,0.059259259259259255,65.71851851851851,0)" xlink:href="#aQ"/><use transform="matrix(0.059259259259259255,0,0,0.059259259259259255,72.77037037037036,0)" xlink:href="#aG"/><use transform="matrix(0.059259259259259255,0,0,0.059259259259259255,77.45185185185184,0)" xlink:href="#aR"/><use transform="matrix(0.059259259259259255,0,0,0.059259259259259255,89.30370370370369,0)" xlink:href="#aS"/><use transform="matrix(0.059259259259259255,0,0,0.059259259259259255,101.15555555555554,0)" xlink:href="#aK"/></g><path d="M24 0v-248h195v40H76v63h132v40H76v65h150V0H24" id="aT"/><path d="M144 0l-44-69L55 0H2l70-98-66-92h53l41 62 40-62h54l-67 91 71 99h-54" id="aU"/><g id="k"><use transform="matrix(0.05,0,0,0.05,0,0)" xlink:href="#aT"/><use transform="matrix(0.05,0,0,0.05,12,0)" xlink:href="#aU"/><use transform="matrix(0.05,0,0,0.05,22,0)" xlink:href="#ao"/><use transform="matrix(0.05,0,0,0.05,32.95,0)" xlink:href="#ad"/><use transform="matrix(0.05,0,0,0.05,43.900000000000006,0)" xlink:href="#ak"/><use transform="matrix(0.05,0,0,0.05,50.900000000000006,0)" xlink:href="#ah"/><use transform="matrix(0.05,0,0,0.05,56.85,0)" xlink:href="#an"/><use transform="matrix(0.05,0,0,0.05,70.85000000000001,0)" xlink:href="#ao"/><use transform="matrix(0.05,0,0,0.05,81.80000000000001,0)" xlink:href="#aj"/><use transform="matrix(0.05,0,0,0.05,91.80000000000001,0)" xlink:href="#ak"/><use transform="matrix(0.05,0,0,0.05,98.80000000000001,0)" xlink:href="#ag"/><use transform="matrix(0.05,0,0,0.05,108.80000000000001,0)" xlink:href="#ah"/><use transform="matrix(0.05,0,0,0.05,114.75,0)" xlink:href="#al"/><use transform="matrix(0.05,0,0,0.05,119.75,0)" xlink:href="#ad"/><use transform="matrix(0.05,0,0,0.05,130.70000000000002,0)" xlink:href="#ae"/></g><g id="l"><use transform="matrix(0.059259259259259255,0,0,0.059259259259259255,0,0)" xlink:href="#aP"/><use transform="matrix(0.059259259259259255,0,0,0.059259259259259255,14.222222222222221,0)" xlink:href="#aI"/><use transform="matrix(0.059259259259259255,0,0,0.059259259259259255,20.148148148148145,0)" xlink:href="#aQ"/><use transform="matrix(0.059259259259259255,0,0,0.059259259259259255,27.199999999999996,0)" xlink:href="#aG"/><use transform="matrix(0.059259259259259255,0,0,0.059259259259259255,31.88148148148148,0)" xlink:href="#aR"/><use transform="matrix(0.059259259259259255,0,0,0.059259259259259255,43.73333333333333,0)" xlink:href="#aS"/></g><path fill="#660e7a" d="M121-226c-27-7-43 5-38 36h38v33H83V0H34v-157H6v-33h28c-9-59 32-81 87-68v32" id="aV"/><path fill="#660e7a" d="M25-224v-37h50v37H25zM25 0v-190h50V0H25" id="aW"/><path fill="#660e7a" d="M135-194c53 0 70 44 70 98 0 56-19 98-73 100-31 1-45-17-59-34 3 33 2 69 2 105H25l-1-265h48c2 10 0 23 3 31 11-24 29-35 60-35zM114-30c33 0 39-31 40-66 0-38-9-64-40-64-56 0-55 130 0 130" id="aX"/><g id="m"><use transform="matrix(0.05925925925925927,0,0,0.05925925925925927,0,0)" xlink:href="#aV"/><use transform="matrix(0.05925925925925927,0,0,0.05925925925925927,7.051851851851853,0)" xlink:href="#aW"/><use transform="matrix(0.05925925925925927,0,0,0.05925925925925927,12.97777777777778,0)" xlink:href="#at"/><use transform="matrix(0.05925925925925927,0,0,0.05925925925925927,18.903703703703705,0)" xlink:href="#au"/><use transform="matrix(0.05925925925925927,0,0,0.05925925925925927,30.75555555555556,0)" xlink:href="#aX"/><use transform="matrix(0.05925925925925927,0,0,0.05925925925925927,43.73333333333334,0)" xlink:href="#ar"/><use transform="matrix(0.05925925925925927,0,0,0.05925925925925927,55.585185185185196,0)" xlink:href="#aq"/><use transform="matrix(0.05925925925925927,0,0,0.05925925925925927,62.63703703703705,0)" xlink:href="#aC"/></g><g id="n"><use transform="matrix(0.05925925925925927,0,0,0.05925925925925927,0,0)" xlink:href="#aV"/><use transform="matrix(0.05925925925925927,0,0,0.05925925925925927,7.051851851851853,0)" xlink:href="#aW"/><use transform="matrix(0.05925925925925927,0,0,0.05925925925925927,12.97777777777778,0)" xlink:href="#at"/><use transform="matrix(0.05925925925925927,0,0,0.05925925925925927,18.903703703703705,0)" xlink:href="#au"/><use transform="matrix(0.05925925925925927,0,0,0.05925925925925927,30.75555555555556,0)" xlink:href="#aO"/><use transform="matrix(0.05925925925925927,0,0,0.05925925925925927,43.73333333333334,0)" xlink:href="#ar"/><use transform="matrix(0.05925925925925927,0,0,0.05925925925925927,55.585185185185196,0)" xlink:href="#aN"/><use transform="matrix(0.05925925925925927,0,0,0.05925925925925927,74.54814814814816,0)" xlink:href="#au"/></g><path fill="#660e7a" d="M144 0l-44-69L55 0H2l70-98-66-92h53l41 62 40-62h54l-67 91 71 99h-54" id="aY"/><g id="o"><use transform="matrix(0.05925925925925927,0,0,0.05925925925925927,0,0)" xlink:href="#au"/><use transform="matrix(0.05925925925925927,0,0,0.05925925925925927,11.851851851851853,0)" xlink:href="#aY"/><use transform="matrix(0.05925925925925927,0,0,0.05925925925925927,23.703703703703706,0)" xlink:href="#aX"/><use transform="matrix(0.05925925925925927,0,0,0.05925925925925927,36.681481481481484,0)" xlink:href="#aB"/><use transform="matrix(0.05925925925925927,0,0,0.05925925925925927,49.659259259259265,0)" xlink:href="#aD"/><use transform="matrix(0.05925925925925927,0,0,0.05925925925925927,57.95555555555556,0)" xlink:href="#aq"/><use transform="matrix(0.05925925925925927,0,0,0.05925925925925927,65.00740740740741,0)" xlink:href="#au"/><use transform="matrix(0.05925925925925927,0,0,0.05925925925925927,76.85925925925926,0)" xlink:href="#aD"/></g><path fill="#8c6c41" d="M30 0v-248h187v28H63v79h144v27H63v87h162V0H30" id="aZ"/><path fill="#8c6c41" d="M141 0L90-78 38 0H4l68-98-65-92h35l48 74 47-74h35l-64 92 68 98h-35" id="ba"/><path fill="#8c6c41" d="M115-194c55 1 70 41 70 98S169 2 115 4C84 4 66-9 55-30l1 105H24l-1-265h31l2 30c10-21 28-34 59-34zm-8 174c40 0 45-34 45-75s-6-73-45-74c-42 0-51 32-51 76 0 43 10 73 51 73" id="bb"/><path fill="#8c6c41" d="M100-194c62-1 85 37 85 99 1 63-27 99-86 99S16-35 15-95c0-66 28-99 85-99zM99-20c44 1 53-31 53-75 0-43-8-75-51-75s-53 32-53 75 10 74 51 75" id="bc"/><g id="p"><use transform="matrix(0.059259259259259255,0,0,0.059259259259259255,0,0)" xlink:href="#aw"/><use transform="matrix(0.059259259259259255,0,0,0.059259259259259255,10.607407407407406,0)" xlink:href="#ax"/><use transform="matrix(0.059259259259259255,0,0,0.059259259259259255,22.459259259259255,0)" xlink:href="#ay"/><use transform="matrix(0.059259259259259255,0,0,0.059259259259259255,34.3111111111111,0)" xlink:href="#az"/><use transform="matrix(0.059259259259259255,0,0,0.059259259259259255,38.99259259259259,0)" xlink:href="#aA"/><use transform="matrix(0.059259259259259255,0,0,0.059259259259259255,50.844444444444434,0)" xlink:href="#aZ"/><use transform="matrix(0.059259259259259255,0,0,0.059259259259259255,65.06666666666666,0)" xlink:href="#ba"/><use transform="matrix(0.059259259259259255,0,0,0.059259259259259255,75.73333333333333,0)" xlink:href="#bb"/><use transform="matrix(0.059259259259259255,0,0,0.059259259259259255,87.58518518518518,0)" xlink:href="#bc"/><use transform="matrix(0.059259259259259255,0,0,0.059259259259259255,99.43703703703703,0)" xlink:href="#aQ"/><use transform="matrix(0.059259259259259255,0,0,0.059259259259259255,106.48888888888888,0)" xlink:href="#aI"/><use transform="matrix(0.059259259259259255,0,0,0.059259259259259255,112.4148148148148,0)" xlink:href="#aA"/><use transform="matrix(0.059259259259259255,0,0,0.059259259259259255,124.26666666666665,0)" xlink:href="#aQ"/></g><path d="M186 0v-106H76V0H24v-248h52v99h110v-99h50V0h-50" id="bd"/><path d="M12 0v-35l95-120H19v-35h142v35L67-36h103V0H12" id="be"/><g id="q"><use transform="matrix(0.05,0,0,0.05,0,0)" xlink:href="#ac"/><use transform="matrix(0.05,0,0,0.05,12.950000000000001,0)" xlink:href="#ad"/><use transform="matrix(0.05,0,0,0.05,23.900000000000002,0)" xlink:href="#ae"/><use transform="matrix(0.05,0,0,0.05,34.85,0)" xlink:href="#af"/><use transform="matrix(0.05,0,0,0.05,44.85,0)" xlink:href="#ag"/><use transform="matrix(0.05,0,0,0.05,54.85,0)" xlink:href="#ah"/><use transform="matrix(0.05,0,0,0.05,60.800000000000004,0)" xlink:href="#bd"/><use transform="matrix(0.05,0,0,0.05,73.75,0)" xlink:href="#ad"/><use transform="matrix(0.05,0,0,0.05,84.7,0)" xlink:href="#ak"/><use transform="matrix(0.05,0,0,0.05,91.7,0)" xlink:href="#al"/><use transform="matrix(0.05,0,0,0.05,96.7,0)" xlink:href="#be"/><use transform="matrix(0.05,0,0,0.05,105.7,0)" xlink:href="#ad"/><use transform="matrix(0.05,0,0,0.05,116.65,0)" xlink:href="#ae"/><use transform="matrix(0.05,0,0,0.05,127.60000000000001,0)" xlink:href="#ah"/><use transform="matrix(0.05,0,0,0.05,133.55,0)" xlink:href="#ag"/><use transform="matrix(0.05,0,0,0.05,143.55,0)" xlink:href="#am"/><use transform="matrix(0.05,0,0,0.05,148.55,0)" xlink:href="#an"/><use transform="matrix(0.05,0,0,0.05,162.55,0)" xlink:href="#ao"/><use transform="matrix(0.05,0,0,0.05,173.5,0)" xlink:href="#aj"/><use transform="matrix(0.05,0,0,0.05,183.5,0)" xlink:href="#ak"/><use transform="matrix(0.05,0,0,0.05,190.5,0)" xlink:href="#ag"/><use transform="matrix(0.05,0,0,0.05,200.5,0)" xlink:href="#ah"/><use transform="matrix(0.05,0,0,0.05,206.44999999999996,0)" xlink:href="#al"/><use transform="matrix(0.05,0,0,0.05,211.44999999999996,0)" xlink:href="#ad"/><use transform="matrix(0.05,0,0,0.05,222.39999999999998,0)" xlink:href="#ae"/></g><path d="M169-182c-1-43-94-46-97-3 18 66 151 10 154 114 3 95-165 93-204 36-6-8-10-19-12-30l50-8c3 46 112 56 116 5-17-69-150-10-154-114-4-87 153-88 188-35 5 8 8 18 10 28" id="bf"/><g id="r"><use transform="matrix(0.05,0,0,0.05,0,0)" xlink:href="#bf"/><use transform="matrix(0.05,0,0,0.05,12,0)" xlink:href="#aj"/><use transform="matrix(0.05,0,0,0.05,22,0)" xlink:href="#am"/><use transform="matrix(0.05,0,0,0.05,27,0)" xlink:href="#aj"/><use transform="matrix(0.05,0,0,0.05,37,0)" xlink:href="#af"/><use transform="matrix(0.05,0,0,0.05,47,0)" xlink:href="#ah"/><use transform="matrix(0.05,0,0,0.05,52.95,0)" xlink:href="#an"/><use transform="matrix(0.05,0,0,0.05,66.95,0)" xlink:href="#ao"/><use transform="matrix(0.05,0,0,0.05,77.9,0)" xlink:href="#aj"/><use transform="matrix(0.05,0,0,0.05,87.9,0)" xlink:href="#ak"/><use transform="matrix(0.05,0,0,0.05,94.9,0)" xlink:href="#ag"/><use transform="matrix(0.05,0,0,0.05,104.9,0)" xlink:href="#ah"/><use transform="matrix(0.05,0,0,0.05,110.85000000000001,0)" xlink:href="#al"/><use transform="matrix(0.05,0,0,0.05,115.85000000000001,0)" xlink:href="#ad"/><use transform="matrix(0.05,0,0,0.05,126.80000000000001,0)" xlink:href="#ae"/></g><g id="s"><use transform="matrix(0.059259259259259255,0,0,0.059259259259259255,0,0)" xlink:href="#aw"/><use transform="matrix(0.059259259259259255,0,0,0.059259259259259255,10.607407407407406,0)" xlink:href="#ax"/><use transform="matrix(0.059259259259259255,0,0,0.059259259259259255,22.459259259259255,0)" xlink:href="#ay"/><use transform="matrix(0.059259259259259255,0,0,0.059259259259259255,34.3111111111111,0)" xlink:href="#az"/><use transform="matrix(0.059259259259259255,0,0,0.059259259259259255,38.99259259259259,0)" xlink:href="#aA"/></g><path d="M240-174c0 40-23 61-54 70L253 0h-59l-57-94H76V0H24v-248c93 4 217-23 216 74zM76-134c48-2 112 12 112-38 0-48-66-32-112-35v73" id="bg"/><path d="M25-224v-37h50v37H25zM75 22c2 45-34 59-81 51V38c22 5 31-5 31-27v-201h50V22" id="bh"/><g id="t"><use transform="matrix(0.05,0,0,0.05,0,0)" xlink:href="#bg"/><use transform="matrix(0.05,0,0,0.05,12.950000000000001,0)" xlink:href="#aj"/><use transform="matrix(0.05,0,0,0.05,22.950000000000003,0)" xlink:href="#bh"/><use transform="matrix(0.05,0,0,0.05,27.950000000000003,0)" xlink:href="#aj"/><use transform="matrix(0.05,0,0,0.05,37.95,0)" xlink:href="#af"/><use transform="matrix(0.05,0,0,0.05,47.95,0)" xlink:href="#ah"/><use transform="matrix(0.05,0,0,0.05,53.900000000000006,0)" xlink:href="#an"/><use transform="matrix(0.05,0,0,0.05,67.9,0)" xlink:href="#ao"/><use transform="matrix(0.05,0,0,0.05,78.85000000000001,0)" xlink:href="#aj"/><use transform="matrix(0.05,0,0,0.05,88.85000000000001,0)" xlink:href="#ak"/><use transform="matrix(0.05,0,0,0.05,95.85000000000001,0)" xlink:href="#ag"/><use transform="matrix(0.05,0,0,0.05,105.85000000000001,0)" xlink:href="#ah"/><use transform="matrix(0.05,0,0,0.05,111.80000000000001,0)" xlink:href="#al"/><use transform="matrix(0.05,0,0,0.05,116.80000000000001,0)" xlink:href="#ad"/><use transform="matrix(0.05,0,0,0.05,127.75,0)" xlink:href="#ae"/></g><path d="M275 0h-61l-44-196L126 0H64L0-248h53L97-49l45-199h58l43 199 44-199h52" id="bi"/><path d="M114-157C55-157 80-60 75 0H25v-261h50l-1 109c12-26 28-41 61-42 86-1 58 113 63 194h-50c-7-57 23-157-34-157" id="bj"/><g id="u"><use transform="matrix(0.05,0,0,0.05,0,0)" xlink:href="#bi"/><use transform="matrix(0.05,0,0,0.05,16.95,0)" xlink:href="#bj"/><use transform="matrix(0.05,0,0,0.05,27.899999999999995,0)" xlink:href="#aj"/><use transform="matrix(0.05,0,0,0.05,37.9,0)" xlink:href="#ak"/><use transform="matrix(0.05,0,0,0.05,44.9,0)" xlink:href="#aj"/><use transform="matrix(0.05,0,0,0.05,54.900000000000006,0)" xlink:href="#an"/><use transform="matrix(0.05,0,0,0.05,68.9,0)" xlink:href="#ao"/><use transform="matrix(0.05,0,0,0.05,79.85000000000001,0)" xlink:href="#aj"/><use transform="matrix(0.05,0,0,0.05,89.85000000000001,0)" xlink:href="#ak"/><use transform="matrix(0.05,0,0,0.05,96.85000000000001,0)" xlink:href="#ag"/><use transform="matrix(0.05,0,0,0.05,106.85000000000001,0)" xlink:href="#ah"/><use transform="matrix(0.05,0,0,0.05,112.80000000000001,0)" xlink:href="#al"/><use transform="matrix(0.05,0,0,0.05,117.80000000000001,0)" xlink:href="#ad"/><use transform="matrix(0.05,0,0,0.05,128.75,0)" xlink:href="#ae"/></g><path fill="#660e7a" d="M88-194c31-1 46 15 58 34l-1-101h50l1 261h-48c-2-10 0-23-3-31C134-8 116 4 84 4 32 4 16-41 15-95c0-56 19-97 73-99zm17 164c33 0 40-30 41-66 1-37-9-64-41-64s-38 30-39 65c0 43 13 65 39 65" id="bk"/><g id="v"><use transform="matrix(0.05925925925925927,0,0,0.05925925925925927,0,0)" xlink:href="#aX"/><use transform="matrix(0.05925925925925927,0,0,0.05925925925925927,12.97777777777778,0)" xlink:href="#aD"/><use transform="matrix(0.05925925925925927,0,0,0.05925925925925927,21.27407407407408,0)" xlink:href="#au"/><use transform="matrix(0.05925925925925927,0,0,0.05925925925925927,33.125925925925934,0)" xlink:href="#bk"/><use transform="matrix(0.05925925925925927,0,0,0.05925925925925927,46.103703703703715,0)" xlink:href="#aW"/><use transform="matrix(0.05925925925925927,0,0,0.05925925925925927,52.02962962962964,0)" xlink:href="#aL"/><use transform="matrix(0.05925925925925927,0,0,0.05925925925925927,63.881481481481494,0)" xlink:href="#ar"/><use transform="matrix(0.05925925925925927,0,0,0.05925925925925927,75.73333333333335,0)" xlink:href="#aq"/><use transform="matrix(0.05925925925925927,0,0,0.05925925925925927,82.7851851851852,0)" xlink:href="#au"/></g><g id="w"><use transform="matrix(0.059259259259259255,0,0,0.059259259259259255,0,0)" xlink:href="#aP"/><use transform="matrix(0.059259259259259255,0,0,0.059259259259259255,14.222222222222221,0)" xlink:href="#aI"/><use transform="matrix(0.059259259259259255,0,0,0.059259259259259255,20.148148148148145,0)" xlink:href="#aQ"/><use transform="matrix(0.059259259259259255,0,0,0.059259259259259255,27.199999999999996,0)" xlink:href="#aG"/><use transform="matrix(0.059259259259259255,0,0,0.059259259259259255,31.88148148148148,0)" xlink:href="#aR"/><use transform="matrix(0.059259259259259255,0,0,0.059259259259259255,43.73333333333333,0)" xlink:href="#aS"/></g><path d="M24-248c120-7 223 5 221 122C244-46 201 0 124 0H24v-248zM76-40c74 7 117-18 117-86 0-67-45-88-117-82v168" id="bl"/><g id="x"><use transform="matrix(0.05,0,0,0.05,0,0)" xlink:href="#bl"/><use transform="matrix(0.05,0,0,0.05,12.950000000000001,0)" xlink:href="#ak"/><use transform="matrix(0.05,0,0,0.05,19.950000000000003,0)" xlink:href="#ad"/><use transform="matrix(0.05,0,0,0.05,30.900000000000006,0)" xlink:href="#ao"/><use transform="matrix(0.05,0,0,0.05,41.85000000000001,0)" xlink:href="#bi"/><use transform="matrix(0.05,0,0,0.05,58.80000000000001,0)" xlink:href="#bj"/><use transform="matrix(0.05,0,0,0.05,69.75000000000001,0)" xlink:href="#aj"/><use transform="matrix(0.05,0,0,0.05,79.75000000000001,0)" xlink:href="#ak"/><use transform="matrix(0.05,0,0,0.05,86.75000000000001,0)" xlink:href="#aj"/><use transform="matrix(0.05,0,0,0.05,96.75000000000001,0)" xlink:href="#an"/><use transform="matrix(0.05,0,0,0.05,110.75,0)" xlink:href="#ao"/><use transform="matrix(0.05,0,0,0.05,121.7,0)" xlink:href="#aj"/><use transform="matrix(0.05,0,0,0.05,131.70000000000002,0)" xlink:href="#ak"/><use transform="matrix(0.05,0,0,0.05,138.70000000000002,0)" xlink:href="#ag"/><use transform="matrix(0.05,0,0,0.05,148.70000000000002,0)" xlink:href="#ah"/><use transform="matrix(0.05,0,0,0.05,154.65,0)" xlink:href="#al"/><use transform="matrix(0.05,0,0,0.05,159.65,0)" xlink:href="#ad"/><use transform="matrix(0.05,0,0,0.05,170.6,0)" xlink:href="#ae"/></g><path d="M85 4C-2 5 27-109 22-190h50c7 57-23 150 33 157 60-5 35-97 40-157h50l1 190h-47c-2-12 1-28-3-38-12 25-28 42-61 42" id="bm"/><g id="y"><use transform="matrix(0.05,0,0,0.05,0,0)" xlink:href="#ac"/><use transform="matrix(0.05,0,0,0.05,12.950000000000001,0)" xlink:href="#ad"/><use transform="matrix(0.05,0,0,0.05,23.900000000000002,0)" xlink:href="#bm"/><use transform="matrix(0.05,0,0,0.05,34.85,0)" xlink:href="#ae"/><use transform="matrix(0.05,0,0,0.05,45.800000000000004,0)" xlink:href="#ah"/><use transform="matrix(0.05,0,0,0.05,51.75,0)" xlink:href="#an"/><use transform="matrix(0.05,0,0,0.05,65.75,0)" xlink:href="#ao"/><use transform="matrix(0.05,0,0,0.05,76.7,0)" xlink:href="#aj"/><use transform="matrix(0.05,0,0,0.05,86.7,0)" xlink:href="#ak"/><use transform="matrix(0.05,0,0,0.05,93.7,0)" xlink:href="#ag"/><use transform="matrix(0.05,0,0,0.05,103.7,0)" xlink:href="#ah"/><use transform="matrix(0.05,0,0,0.05,109.65,0)" xlink:href="#al"/><use transform="matrix(0.05,0,0,0.05,114.65,0)" xlink:href="#ad"/><use transform="matrix(0.05,0,0,0.05,125.60000000000001,0)" xlink:href="#ae"/></g><path d="M230 0l2-204L168 0h-37L68-204 70 0H24v-248h70l56 185 57-185h69V0h-46" id="bn"/><g id="z"><use transform="matrix(0.05,0,0,0.05,0,0)" xlink:href="#bn"/><use transform="matrix(0.05,0,0,0.05,14.950000000000001,0)" xlink:href="#ag"/><use transform="matrix(0.05,0,0,0.05,24.950000000000003,0)" xlink:href="#aU"/><use transform="matrix(0.05,0,0,0.05,34.95,0)" xlink:href="#an"/><use transform="matrix(0.05,0,0,0.05,48.95,0)" xlink:href="#ao"/><use transform="matrix(0.05,0,0,0.05,59.900000000000006,0)" xlink:href="#aj"/><use transform="matrix(0.05,0,0,0.05,69.9,0)" xlink:href="#ak"/><use transform="matrix(0.05,0,0,0.05,76.9,0)" xlink:href="#ag"/><use transform="matrix(0.05,0,0,0.05,86.9,0)" xlink:href="#ah"/><use transform="matrix(0.05,0,0,0.05,92.85000000000001,0)" xlink:href="#al"/><use transform="matrix(0.05,0,0,0.05,97.85000000000001,0)" xlink:href="#ad"/><use transform="matrix(0.05,0,0,0.05,108.80000000000001,0)" xlink:href="#ae"/></g><g id="A"><use transform="matrix(0.05,0,0,0.05,0,0)" xlink:href="#bn"/><use transform="matrix(0.05,0,0,0.05,14.950000000000001,0)" xlink:href="#al"/><use transform="matrix(0.05,0,0,0.05,19.950000000000003,0)" xlink:href="#ae"/><use transform="matrix(0.05,0,0,0.05,30.900000000000006,0)" xlink:href="#an"/><use transform="matrix(0.05,0,0,0.05,44.900000000000006,0)" xlink:href="#ao"/><use transform="matrix(0.05,0,0,0.05,55.85,0)" xlink:href="#aj"/><use transform="matrix(0.05,0,0,0.05,65.85000000000001,0)" xlink:href="#ak"/><use transform="matrix(0.05,0,0,0.05,72.85000000000001,0)" xlink:href="#ag"/><use transform="matrix(0.05,0,0,0.05,82.85000000000001,0)" xlink:href="#ah"/><use transform="matrix(0.05,0,0,0.05,88.80000000000001,0)" xlink:href="#al"/><use transform="matrix(0.05,0,0,0.05,93.80000000000001,0)" xlink:href="#ad"/><use transform="matrix(0.05,0,0,0.05,104.75,0)" xlink:href="#ae"/></g><path d="M220-157c-53 9-28 100-34 157h-49v-107c1-27-5-49-29-50C55-147 81-57 75 0H25l-1-190h47c2 12-1 28 3 38 10-53 101-56 108 0 13-22 24-43 59-42 82 1 51 116 57 194h-49v-107c-1-25-5-48-29-50" id="bo"/><g id="B"><use transform="matrix(0.05,0,0,0.05,0,0)" xlink:href="#bf"/><use transform="matrix(0.05,0,0,0.05,12,0)" xlink:href="#bm"/><use transform="matrix(0.05,0,0,0.05,22.950000000000003,0)" xlink:href="#bo"/><use transform="matrix(0.05,0,0,0.05,38.95,0)" xlink:href="#an"/><use transform="matrix(0.05,0,0,0.05,52.95,0)" xlink:href="#ao"/><use transform="matrix(0.05,0,0,0.05,63.900000000000006,0)" xlink:href="#aj"/><use transform="matrix(0.05,0,0,0.05,73.9,0)" xlink:href="#ak"/><use transform="matrix(0.05,0,0,0.05,80.9,0)" xlink:href="#ag"/><use transform="matrix(0.05,0,0,0.05,90.9,0)" xlink:href="#ah"/><use transform="matrix(0.05,0,0,0.05,96.85000000000001,0)" xlink:href="#al"/><use transform="matrix(0.05,0,0,0.05,101.85000000000001,0)" xlink:href="#ad"/><use transform="matrix(0.05,0,0,0.05,112.80000000000001,0)" xlink:href="#ae"/></g><g id="C"><use transform="matrix(0.05,0,0,0.05,0,0)" xlink:href="#bn"/><use transform="matrix(0.05,0,0,0.05,14.950000000000001,0)" xlink:href="#aj"/><use transform="matrix(0.05,0,0,0.05,24.950000000000003,0)" xlink:href="#ag"/><use transform="matrix(0.05,0,0,0.05,34.95,0)" xlink:href="#ae"/><use transform="matrix(0.05,0,0,0.05,45.900000000000006,0)" xlink:href="#an"/><use transform="matrix(0.05,0,0,0.05,59.900000000000006,0)" xlink:href="#ao"/><use transform="matrix(0.05,0,0,0.05,70.85000000000001,0)" xlink:href="#aj"/><use transform="matrix(0.05,0,0,0.05,80.85000000000001,0)" xlink:href="#ak"/><use transform="matrix(0.05,0,0,0.05,87.85000000000001,0)" xlink:href="#ag"/><use transform="matrix(0.05,0,0,0.05,97.85000000000001,0)" xlink:href="#ah"/><use transform="matrix(0.05,0,0,0.05,103.80000000000001,0)" xlink:href="#al"/><use transform="matrix(0.05,0,0,0.05,108.80000000000001,0)" xlink:href="#ad"/><use transform="matrix(0.05,0,0,0.05,119.75,0)" xlink:href="#ae"/></g><path d="M15-91v-56l181-69v40L49-119l147 57v40" id="bp"/><path d="M135-194c52 0 70 43 70 98 0 56-19 99-73 100-30 1-46-15-58-35L72 0H24l1-261h50v104c11-23 29-37 60-37zM114-30c31 0 40-27 40-66 0-37-7-63-39-63s-41 28-41 65c0 36 8 64 40 64" id="bq"/><path d="M137-138c1-29-70-34-71-4 15 46 118 7 119 86 1 83-164 76-172 9l43-7c4 19 20 25 44 25 33 8 57-30 24-41C81-84 22-81 20-136c-2-80 154-74 161-7" id="br"/><path d="M15-22v-40l146-57-146-57v-40l181 69v56" id="bs"/><g id="D"><use transform="matrix(0.05,0,0,0.05,0,0)" xlink:href="#bp"/><use transform="matrix(0.05,0,0,0.05,10.5,0)" xlink:href="#bp"/><use transform="matrix(0.05,0,0,0.05,21,0)" xlink:href="#ag"/><use transform="matrix(0.05,0,0,0.05,31,0)" xlink:href="#bq"/><use transform="matrix(0.05,0,0,0.05,41.95,0)" xlink:href="#br"/><use transform="matrix(0.05,0,0,0.05,51.95,0)" xlink:href="#ah"/><use transform="matrix(0.05,0,0,0.05,57.900000000000006,0)" xlink:href="#ak"/><use transform="matrix(0.05,0,0,0.05,64.9,0)" xlink:href="#ag"/><use transform="matrix(0.05,0,0,0.05,74.9,0)" xlink:href="#af"/><use transform="matrix(0.05,0,0,0.05,84.9,0)" xlink:href="#ah"/><use transform="matrix(0.05,0,0,0.05,90.85000000000001,0)" xlink:href="#bs"/><use transform="matrix(0.05,0,0,0.05,101.35000000000001,0)" xlink:href="#bs"/></g><path d="M157-208L117 0H65l40-208H25l8-40h212l-8 40h-80" id="bt"/><path d="M166-52c-4 17 5 29 24 23l-3 27c-30 11-74 1-67-34C105-15 91 4 56 4 23 4 3-15 2-49c0-64 63-67 128-67 10-22 3-53-29-45-13 3-22 10-25 24l-46-5c5-64 156-77 153 0-1 33-11 60-17 90zM97-88c-44-9-64 57-19 57 31 0 42-28 47-57H97" id="bu"/><path d="M87-160c15-17 32-34 63-34 99 1 59 172-1 192-36 12-78 0-87-29L54 0H6l52-261h49zm71 38c0-24-5-37-29-37-46 0-55 46-57 89-1 25 12 40 35 40 44 0 51-50 51-92" id="bv"/><path d="M6 0l51-261h49L55 0H6" id="bw"/><path d="M114-194c63-2 87 48 72 110H63c-3 28 1 55 31 54 21-1 32-13 37-29l44 13C160-14 137 4 91 4 41 4 11-22 11-73c0-71 33-119 103-121zm30 77c14-47-50-61-67-22-3 6-6 13-8 22h75" id="bx"/><path d="M18-101c0-91 52-150 145-150 68 0 111 34 111 101C274-54 221 4 128 4 59 4 18-33 18-101zm202-32c4-46-15-77-59-77-65 0-88 46-91 108-2 41 22 65 60 65 60 0 84-40 90-96" id="by"/><path d="M156-122c2-23-7-37-28-37-47 0-58 44-58 89 0 24 12 40 36 40 43 0 47-49 50-92zM-8 75l50-265h48c0 10-3 24-3 30 22-50 127-45 121 29-6 73-21 135-92 135-29 0-46-14-55-35L41 75H-8" id="bz"/><path d="M84-151c13-25 34-51 72-40l-8 41C67-170 71-64 56 0H6l36-190h47" id="bA"/><path d="M72-63c-8 23 5 39 32 30L98-1C54 14 12-6 23-64l18-93H15l7-33h28l24-45h31l-8 45h35l-6 33H90" id="bB"/><path d="M50-224l7-37h49l-7 37H50zM6 0l37-190h49L55 0H6" id="bC"/><path d="M124-194c51 0 84 22 84 74C207-44 167 4 94 4 43 4 11-23 11-74c0-74 41-120 113-120zM99-30c46 0 58-42 58-86 0-27-11-44-37-44-44 0-55 40-57 84-1 27 10 45 36 46" id="bD"/><path d="M151-194c95 0 34 128 28 194h-49l25-134c0-29-45-25-59-9C67-111 69-48 56 0H6l36-190h47l-4 32c15-20 33-36 66-36" id="bE"/><g id="E"><use transform="matrix(0.05,0,0,0.05,0,0)" xlink:href="#bt"/><use transform="matrix(0.05,0,0,0.05,10.3,0)" xlink:href="#bu"/><use transform="matrix(0.05,0,0,0.05,20.3,0)" xlink:href="#bv"/><use transform="matrix(0.05,0,0,0.05,31.25,0)" xlink:href="#bw"/><use transform="matrix(0.05,0,0,0.05,36.25,0)" xlink:href="#bx"/><use transform="matrix(0.05,0,0,0.05,46.25,0)" xlink:href="#by"/><use transform="matrix(0.05,0,0,0.05,60.25,0)" xlink:href="#bz"/><use transform="matrix(0.05,0,0,0.05,71.2,0)" xlink:href="#bx"/><use transform="matrix(0.05,0,0,0.05,81.2,0)" xlink:href="#bA"/><use transform="matrix(0.05,0,0,0.05,88.2,0)" xlink:href="#bu"/><use transform="matrix(0.05,0,0,0.05,98.2,0)" xlink:href="#bB"/><use transform="matrix(0.05,0,0,0.05,104.15,0)" xlink:href="#bC"/><use transform="matrix(0.05,0,0,0.05,109.15,0)" xlink:href="#bD"/><use transform="matrix(0.05,0,0,0.05,120.10000000000001,0)" xlink:href="#bE"/></g><path fill="#660e7a" d="M136-208V0H84v-208H4v-40h212v40h-80" id="bF"/><g id="G"><use transform="matrix(0.05925925925925927,0,0,0.05925925925925927,0,0)" xlink:href="#aW"/><use transform="matrix(0.05925925925925927,0,0,0.05925925925925927,5.9259259259259265,0)" xlink:href="#aO"/><use transform="matrix(0.05925925925925927,0,0,0.05925925925925927,18.903703703703705,0)" xlink:href="#aW"/><use transform="matrix(0.05925925925925927,0,0,0.05925925925925927,24.829629629629633,0)" xlink:href="#aq"/><use transform="matrix(0.05925925925925927,0,0,0.05925925925925927,31.881481481481487,0)" xlink:href="#aW"/><use transform="matrix(0.05925925925925927,0,0,0.05925925925925927,37.80740740740741,0)" xlink:href="#ar"/><use transform="matrix(0.05925925925925927,0,0,0.05925925925925927,49.659259259259265,0)" xlink:href="#at"/><use transform="matrix(0.05925925925925927,0,0,0.05925925925925927,55.58518518518519,0)" xlink:href="#bF"/><use transform="matrix(0.05925925925925927,0,0,0.05925925925925927,66.96296296296296,0)" xlink:href="#ar"/><use transform="matrix(0.05925925925925927,0,0,0.05925925925925927,78.81481481481481,0)" xlink:href="#as"/><use transform="matrix(0.05925925925925927,0,0,0.05925925925925927,91.79259259259258,0)" xlink:href="#at"/><use transform="matrix(0.05925925925925927,0,0,0.05925925925925927,97.71851851851851,0)" xlink:href="#au"/></g><g id="H"><use transform="matrix(0.05925925925925927,0,0,0.05925925925925927,0,0)" xlink:href="#aP"/><use transform="matrix(0.05925925925925927,0,0,0.05925925925925927,14.222222222222225,0)" xlink:href="#aI"/><use transform="matrix(0.05925925925925927,0,0,0.05925925925925927,20.148148148148152,0)" xlink:href="#aQ"/><use transform="matrix(0.05925925925925927,0,0,0.05925925925925927,27.200000000000006,0)" xlink:href="#aG"/><use transform="matrix(0.05925925925925927,0,0,0.05925925925925927,31.881481481481487,0)" xlink:href="#aR"/><use transform="matrix(0.05925925925925927,0,0,0.05925925925925927,43.73333333333334,0)" xlink:href="#aS"/></g><path fill="#660e7a" d="M147 0H94L2-248h55l64 206c17-72 42-137 63-206h54" id="bG"/><path fill="#660e7a" d="M175 0L67-191c6 58 2 128 3 191H24v-248h59L193-55c-6-58-2-129-3-193h46V0h-61" id="bH"/><g id="I"><use transform="matrix(0.05925925925925927,0,0,0.05925925925925927,0,0)" xlink:href="#aD"/><use transform="matrix(0.05925925925925927,0,0,0.05925925925925927,8.296296296296298,0)" xlink:href="#au"/><use transform="matrix(0.05925925925925927,0,0,0.05925925925925927,20.148148148148152,0)" xlink:href="#aE"/><use transform="matrix(0.05925925925925927,0,0,0.05925925925925927,32.00000000000001,0)" xlink:href="#aM"/><use transform="matrix(0.05925925925925927,0,0,0.05925925925925927,44.97777777777779,0)" xlink:href="#at"/><use transform="matrix(0.05925925925925927,0,0,0.05925925925925927,50.90370370370371,0)" xlink:href="#aq"/><use transform="matrix(0.05925925925925927,0,0,0.05925925925925927,57.95555555555556,0)" xlink:href="#bG"/><use transform="matrix(0.05925925925925927,0,0,0.05925925925925927,70.9925925925926,0)" xlink:href="#ar"/><use transform="matrix(0.05925925925925927,0,0,0.05925925925925927,82.84444444444445,0)" xlink:href="#aD"/><use transform="matrix(0.05925925925925927,0,0,0.05925925925925927,91.14074074074074,0)" xlink:href="#aW"/><use transform="matrix(0.05925925925925927,0,0,0.05925925925925927,97.06666666666666,0)" xlink:href="#ar"/><use transform="matrix(0.05925925925925927,0,0,0.05925925925925927,108.91851851851851,0)" xlink:href="#as"/><use transform="matrix(0.05925925925925927,0,0,0.05925925925925927,121.89629629629628,0)" xlink:href="#at"/><use transform="matrix(0.05925925925925927,0,0,0.05925925925925927,127.82222222222221,0)" xlink:href="#au"/><use transform="matrix(0.05925925925925927,0,0,0.05925925925925927,139.67407407407407,0)" xlink:href="#bH"/><use transform="matrix(0.05925925925925927,0,0,0.05925925925925927,155.0222222222222,0)" xlink:href="#ar"/><use transform="matrix(0.05925925925925927,0,0,0.05925925925925927,166.87407407407406,0)" xlink:href="#aN"/><use transform="matrix(0.05925925925925927,0,0,0.05925925925925927,185.83703703703702,0)" xlink:href="#au"/></g><path fill="#3a414a" d="M118-107v75H92v-75H18v-26h74v-75h26v75h74v26h-74" id="bI"/><use transform="matrix(0.061728395061728385,0,0,0.061728395061728385,0,0)" xlink:href="#bI" id="K"/><path fill="#6b2fba" d="M177-190C167-65 218 103 67 71c-23-6-38-20-44-43l32-5c15 47 100 32 89-28v-30C133-14 115 1 83 1 29 1 15-40 15-95c0-56 16-97 71-98 29-1 48 16 59 35 1-10 0-23 2-32h30zM94-22c36 0 50-32 50-73 0-42-14-75-50-75-39 0-46 34-46 75s6 73 46 73" id="bJ"/><path fill="#6b2fba" d="M100-194c63 0 86 42 84 106H49c0 40 14 67 53 68 26 1 43-12 49-29l28 8c-11 28-37 45-77 45C44 4 14-33 15-96c1-61 26-98 85-98zm52 81c6-60-76-77-97-28-3 7-6 17-6 28h103" id="bK"/><path fill="#6b2fba" d="M59-47c-2 24 18 29 38 22v24C64 9 27 4 27-40v-127H5v-23h24l9-43h21v43h35v23H59v120" id="bL"/><path fill="#6b2fba" d="M33 0v-248h34V0H33" id="bM"/><path fill="#6b2fba" d="M117-194c89-4 53 116 60 194h-32v-121c0-31-8-49-39-48C34-167 62-67 57 0H25l-1-190h30c1 10-1 24 2 32 11-22 29-35 61-36" id="bN"/><path fill="#6b2fba" d="M24-231v-30h32v30H24zM24 0v-190h32V0H24" id="bO"/><path fill="#6b2fba" d="M141-36C126-15 110 5 73 4 37 3 15-17 15-53c-1-64 63-63 125-63 3-35-9-54-41-54-24 1-41 7-42 31l-33-3c5-37 33-52 76-52 45 0 72 20 72 64v82c-1 20 7 32 28 27v20c-31 9-61-2-59-35zM48-53c0 20 12 33 32 33 41-3 63-29 60-74-43 2-92-5-92 41" id="bP"/><path fill="#6b2fba" d="M24 0v-261h32V0H24" id="bQ"/><path fill="#6b2fba" d="M127-220V0H93v-220H8v-28h204v28h-85" id="bR"/><path fill="#6b2fba" d="M115-194c53 0 69 39 70 98 0 66-23 100-70 100C84 3 66-7 56-30L54 0H23l1-261h32v101c10-23 28-34 59-34zm-8 174c40 0 45-34 45-75 0-40-5-75-45-74-42 0-51 32-51 76 0 43 10 73 51 73" id="bS"/><path fill="#383838" d="M67-93c0 74 22 123 53 168H70C40 30 18-18 18-93s22-123 52-168h50c-32 44-53 94-53 168" id="bT"/><path fill="#383838" d="M102-93c0 74-22 123-52 168H0C30 29 54-18 53-93c0-74-22-123-53-168h50c30 45 52 94 52 168" id="bU"/><g id="L"><use transform="matrix(0.059259259259259255,0,0,0.059259259259259255,0,0)" xlink:href="#bJ"/><use transform="matrix(0.059259259259259255,0,0,0.059259259259259255,11.851851851851851,0)" xlink:href="#bK"/><use transform="matrix(0.059259259259259255,0,0,0.059259259259259255,23.703703703703702,0)" xlink:href="#bL"/><use transform="matrix(0.059259259259259255,0,0,0.059259259259259255,29.629629629629626,0)" xlink:href="#bM"/><use transform="matrix(0.059259259259259255,0,0,0.059259259259259255,35.55555555555555,0)" xlink:href="#bN"/><use transform="matrix(0.059259259259259255,0,0,0.059259259259259255,47.407407407407405,0)" xlink:href="#bO"/><use transform="matrix(0.059259259259259255,0,0,0.059259259259259255,52.08888888888889,0)" xlink:href="#bL"/><use transform="matrix(0.059259259259259255,0,0,0.059259259259259255,58.01481481481481,0)" xlink:href="#bO"/><use transform="matrix(0.059259259259259255,0,0,0.059259259259259255,62.69629629629629,0)" xlink:href="#bP"/><use transform="matrix(0.059259259259259255,0,0,0.059259259259259255,74.54814814814814,0)" xlink:href="#bQ"/><use transform="matrix(0.059259259259259255,0,0,0.059259259259259255,79.22962962962963,0)" xlink:href="#bR"/><use transform="matrix(0.059259259259259255,0,0,0.059259259259259255,89.83703703703704,0)" xlink:href="#bP"/><use transform="matrix(0.059259259259259255,0,0,0.059259259259259255,101.68888888888888,0)" xlink:href="#bS"/><use transform="matrix(0.059259259259259255,0,0,0.059259259259259255,113.54074074074073,0)" xlink:href="#bQ"/><use transform="matrix(0.059259259259259255,0,0,0.059259259259259255,118.22222222222221,0)" xlink:href="#bK"/><use transform="matrix(0.059259259259259255,0,0,0.059259259259259255,130.07407407407408,0)" xlink:href="#bT"/><use transform="matrix(0.059259259259259255,0,0,0.059259259259259255,137.12592592592594,0)" xlink:href="#bU"/></g><use transform="matrix(0.059259259259259255,0,0,0.059259259259259255,0,0)" xlink:href="#av" id="M"/><g id="N"><use transform="matrix(0.059259259259259255,0,0,0.059259259259259255,0,0)" xlink:href="#aP"/><use transform="matrix(0.059259259259259255,0,0,0.059259259259259255,14.222222222222221,0)" xlink:href="#aI"/><use transform="matrix(0.059259259259259255,0,0,0.059259259259259255,20.148148148148145,0)" xlink:href="#aQ"/><use transform="matrix(0.059259259259259255,0,0,0.059259259259259255,27.199999999999996,0)" xlink:href="#aG"/><use transform="matrix(0.059259259259259255,0,0,0.059259259259259255,31.88148148148148,0)" xlink:href="#aR"/><use transform="matrix(0.059259259259259255,0,0,0.059259259259259255,43.73333333333333,0)" xlink:href="#aS"/></g><use transform="matrix(0.061728395061728385,0,0,0.061728395061728385,0,0)" xlink:href="#bI" id="O"/><path fill="#6b2fba" d="M137 0h-34L2-248h35l83 218 83-218h36" id="bV"/><path fill="#6b2fba" d="M114-163C36-179 61-72 57 0H25l-1-190h30c1 12-1 29 2 39 6-27 23-49 58-41v29" id="bW"/><path fill="#6b2fba" d="M233-177c-1 41-23 64-60 70L243 0h-38l-65-103H63V0H30v-248c88 3 205-21 203 71zM63-129c60-2 137 13 137-47 0-61-80-42-137-45v92" id="bX"/><path fill="#6b2fba" d="M135-143c-3-34-86-38-87 0 15 53 115 12 119 90S17 21 10-45l28-5c4 36 97 45 98 0-10-56-113-15-118-90-4-57 82-63 122-42 12 7 21 19 24 35" id="bY"/><path fill="#6b2fba" d="M84 4C-5 8 30-112 23-190h32v120c0 31 7 50 39 49 72-2 45-101 50-169h31l1 190h-30c-1-10 1-25-2-33-11 22-28 36-60 37" id="bZ"/><path fill="#6b2fba" d="M190 0L58-211 59 0H30v-248h39L202-35l-2-213h31V0h-41" id="ca"/><path fill="#6b2fba" d="M210-169c-67 3-38 105-44 169h-31v-121c0-29-5-50-35-48C34-165 62-65 56 0H25l-1-190h30c1 10-1 24 2 32 10-44 99-50 107 0 11-21 27-35 58-36 85-2 47 119 55 194h-31v-121c0-29-5-49-35-48" id="cb"/><g id="P"><use transform="matrix(0.059259259259259255,0,0,0.059259259259259255,0,0)" xlink:href="#bJ"/><use transform="matrix(0.059259259259259255,0,0,0.059259259259259255,11.851851851851851,0)" xlink:href="#bK"/><use transform="matrix(0.059259259259259255,0,0,0.059259259259259255,23.703703703703702,0)" xlink:href="#bL"/><use transform="matrix(0.059259259259259255,0,0,0.059259259259259255,29.629629629629626,0)" xlink:href="#bV"/><use transform="matrix(0.059259259259259255,0,0,0.059259259259259255,42.251851851851846,0)" xlink:href="#bP"/><use transform="matrix(0.059259259259259255,0,0,0.059259259259259255,54.1037037037037,0)" xlink:href="#bW"/><use transform="matrix(0.059259259259259255,0,0,0.059259259259259255,61.15555555555555,0)" xlink:href="#bO"/><use transform="matrix(0.059259259259259255,0,0,0.059259259259259255,65.83703703703704,0)" xlink:href="#bP"/><use transform="matrix(0.059259259259259255,0,0,0.059259259259259255,77.68888888888888,0)" xlink:href="#bS"/><use transform="matrix(0.059259259259259255,0,0,0.059259259259259255,89.54074074074073,0)" xlink:href="#bQ"/><use transform="matrix(0.059259259259259255,0,0,0.059259259259259255,94.22222222222221,0)" xlink:href="#bK"/><use transform="matrix(0.059259259259259255,0,0,0.059259259259259255,106.07407407407406,0)" xlink:href="#bX"/><use transform="matrix(0.059259259259259255,0,0,0.059259259259259255,121.42222222222222,0)" xlink:href="#bK"/><use transform="matrix(0.059259259259259255,0,0,0.059259259259259255,133.27407407407406,0)" xlink:href="#bY"/><use transform="matrix(0.059259259259259255,0,0,0.059259259259259255,143.94074074074072,0)" xlink:href="#bZ"/><use transform="matrix(0.059259259259259255,0,0,0.059259259259259255,155.79259259259257,0)" xlink:href="#bQ"/><use transform="matrix(0.059259259259259255,0,0,0.059259259259259255,160.47407407407405,0)" xlink:href="#bL"/><use transform="matrix(0.059259259259259255,0,0,0.059259259259259255,166.39999999999998,0)" xlink:href="#ca"/><use transform="matrix(0.059259259259259255,0,0,0.059259259259259255,181.74814814814812,0)" xlink:href="#bP"/><use transform="matrix(0.059259259259259255,0,0,0.059259259259259255,193.59999999999997,0)" xlink:href="#cb"/><use transform="matrix(0.059259259259259255,0,0,0.059259259259259255,211.3185185185185,0)" xlink:href="#bK"/><use transform="matrix(0.059259259259259255,0,0,0.059259259259259255,223.17037037037034,0)" xlink:href="#bT"/><use transform="matrix(0.059259259259259255,0,0,0.059259259259259255,230.2222222222222,0)" xlink:href="#bU"/></g><g id="Q"><use transform="matrix(0.059259259259259255,0,0,0.059259259259259255,0,0)" xlink:href="#bJ"/><use transform="matrix(0.059259259259259255,0,0,0.059259259259259255,11.851851851851851,0)" xlink:href="#bK"/><use transform="matrix(0.059259259259259255,0,0,0.059259259259259255,23.703703703703702,0)" xlink:href="#bL"/><use transform="matrix(0.059259259259259255,0,0,0.059259259259259255,29.629629629629626,0)" xlink:href="#ca"/><use transform="matrix(0.059259259259259255,0,0,0.059259259259259255,44.977777777777774,0)" xlink:href="#bP"/><use transform="matrix(0.059259259259259255,0,0,0.059259259259259255,56.82962962962962,0)" xlink:href="#cb"/><use transform="matrix(0.059259259259259255,0,0,0.059259259259259255,74.54814814814814,0)" xlink:href="#bK"/><use transform="matrix(0.059259259259259255,0,0,0.059259259259259255,86.39999999999999,0)" xlink:href="#bT"/><use transform="matrix(0.059259259259259255,0,0,0.059259259259259255,93.45185185185184,0)" xlink:href="#bU"/></g><g id="R"><use transform="matrix(0.059259259259259255,0,0,0.059259259259259255,0,0)" xlink:href="#aP"/><use transform="matrix(0.059259259259259255,0,0,0.059259259259259255,14.222222222222221,0)" xlink:href="#aI"/><use transform="matrix(0.059259259259259255,0,0,0.059259259259259255,20.148148148148145,0)" xlink:href="#aQ"/><use transform="matrix(0.059259259259259255,0,0,0.059259259259259255,27.199999999999996,0)" xlink:href="#aG"/><use transform="matrix(0.059259259259259255,0,0,0.059259259259259255,31.88148148148148,0)" xlink:href="#aR"/><use transform="matrix(0.059259259259259255,0,0,0.059259259259259255,43.73333333333333,0)" xlink:href="#aS"/></g><g id="S"><use transform="matrix(0.059259259259259255,0,0,0.059259259259259255,0,0)" xlink:href="#bO"/><use transform="matrix(0.059259259259259255,0,0,0.059259259259259255,4.681481481481481,0)" xlink:href="#bY"/><use transform="matrix(0.059259259259259255,0,0,0.059259259259259255,15.348148148148146,0)" xlink:href="#bR"/><use transform="matrix(0.059259259259259255,0,0,0.059259259259259255,25.955555555555556,0)" xlink:href="#bK"/><use transform="matrix(0.059259259259259255,0,0,0.059259259259259255,37.80740740740741,0)" xlink:href="#bW"/><use transform="matrix(0.059259259259259255,0,0,0.059259259259259255,44.85925925925926,0)" xlink:href="#cb"/><use transform="matrix(0.059259259259259255,0,0,0.059259259259259255,62.57777777777778,0)" xlink:href="#bO"/><use transform="matrix(0.059259259259259255,0,0,0.059259259259259255,67.25925925925927,0)" xlink:href="#bN"/><use transform="matrix(0.059259259259259255,0,0,0.059259259259259255,79.11111111111111,0)" xlink:href="#bP"/><use transform="matrix(0.059259259259259255,0,0,0.059259259259259255,90.96296296296296,0)" xlink:href="#bQ"/><use transform="matrix(0.059259259259259255,0,0,0.059259259259259255,95.64444444444445,0)" xlink:href="#bT"/><use transform="matrix(0.059259259259259255,0,0,0.059259259259259255,102.6962962962963,0)" xlink:href="#bU"/></g><path fill="#0f54d6" d="M115-194c53 0 69 39 70 98 0 66-23 100-70 100C84 3 66-7 56-30L54 0H23l1-261h32v101c10-23 28-34 59-34zm-8 174c40 0 45-34 45-75 0-40-5-75-45-74-42 0-51 32-51 76 0 43 10 73 51 73" id="cc"/><path fill="#0f54d6" d="M100-194c62-1 85 37 85 99 1 63-27 99-86 99S16-35 15-95c0-66 28-99 85-99zM99-20c44 1 53-31 53-75 0-43-8-75-51-75s-53 32-53 75 10 74 51 75" id="cd"/><path fill="#0f54d6" d="M24 0v-261h32V0H24" id="ce"/><path fill="#0f54d6" d="M100-194c63 0 86 42 84 106H49c0 40 14 67 53 68 26 1 43-12 49-29l28 8c-11 28-37 45-77 45C44 4 14-33 15-96c1-61 26-98 85-98zm52 81c6-60-76-77-97-28-3 7-6 17-6 28h103" id="cf"/><path fill="#0f54d6" d="M141-36C126-15 110 5 73 4 37 3 15-17 15-53c-1-64 63-63 125-63 3-35-9-54-41-54-24 1-41 7-42 31l-33-3c5-37 33-52 76-52 45 0 72 20 72 64v82c-1 20 7 32 28 27v20c-31 9-61-2-59-35zM48-53c0 20 12 33 32 33 41-3 63-29 60-74-43 2-92-5-92 41" id="cg"/><path fill="#0f54d6" d="M117-194c89-4 53 116 60 194h-32v-121c0-31-8-49-39-48C34-167 62-67 57 0H25l-1-190h30c1 10-1 24 2 32 11-22 29-35 61-36" id="ch"/><g id="T"><use transform="matrix(0.059259259259259255,0,0,0.059259259259259255,0,0)" xlink:href="#cc"/><use transform="matrix(0.059259259259259255,0,0,0.059259259259259255,11.851851851851851,0)" xlink:href="#cd"/><use transform="matrix(0.059259259259259255,0,0,0.059259259259259255,23.703703703703702,0)" xlink:href="#cd"/><use transform="matrix(0.059259259259259255,0,0,0.059259259259259255,35.55555555555556,0)" xlink:href="#ce"/><use transform="matrix(0.059259259259259255,0,0,0.059259259259259255,40.23703703703704,0)" xlink:href="#cf"/><use transform="matrix(0.059259259259259255,0,0,0.059259259259259255,52.08888888888889,0)" xlink:href="#cg"/><use transform="matrix(0.059259259259259255,0,0,0.059259259259259255,63.940740740740736,0)" xlink:href="#ch"/></g><path fill="#6b2fba" d="M141 0L90-78 38 0H4l68-98-65-92h35l48 74 47-74h35l-64 92 68 98h-35" id="ci"/><path fill="#6b2fba" d="M96-169c-40 0-48 33-48 73s9 75 48 75c24 0 41-14 43-38l32 2c-6 37-31 61-74 61-59 0-76-41-82-99-10-93 101-131 147-64 4 7 5 14 7 22l-32 3c-4-21-16-35-41-35" id="cj"/><path fill="#1b6600" d="M59-47c-2 24 18 29 38 22v24C64 9 27 4 27-40v-127H5v-23h24l9-43h21v43h35v23H59v120" id="ck"/><path fill="#1b6600" d="M141-36C126-15 110 5 73 4 37 3 15-17 15-53c-1-64 63-63 125-63 3-35-9-54-41-54-24 1-41 7-42 31l-33-3c5-37 33-52 76-52 45 0 72 20 72 64v82c-1 20 7 32 28 27v20c-31 9-61-2-59-35zM48-53c0 20 12 33 32 33 41-3 63-29 60-74-43 2-92-5-92 41" id="cl"/><path fill="#1b6600" d="M115-194c53 0 69 39 70 98 0 66-23 100-70 100C84 3 66-7 56-30L54 0H23l1-261h32v101c10-23 28-34 59-34zm-8 174c40 0 45-34 45-75 0-40-5-75-45-74-42 0-51 32-51 76 0 43 10 73 51 73" id="cm"/><path fill="#1b6600" d="M24 0v-261h32V0H24" id="cn"/><path fill="#1b6600" d="M100-194c63 0 86 42 84 106H49c0 40 14 67 53 68 26 1 43-12 49-29l28 8c-11 28-37 45-77 45C44 4 14-33 15-96c1-61 26-98 85-98zm52 81c6-60-76-77-97-28-3 7-6 17-6 28h103" id="co"/><path fill="#1b6600" d="M212-179c-10-28-35-45-73-45-59 0-87 40-87 99 0 60 29 101 89 101 43 0 62-24 78-52l27 14C228-24 195 4 139 4 59 4 22-46 18-125c-6-104 99-153 187-111 19 9 31 26 39 46" id="cp"/><path fill="#1b6600" d="M135-143c-3-34-86-38-87 0 15 53 115 12 119 90S17 21 10-45l28-5c4 36 97 45 98 0-10-56-113-15-118-90-4-57 82-63 122-42 12 7 21 19 24 35" id="cq"/><path fill="#1b6600" d="M96-169c-40 0-48 33-48 73s9 75 48 75c24 0 41-14 43-38l32 2c-6 37-31 61-74 61-59 0-76-41-82-99-10-93 101-131 147-64 4 7 5 14 7 22l-32 3c-4-21-16-35-41-35" id="cr"/><path fill="#1b6600" d="M85-194c31 0 48 13 60 33l-1-100h32l1 261h-30c-2-10 0-23-3-31C134-8 116 4 85 4 32 4 16-35 15-94c0-66 23-100 70-100zm9 24c-40 0-46 34-46 75 0 40 6 74 45 74 42 0 51-32 51-76 0-42-9-74-50-73" id="cs"/><g id="U"><use transform="matrix(0.059259259259259255,0,0,0.059259259259259255,0,0)" xlink:href="#bK"/><use transform="matrix(0.059259259259259255,0,0,0.059259259259259255,11.851851851851851,0)" xlink:href="#ci"/><use transform="matrix(0.059259259259259255,0,0,0.059259259259259255,22.51851851851852,0)" xlink:href="#bK"/><use transform="matrix(0.059259259259259255,0,0,0.059259259259259255,34.37037037037037,0)" xlink:href="#cj"/><use transform="matrix(0.059259259259259255,0,0,0.059259259259259255,45.03703703703703,0)" xlink:href="#bZ"/><use transform="matrix(0.059259259259259255,0,0,0.059259259259259255,56.888888888888886,0)" xlink:href="#bL"/><use transform="matrix(0.059259259259259255,0,0,0.059259259259259255,62.81481481481481,0)" xlink:href="#bK"/><use transform="matrix(0.059259259259259255,0,0,0.059259259259259255,74.66666666666666,0)" xlink:href="#bT"/><use transform="matrix(0.059259259259259255,0,0,0.059259259259259255,81.71851851851851,0)" xlink:href="#ck"/><use transform="matrix(0.059259259259259255,0,0,0.059259259259259255,87.64444444444443,0)" xlink:href="#cl"/><use transform="matrix(0.059259259259259255,0,0,0.059259259259259255,99.49629629629628,0)" xlink:href="#cm"/><use transform="matrix(0.059259259259259255,0,0,0.059259259259259255,111.34814814814813,0)" xlink:href="#cn"/><use transform="matrix(0.059259259259259255,0,0,0.059259259259259255,116.02962962962961,0)" xlink:href="#co"/><use transform="matrix(0.059259259259259255,0,0,0.059259259259259255,127.88148148148147,0)" xlink:href="#cp"/><use transform="matrix(0.059259259259259255,0,0,0.059259259259259255,143.2296296296296,0)" xlink:href="#cl"/><use transform="matrix(0.059259259259259255,0,0,0.059259259259259255,155.08148148148146,0)" xlink:href="#cq"/><use transform="matrix(0.059259259259259255,0,0,0.059259259259259255,165.74814814814812,0)" xlink:href="#cr"/><use transform="matrix(0.059259259259259255,0,0,0.059259259259259255,176.41481481481478,0)" xlink:href="#cl"/><use transform="matrix(0.059259259259259255,0,0,0.059259259259259255,188.26666666666662,0)" xlink:href="#cs"/><use transform="matrix(0.059259259259259255,0,0,0.059259259259259255,200.11851851851847,0)" xlink:href="#co"/></g><use transform="matrix(0.059259259259259255,0,0,0.059259259259259255,0,0)" xlink:href="#av" id="V"/><path fill="#8c6c41" d="M212-179c-10-28-35-45-73-45-59 0-87 40-87 99 0 60 29 101 89 101 43 0 62-24 78-52l27 14C228-24 195 4 139 4 59 4 22-46 18-125c-6-104 99-153 187-111 19 9 31 26 39 46" id="ct"/><path fill="#8c6c41" d="M96-169c-40 0-48 33-48 73s9 75 48 75c24 0 41-14 43-38l32 2c-6 37-31 61-74 61-59 0-76-41-82-99-10-93 101-131 147-64 4 7 5 14 7 22l-32 3c-4-21-16-35-41-35" id="cu"/><path fill="#8c6c41" d="M85-194c31 0 48 13 60 33l-1-100h32l1 261h-30c-2-10 0-23-3-31C134-8 116 4 85 4 32 4 16-35 15-94c0-66 23-100 70-100zm9 24c-40 0-46 34-46 75 0 40 6 74 45 74 42 0 51-32 51-76 0-42-9-74-50-73" id="cv"/><g id="W"><use transform="matrix(0.059259259259259255,0,0,0.059259259259259255,0,0)" xlink:href="#aw"/><use transform="matrix(0.059259259259259255,0,0,0.059259259259259255,10.607407407407406,0)" xlink:href="#ax"/><use transform="matrix(0.059259259259259255,0,0,0.059259259259259255,22.459259259259255,0)" xlink:href="#ay"/><use transform="matrix(0.059259259259259255,0,0,0.059259259259259255,34.3111111111111,0)" xlink:href="#az"/><use transform="matrix(0.059259259259259255,0,0,0.059259259259259255,38.99259259259259,0)" xlink:href="#aA"/><use transform="matrix(0.059259259259259255,0,0,0.059259259259259255,50.844444444444434,0)" xlink:href="#ct"/><use transform="matrix(0.059259259259259255,0,0,0.059259259259259255,66.19259259259258,0)" xlink:href="#ax"/><use transform="matrix(0.059259259259259255,0,0,0.059259259259259255,78.04444444444442,0)" xlink:href="#aH"/><use transform="matrix(0.059259259259259255,0,0,0.059259259259259255,88.7111111111111,0)" xlink:href="#cu"/><use transform="matrix(0.059259259259259255,0,0,0.059259259259259255,99.37777777777777,0)" xlink:href="#ax"/><use transform="matrix(0.059259259259259255,0,0,0.059259259259259255,111.22962962962961,0)" xlink:href="#cv"/><use transform="matrix(0.059259259259259255,0,0,0.059259259259259255,123.08148148148148,0)" xlink:href="#aA"/><use transform="matrix(0.059259259259259255,0,0,0.059259259259259255,134.9333333333333,0)" xlink:href="#bU"/></g><path fill="#0f54d6" d="M108 0H70L1-190h34L89-25l56-165h34" id="cw"/><path fill="#0f54d6" d="M24-231v-30h32v30H24zM24 0v-190h32V0H24" id="cx"/><path fill="#0f54d6" d="M85-194c31 0 48 13 60 33l-1-100h32l1 261h-30c-2-10 0-23-3-31C134-8 116 4 85 4 32 4 16-35 15-94c0-66 23-100 70-100zm9 24c-40 0-46 34-46 75 0 40 6 74 45 74 42 0 51-32 51-76 0-42-9-74-50-73" id="cy"/><g id="X"><use transform="matrix(0.059259259259259255,0,0,0.059259259259259255,0,0)" xlink:href="#cw"/><use transform="matrix(0.059259259259259255,0,0,0.059259259259259255,10.666666666666666,0)" xlink:href="#cd"/><use transform="matrix(0.059259259259259255,0,0,0.059259259259259255,22.51851851851852,0)" xlink:href="#cx"/><use transform="matrix(0.059259259259259255,0,0,0.059259259259259255,27.2,0)" xlink:href="#cy"/></g><g id="Y"><use transform="matrix(0.05,0,0,0.05,0,0)" xlink:href="#ac"/><use transform="matrix(0.05,0,0,0.05,12.950000000000001,0)" xlink:href="#ad"/><use transform="matrix(0.05,0,0,0.05,23.900000000000002,0)" xlink:href="#bo"/><use transform="matrix(0.05,0,0,0.05,39.900000000000006,0)" xlink:href="#ao"/><use transform="matrix(0.05,0,0,0.05,50.85000000000001,0)" xlink:href="#ad"/><use transform="matrix(0.05,0,0,0.05,61.80000000000001,0)" xlink:href="#br"/><use transform="matrix(0.05,0,0,0.05,71.80000000000001,0)" xlink:href="#al"/><use transform="matrix(0.05,0,0,0.05,76.80000000000001,0)" xlink:href="#ah"/><use transform="matrix(0.05,0,0,0.05,82.75000000000001,0)" xlink:href="#aj"/><use transform="matrix(0.05,0,0,0.05,92.75000000000001,0)" xlink:href="#an"/><use transform="matrix(0.05,0,0,0.05,106.75,0)" xlink:href="#ao"/><use transform="matrix(0.05,0,0,0.05,117.7,0)" xlink:href="#aj"/><use transform="matrix(0.05,0,0,0.05,127.7,0)" xlink:href="#ak"/><use transform="matrix(0.05,0,0,0.05,134.70000000000002,0)" xlink:href="#ag"/><use transform="matrix(0.05,0,0,0.05,144.70000000000002,0)" xlink:href="#ah"/><use transform="matrix(0.05,0,0,0.05,150.65,0)" xlink:href="#al"/><use transform="matrix(0.05,0,0,0.05,155.65,0)" xlink:href="#ad"/><use transform="matrix(0.05,0,0,0.05,166.6,0)" xlink:href="#ae"/></g><g id="Z"><use transform="matrix(0.05925925925925927,0,0,0.05925925925925927,0,0)" xlink:href="#aB"/><use transform="matrix(0.05925925925925927,0,0,0.05925925925925927,12.97777777777778,0)" xlink:href="#aX"/><use transform="matrix(0.05925925925925927,0,0,0.05925925925925927,25.95555555555556,0)" xlink:href="#au"/><use transform="matrix(0.05925925925925927,0,0,0.05925925925925927,37.80740740740741,0)" xlink:href="#aD"/><use transform="matrix(0.05925925925925927,0,0,0.05925925925925927,46.10370370370371,0)" xlink:href="#ar"/><use transform="matrix(0.05925925925925927,0,0,0.05925925925925927,57.95555555555556,0)" xlink:href="#aq"/><use transform="matrix(0.05925925925925927,0,0,0.05925925925925927,65.00740740740741,0)" xlink:href="#aW"/><use transform="matrix(0.05925925925925927,0,0,0.05925925925925927,70.93333333333334,0)" xlink:href="#aB"/><use transform="matrix(0.05925925925925927,0,0,0.05925925925925927,83.91111111111111,0)" xlink:href="#aO"/><use transform="matrix(0.05925925925925927,0,0,0.05925925925925927,96.88888888888889,0)" xlink:href="#aE"/></g><path fill="#8c6c41" d="M140-251c81 0 123 46 123 126C263-46 219 4 140 4 59 4 17-45 17-125s42-126 123-126zm0 227c63 0 89-41 89-101s-29-99-89-99c-61 0-89 39-89 99S79-25 140-24" id="cz"/><g id="aa"><use transform="matrix(0.059259259259259255,0,0,0.059259259259259255,0,0)" xlink:href="#aF"/><use transform="matrix(0.059259259259259255,0,0,0.059259259259259255,11.851851851851851,0)" xlink:href="#aG"/><use transform="matrix(0.059259259259259255,0,0,0.059259259259259255,16.53333333333333,0)" xlink:href="#aH"/><use transform="matrix(0.059259259259259255,0,0,0.059259259259259255,27.199999999999996,0)" xlink:href="#aI"/><use transform="matrix(0.059259259259259255,0,0,0.059259259259259255,33.12592592592592,0)" xlink:href="#aJ"/><use transform="matrix(0.059259259259259255,0,0,0.059259259259259255,45.57037037037036,0)" xlink:href="#aw"/><use transform="matrix(0.059259259259259255,0,0,0.059259259259259255,56.17777777777776,0)" xlink:href="#ax"/><use transform="matrix(0.059259259259259255,0,0,0.059259259259259255,68.02962962962961,0)" xlink:href="#ay"/><use transform="matrix(0.059259259259259255,0,0,0.059259259259259255,79.88148148148146,0)" xlink:href="#az"/><use transform="matrix(0.059259259259259255,0,0,0.059259259259259255,84.56296296296294,0)" xlink:href="#aA"/><use transform="matrix(0.059259259259259255,0,0,0.059259259259259255,96.41481481481479,0)" xlink:href="#cz"/><use transform="matrix(0.059259259259259255,0,0,0.059259259259259255,113.00740740740738,0)" xlink:href="#bb"/><use transform="matrix(0.059259259259259255,0,0,0.059259259259259255,124.85925925925922,0)" xlink:href="#aA"/><use transform="matrix(0.059259259259259255,0,0,0.059259259259259255,136.71111111111108,0)" xlink:href="#aQ"/><use transform="matrix(0.059259259259259255,0,0,0.059259259259259255,143.76296296296294,0)" xlink:href="#ax"/><use transform="matrix(0.059259259259259255,0,0,0.059259259259259255,155.6148148148148,0)" xlink:href="#aI"/><use transform="matrix(0.059259259259259255,0,0,0.059259259259259255,161.54074074074072,0)" xlink:href="#aG"/><use transform="matrix(0.059259259259259255,0,0,0.059259259259259255,166.2222222222222,0)" xlink:href="#bc"/><use transform="matrix(0.059259259259259255,0,0,0.059259259259259255,178.07407407407405,0)" xlink:href="#aR"/><use transform="matrix(0.059259259259259255,0,0,0.059259259259259255,189.9259259259259,0)" xlink:href="#aK"/></g><path fill="#3a414a" d="M33 0v-38h34V0H33" id="cA"/><g id="ab"><use transform="matrix(0.0987654320987654,0,0,0.0987654320987654,0,0)" xlink:href="#cA"/><use transform="matrix(0.0987654320987654,0,0,0.0987654320987654,9.876543209876539,0)" xlink:href="#cA"/><use transform="matrix(0.0987654320987654,0,0,0.0987654320987654,19.753086419753078,0)" xlink:href="#cA"/></g></defs></g></svg>