<svg xmlns="http://www.w3.org/2000/svg" xmlns:xlink="http://www.w3.org/1999/xlink" xmlns:lucid="lucid" width="1931" height="901.77"><g transform="translate(276.96666667829106 260.5000000059627)" lucid:page-tab-id="HOhA~OKRSPnX"><path d="M-500-500h2500v1500H-500z" fill="#fff"/><path d="M523.53 465.77a6 6 0 0 1 6-6h348a6 6 0 0 1 6 6v169a6 6 0 0 1-6 6h-348a6 6 0 0 1-6-6z" stroke="#3a414a" fill="#fff"/><path d="M523.53 497.37h360" stroke="#3a414a" fill="none"/><use xlink:href="#a" transform="matrix(1,0,0,1,531.5333333333333,467.7666666666667) translate(120.6 14.6)"/><path d="M903.53 465.77a6 6 0 0 1 6-6h348a6 6 0 0 1 6 6v169a6 6 0 0 1-6 6h-348a6 6 0 0 1-6-6z" stroke="#3a414a" fill="#fff"/><path d="M903.53 497.37h360" stroke="#3a414a" fill="none"/><use xlink:href="#b" transform="matrix(1,0,0,1,911.5333333333333,467.7666666666667) translate(125.07499999999999 14.6)"/><path d="M-276.47 465.77a6 6 0 0 1 6-6h348a6 6 0 0 1 6 6v169a6 6 0 0 1-6 6h-348a6 6 0 0 1-6-6z" stroke="#3a414a" fill="#fff"/><path d="M-276.47 497.37h360" stroke="#3a414a" fill="none"/><use xlink:href="#c" transform="matrix(1,0,0,1,-268.4666666666667,467.7666666666667) translate(120.55 14.6)"/><path d="M496.03 45.77a6 6 0 0 1 6-6h408a6 6 0 0 1 6 6v254a6 6 0 0 1-6 6h-408a6 6 0 0 1-6-6z" stroke="#3a414a" fill="#fff"/><path d="M496.03 98.97h420m-420 143.1h420" stroke="#3a414a" fill="none"/><use xlink:href="#d" transform="matrix(1,0,0,1,504.0333333333333,47.76666666666671) translate(146.075 14.799999999999999)"/><use xlink:href="#e" transform="matrix(1,0,0,1,504.0333333333333,47.76666666666671) translate(148.425 36.4)"/><use xlink:href="#f" transform="matrix(1,0,0,1,508.0333333333333,106.96666666666671) translate(0 28.97777777777778)"/><use xlink:href="#g" transform="matrix(1,0,0,1,508.0333333333333,106.96666666666671) translate(0 55.64444444444445)"/><use xlink:href="#h" transform="matrix(1,0,0,1,508.0333333333333,106.96666666666671) translate(18.51851851851852 55.64444444444445)"/><use xlink:href="#i" transform="matrix(1,0,0,1,508.0333333333333,106.96666666666671) translate(80.0888888888889 55.64444444444445)"/><use xlink:href="#j" transform="matrix(1,0,0,1,508.0333333333333,106.96666666666671) translate(93.31358024691359 55.64444444444445)"/><use xlink:href="#g" transform="matrix(1,0,0,1,508.0333333333333,106.96666666666671) translate(0 82.3111111111111)"/><use xlink:href="#k" transform="matrix(1,0,0,1,508.0333333333333,106.96666666666671) translate(18.51851851851852 82.3111111111111)"/><use xlink:href="#i" transform="matrix(1,0,0,1,508.0333333333333,106.96666666666671) translate(67.29876543209878 82.3111111111111)"/><use xlink:href="#l" transform="matrix(1,0,0,1,508.0333333333333,106.96666666666671) translate(80.52345679012346 82.3111111111111)"/><use xlink:href="#m" transform="matrix(1,0,0,1,508.0333333333333,106.96666666666671) translate(0 108.26666666666667)"/><use xlink:href="#g" transform="matrix(1,0,0,1,508.0333333333333,250.06666666666672) translate(0 28.944444444444443)"/><use xlink:href="#n" transform="matrix(1,0,0,1,508.0333333333333,250.06666666666672) translate(18.51851851851852 28.944444444444443)"/><use xlink:href="#o" transform="matrix(1,0,0,1,508.0333333333333,250.06666666666672) translate(222.01481481481483 28.944444444444443)"/><use xlink:href="#p" transform="matrix(1,0,0,1,508.0333333333333,250.06666666666672) translate(234.99259259259262 28.944444444444443)"/><path d="M1293.53 465.77a6 6 0 0 1 6-6h348a6 6 0 0 1 6 6v169a6 6 0 0 1-6 6h-348a6 6 0 0 1-6-6z" stroke="#3a414a" fill="#fff"/><path d="M1293.53 497.37h360" stroke="#3a414a" fill="none"/><use xlink:href="#q" transform="matrix(1,0,0,1,1301.5333333333333,467.7666666666667) translate(126.75 14.6)"/><path d="M123.53 465.77a6 6 0 0 1 6-6h348a6 6 0 0 1 6 6v169a6 6 0 0 1-6 6h-348a6 6 0 0 1-6-6z" stroke="#3a414a" fill="#fff"/><path d="M123.53 497.37h360" stroke="#3a414a" fill="none"/><use xlink:href="#r" transform="matrix(1,0,0,1,131.5333333333333,467.7666666666667) translate(125.05 14.6)"/><path d="M-96.47 458.77v-4.67m0-4.67v-9.33m0-4.67v-9.33m0-4.67v-9.33m0-4.67v-9.33m0-4.67v-4.66l.08-.94.23-.92.36-.86.48-.8.6-.72.73-.6.8-.5.88-.36.9-.22.95-.07h4.97m4.98 0h9.94m4.97 0h9.93m4.98 0h9.95m4.97 0h9.95m4.97 0h9.94m4.97 0H4m4.97 0h9.94m4.98 0h9.95m4.97 0h9.94m4.97 0h9.96m4.97 0h9.94m4.97 0h9.95m4.96 0h9.94m4.97 0h9.95m4.97 0h9.93m4.97 0h9.95m4.97 0h9.94m4.97 0h9.95m4.97 0h9.94m4.96 0h9.95m4.98 0h9.94m4.97 0h9.94m4.97 0h9.95m4.97 0h9.95m4.97 0h9.94m4.97 0h9.95m4.97 0h9.94m4.98 0h9.95m4.97 0h9.94m4.97 0h9.96m4.97 0h9.94m4.98 0h9.94m4.96 0h9.94m4.98 0h9.94m4.97 0h9.93m4.98 0h9.95m4.97 0h9.94m4.97 0h9.95m4.97 0h9.94m4.97 0h9.94m4.98 0h9.94m4.98 0h9.94m4.97 0h9.95m4.98 0h9.94m4.97 0h9.94m4.98 0h9.94m4.97 0h9.94m5 0h9.93m4.97 0h9.95m4.97 0h9.94m4.97 0h9.94m4.98 0h9.94m4.96 0h4.97l.94-.08.92-.23.86-.36.8-.48.72-.6.6-.73.5-.8.36-.88.22-.92.07-.93v-5.28m0-5.3v-10.54m0-5.28v-10.56m0-5.27v-5.28" stroke="#3a414a" fill="none"/><path d="M-95.97 459.27h-1v-.52h1z" stroke="#3a414a" stroke-width=".05" fill="#3a414a"/><path d="M706.03 307.25l12.73 21.52H693.3z" stroke="#3a414a" fill="#fff"/><path d="M303.53 458.77v-4.67m0-4.67v-9.33m0-4.67v-9.33m0-4.67v-9.33m0-4.67v-9.33m0-4.67v-4.66l.08-.94.23-.92.36-.86.48-.8.6-.72.73-.6.8-.5.88-.36.92-.22.93-.07h5m5.02 0h10m5 0h10.03m5 0h10.02m5 0h10.02m5 0h10.02m5 0h10m5.02 0h10m5.02 0h10m5.02 0h10m5.02 0h10m5.02 0h10m5.02 0h10m5.02 0h10m5.02 0h10m5.02 0h10m5 0h10.03m5 0h10.02m5 0h10.02m5 0h10m5 0h10.02m5 0h10.02m5 0h10.02m5 0H660m5 0H675m5 0h10.02m5 0h5l.95-.08.92-.23.86-.36.8-.48.72-.6.6-.73.5-.8.36-.88.22-.92.07-.93v-5.28m0-5.3v-10.54m0-5.28v-10.56m0-5.27v-5.28" stroke="#3a414a" fill="none"/><path d="M304.03 459.27h-1v-.52h1z" stroke="#3a414a" stroke-width=".05" fill="#3a414a"/><path d="M706.03 307.25l12.73 21.52H693.3z" stroke="#3a414a" fill="#fff"/><path d="M703.53 458.77v-5m0-4.97v-9.97m0-4.98v-9.97m0-4.98v-9.97m0-4.98v-9.97m0-4.98v-4.98l.02-.2.05-.2.07-.17.1-.17.13-.15.15-.13.17-.1.18-.07.2-.05h.18l.2-.03.2-.05.17-.07.17-.1.15-.13.13-.15.1-.17.07-.18.05-.2V375.73m0-5.8v-11.63m0-5.8v-11.62m0-5.8v-5.8" stroke="#3a414a" fill="none"/><path d="M704.03 459.27h-1v-.52h1z" stroke="#3a414a" stroke-width=".05" fill="#3a414a"/><path d="M706.03 307.25l12.73 21.52H693.3z" stroke="#3a414a" fill="#fff"/><path d="M1083.53 458.77v-4.67m0-4.67v-9.33m0-4.67v-9.33m0-4.67v-9.33m0-4.67v-9.33m0-4.67v-4.66l-.07-.94-.22-.92-.36-.86-.5-.8-.6-.72-.72-.6-.8-.5-.87-.36-.93-.22-.94-.07h-5.07m-5.08 0h-10.15m-5.08 0H1042m-5.08 0h-10.15m-5.08 0h-10.16m-5.08 0H996.3m-5.06 0h-10.16m-5.07 0h-10.15m-5.07 0h-10.16m-5.07 0H935.4m-5.08 0h-10.16m-5.07 0h-10.16m-5.08 0H889.7m-5.07 0h-10.15m-5.08 0h-10.15m-5.08 0h-10.15m-5.08 0H828.8m-5.1 0h-10.14m-5.07 0h-10.17m-5.07 0H783.1m-5.07 0h-10.16m-5.07 0h-10.16m-5.07 0H737.4m-5.06 0H722.2m-5.1 0h-5.07l-.93-.08-.92-.23-.87-.36-.8-.48-.7-.6-.62-.73-.5-.8-.35-.88-.22-.92-.07-.93v-5.28m0-5.3v-10.54m0-5.28v-10.56m0-5.27v-5.28" stroke="#3a414a" fill="none"/><path d="M1084.03 459.27h-1v-.52h1z" stroke="#3a414a" stroke-width=".05" fill="#3a414a"/><path d="M706.03 307.25l12.73 21.52H693.3z" stroke="#3a414a" fill="#fff"/><path d="M1473.53 458.77v-4.67m0-4.67v-9.33m0-4.67v-9.33m0-4.67v-9.33m0-4.67v-9.33m0-4.67v-4.66l-.07-.94-.22-.92-.36-.86-.5-.8-.6-.72-.72-.6-.8-.5-.87-.36-.93-.22-.94-.07h-5.03m-5.04 0h-10.07m-5.05 0h-10.07m-5.04 0h-10.07m-5.04 0h-10.07m-5.04 0h-10.07m-5.04 0h-10.06m-5.04 0h-10.07m-5.04 0h-10.08m-5.04 0h-10.07m-5.03 0h-10.07m-5.04 0h-10.07m-5.05 0h-10.07m-5.04 0h-10.07m-5.04 0h-10.07m-5.04 0h-10.07m-5.04 0h-10.06m-5.04 0h-10.07m-5.04 0h-10.08m-5.04 0h-10.07m-5.03 0h-10.07m-5.04 0h-10.07m-5.05 0h-10.07m-5.04 0h-10.07m-5.04 0h-10.07m-5.04 0h-10.07m-5.04 0h-10.06m-5.04 0h-10.07m-5.04 0h-10.08m-5.04 0h-10.07m-5.03 0h-10.07m-5.04 0H994.1m-5.05 0h-10.07m-5.04 0h-10.07m-5.04 0h-10.07m-5.04 0h-10.07m-5.04 0h-10.06m-5.04 0h-10.07m-5.04 0H888.3m-5.04 0H873.2m-5.03 0H858.1m-5.04 0H843m-5.05 0h-10.07m-5.04 0h-10.07m-5.04 0h-10.07m-5.04 0h-10.07m-5.04 0h-10.06m-5.04 0h-10.07m-5.04 0H737.2m-5.04 0H722.1m-5.03 0h-5.04l-.93-.08-.92-.23-.87-.36-.8-.48-.7-.6-.62-.73-.5-.8-.35-.88-.22-.92-.07-.93v-5.28m0-5.3v-10.54m0-5.28v-10.56m0-5.27v-5.28" stroke="#3a414a" fill="none"/><path d="M1474.03 459.27h-1v-.52h1z" stroke="#3a414a" stroke-width=".05" fill="#3a414a"/><path d="M706.03 307.25l12.73 21.52H693.3zM-100 61.27a6 6 0 0 1 6-6h351.53a6 6 0 0 1 6 6v223a6 6 0 0 1-6 6H-94a6 6 0 0 1-6-6z" stroke="#3a414a" fill="#fff"/><path d="M-100 92.87h363.53" stroke="#3a414a" fill="none"/><g><use xlink:href="#s" transform="matrix(1,0,0,1,-92,63.26666666666671) translate(116.75 14.6)"/></g><g><use xlink:href="#t" transform="matrix(1,0,0,1,-88,100.8666666666667) translate(0 68.27777777777777)"/><use xlink:href="#h" transform="matrix(1,0,0,1,-88,100.8666666666667) translate(19.1358024691358 68.27777777777777)"/><use xlink:href="#i" transform="matrix(1,0,0,1,-88,100.8666666666667) translate(80.70617283950618 68.27777777777777)"/><use xlink:href="#j" transform="matrix(1,0,0,1,-88,100.8666666666667) translate(93.93086419753087 68.27777777777777)"/><use xlink:href="#t" transform="matrix(1,0,0,1,-88,100.8666666666667) translate(0 94.94444444444446)"/><use xlink:href="#u" transform="matrix(1,0,0,1,-88,100.8666666666667) translate(19.1358024691358 94.94444444444446)"/><use xlink:href="#i" transform="matrix(1,0,0,1,-88,100.8666666666667) translate(112.83456790123456 94.94444444444446)"/><use xlink:href="#v" transform="matrix(1,0,0,1,-88,100.8666666666667) translate(126.05925925925925 94.94444444444446)"/><use xlink:href="#t" transform="matrix(1,0,0,1,-88,100.8666666666667) translate(0 121.61111111111111)"/><use xlink:href="#w" transform="matrix(1,0,0,1,-88,100.8666666666667) translate(19.1358024691358 121.61111111111111)"/><use xlink:href="#i" transform="matrix(1,0,0,1,-88,100.8666666666667) translate(95.11604938271604 121.61111111111111)"/><use xlink:href="#p" transform="matrix(1,0,0,1,-88,100.8666666666667) translate(108.34074074074073 121.61111111111111)"/></g><path d="M-91.47-254a6 6 0 0 1 6-6H244a6 6 0 0 1 6 6v196a6 6 0 0 1-6 6H-85.47a6 6 0 0 1-6-6z" stroke="#3a414a" fill="#fff"/><path d="M-91.47-222.4H250" stroke="#3a414a" fill="none"/><g><use xlink:href="#x" transform="matrix(1,0,0,1,-83.4666666666667,-252) translate(95.125 14.6)"/></g><g><use xlink:href="#t" transform="matrix(1,0,0,1,-79.4666666666667,-214.4) translate(0 68.61111111111111)"/><use xlink:href="#h" transform="matrix(1,0,0,1,-79.4666666666667,-214.4) translate(19.1358024691358 68.61111111111111)"/><use xlink:href="#i" transform="matrix(1,0,0,1,-79.4666666666667,-214.4) translate(80.70617283950618 68.61111111111111)"/><use xlink:href="#j" transform="matrix(1,0,0,1,-79.4666666666667,-214.4) translate(93.93086419753087 68.61111111111111)"/><use xlink:href="#t" transform="matrix(1,0,0,1,-79.4666666666667,-214.4) translate(0 95.27777777777777)"/><use xlink:href="#y" transform="matrix(1,0,0,1,-79.4666666666667,-214.4) translate(19.1358024691358 95.27777777777777)"/><use xlink:href="#i" transform="matrix(1,0,0,1,-79.4666666666667,-214.4) translate(72.35061728395061 95.27777777777777)"/><use xlink:href="#z" transform="matrix(1,0,0,1,-79.4666666666667,-214.4) translate(85.5753086419753 95.27777777777777)"/></g><path d="M81.77 24.4v-75" stroke="#3a414a" fill="none"/><path d="M81.77 54.06L66.92 39.2l14.85-15.14L96.62 39.2z" stroke="#3a414a" fill="#3a414a"/><path d="M91.95-33.3L81.77-50.52 71.6-33.3M264.53 172.77h230.1" stroke="#3a414a" fill="none"/><path d="M264.55 173.27h-.52v-1h.52z" stroke="#3a414a" stroke-width=".05" fill="#3a414a"/><path d="M477.34 182.95l17.2-10.18-17.2-10.18" stroke="#3a414a" fill="none"/><defs><path d="M176-78C186 10 51 31 16-35c-5-9-9-19-11-32l52-8c4 21 12 37 35 38 23 0 32-16 32-40v-130H75v-41h101v170" id="A"/><path d="M137-138c1-29-70-34-71-4 15 46 118 7 119 86 1 83-164 76-172 9l43-7c4 19 20 25 44 25 33 8 57-30 24-41C81-84 22-81 20-136c-2-80 154-74 161-7" id="B"/><path d="M110-194c64 0 96 36 96 99 0 64-35 99-97 99-61 0-95-36-95-99 0-62 34-99 96-99zm-1 164c35 0 45-28 45-65 0-40-10-65-43-65-34 0-45 26-45 65 0 36 10 65 43 65" id="C"/><path d="M135-194c87-1 58 113 63 194h-50c-7-57 23-157-34-157-59 0-34 97-39 157H25l-1-190h47c2 12-1 28 3 38 12-26 28-41 61-42" id="D"/><path d="M169-182c-1-43-94-46-97-3 18 66 151 10 154 114 3 95-165 93-204 36-6-8-10-19-12-30l50-8c3 46 112 56 116 5-17-69-150-10-154-114-4-87 153-88 188-35 5 8 8 18 10 28" id="E"/><path d="M85 4C-2 5 27-109 22-190h50c7 57-23 150 33 157 60-5 35-97 40-157h50l1 190h-47c-2-12 1-28-3-38-12 25-28 42-61 42" id="F"/><path d="M135-150c-39-12-60 13-60 57V0H25l-1-190h47c2 13-1 29 3 40 6-28 27-53 61-41v41" id="G"/><path d="M190-63c-7 42-38 67-86 67-59 0-84-38-90-98-12-110 154-137 174-36l-49 2c-2-19-15-32-35-32-30 0-35 28-38 64-6 74 65 87 74 30" id="H"/><path d="M185-48c-13 30-37 53-82 52C43 2 14-33 14-96s30-98 90-98c62 0 83 45 84 108H66c0 31 8 55 39 56 18 0 30-7 34-22zm-45-69c5-46-57-63-70-21-2 6-4 13-4 21h74" id="I"/><g id="a"><use transform="matrix(0.05,0,0,0.05,0,0)" xlink:href="#A"/><use transform="matrix(0.05,0,0,0.05,10,0)" xlink:href="#B"/><use transform="matrix(0.05,0,0,0.05,20,0)" xlink:href="#C"/><use transform="matrix(0.05,0,0,0.05,30.950000000000003,0)" xlink:href="#D"/><use transform="matrix(0.05,0,0,0.05,41.900000000000006,0)" xlink:href="#E"/><use transform="matrix(0.05,0,0,0.05,53.900000000000006,0)" xlink:href="#C"/><use transform="matrix(0.05,0,0,0.05,64.85000000000001,0)" xlink:href="#F"/><use transform="matrix(0.05,0,0,0.05,75.80000000000001,0)" xlink:href="#G"/><use transform="matrix(0.05,0,0,0.05,82.80000000000001,0)" xlink:href="#H"/><use transform="matrix(0.05,0,0,0.05,92.80000000000001,0)" xlink:href="#I"/></g><path d="M67-125c0 53 21 87 73 88 37 1 54-22 65-47l45 17C233-25 199 4 140 4 58 4 20-42 15-125 8-235 124-281 211-232c18 10 29 29 36 50l-46 12c-8-25-30-41-62-41-52 0-71 34-72 86" id="J"/><path d="M128 0H69L1-190h53L99-40l48-150h52" id="K"/><g id="b"><use transform="matrix(0.05,0,0,0.05,0,0)" xlink:href="#J"/><use transform="matrix(0.05,0,0,0.05,12.950000000000001,0)" xlink:href="#B"/><use transform="matrix(0.05,0,0,0.05,22.950000000000003,0)" xlink:href="#K"/><use transform="matrix(0.05,0,0,0.05,32.95,0)" xlink:href="#E"/><use transform="matrix(0.05,0,0,0.05,44.95,0)" xlink:href="#C"/><use transform="matrix(0.05,0,0,0.05,55.900000000000006,0)" xlink:href="#F"/><use transform="matrix(0.05,0,0,0.05,66.85000000000001,0)" xlink:href="#G"/><use transform="matrix(0.05,0,0,0.05,73.85000000000001,0)" xlink:href="#H"/><use transform="matrix(0.05,0,0,0.05,83.85000000000001,0)" xlink:href="#I"/></g><path d="M146-102V0H94v-102L6-248h54l60 105 60-105h54" id="L"/><path d="M133-34C117-15 103 5 69 4 32 3 11-16 11-54c-1-60 55-63 116-61 1-26-3-47-28-47-18 1-26 9-28 27l-52-2c7-38 36-58 82-57s74 22 75 68l1 82c-1 14 12 18 25 15v27c-30 8-71 5-69-32zm-48 3c29 0 43-24 42-57-32 0-66-3-65 30 0 17 8 27 23 27" id="M"/><path d="M220-157c-53 9-28 100-34 157h-49v-107c1-27-5-49-29-50C55-147 81-57 75 0H25l-1-190h47c2 12-1 28 3 38 10-53 101-56 108 0 13-22 24-43 59-42 82 1 51 116 57 194h-49v-107c-1-25-5-48-29-50" id="N"/><path d="M25 0v-261h50V0H25" id="O"/><g id="c"><use transform="matrix(0.05,0,0,0.05,0,0)" xlink:href="#L"/><use transform="matrix(0.05,0,0,0.05,11,0)" xlink:href="#M"/><use transform="matrix(0.05,0,0,0.05,21,0)" xlink:href="#N"/><use transform="matrix(0.05,0,0,0.05,37,0)" xlink:href="#O"/><use transform="matrix(0.05,0,0,0.05,42,0)" xlink:href="#E"/><use transform="matrix(0.05,0,0,0.05,54,0)" xlink:href="#C"/><use transform="matrix(0.05,0,0,0.05,64.95,0)" xlink:href="#F"/><use transform="matrix(0.05,0,0,0.05,75.9,0)" xlink:href="#G"/><use transform="matrix(0.05,0,0,0.05,82.9,0)" xlink:href="#H"/><use transform="matrix(0.05,0,0,0.05,92.9,0)" xlink:href="#I"/></g><path d="M15-91v-56l181-69v40L49-119l147 57v40" id="P"/><path d="M135-194c52 0 70 43 70 98 0 56-19 99-73 100-30 1-46-15-58-35L72 0H24l1-261h50v104c11-23 29-37 60-37zM114-30c31 0 40-27 40-66 0-37-7-63-39-63s-41 28-41 65c0 36 8 64 40 64" id="Q"/><path d="M115-3C79 11 28 4 28-45v-112H4v-33h27l15-45h31v45h36v33H77v99c-1 23 16 31 38 25v30" id="R"/><path d="M15-22v-40l146-57-146-57v-40l181 69v56" id="S"/><g id="d"><use transform="matrix(0.05,0,0,0.05,0,0)" xlink:href="#P"/><use transform="matrix(0.05,0,0,0.05,10.5,0)" xlink:href="#P"/><use transform="matrix(0.05,0,0,0.05,21,0)" xlink:href="#M"/><use transform="matrix(0.05,0,0,0.05,31,0)" xlink:href="#Q"/><use transform="matrix(0.05,0,0,0.05,41.95,0)" xlink:href="#B"/><use transform="matrix(0.05,0,0,0.05,51.95,0)" xlink:href="#R"/><use transform="matrix(0.05,0,0,0.05,57.900000000000006,0)" xlink:href="#G"/><use transform="matrix(0.05,0,0,0.05,64.9,0)" xlink:href="#M"/><use transform="matrix(0.05,0,0,0.05,74.9,0)" xlink:href="#H"/><use transform="matrix(0.05,0,0,0.05,84.9,0)" xlink:href="#R"/><use transform="matrix(0.05,0,0,0.05,90.85000000000001,0)" xlink:href="#S"/><use transform="matrix(0.05,0,0,0.05,101.35000000000001,0)" xlink:href="#S"/></g><path d="M157-208L117 0H65l40-208H25l8-40h212l-8 40h-80" id="T"/><path d="M166-52c-4 17 5 29 24 23l-3 27c-30 11-74 1-67-34C105-15 91 4 56 4 23 4 3-15 2-49c0-64 63-67 128-67 10-22 3-53-29-45-13 3-22 10-25 24l-46-5c5-64 156-77 153 0-1 33-11 60-17 90zM97-88c-44-9-64 57-19 57 31 0 42-28 47-57H97" id="U"/><path d="M87-160c15-17 32-34 63-34 99 1 59 172-1 192-36 12-78 0-87-29L54 0H6l52-261h49zm71 38c0-24-5-37-29-37-46 0-55 46-57 89-1 25 12 40 35 40 44 0 51-50 51-92" id="V"/><path d="M6 0l51-261h49L55 0H6" id="W"/><path d="M114-194c63-2 87 48 72 110H63c-3 28 1 55 31 54 21-1 32-13 37-29l44 13C160-14 137 4 91 4 41 4 11-22 11-73c0-71 33-119 103-121zm30 77c14-47-50-61-67-22-3 6-6 13-8 22h75" id="X"/><path d="M178-136c88 48 22 151-73 140C49-3 12-15 4-64l51-9c1 50 111 53 115 3-16-63-132-20-133-112 0-93 190-91 199-10l-50 12c-4-41-93-50-97-4 7 38 59 32 89 48" id="Y"/><path d="M124-194c51 0 84 22 84 74C207-44 167 4 94 4 43 4 11-23 11-74c0-74 41-120 113-120zM99-30c46 0 58-42 58-86 0-27-11-44-37-44-44 0-55 40-57 84-1 27 10 45 36 46" id="Z"/><path d="M69 3c-96 0-34-126-28-193h49L65-57c6 42 62 18 71-6 14-38 17-86 28-127h50L178 0h-47c0-11 4-26 3-33-14 20-30 37-65 36" id="aa"/><path d="M84-151c13-25 34-51 72-40l-8 41C67-170 71-64 56 0H6l36-190h47" id="ab"/><path d="M67-101c-8 29-7 73 27 71 23-2 32-16 39-37l48 9C170-19 141 4 91 4 36 4 7-28 12-86c6-75 61-124 140-103 26 7 40 29 43 59l-50 4c-1-20-9-34-29-34-35 0-41 29-49 59" id="ac"/><g id="e"><use transform="matrix(0.05,0,0,0.05,0,0)" xlink:href="#T"/><use transform="matrix(0.05,0,0,0.05,10.3,0)" xlink:href="#U"/><use transform="matrix(0.05,0,0,0.05,20.3,0)" xlink:href="#V"/><use transform="matrix(0.05,0,0,0.05,31.25,0)" xlink:href="#W"/><use transform="matrix(0.05,0,0,0.05,36.25,0)" xlink:href="#X"/><use transform="matrix(0.05,0,0,0.05,46.25,0)" xlink:href="#Y"/><use transform="matrix(0.05,0,0,0.05,58.25,0)" xlink:href="#Z"/><use transform="matrix(0.05,0,0,0.05,69.2,0)" xlink:href="#aa"/><use transform="matrix(0.05,0,0,0.05,80.15,0)" xlink:href="#ab"/><use transform="matrix(0.05,0,0,0.05,87.15,0)" xlink:href="#ac"/><use transform="matrix(0.05,0,0,0.05,97.15,0)" xlink:href="#X"/></g><path fill="#3a414a" d="M158-156l-14 65h45v19h-49L124 0h-19l15-72H56L41 0H22l15-72H2v-19h39l14-65H11v-19h48l15-71h20l-16 71h64l16-71h19l-16 71h37v19h-40zm-83 0L61-91h63l14-65H75" id="ad"/><use transform="matrix(0.06172839506172839,0,0,0.06172839506172839,0,0)" xlink:href="#ad" id="g"/><path fill="#660e7a" d="M135-194c87-1 58 113 63 194h-50c-7-57 23-157-34-157-59 0-34 97-39 157H25l-1-190h47c2 12-1 28 3 38 12-26 28-41 61-42" id="ae"/><path fill="#660e7a" d="M133-34C117-15 103 5 69 4 32 3 11-16 11-54c-1-60 55-63 116-61 1-26-3-47-28-47-18 1-26 9-28 27l-52-2c7-38 36-58 82-57s74 22 75 68l1 82c-1 14 12 18 25 15v27c-30 8-71 5-69-32zm-48 3c29 0 43-24 42-57-32 0-66-3-65 30 0 17 8 27 23 27" id="af"/><path fill="#660e7a" d="M220-157c-53 9-28 100-34 157h-49v-107c1-27-5-49-29-50C55-147 81-57 75 0H25l-1-190h47c2 12-1 28 3 38 10-53 101-56 108 0 13-22 24-43 59-42 82 1 51 116 57 194h-49v-107c-1-25-5-48-29-50" id="ag"/><path fill="#660e7a" d="M185-48c-13 30-37 53-82 52C43 2 14-33 14-96s30-98 90-98c62 0 83 45 84 108H66c0 31 8 55 39 56 18 0 30-7 34-22zm-45-69c5-46-57-63-70-21-2 6-4 13-4 21h74" id="ah"/><g id="h"><use transform="matrix(0.05925925925925927,0,0,0.05925925925925927,0,0)" xlink:href="#ae"/><use transform="matrix(0.05925925925925927,0,0,0.05925925925925927,12.97777777777778,0)" xlink:href="#af"/><use transform="matrix(0.05925925925925927,0,0,0.05925925925925927,24.829629629629633,0)" xlink:href="#ag"/><use transform="matrix(0.05925925925925927,0,0,0.05925925925925927,43.7925925925926,0)" xlink:href="#ah"/></g><path fill="#383838" d="M35-132v-50h50v50H35zM35 0v-49h50V0H35" id="ai"/><use transform="matrix(0.059259259259259255,0,0,0.059259259259259255,0,0)" xlink:href="#ai" id="i"/><path fill="#8c6c41" d="M185-189c-5-48-123-54-124 2 14 75 158 14 163 119 3 78-121 87-175 55-17-10-28-26-33-46l33-7c5 56 141 63 141-1 0-78-155-14-162-118-5-82 145-84 179-34 5 7 8 16 11 25" id="aj"/><path fill="#8c6c41" d="M59-47c-2 24 18 29 38 22v24C64 9 27 4 27-40v-127H5v-23h24l9-43h21v43h35v23H59v120" id="ak"/><path fill="#8c6c41" d="M114-163C36-179 61-72 57 0H25l-1-190h30c1 12-1 29 2 39 6-27 23-49 58-41v29" id="al"/><path fill="#8c6c41" d="M24-231v-30h32v30H24zM24 0v-190h32V0H24" id="am"/><path fill="#8c6c41" d="M117-194c89-4 53 116 60 194h-32v-121c0-31-8-49-39-48C34-167 62-67 57 0H25l-1-190h30c1 10-1 24 2 32 11-22 29-35 61-36" id="an"/><path fill="#8c6c41" d="M177-190C167-65 218 103 67 71c-23-6-38-20-44-43l32-5c15 47 100 32 89-28v-30C133-14 115 1 83 1 29 1 15-40 15-95c0-56 16-97 71-98 29-1 48 16 59 35 1-10 0-23 2-32h30zM94-22c36 0 50-32 50-73 0-42-14-75-50-75-39 0-46 34-46 75s6 73 46 73" id="ao"/><g id="j"><use transform="matrix(0.059259259259259255,0,0,0.059259259259259255,0,0)" xlink:href="#aj"/><use transform="matrix(0.059259259259259255,0,0,0.059259259259259255,14.222222222222221,0)" xlink:href="#ak"/><use transform="matrix(0.059259259259259255,0,0,0.059259259259259255,20.148148148148145,0)" xlink:href="#al"/><use transform="matrix(0.059259259259259255,0,0,0.059259259259259255,27.199999999999996,0)" xlink:href="#am"/><use transform="matrix(0.059259259259259255,0,0,0.059259259259259255,31.88148148148148,0)" xlink:href="#an"/><use transform="matrix(0.059259259259259255,0,0,0.059259259259259255,43.73333333333333,0)" xlink:href="#ao"/></g><path fill="#660e7a" d="M121-226c-27-7-43 5-38 36h38v33H83V0H34v-157H6v-33h28c-9-59 32-81 87-68v32" id="ap"/><path fill="#660e7a" d="M25-224v-37h50v37H25zM25 0v-190h50V0H25" id="aq"/><path fill="#660e7a" d="M25 0v-261h50V0H25" id="ar"/><path fill="#660e7a" d="M137-138c1-29-70-34-71-4 15 46 118 7 119 86 1 83-164 76-172 9l43-7c4 19 20 25 44 25 33 8 57-30 24-41C81-84 22-81 20-136c-2-80 154-74 161-7" id="as"/><g id="k"><use transform="matrix(0.05925925925925927,0,0,0.05925925925925927,0,0)" xlink:href="#ap"/><use transform="matrix(0.05925925925925927,0,0,0.05925925925925927,7.051851851851853,0)" xlink:href="#aq"/><use transform="matrix(0.05925925925925927,0,0,0.05925925925925927,12.97777777777778,0)" xlink:href="#ar"/><use transform="matrix(0.05925925925925927,0,0,0.05925925925925927,18.903703703703705,0)" xlink:href="#ah"/><use transform="matrix(0.05925925925925927,0,0,0.05925925925925927,30.75555555555556,0)" xlink:href="#as"/></g><path fill="#8c6c41" d="M30 0v-248h33v221h125V0H30" id="at"/><path fill="#8c6c41" d="M135-143c-3-34-86-38-87 0 15 53 115 12 119 90S17 21 10-45l28-5c4 36 97 45 98 0-10-56-113-15-118-90-4-57 82-63 122-42 12 7 21 19 24 35" id="au"/><path fill="#383838" d="M18-100v-36l175-74v27L42-118l151 64v27" id="av"/><path fill="#383838" d="M18-27v-27l151-64-151-65v-27l175 74v36" id="aw"/><g id="l"><use transform="matrix(0.059259259259259255,0,0,0.059259259259259255,0,0)" xlink:href="#at"/><use transform="matrix(0.059259259259259255,0,0,0.059259259259259255,11.851851851851851,0)" xlink:href="#am"/><use transform="matrix(0.059259259259259255,0,0,0.059259259259259255,16.53333333333333,0)" xlink:href="#au"/><use transform="matrix(0.059259259259259255,0,0,0.059259259259259255,27.199999999999996,0)" xlink:href="#ak"/><use transform="matrix(0.059259259259259255,0,0,0.059259259259259255,33.12592592592592,0)" xlink:href="#av"/><use transform="matrix(0.059259259259259255,0,0,0.059259259259259255,45.57037037037036,0)" xlink:href="#aj"/><use transform="matrix(0.059259259259259255,0,0,0.059259259259259255,59.792592592592584,0)" xlink:href="#ak"/><use transform="matrix(0.059259259259259255,0,0,0.059259259259259255,65.71851851851851,0)" xlink:href="#al"/><use transform="matrix(0.059259259259259255,0,0,0.059259259259259255,72.77037037037036,0)" xlink:href="#am"/><use transform="matrix(0.059259259259259255,0,0,0.059259259259259255,77.45185185185184,0)" xlink:href="#an"/><use transform="matrix(0.059259259259259255,0,0,0.059259259259259255,89.30370370370369,0)" xlink:href="#ao"/><use transform="matrix(0.059259259259259255,0,0,0.059259259259259255,101.15555555555554,0)" xlink:href="#aw"/></g><path fill="#6b2fba" d="M177-190C167-65 218 103 67 71c-23-6-38-20-44-43l32-5c15 47 100 32 89-28v-30C133-14 115 1 83 1 29 1 15-40 15-95c0-56 16-97 71-98 29-1 48 16 59 35 1-10 0-23 2-32h30zM94-22c36 0 50-32 50-73 0-42-14-75-50-75-39 0-46 34-46 75s6 73 46 73" id="ax"/><path fill="#6b2fba" d="M100-194c63 0 86 42 84 106H49c0 40 14 67 53 68 26 1 43-12 49-29l28 8c-11 28-37 45-77 45C44 4 14-33 15-96c1-61 26-98 85-98zm52 81c6-60-76-77-97-28-3 7-6 17-6 28h103" id="ay"/><path fill="#6b2fba" d="M59-47c-2 24 18 29 38 22v24C64 9 27 4 27-40v-127H5v-23h24l9-43h21v43h35v23H59v120" id="az"/><path fill="#6b2fba" d="M233-177c-1 41-23 64-60 70L243 0h-38l-65-103H63V0H30v-248c88 3 205-21 203 71zM63-129c60-2 137 13 137-47 0-61-80-42-137-45v92" id="aA"/><path fill="#6b2fba" d="M135-143c-3-34-86-38-87 0 15 53 115 12 119 90S17 21 10-45l28-5c4 36 97 45 98 0-10-56-113-15-118-90-4-57 82-63 122-42 12 7 21 19 24 35" id="aB"/><path fill="#6b2fba" d="M100-194c62-1 85 37 85 99 1 63-27 99-86 99S16-35 15-95c0-66 28-99 85-99zM99-20c44 1 53-31 53-75 0-43-8-75-51-75s-53 32-53 75 10 74 51 75" id="aC"/><path fill="#6b2fba" d="M84 4C-5 8 30-112 23-190h32v120c0 31 7 50 39 49 72-2 45-101 50-169h31l1 190h-30c-1-10 1-25-2-33-11 22-28 36-60 37" id="aD"/><path fill="#6b2fba" d="M114-163C36-179 61-72 57 0H25l-1-190h30c1 12-1 29 2 39 6-27 23-49 58-41v29" id="aE"/><path fill="#6b2fba" d="M96-169c-40 0-48 33-48 73s9 75 48 75c24 0 41-14 43-38l32 2c-6 37-31 61-74 61-59 0-76-41-82-99-10-93 101-131 147-64 4 7 5 14 7 22l-32 3c-4-21-16-35-41-35" id="aF"/><path fill="#6b2fba" d="M30-248c87 1 191-15 191 75 0 78-77 80-158 76V0H30v-248zm33 125c57 0 124 11 124-50 0-59-68-47-124-48v98" id="aG"/><path fill="#6b2fba" d="M141-36C126-15 110 5 73 4 37 3 15-17 15-53c-1-64 63-63 125-63 3-35-9-54-41-54-24 1-41 7-42 31l-33-3c5-37 33-52 76-52 45 0 72 20 72 64v82c-1 20 7 32 28 27v20c-31 9-61-2-59-35zM48-53c0 20 12 33 32 33 41-3 63-29 60-74-43 2-92-5-92 41" id="aH"/><path fill="#383838" d="M67-93c0 74 22 123 53 168H70C40 30 18-18 18-93s22-123 52-168h50c-32 44-53 94-53 168" id="aI"/><path fill="#383838" d="M102-93c0 74-22 123-52 168H0C30 29 54-18 53-93c0-74-22-123-53-168h50c30 45 52 94 52 168" id="aJ"/><g id="n"><use transform="matrix(0.05925925925925927,0,0,0.05925925925925927,0,0)" xlink:href="#ax"/><use transform="matrix(0.05925925925925927,0,0,0.05925925925925927,11.851851851851853,0)" xlink:href="#ay"/><use transform="matrix(0.05925925925925927,0,0,0.05925925925925927,23.703703703703706,0)" xlink:href="#az"/><use transform="matrix(0.05925925925925927,0,0,0.05925925925925927,29.629629629629633,0)" xlink:href="#aA"/><use transform="matrix(0.05925925925925927,0,0,0.05925925925925927,44.97777777777778,0)" xlink:href="#ay"/><use transform="matrix(0.05925925925925927,0,0,0.05925925925925927,56.829629629629636,0)" xlink:href="#aB"/><use transform="matrix(0.05925925925925927,0,0,0.05925925925925927,67.49629629629631,0)" xlink:href="#aC"/><use transform="matrix(0.05925925925925927,0,0,0.05925925925925927,79.34814814814816,0)" xlink:href="#aD"/><use transform="matrix(0.05925925925925927,0,0,0.05925925925925927,91.2,0)" xlink:href="#aE"/><use transform="matrix(0.05925925925925927,0,0,0.05925925925925927,98.25185185185185,0)" xlink:href="#aF"/><use transform="matrix(0.05925925925925927,0,0,0.05925925925925927,108.91851851851852,0)" xlink:href="#ay"/><use transform="matrix(0.05925925925925927,0,0,0.05925925925925927,120.77037037037037,0)" xlink:href="#aG"/><use transform="matrix(0.05925925925925927,0,0,0.05925925925925927,134.9925925925926,0)" xlink:href="#aH"/><use transform="matrix(0.05925925925925927,0,0,0.05925925925925927,146.84444444444443,0)" xlink:href="#aE"/><use transform="matrix(0.05925925925925927,0,0,0.05925925925925927,153.8962962962963,0)" xlink:href="#aB"/><use transform="matrix(0.05925925925925927,0,0,0.05925925925925927,164.56296296296296,0)" xlink:href="#ay"/><use transform="matrix(0.05925925925925927,0,0,0.05925925925925927,176.4148148148148,0)" xlink:href="#aE"/><use transform="matrix(0.05925925925925927,0,0,0.05925925925925927,183.46666666666667,0)" xlink:href="#aI"/><use transform="matrix(0.05925925925925927,0,0,0.05925925925925927,190.51851851851853,0)" xlink:href="#aJ"/></g><use transform="matrix(0.059259259259259255,0,0,0.059259259259259255,0,0)" xlink:href="#ai" id="o"/><path fill="#8c6c41" d="M233-177c-1 41-23 64-60 70L243 0h-38l-65-103H63V0H30v-248c88 3 205-21 203 71zM63-129c60-2 137 13 137-47 0-61-80-42-137-45v92" id="aK"/><path fill="#8c6c41" d="M100-194c63 0 86 42 84 106H49c0 40 14 67 53 68 26 1 43-12 49-29l28 8c-11 28-37 45-77 45C44 4 14-33 15-96c1-61 26-98 85-98zm52 81c6-60-76-77-97-28-3 7-6 17-6 28h103" id="aL"/><path fill="#8c6c41" d="M100-194c62-1 85 37 85 99 1 63-27 99-86 99S16-35 15-95c0-66 28-99 85-99zM99-20c44 1 53-31 53-75 0-43-8-75-51-75s-53 32-53 75 10 74 51 75" id="aM"/><path fill="#8c6c41" d="M84 4C-5 8 30-112 23-190h32v120c0 31 7 50 39 49 72-2 45-101 50-169h31l1 190h-30c-1-10 1-25-2-33-11 22-28 36-60 37" id="aN"/><path fill="#8c6c41" d="M96-169c-40 0-48 33-48 73s9 75 48 75c24 0 41-14 43-38l32 2c-6 37-31 61-74 61-59 0-76-41-82-99-10-93 101-131 147-64 4 7 5 14 7 22l-32 3c-4-21-16-35-41-35" id="aO"/><path fill="#8c6c41" d="M30-248c87 1 191-15 191 75 0 78-77 80-158 76V0H30v-248zm33 125c57 0 124 11 124-50 0-59-68-47-124-48v98" id="aP"/><path fill="#8c6c41" d="M141-36C126-15 110 5 73 4 37 3 15-17 15-53c-1-64 63-63 125-63 3-35-9-54-41-54-24 1-41 7-42 31l-33-3c5-37 33-52 76-52 45 0 72 20 72 64v82c-1 20 7 32 28 27v20c-31 9-61-2-59-35zM48-53c0 20 12 33 32 33 41-3 63-29 60-74-43 2-92-5-92 41" id="aQ"/><g id="p"><use transform="matrix(0.05925925925925927,0,0,0.05925925925925927,0,0)" xlink:href="#aK"/><use transform="matrix(0.05925925925925927,0,0,0.05925925925925927,15.34814814814815,0)" xlink:href="#aL"/><use transform="matrix(0.05925925925925927,0,0,0.05925925925925927,27.200000000000003,0)" xlink:href="#au"/><use transform="matrix(0.05925925925925927,0,0,0.05925925925925927,37.866666666666674,0)" xlink:href="#aM"/><use transform="matrix(0.05925925925925927,0,0,0.05925925925925927,49.71851851851853,0)" xlink:href="#aN"/><use transform="matrix(0.05925925925925927,0,0,0.05925925925925927,61.57037037037038,0)" xlink:href="#al"/><use transform="matrix(0.05925925925925927,0,0,0.05925925925925927,68.62222222222223,0)" xlink:href="#aO"/><use transform="matrix(0.05925925925925927,0,0,0.05925925925925927,79.2888888888889,0)" xlink:href="#aL"/><use transform="matrix(0.05925925925925927,0,0,0.05925925925925927,91.14074074074075,0)" xlink:href="#aP"/><use transform="matrix(0.05925925925925927,0,0,0.05925925925925927,105.36296296296298,0)" xlink:href="#aQ"/><use transform="matrix(0.05925925925925927,0,0,0.05925925925925927,117.21481481481483,0)" xlink:href="#al"/><use transform="matrix(0.05925925925925927,0,0,0.05925925925925927,124.26666666666668,0)" xlink:href="#au"/><use transform="matrix(0.05925925925925927,0,0,0.05925925925925927,134.93333333333334,0)" xlink:href="#aL"/><use transform="matrix(0.05925925925925927,0,0,0.05925925925925927,146.78518518518518,0)" xlink:href="#al"/></g><path d="M136-208V0H84v-208H4v-40h212v40h-80" id="aR"/><g id="q"><use transform="matrix(0.05,0,0,0.05,0,0)" xlink:href="#aR"/><use transform="matrix(0.05,0,0,0.05,9.600000000000001,0)" xlink:href="#B"/><use transform="matrix(0.05,0,0,0.05,19.6,0)" xlink:href="#K"/><use transform="matrix(0.05,0,0,0.05,29.6,0)" xlink:href="#E"/><use transform="matrix(0.05,0,0,0.05,41.6,0)" xlink:href="#C"/><use transform="matrix(0.05,0,0,0.05,52.550000000000004,0)" xlink:href="#F"/><use transform="matrix(0.05,0,0,0.05,63.5,0)" xlink:href="#G"/><use transform="matrix(0.05,0,0,0.05,70.5,0)" xlink:href="#H"/><use transform="matrix(0.05,0,0,0.05,80.5,0)" xlink:href="#I"/></g><path d="M182 0l-62-99L58 0H3l86-130-79-118h55l55 88 55-88h55l-75 118L237 0h-55" id="aS"/><g id="r"><use transform="matrix(0.05,0,0,0.05,0,0)" xlink:href="#aS"/><use transform="matrix(0.05,0,0,0.05,12,0)" xlink:href="#N"/><use transform="matrix(0.05,0,0,0.05,28,0)" xlink:href="#O"/><use transform="matrix(0.05,0,0,0.05,33,0)" xlink:href="#E"/><use transform="matrix(0.05,0,0,0.05,45,0)" xlink:href="#C"/><use transform="matrix(0.05,0,0,0.05,55.95,0)" xlink:href="#F"/><use transform="matrix(0.05,0,0,0.05,66.9,0)" xlink:href="#G"/><use transform="matrix(0.05,0,0,0.05,73.9,0)" xlink:href="#H"/><use transform="matrix(0.05,0,0,0.05,83.9,0)" xlink:href="#I"/></g><path d="M114-157C55-157 80-60 75 0H25v-261h50l-1 109c12-26 28-41 61-42 86-1 58 113 63 194h-50c-7-57 23-157-34-157" id="aT"/><g id="s"><use transform="matrix(0.05,0,0,0.05,0,0)" xlink:href="#aR"/><use transform="matrix(0.05,0,0,0.05,9.600000000000001,0)" xlink:href="#M"/><use transform="matrix(0.05,0,0,0.05,19.6,0)" xlink:href="#Q"/><use transform="matrix(0.05,0,0,0.05,30.55,0)" xlink:href="#O"/><use transform="matrix(0.05,0,0,0.05,35.550000000000004,0)" xlink:href="#I"/><use transform="matrix(0.05,0,0,0.05,45.550000000000004,0)" xlink:href="#E"/><use transform="matrix(0.05,0,0,0.05,57.550000000000004,0)" xlink:href="#H"/><use transform="matrix(0.05,0,0,0.05,67.55000000000001,0)" xlink:href="#aT"/><use transform="matrix(0.05,0,0,0.05,78.50000000000001,0)" xlink:href="#I"/><use transform="matrix(0.05,0,0,0.05,88.50000000000001,0)" xlink:href="#N"/><use transform="matrix(0.05,0,0,0.05,104.5,0)" xlink:href="#M"/></g><path fill="#3a414a" d="M118-107v75H92v-75H18v-26h74v-75h26v75h74v26h-74" id="aU"/><use transform="matrix(0.06172839506172839,0,0,0.06172839506172839,0,0)" xlink:href="#aU" id="t"/><path fill="#660e7a" d="M190-63c-7 42-38 67-86 67-59 0-84-38-90-98-12-110 154-137 174-36l-49 2c-2-19-15-32-35-32-30 0-35 28-38 64-6 74 65 87 74 30" id="aV"/><path fill="#660e7a" d="M110-194c64 0 96 36 96 99 0 64-35 99-97 99-61 0-95-36-95-99 0-62 34-99 96-99zm-1 164c35 0 45-28 45-65 0-40-10-65-43-65-34 0-45 26-45 65 0 36 10 65 43 65" id="aW"/><path fill="#660e7a" d="M85 4C-2 5 27-109 22-190h50c7 57-23 150 33 157 60-5 35-97 40-157h50l1 190h-47c-2-12 1-28-3-38-12 25-28 42-61 42" id="aX"/><g id="u"><use transform="matrix(0.05925925925925927,0,0,0.05925925925925927,0,0)" xlink:href="#aV"/><use transform="matrix(0.05925925925925927,0,0,0.05925925925925927,11.851851851851853,0)" xlink:href="#aW"/><use transform="matrix(0.05925925925925927,0,0,0.05925925925925927,24.829629629629633,0)" xlink:href="#ar"/><use transform="matrix(0.05925925925925927,0,0,0.05925925925925927,30.75555555555556,0)" xlink:href="#aX"/><use transform="matrix(0.05925925925925927,0,0,0.05925925925925927,43.73333333333334,0)" xlink:href="#ag"/><use transform="matrix(0.05925925925925927,0,0,0.05925925925925927,62.6962962962963,0)" xlink:href="#ae"/><use transform="matrix(0.05925925925925927,0,0,0.05925925925925927,75.67407407407408,0)" xlink:href="#as"/></g><path fill="#8c6c41" d="M212-179c-10-28-35-45-73-45-59 0-87 40-87 99 0 60 29 101 89 101 43 0 62-24 78-52l27 14C228-24 195 4 139 4 59 4 22-46 18-125c-6-104 99-153 187-111 19 9 31 26 39 46" id="aY"/><path fill="#8c6c41" d="M24 0v-261h32V0H24" id="aZ"/><path fill="#8c6c41" d="M210-169c-67 3-38 105-44 169h-31v-121c0-29-5-50-35-48C34-165 62-65 56 0H25l-1-190h30c1 10-1 24 2 32 10-44 99-50 107 0 11-21 27-35 58-36 85-2 47 119 55 194h-31v-121c0-29-5-49-35-48" id="ba"/><path fill="#8c6c41" d="M106-169C34-169 62-67 57 0H25v-261h32l-1 103c12-21 28-36 61-36 89 0 53 116 60 194h-32v-121c2-32-8-49-39-48" id="bb"/><g id="v"><use transform="matrix(0.059259259259259255,0,0,0.059259259259259255,0,0)" xlink:href="#at"/><use transform="matrix(0.059259259259259255,0,0,0.059259259259259255,11.851851851851851,0)" xlink:href="#am"/><use transform="matrix(0.059259259259259255,0,0,0.059259259259259255,16.53333333333333,0)" xlink:href="#au"/><use transform="matrix(0.059259259259259255,0,0,0.059259259259259255,27.199999999999996,0)" xlink:href="#ak"/><use transform="matrix(0.059259259259259255,0,0,0.059259259259259255,33.12592592592592,0)" xlink:href="#av"/><use transform="matrix(0.059259259259259255,0,0,0.059259259259259255,45.57037037037036,0)" xlink:href="#aY"/><use transform="matrix(0.059259259259259255,0,0,0.059259259259259255,60.91851851851851,0)" xlink:href="#aM"/><use transform="matrix(0.059259259259259255,0,0,0.059259259259259255,72.77037037037036,0)" xlink:href="#aZ"/><use transform="matrix(0.059259259259259255,0,0,0.059259259259259255,77.45185185185184,0)" xlink:href="#aN"/><use transform="matrix(0.059259259259259255,0,0,0.059259259259259255,89.30370370370369,0)" xlink:href="#ba"/><use transform="matrix(0.059259259259259255,0,0,0.059259259259259255,107.02222222222221,0)" xlink:href="#an"/><use transform="matrix(0.059259259259259255,0,0,0.059259259259259255,118.87407407407406,0)" xlink:href="#aj"/><use transform="matrix(0.059259259259259255,0,0,0.059259259259259255,133.0962962962963,0)" xlink:href="#aO"/><use transform="matrix(0.059259259259259255,0,0,0.059259259259259255,143.76296296296294,0)" xlink:href="#bb"/><use transform="matrix(0.059259259259259255,0,0,0.059259259259259255,155.6148148148148,0)" xlink:href="#aL"/><use transform="matrix(0.059259259259259255,0,0,0.059259259259259255,167.46666666666664,0)" xlink:href="#ba"/><use transform="matrix(0.059259259259259255,0,0,0.059259259259259255,185.18518518518516,0)" xlink:href="#aQ"/><use transform="matrix(0.059259259259259255,0,0,0.059259259259259255,197.037037037037,0)" xlink:href="#aw"/></g><path fill="#660e7a" d="M135-150c-39-12-60 13-60 57V0H25l-1-190h47c2 13-1 29 3 40 6-28 27-53 61-41v41" id="bc"/><g id="w"><use transform="matrix(0.05925925925925927,0,0,0.05925925925925927,0,0)" xlink:href="#as"/><use transform="matrix(0.05925925925925927,0,0,0.05925925925925927,11.851851851851853,0)" xlink:href="#aW"/><use transform="matrix(0.05925925925925927,0,0,0.05925925925925927,24.829629629629633,0)" xlink:href="#aX"/><use transform="matrix(0.05925925925925927,0,0,0.05925925925925927,37.80740740740741,0)" xlink:href="#bc"/><use transform="matrix(0.05925925925925927,0,0,0.05925925925925927,46.10370370370371,0)" xlink:href="#aV"/><use transform="matrix(0.05925925925925927,0,0,0.05925925925925927,57.95555555555556,0)" xlink:href="#ah"/></g><g id="x"><use transform="matrix(0.05,0,0,0.05,0,0)" xlink:href="#J"/><use transform="matrix(0.05,0,0,0.05,12.950000000000001,0)" xlink:href="#C"/><use transform="matrix(0.05,0,0,0.05,23.900000000000002,0)" xlink:href="#O"/><use transform="matrix(0.05,0,0,0.05,28.900000000000002,0)" xlink:href="#F"/><use transform="matrix(0.05,0,0,0.05,39.85,0)" xlink:href="#N"/><use transform="matrix(0.05,0,0,0.05,55.85,0)" xlink:href="#D"/><use transform="matrix(0.05,0,0,0.05,66.8,0)" xlink:href="#E"/><use transform="matrix(0.05,0,0,0.05,78.8,0)" xlink:href="#H"/><use transform="matrix(0.05,0,0,0.05,88.8,0)" xlink:href="#aT"/><use transform="matrix(0.05,0,0,0.05,99.75,0)" xlink:href="#I"/><use transform="matrix(0.05,0,0,0.05,109.75,0)" xlink:href="#N"/><use transform="matrix(0.05,0,0,0.05,125.75,0)" xlink:href="#M"/></g><g id="y"><use transform="matrix(0.05925925925925927,0,0,0.05925925925925927,0,0)" xlink:href="#ap"/><use transform="matrix(0.05925925925925927,0,0,0.05925925925925927,7.051851851851853,0)" xlink:href="#bc"/><use transform="matrix(0.05925925925925927,0,0,0.05925925925925927,15.34814814814815,0)" xlink:href="#aW"/><use transform="matrix(0.05925925925925927,0,0,0.05925925925925927,28.32592592592593,0)" xlink:href="#ag"/></g><g id="z"><use transform="matrix(0.059259259259259255,0,0,0.059259259259259255,0,0)" xlink:href="#aj"/><use transform="matrix(0.059259259259259255,0,0,0.059259259259259255,14.222222222222221,0)" xlink:href="#ak"/><use transform="matrix(0.059259259259259255,0,0,0.059259259259259255,20.148148148148145,0)" xlink:href="#al"/><use transform="matrix(0.059259259259259255,0,0,0.059259259259259255,27.199999999999996,0)" xlink:href="#am"/><use transform="matrix(0.059259259259259255,0,0,0.059259259259259255,31.88148148148148,0)" xlink:href="#an"/><use transform="matrix(0.059259259259259255,0,0,0.059259259259259255,43.73333333333333,0)" xlink:href="#ao"/></g></defs></g></svg>