<svg xmlns="http://www.w3.org/2000/svg" xmlns:xlink="http://www.w3.org/1999/xlink" xmlns:lucid="lucid" width="1631" height="849.5"><g transform="translate(-1846.9999999931788 640.5000000041977)" lucid:page-tab-id="0_0"><path d="M-2000-1500h5500v3000h-5500z" fill="#fff"/><path d="M1907.5-174a6 6 0 0 1 6-6h348a6 6 0 0 1 6 6V75a6 6 0 0 1-6 6h-348a6 6 0 0 1-6-6z" stroke="#3a414a" fill="#fff"/><path d="M1907.5-142.4h360" stroke="#3a414a" fill="none"/><use xlink:href="#a" transform="matrix(1,0,0,1,1915.5,-172) translate(149.225 14.6)"/><use xlink:href="#b" transform="matrix(1,0,0,1,1919.5,-134.4) translate(0 68.44444444444446)"/><use xlink:href="#c" transform="matrix(1,0,0,1,1919.5,-134.4) translate(13.518518518518519 68.44444444444446)"/><use xlink:href="#d" transform="matrix(1,0,0,1,1919.5,-134.4) translate(75.0888888888889 68.44444444444446)"/><use xlink:href="#e" transform="matrix(1,0,0,1,1919.5,-134.4) translate(88.31358024691359 68.44444444444446)"/><use xlink:href="#b" transform="matrix(1,0,0,1,1919.5,-134.4) translate(0 95.11111111111111)"/><use xlink:href="#f" transform="matrix(1,0,0,1,1919.5,-134.4) translate(13.518518518518519 95.11111111111111)"/><use xlink:href="#d" transform="matrix(1,0,0,1,1919.5,-134.4) translate(107.21728395061729 95.11111111111111)"/><use xlink:href="#g" transform="matrix(1,0,0,1,1919.5,-134.4) translate(120.44197530864197 95.11111111111111)"/><use xlink:href="#b" transform="matrix(1,0,0,1,1919.5,-134.4) translate(0 121.77777777777777)"/><use xlink:href="#h" transform="matrix(1,0,0,1,1919.5,-134.4) translate(13.518518518518519 121.77777777777777)"/><use xlink:href="#d" transform="matrix(1,0,0,1,1919.5,-134.4) translate(69.40987654320989 121.77777777777777)"/><use xlink:href="#i" transform="matrix(1,0,0,1,1919.5,-134.4) translate(82.63456790123458 121.77777777777777)"/><use xlink:href="#b" transform="matrix(1,0,0,1,1919.5,-134.4) translate(0 148.44444444444446)"/><use xlink:href="#j" transform="matrix(1,0,0,1,1919.5,-134.4) translate(13.518518518518519 148.44444444444446)"/><use xlink:href="#d" transform="matrix(1,0,0,1,1919.5,-134.4) translate(89.49876543209876 148.44444444444446)"/><use xlink:href="#k" transform="matrix(1,0,0,1,1919.5,-134.4) translate(102.72345679012345 148.44444444444446)"/><path d="M3117.5-135a6 6 0 0 1 6-6h348a6 6 0 0 1 6 6V34a6 6 0 0 1-6 6h-348a6 6 0 0 1-6-6z" stroke="#3a414a" fill="#fff"/><path d="M3117.5-103.4h360" stroke="#3a414a" fill="none"/><use xlink:href="#l" transform="matrix(1,0,0,1,3125.5,-133) translate(148.525 14.6)"/><use xlink:href="#b" transform="matrix(1,0,0,1,3129.5,-95.4) translate(0 68.44444444444444)"/><use xlink:href="#m" transform="matrix(1,0,0,1,3129.5,-95.4) translate(13.518518518518519 68.44444444444444)"/><use xlink:href="#d" transform="matrix(1,0,0,1,3129.5,-95.4) translate(73.90370370370371 68.44444444444444)"/><use xlink:href="#n" transform="matrix(1,0,0,1,3129.5,-95.4) translate(87.1283950617284 68.44444444444444)"/><path d="M1847.5-634a6 6 0 0 1 6-6h468a6 6 0 0 1 6 6v288a6 6 0 0 1-6 6h-468a6 6 0 0 1-6-6z" stroke="#3a414a" fill="#fff"/><path d="M1847.5-580.8h480" stroke="#3a414a" fill="none"/><use xlink:href="#o" transform="matrix(1,0,0,1,1855.5,-632) translate(173.575 14.799999999999999)"/><use xlink:href="#p" transform="matrix(1,0,0,1,1855.5,-632) translate(206.725 36.4)"/><use xlink:href="#q" transform="matrix(1,0,0,1,1859.5,-572.8) translate(0 50.277777777777786)"/><use xlink:href="#r" transform="matrix(1,0,0,1,1859.5,-572.8) translate(19.135802469135797 50.277777777777786)"/><use xlink:href="#s" transform="matrix(1,0,0,1,1859.5,-572.8) translate(125.56543209876541 50.277777777777786)"/><use xlink:href="#t" transform="matrix(1,0,0,1,1859.5,-572.8) translate(138.5432098765432 50.277777777777786)"/><use xlink:href="#q" transform="matrix(1,0,0,1,1859.5,-572.8) translate(0 76.94444444444446)"/><use xlink:href="#u" transform="matrix(1,0,0,1,1859.5,-572.8) translate(19.135802469135797 76.94444444444446)"/><use xlink:href="#v" transform="matrix(1,0,0,1,1859.5,-572.8) translate(153.01234567901233 76.94444444444446)"/><use xlink:href="#w" transform="matrix(1,0,0,1,1859.5,-572.8) translate(166.23703703703703 76.94444444444446)"/><use xlink:href="#q" transform="matrix(1,0,0,1,1859.5,-572.8) translate(0 103.61111111111111)"/><use xlink:href="#x" transform="matrix(1,0,0,1,1859.5,-572.8) translate(19.135802469135797 103.61111111111111)"/><use xlink:href="#v" transform="matrix(1,0,0,1,1859.5,-572.8) translate(122.25679012345677 103.61111111111111)"/><use xlink:href="#y" transform="matrix(1,0,0,1,1859.5,-572.8) translate(135.48148148148147 103.61111111111111)"/><use xlink:href="#q" transform="matrix(1,0,0,1,1859.5,-572.8) translate(0 130.2777777777778)"/><use xlink:href="#z" transform="matrix(1,0,0,1,1859.5,-572.8) translate(19.135802469135797 130.2777777777778)"/><use xlink:href="#v" transform="matrix(1,0,0,1,1859.5,-572.8) translate(136.53827160493825 130.2777777777778)"/><use xlink:href="#A" transform="matrix(1,0,0,1,1859.5,-572.8) translate(149.76296296296294 130.2777777777778)"/><use xlink:href="#q" transform="matrix(1,0,0,1,1859.5,-572.8) translate(0 156.94444444444446)"/><use xlink:href="#B" transform="matrix(1,0,0,1,1859.5,-572.8) translate(19.135802469135797 156.94444444444446)"/><use xlink:href="#C" transform="matrix(1,0,0,1,1859.5,-572.8) translate(266.3654320987654 156.94444444444446)"/><use xlink:href="#D" transform="matrix(1,0,0,1,1859.5,-572.8) translate(279.34320987654314 156.94444444444446)"/><use xlink:href="#s" transform="matrix(1,0,0,1,1859.5,-572.8) translate(347.9061728395061 156.94444444444446)"/><use xlink:href="#E" transform="matrix(1,0,0,1,1859.5,-572.8) translate(360.88395061728386 156.94444444444446)"/><use xlink:href="#F" transform="matrix(1,0,0,1,1859.5,-572.8) translate(0 183.6111111111111)"/><use xlink:href="#G" transform="matrix(1,0,0,1,1859.5,-572.8) translate(18.888888888888886 183.6111111111111)"/><use xlink:href="#C" transform="matrix(1,0,0,1,1859.5,-572.8) translate(171.54074074074072 183.6111111111111)"/><use xlink:href="#H" transform="matrix(1,0,0,1,1859.5,-572.8) translate(184.5185185185185 183.6111111111111)"/><use xlink:href="#s" transform="matrix(1,0,0,1,1859.5,-572.8) translate(317.08148148148143 183.6111111111111)"/><use xlink:href="#I" transform="matrix(1,0,0,1,1859.5,-572.8) translate(330.0592592592592 183.6111111111111)"/><path d="M2087.5-181v-5.02m0-5.02v-10.03m0-5.02v-10.03m0-5.02v-10.03m0-5.02v-10.04m0-5.02v-10.04m0-5v-10.05m0-5.02v-10.04m0-5.03v-10.03m0-5.02v-5.02" stroke="#3a414a" fill="none"/><path d="M2088-180.5h-1v-.5h1z" stroke="#3a414a" stroke-width=".05" fill="#3a414a"/><path d="M2087.5-338.52l12.73 21.52h-25.46zM2557.5-313.5a6 6 0 0 1 6-6h318a6 6 0 0 1 6 6v169a6 6 0 0 1-6 6h-318a6 6 0 0 1-6-6z" stroke="#3a414a" fill="#fff"/><path d="M2557.5-281.9h330" stroke="#3a414a" fill="none"/><g><use xlink:href="#J" transform="matrix(1,0,0,1,2565.5,-311.50005) translate(138.05 14.6)"/></g><g><use xlink:href="#b" transform="matrix(1,0,0,1,2569.5,-273.90004999999996) translate(0 68.44444444444444)"/><use xlink:href="#K" transform="matrix(1,0,0,1,2569.5,-273.90004999999996) translate(13.518518518518519 68.44444444444444)"/><use xlink:href="#d" transform="matrix(1,0,0,1,2569.5,-273.90004999999996) translate(86.00246913580247 68.44444444444444)"/><use xlink:href="#L" transform="matrix(1,0,0,1,2569.5,-273.90004999999996) translate(99.22716049382716 68.44444444444444)"/></g><path d="M2557.5 6.5a6 6 0 0 1 6-6h318a6 6 0 0 1 6 6v196a6 6 0 0 1-6 6h-318a6 6 0 0 1-6-6z" stroke="#3a414a" fill="#fff"/><path d="M2557.5 38.1h330" stroke="#3a414a" fill="none"/><g><use xlink:href="#M" transform="matrix(1,0,0,1,2565.5,8.499950000000126) translate(123.6 14.6)"/></g><g><use xlink:href="#b" transform="matrix(1,0,0,1,2569.5,46.09995000000013) translate(0 68.61111111111111)"/><use xlink:href="#c" transform="matrix(1,0,0,1,2569.5,46.09995000000013) translate(13.518518518518519 68.61111111111111)"/><use xlink:href="#d" transform="matrix(1,0,0,1,2569.5,46.09995000000013) translate(75.0888888888889 68.61111111111111)"/><use xlink:href="#e" transform="matrix(1,0,0,1,2569.5,46.09995000000013) translate(88.31358024691359 68.61111111111111)"/><use xlink:href="#b" transform="matrix(1,0,0,1,2569.5,46.09995000000013) translate(0 95.27777777777777)"/><use xlink:href="#N" transform="matrix(1,0,0,1,2569.5,46.09995000000013) translate(13.518518518518519 95.27777777777777)"/><use xlink:href="#d" transform="matrix(1,0,0,1,2569.5,46.09995000000013) translate(89.49876543209876 95.27777777777777)"/><use xlink:href="#L" transform="matrix(1,0,0,1,2569.5,46.09995000000013) translate(102.72345679012345 95.27777777777777)"/></g><path d="M2918.38 104.5h78.12a6 6 0 0 0 6-6v-143a6 6 0 0 1 6-6h107.6" stroke="#3a414a" fill="none"/><path d="M2888.7 104.5l14.86-14.85 15.15 14.85-15.14 14.85z" stroke="#3a414a" fill="#3a414a"/><path d="M3098.8-40.32l17.22-10.18-17.22-10.18" stroke="#3a414a" fill="none"/><path d="M2918.38-229h78.12a6 6 0 0 1 6 6v166.5a6 6 0 0 0 6 6h107.6" stroke="#3a414a" fill="none"/><path d="M2888.7-229l14.86-14.85L2918.7-229l-15.14 14.85z" stroke="#3a414a" fill="#3a414a"/><path d="M3098.8-40.32l17.22-10.18-17.22-10.18M2298.38-49.5h108.12a6 6 0 0 0 6-6V-223a6 6 0 0 1 6-6h137.6" stroke="#3a414a" fill="none"/><path d="M2268.7-49.5l14.86-14.85 15.15 14.85-15.14 14.85z" stroke="#3a414a" fill="#3a414a"/><path d="M2538.8-218.82l17.22-10.18-17.22-10.18M2298.38-49.5h108.12a6 6 0 0 1 6 6v142a6 6 0 0 0 6 6h137.6" stroke="#3a414a" fill="none"/><path d="M2268.7-49.5l14.86-14.85 15.15 14.85-15.14 14.85z" stroke="#3a414a" fill="#3a414a"/><path d="M2538.8 114.68l17.22-10.18-17.22-10.18" stroke="#3a414a" fill="none"/><defs><path d="M136-208V0H84v-208H4v-40h212v40h-80" id="O"/><path d="M133-34C117-15 103 5 69 4 32 3 11-16 11-54c-1-60 55-63 116-61 1-26-3-47-28-47-18 1-26 9-28 27l-52-2c7-38 36-58 82-57s74 22 75 68l1 82c-1 14 12 18 25 15v27c-30 8-71 5-69-32zm-48 3c29 0 43-24 42-57-32 0-66-3-65 30 0 17 8 27 23 27" id="P"/><path d="M135-194c52 0 70 43 70 98 0 56-19 99-73 100-30 1-46-15-58-35L72 0H24l1-261h50v104c11-23 29-37 60-37zM114-30c31 0 40-27 40-66 0-37-7-63-39-63s-41 28-41 65c0 36 8 64 40 64" id="Q"/><path d="M25 0v-261h50V0H25" id="R"/><path d="M185-48c-13 30-37 53-82 52C43 2 14-33 14-96s30-98 90-98c62 0 83 45 84 108H66c0 31 8 55 39 56 18 0 30-7 34-22zm-45-69c5-46-57-63-70-21-2 6-4 13-4 21h74" id="S"/><g id="a"><use transform="matrix(0.05,0,0,0.05,0,0)" xlink:href="#O"/><use transform="matrix(0.05,0,0,0.05,9.600000000000001,0)" xlink:href="#P"/><use transform="matrix(0.05,0,0,0.05,19.6,0)" xlink:href="#Q"/><use transform="matrix(0.05,0,0,0.05,30.55,0)" xlink:href="#R"/><use transform="matrix(0.05,0,0,0.05,35.550000000000004,0)" xlink:href="#S"/></g><path fill="#3a414a" d="M16-82v-28h88v28H16" id="T"/><use transform="matrix(0.06172839506172839,0,0,0.06172839506172839,0,0)" xlink:href="#T" id="b"/><path fill="#660e7a" d="M135-194c87-1 58 113 63 194h-50c-7-57 23-157-34-157-59 0-34 97-39 157H25l-1-190h47c2 12-1 28 3 38 12-26 28-41 61-42" id="U"/><path fill="#660e7a" d="M133-34C117-15 103 5 69 4 32 3 11-16 11-54c-1-60 55-63 116-61 1-26-3-47-28-47-18 1-26 9-28 27l-52-2c7-38 36-58 82-57s74 22 75 68l1 82c-1 14 12 18 25 15v27c-30 8-71 5-69-32zm-48 3c29 0 43-24 42-57-32 0-66-3-65 30 0 17 8 27 23 27" id="V"/><path fill="#660e7a" d="M220-157c-53 9-28 100-34 157h-49v-107c1-27-5-49-29-50C55-147 81-57 75 0H25l-1-190h47c2 12-1 28 3 38 10-53 101-56 108 0 13-22 24-43 59-42 82 1 51 116 57 194h-49v-107c-1-25-5-48-29-50" id="W"/><path fill="#660e7a" d="M185-48c-13 30-37 53-82 52C43 2 14-33 14-96s30-98 90-98c62 0 83 45 84 108H66c0 31 8 55 39 56 18 0 30-7 34-22zm-45-69c5-46-57-63-70-21-2 6-4 13-4 21h74" id="X"/><g id="c"><use transform="matrix(0.05925925925925927,0,0,0.05925925925925927,0,0)" xlink:href="#U"/><use transform="matrix(0.05925925925925927,0,0,0.05925925925925927,12.97777777777778,0)" xlink:href="#V"/><use transform="matrix(0.05925925925925927,0,0,0.05925925925925927,24.829629629629633,0)" xlink:href="#W"/><use transform="matrix(0.05925925925925927,0,0,0.05925925925925927,43.7925925925926,0)" xlink:href="#X"/></g><path fill="#383838" d="M35-132v-50h50v50H35zM35 0v-49h50V0H35" id="Y"/><use transform="matrix(0.059259259259259255,0,0,0.059259259259259255,0,0)" xlink:href="#Y" id="d"/><path fill="#8c6c41" d="M185-189c-5-48-123-54-124 2 14 75 158 14 163 119 3 78-121 87-175 55-17-10-28-26-33-46l33-7c5 56 141 63 141-1 0-78-155-14-162-118-5-82 145-84 179-34 5 7 8 16 11 25" id="Z"/><path fill="#8c6c41" d="M59-47c-2 24 18 29 38 22v24C64 9 27 4 27-40v-127H5v-23h24l9-43h21v43h35v23H59v120" id="aa"/><path fill="#8c6c41" d="M114-163C36-179 61-72 57 0H25l-1-190h30c1 12-1 29 2 39 6-27 23-49 58-41v29" id="ab"/><path fill="#8c6c41" d="M24-231v-30h32v30H24zM24 0v-190h32V0H24" id="ac"/><path fill="#8c6c41" d="M117-194c89-4 53 116 60 194h-32v-121c0-31-8-49-39-48C34-167 62-67 57 0H25l-1-190h30c1 10-1 24 2 32 11-22 29-35 61-36" id="ad"/><path fill="#8c6c41" d="M177-190C167-65 218 103 67 71c-23-6-38-20-44-43l32-5c15 47 100 32 89-28v-30C133-14 115 1 83 1 29 1 15-40 15-95c0-56 16-97 71-98 29-1 48 16 59 35 1-10 0-23 2-32h30zM94-22c36 0 50-32 50-73 0-42-14-75-50-75-39 0-46 34-46 75s6 73 46 73" id="ae"/><g id="e"><use transform="matrix(0.059259259259259255,0,0,0.059259259259259255,0,0)" xlink:href="#Z"/><use transform="matrix(0.059259259259259255,0,0,0.059259259259259255,14.222222222222221,0)" xlink:href="#aa"/><use transform="matrix(0.059259259259259255,0,0,0.059259259259259255,20.148148148148145,0)" xlink:href="#ab"/><use transform="matrix(0.059259259259259255,0,0,0.059259259259259255,27.199999999999996,0)" xlink:href="#ac"/><use transform="matrix(0.059259259259259255,0,0,0.059259259259259255,31.88148148148148,0)" xlink:href="#ad"/><use transform="matrix(0.059259259259259255,0,0,0.059259259259259255,43.73333333333333,0)" xlink:href="#ae"/></g><path fill="#660e7a" d="M190-63c-7 42-38 67-86 67-59 0-84-38-90-98-12-110 154-137 174-36l-49 2c-2-19-15-32-35-32-30 0-35 28-38 64-6 74 65 87 74 30" id="af"/><path fill="#660e7a" d="M110-194c64 0 96 36 96 99 0 64-35 99-97 99-61 0-95-36-95-99 0-62 34-99 96-99zm-1 164c35 0 45-28 45-65 0-40-10-65-43-65-34 0-45 26-45 65 0 36 10 65 43 65" id="ag"/><path fill="#660e7a" d="M25 0v-261h50V0H25" id="ah"/><path fill="#660e7a" d="M85 4C-2 5 27-109 22-190h50c7 57-23 150 33 157 60-5 35-97 40-157h50l1 190h-47c-2-12 1-28-3-38-12 25-28 42-61 42" id="ai"/><path fill="#660e7a" d="M137-138c1-29-70-34-71-4 15 46 118 7 119 86 1 83-164 76-172 9l43-7c4 19 20 25 44 25 33 8 57-30 24-41C81-84 22-81 20-136c-2-80 154-74 161-7" id="aj"/><g id="f"><use transform="matrix(0.05925925925925927,0,0,0.05925925925925927,0,0)" xlink:href="#af"/><use transform="matrix(0.05925925925925927,0,0,0.05925925925925927,11.851851851851853,0)" xlink:href="#ag"/><use transform="matrix(0.05925925925925927,0,0,0.05925925925925927,24.829629629629633,0)" xlink:href="#ah"/><use transform="matrix(0.05925925925925927,0,0,0.05925925925925927,30.75555555555556,0)" xlink:href="#ai"/><use transform="matrix(0.05925925925925927,0,0,0.05925925925925927,43.73333333333334,0)" xlink:href="#W"/><use transform="matrix(0.05925925925925927,0,0,0.05925925925925927,62.6962962962963,0)" xlink:href="#U"/><use transform="matrix(0.05925925925925927,0,0,0.05925925925925927,75.67407407407408,0)" xlink:href="#aj"/></g><path fill="#8c6c41" d="M30 0v-248h33v221h125V0H30" id="ak"/><path fill="#8c6c41" d="M135-143c-3-34-86-38-87 0 15 53 115 12 119 90S17 21 10-45l28-5c4 36 97 45 98 0-10-56-113-15-118-90-4-57 82-63 122-42 12 7 21 19 24 35" id="al"/><path fill="#383838" d="M18-100v-36l175-74v27L42-118l151 64v27" id="am"/><path fill="#8c6c41" d="M212-179c-10-28-35-45-73-45-59 0-87 40-87 99 0 60 29 101 89 101 43 0 62-24 78-52l27 14C228-24 195 4 139 4 59 4 22-46 18-125c-6-104 99-153 187-111 19 9 31 26 39 46" id="an"/><path fill="#8c6c41" d="M100-194c62-1 85 37 85 99 1 63-27 99-86 99S16-35 15-95c0-66 28-99 85-99zM99-20c44 1 53-31 53-75 0-43-8-75-51-75s-53 32-53 75 10 74 51 75" id="ao"/><path fill="#8c6c41" d="M24 0v-261h32V0H24" id="ap"/><path fill="#8c6c41" d="M84 4C-5 8 30-112 23-190h32v120c0 31 7 50 39 49 72-2 45-101 50-169h31l1 190h-30c-1-10 1-25-2-33-11 22-28 36-60 37" id="aq"/><path fill="#8c6c41" d="M210-169c-67 3-38 105-44 169h-31v-121c0-29-5-50-35-48C34-165 62-65 56 0H25l-1-190h30c1 10-1 24 2 32 10-44 99-50 107 0 11-21 27-35 58-36 85-2 47 119 55 194h-31v-121c0-29-5-49-35-48" id="ar"/><path fill="#383838" d="M18-27v-27l151-64-151-65v-27l175 74v36" id="as"/><g id="g"><use transform="matrix(0.059259259259259255,0,0,0.059259259259259255,0,0)" xlink:href="#ak"/><use transform="matrix(0.059259259259259255,0,0,0.059259259259259255,11.851851851851851,0)" xlink:href="#ac"/><use transform="matrix(0.059259259259259255,0,0,0.059259259259259255,16.53333333333333,0)" xlink:href="#al"/><use transform="matrix(0.059259259259259255,0,0,0.059259259259259255,27.199999999999996,0)" xlink:href="#aa"/><use transform="matrix(0.059259259259259255,0,0,0.059259259259259255,33.12592592592592,0)" xlink:href="#am"/><use transform="matrix(0.059259259259259255,0,0,0.059259259259259255,45.57037037037036,0)" xlink:href="#an"/><use transform="matrix(0.059259259259259255,0,0,0.059259259259259255,60.91851851851851,0)" xlink:href="#ao"/><use transform="matrix(0.059259259259259255,0,0,0.059259259259259255,72.77037037037036,0)" xlink:href="#ap"/><use transform="matrix(0.059259259259259255,0,0,0.059259259259259255,77.45185185185184,0)" xlink:href="#aq"/><use transform="matrix(0.059259259259259255,0,0,0.059259259259259255,89.30370370370369,0)" xlink:href="#ar"/><use transform="matrix(0.059259259259259255,0,0,0.059259259259259255,107.02222222222221,0)" xlink:href="#ad"/><use transform="matrix(0.059259259259259255,0,0,0.059259259259259255,118.87407407407406,0)" xlink:href="#as"/></g><path fill="#660e7a" d="M135-150c-39-12-60 13-60 57V0H25l-1-190h47c2 13-1 29 3 40 6-28 27-53 61-41v41" id="at"/><path fill="#660e7a" d="M231 0h-52l-39-155L100 0H48L-1-190h46L77-45c9-52 24-97 36-145h53l37 145 32-145h46" id="au"/><g id="h"><use transform="matrix(0.05925925925925927,0,0,0.05925925925925927,0,0)" xlink:href="#at"/><use transform="matrix(0.05925925925925927,0,0,0.05925925925925927,8.296296296296298,0)" xlink:href="#ag"/><use transform="matrix(0.05925925925925927,0,0,0.05925925925925927,21.27407407407408,0)" xlink:href="#au"/><use transform="matrix(0.05925925925925927,0,0,0.05925925925925927,37.866666666666674,0)" xlink:href="#aj"/></g><path fill="#8c6c41" d="M233-177c-1 41-23 64-60 70L243 0h-38l-65-103H63V0H30v-248c88 3 205-21 203 71zM63-129c60-2 137 13 137-47 0-61-80-42-137-45v92" id="av"/><path fill="#8c6c41" d="M206 0h-36l-40-164L89 0H53L-1-190h32L70-26l43-164h34l41 164 42-164h31" id="aw"/><g id="i"><use transform="matrix(0.059259259259259255,0,0,0.059259259259259255,0,0)" xlink:href="#ak"/><use transform="matrix(0.059259259259259255,0,0,0.059259259259259255,11.851851851851851,0)" xlink:href="#ac"/><use transform="matrix(0.059259259259259255,0,0,0.059259259259259255,16.53333333333333,0)" xlink:href="#al"/><use transform="matrix(0.059259259259259255,0,0,0.059259259259259255,27.199999999999996,0)" xlink:href="#aa"/><use transform="matrix(0.059259259259259255,0,0,0.059259259259259255,33.12592592592592,0)" xlink:href="#am"/><use transform="matrix(0.059259259259259255,0,0,0.059259259259259255,45.57037037037036,0)" xlink:href="#av"/><use transform="matrix(0.059259259259259255,0,0,0.059259259259259255,60.91851851851851,0)" xlink:href="#ao"/><use transform="matrix(0.059259259259259255,0,0,0.059259259259259255,72.77037037037036,0)" xlink:href="#aw"/><use transform="matrix(0.059259259259259255,0,0,0.059259259259259255,88.1185185185185,0)" xlink:href="#as"/></g><g id="j"><use transform="matrix(0.05925925925925927,0,0,0.05925925925925927,0,0)" xlink:href="#aj"/><use transform="matrix(0.05925925925925927,0,0,0.05925925925925927,11.851851851851853,0)" xlink:href="#ag"/><use transform="matrix(0.05925925925925927,0,0,0.05925925925925927,24.829629629629633,0)" xlink:href="#ai"/><use transform="matrix(0.05925925925925927,0,0,0.05925925925925927,37.80740740740741,0)" xlink:href="#at"/><use transform="matrix(0.05925925925925927,0,0,0.05925925925925927,46.10370370370371,0)" xlink:href="#af"/><use transform="matrix(0.05925925925925927,0,0,0.05925925925925927,57.95555555555556,0)" xlink:href="#X"/></g><path fill="#8c6c41" d="M127-220V0H93v-220H8v-28h204v28h-85" id="ax"/><path fill="#8c6c41" d="M141-36C126-15 110 5 73 4 37 3 15-17 15-53c-1-64 63-63 125-63 3-35-9-54-41-54-24 1-41 7-42 31l-33-3c5-37 33-52 76-52 45 0 72 20 72 64v82c-1 20 7 32 28 27v20c-31 9-61-2-59-35zM48-53c0 20 12 33 32 33 41-3 63-29 60-74-43 2-92-5-92 41" id="ay"/><path fill="#8c6c41" d="M115-194c53 0 69 39 70 98 0 66-23 100-70 100C84 3 66-7 56-30L54 0H23l1-261h32v101c10-23 28-34 59-34zm-8 174c40 0 45-34 45-75 0-40-5-75-45-74-42 0-51 32-51 76 0 43 10 73 51 73" id="az"/><path fill="#8c6c41" d="M100-194c63 0 86 42 84 106H49c0 40 14 67 53 68 26 1 43-12 49-29l28 8c-11 28-37 45-77 45C44 4 14-33 15-96c1-61 26-98 85-98zm52 81c6-60-76-77-97-28-3 7-6 17-6 28h103" id="aA"/><path fill="#8c6c41" d="M96-169c-40 0-48 33-48 73s9 75 48 75c24 0 41-14 43-38l32 2c-6 37-31 61-74 61-59 0-76-41-82-99-10-93 101-131 147-64 4 7 5 14 7 22l-32 3c-4-21-16-35-41-35" id="aB"/><g id="k"><use transform="matrix(0.059259259259259255,0,0,0.059259259259259255,0,0)" xlink:href="#ax"/><use transform="matrix(0.059259259259259255,0,0,0.059259259259259255,10.607407407407406,0)" xlink:href="#ay"/><use transform="matrix(0.059259259259259255,0,0,0.059259259259259255,22.459259259259255,0)" xlink:href="#az"/><use transform="matrix(0.059259259259259255,0,0,0.059259259259259255,34.3111111111111,0)" xlink:href="#ap"/><use transform="matrix(0.059259259259259255,0,0,0.059259259259259255,38.99259259259259,0)" xlink:href="#aA"/><use transform="matrix(0.059259259259259255,0,0,0.059259259259259255,50.844444444444434,0)" xlink:href="#Z"/><use transform="matrix(0.059259259259259255,0,0,0.059259259259259255,65.06666666666666,0)" xlink:href="#ao"/><use transform="matrix(0.059259259259259255,0,0,0.059259259259259255,76.91851851851851,0)" xlink:href="#aq"/><use transform="matrix(0.059259259259259255,0,0,0.059259259259259255,88.77037037037036,0)" xlink:href="#ab"/><use transform="matrix(0.059259259259259255,0,0,0.059259259259259255,95.82222222222221,0)" xlink:href="#aB"/><use transform="matrix(0.059259259259259255,0,0,0.059259259259259255,106.48888888888888,0)" xlink:href="#aA"/></g><path d="M147 0H94L2-248h55l64 206c17-72 42-137 63-206h54" id="aC"/><path d="M85 4C-2 5 27-109 22-190h50c7 57-23 150 33 157 60-5 35-97 40-157h50l1 190h-47c-2-12 1-28-3-38-12 25-28 42-61 42" id="aD"/><g id="l"><use transform="matrix(0.05,0,0,0.05,0,0)" xlink:href="#aC"/><use transform="matrix(0.05,0,0,0.05,11,0)" xlink:href="#P"/><use transform="matrix(0.05,0,0,0.05,21,0)" xlink:href="#R"/><use transform="matrix(0.05,0,0,0.05,26,0)" xlink:href="#aD"/><use transform="matrix(0.05,0,0,0.05,36.95,0)" xlink:href="#S"/></g><path fill="#660e7a" d="M128 0H69L1-190h53L99-40l48-150h52" id="aE"/><g id="m"><use transform="matrix(0.05925925925925927,0,0,0.05925925925925927,0,0)" xlink:href="#aE"/><use transform="matrix(0.05925925925925927,0,0,0.05925925925925927,11.851851851851853,0)" xlink:href="#V"/><use transform="matrix(0.05925925925925927,0,0,0.05925925925925927,23.703703703703706,0)" xlink:href="#ah"/><use transform="matrix(0.05925925925925927,0,0,0.05925925925925927,29.629629629629633,0)" xlink:href="#ai"/><use transform="matrix(0.05925925925925927,0,0,0.05925925925925927,42.607407407407415,0)" xlink:href="#X"/></g><path fill="#8c6c41" d="M140-251c81 0 123 46 123 126C263-46 219 4 140 4 59 4 17-45 17-125s42-126 123-126zm0 227c63 0 89-41 89-101s-29-99-89-99c-61 0-89 39-89 99S79-25 140-24" id="aF"/><path fill="#8c6c41" d="M24-231v-30h32v30H24zM-9 49c24 4 33-6 33-30v-209h32V24c2 40-23 58-65 49V49" id="aG"/><g id="n"><use transform="matrix(0.059259259259259255,0,0,0.059259259259259255,0,0)" xlink:href="#aF"/><use transform="matrix(0.059259259259259255,0,0,0.059259259259259255,16.59259259259259,0)" xlink:href="#az"/><use transform="matrix(0.059259259259259255,0,0,0.059259259259259255,28.444444444444443,0)" xlink:href="#aG"/><use transform="matrix(0.059259259259259255,0,0,0.059259259259259255,33.12592592592593,0)" xlink:href="#aA"/><use transform="matrix(0.059259259259259255,0,0,0.059259259259259255,44.977777777777774,0)" xlink:href="#aB"/><use transform="matrix(0.059259259259259255,0,0,0.059259259259259255,55.64444444444444,0)" xlink:href="#aa"/></g><path d="M15-91v-56l181-69v40L49-119l147 57v40" id="aH"/><path d="M25-224v-37h50v37H25zM25 0v-190h50V0H25" id="aI"/><path d="M135-194c87-1 58 113 63 194h-50c-7-57 23-157-34-157-59 0-34 97-39 157H25l-1-190h47c2 12-1 28 3 38 12-26 28-41 61-42" id="aJ"/><path d="M115-3C79 11 28 4 28-45v-112H4v-33h27l15-45h31v45h36v33H77v99c-1 23 16 31 38 25v30" id="aK"/><path d="M135-150c-39-12-60 13-60 57V0H25l-1-190h47c2 13-1 29 3 40 6-28 27-53 61-41v41" id="aL"/><path d="M121-226c-27-7-43 5-38 36h38v33H83V0H34v-157H6v-33h28c-9-59 32-81 87-68v32" id="aM"/><path d="M190-63c-7 42-38 67-86 67-59 0-84-38-90-98-12-110 154-137 174-36l-49 2c-2-19-15-32-35-32-30 0-35 28-38 64-6 74 65 87 74 30" id="aN"/><path d="M15-22v-40l146-57-146-57v-40l181 69v56" id="aO"/><g id="o"><use transform="matrix(0.05,0,0,0.05,0,0)" xlink:href="#aH"/><use transform="matrix(0.05,0,0,0.05,10.5,0)" xlink:href="#aH"/><use transform="matrix(0.05,0,0,0.05,21,0)" xlink:href="#aI"/><use transform="matrix(0.05,0,0,0.05,26,0)" xlink:href="#aJ"/><use transform="matrix(0.05,0,0,0.05,36.95,0)" xlink:href="#aK"/><use transform="matrix(0.05,0,0,0.05,42.900000000000006,0)" xlink:href="#S"/><use transform="matrix(0.05,0,0,0.05,52.900000000000006,0)" xlink:href="#aL"/><use transform="matrix(0.05,0,0,0.05,59.900000000000006,0)" xlink:href="#aM"/><use transform="matrix(0.05,0,0,0.05,65.85000000000001,0)" xlink:href="#P"/><use transform="matrix(0.05,0,0,0.05,75.85000000000001,0)" xlink:href="#aN"/><use transform="matrix(0.05,0,0,0.05,85.85000000000001,0)" xlink:href="#S"/><use transform="matrix(0.05,0,0,0.05,95.85000000000001,0)" xlink:href="#aO"/><use transform="matrix(0.05,0,0,0.05,106.35000000000001,0)" xlink:href="#aO"/></g><path d="M24 0v-248h52V0H24" id="aP"/><g id="p"><use transform="matrix(0.05,0,0,0.05,0,0)" xlink:href="#aP"/><use transform="matrix(0.05,0,0,0.05,5,0)" xlink:href="#O"/><use transform="matrix(0.05,0,0,0.05,14.600000000000001,0)" xlink:href="#P"/><use transform="matrix(0.05,0,0,0.05,24.6,0)" xlink:href="#Q"/><use transform="matrix(0.05,0,0,0.05,35.550000000000004,0)" xlink:href="#R"/><use transform="matrix(0.05,0,0,0.05,40.550000000000004,0)" xlink:href="#S"/></g><path fill="#3a414a" d="M118-107v75H92v-75H18v-26h74v-75h26v75h74v26h-74" id="aQ"/><use transform="matrix(0.061728395061728385,0,0,0.061728395061728385,0,0)" xlink:href="#aQ" id="q"/><path fill="#6b2fba" d="M177-190C167-65 218 103 67 71c-23-6-38-20-44-43l32-5c15 47 100 32 89-28v-30C133-14 115 1 83 1 29 1 15-40 15-95c0-56 16-97 71-98 29-1 48 16 59 35 1-10 0-23 2-32h30zM94-22c36 0 50-32 50-73 0-42-14-75-50-75-39 0-46 34-46 75s6 73 46 73" id="aR"/><path fill="#6b2fba" d="M100-194c63 0 86 42 84 106H49c0 40 14 67 53 68 26 1 43-12 49-29l28 8c-11 28-37 45-77 45C44 4 14-33 15-96c1-61 26-98 85-98zm52 81c6-60-76-77-97-28-3 7-6 17-6 28h103" id="aS"/><path fill="#6b2fba" d="M59-47c-2 24 18 29 38 22v24C64 9 27 4 27-40v-127H5v-23h24l9-43h21v43h35v23H59v120" id="aT"/><path fill="#6b2fba" d="M190 0L58-211 59 0H30v-248h39L202-35l-2-213h31V0h-41" id="aU"/><path fill="#6b2fba" d="M141-36C126-15 110 5 73 4 37 3 15-17 15-53c-1-64 63-63 125-63 3-35-9-54-41-54-24 1-41 7-42 31l-33-3c5-37 33-52 76-52 45 0 72 20 72 64v82c-1 20 7 32 28 27v20c-31 9-61-2-59-35zM48-53c0 20 12 33 32 33 41-3 63-29 60-74-43 2-92-5-92 41" id="aV"/><path fill="#6b2fba" d="M210-169c-67 3-38 105-44 169h-31v-121c0-29-5-50-35-48C34-165 62-65 56 0H25l-1-190h30c1 10-1 24 2 32 10-44 99-50 107 0 11-21 27-35 58-36 85-2 47 119 55 194h-31v-121c0-29-5-49-35-48" id="aW"/><path fill="#383838" d="M67-93c0 74 22 123 53 168H70C40 30 18-18 18-93s22-123 52-168h50c-32 44-53 94-53 168" id="aX"/><path fill="#383838" d="M102-93c0 74-22 123-52 168H0C30 29 54-18 53-93c0-74-22-123-53-168h50c30 45 52 94 52 168" id="aY"/><g id="r"><use transform="matrix(0.059259259259259255,0,0,0.059259259259259255,0,0)" xlink:href="#aR"/><use transform="matrix(0.059259259259259255,0,0,0.059259259259259255,11.851851851851851,0)" xlink:href="#aS"/><use transform="matrix(0.059259259259259255,0,0,0.059259259259259255,23.703703703703702,0)" xlink:href="#aT"/><use transform="matrix(0.059259259259259255,0,0,0.059259259259259255,29.629629629629626,0)" xlink:href="#aU"/><use transform="matrix(0.059259259259259255,0,0,0.059259259259259255,44.977777777777774,0)" xlink:href="#aV"/><use transform="matrix(0.059259259259259255,0,0,0.059259259259259255,56.82962962962962,0)" xlink:href="#aW"/><use transform="matrix(0.059259259259259255,0,0,0.059259259259259255,74.54814814814814,0)" xlink:href="#aS"/><use transform="matrix(0.059259259259259255,0,0,0.059259259259259255,86.39999999999999,0)" xlink:href="#aX"/><use transform="matrix(0.059259259259259255,0,0,0.059259259259259255,93.45185185185184,0)" xlink:href="#aY"/></g><use transform="matrix(0.059259259259259255,0,0,0.059259259259259255,0,0)" xlink:href="#Y" id="s"/><g id="t"><use transform="matrix(0.059259259259259255,0,0,0.059259259259259255,0,0)" xlink:href="#Z"/><use transform="matrix(0.059259259259259255,0,0,0.059259259259259255,14.222222222222221,0)" xlink:href="#aa"/><use transform="matrix(0.059259259259259255,0,0,0.059259259259259255,20.148148148148145,0)" xlink:href="#ab"/><use transform="matrix(0.059259259259259255,0,0,0.059259259259259255,27.199999999999996,0)" xlink:href="#ac"/><use transform="matrix(0.059259259259259255,0,0,0.059259259259259255,31.88148148148148,0)" xlink:href="#ad"/><use transform="matrix(0.059259259259259255,0,0,0.059259259259259255,43.73333333333333,0)" xlink:href="#ae"/></g><path fill="#6b2fba" d="M212-179c-10-28-35-45-73-45-59 0-87 40-87 99 0 60 29 101 89 101 43 0 62-24 78-52l27 14C228-24 195 4 139 4 59 4 22-46 18-125c-6-104 99-153 187-111 19 9 31 26 39 46" id="aZ"/><path fill="#6b2fba" d="M100-194c62-1 85 37 85 99 1 63-27 99-86 99S16-35 15-95c0-66 28-99 85-99zM99-20c44 1 53-31 53-75 0-43-8-75-51-75s-53 32-53 75 10 74 51 75" id="ba"/><path fill="#6b2fba" d="M24 0v-261h32V0H24" id="bb"/><path fill="#6b2fba" d="M84 4C-5 8 30-112 23-190h32v120c0 31 7 50 39 49 72-2 45-101 50-169h31l1 190h-30c-1-10 1-25-2-33-11 22-28 36-60 37" id="bc"/><path fill="#6b2fba" d="M117-194c89-4 53 116 60 194h-32v-121c0-31-8-49-39-48C34-167 62-67 57 0H25l-1-190h30c1 10-1 24 2 32 11-22 29-35 61-36" id="bd"/><path fill="#6b2fba" d="M135-143c-3-34-86-38-87 0 15 53 115 12 119 90S17 21 10-45l28-5c4 36 97 45 98 0-10-56-113-15-118-90-4-57 82-63 122-42 12 7 21 19 24 35" id="be"/><g id="u"><use transform="matrix(0.059259259259259255,0,0,0.059259259259259255,0,0)" xlink:href="#aR"/><use transform="matrix(0.059259259259259255,0,0,0.059259259259259255,11.851851851851851,0)" xlink:href="#aS"/><use transform="matrix(0.059259259259259255,0,0,0.059259259259259255,23.703703703703702,0)" xlink:href="#aT"/><use transform="matrix(0.059259259259259255,0,0,0.059259259259259255,29.629629629629626,0)" xlink:href="#aZ"/><use transform="matrix(0.059259259259259255,0,0,0.059259259259259255,44.977777777777774,0)" xlink:href="#ba"/><use transform="matrix(0.059259259259259255,0,0,0.059259259259259255,56.82962962962962,0)" xlink:href="#bb"/><use transform="matrix(0.059259259259259255,0,0,0.059259259259259255,61.511111111111106,0)" xlink:href="#bc"/><use transform="matrix(0.059259259259259255,0,0,0.059259259259259255,73.36296296296295,0)" xlink:href="#aW"/><use transform="matrix(0.059259259259259255,0,0,0.059259259259259255,91.08148148148148,0)" xlink:href="#bd"/><use transform="matrix(0.059259259259259255,0,0,0.059259259259259255,102.93333333333332,0)" xlink:href="#be"/><use transform="matrix(0.059259259259259255,0,0,0.059259259259259255,113.6,0)" xlink:href="#aX"/><use transform="matrix(0.059259259259259255,0,0,0.059259259259259255,120.65185185185184,0)" xlink:href="#aY"/></g><use transform="matrix(0.059259259259259255,0,0,0.059259259259259255,0,0)" xlink:href="#Y" id="v"/><g id="w"><use transform="matrix(0.059259259259259255,0,0,0.059259259259259255,0,0)" xlink:href="#ak"/><use transform="matrix(0.059259259259259255,0,0,0.059259259259259255,11.851851851851851,0)" xlink:href="#ac"/><use transform="matrix(0.059259259259259255,0,0,0.059259259259259255,16.53333333333333,0)" xlink:href="#al"/><use transform="matrix(0.059259259259259255,0,0,0.059259259259259255,27.199999999999996,0)" xlink:href="#aa"/><use transform="matrix(0.059259259259259255,0,0,0.059259259259259255,33.12592592592592,0)" xlink:href="#am"/><use transform="matrix(0.059259259259259255,0,0,0.059259259259259255,45.57037037037036,0)" xlink:href="#an"/><use transform="matrix(0.059259259259259255,0,0,0.059259259259259255,60.91851851851851,0)" xlink:href="#ao"/><use transform="matrix(0.059259259259259255,0,0,0.059259259259259255,72.77037037037036,0)" xlink:href="#ap"/><use transform="matrix(0.059259259259259255,0,0,0.059259259259259255,77.45185185185184,0)" xlink:href="#aq"/><use transform="matrix(0.059259259259259255,0,0,0.059259259259259255,89.30370370370369,0)" xlink:href="#ar"/><use transform="matrix(0.059259259259259255,0,0,0.059259259259259255,107.02222222222221,0)" xlink:href="#ad"/><use transform="matrix(0.059259259259259255,0,0,0.059259259259259255,118.87407407407406,0)" xlink:href="#as"/></g><path fill="#6b2fba" d="M233-177c-1 41-23 64-60 70L243 0h-38l-65-103H63V0H30v-248c88 3 205-21 203 71zM63-129c60-2 137 13 137-47 0-61-80-42-137-45v92" id="bf"/><path fill="#6b2fba" d="M206 0h-36l-40-164L89 0H53L-1-190h32L70-26l43-164h34l41 164 42-164h31" id="bg"/><g id="x"><use transform="matrix(0.059259259259259255,0,0,0.059259259259259255,0,0)" xlink:href="#aR"/><use transform="matrix(0.059259259259259255,0,0,0.059259259259259255,11.851851851851851,0)" xlink:href="#aS"/><use transform="matrix(0.059259259259259255,0,0,0.059259259259259255,23.703703703703702,0)" xlink:href="#aT"/><use transform="matrix(0.059259259259259255,0,0,0.059259259259259255,29.629629629629626,0)" xlink:href="#bf"/><use transform="matrix(0.059259259259259255,0,0,0.059259259259259255,44.977777777777774,0)" xlink:href="#ba"/><use transform="matrix(0.059259259259259255,0,0,0.059259259259259255,56.82962962962962,0)" xlink:href="#bg"/><use transform="matrix(0.059259259259259255,0,0,0.059259259259259255,72.17777777777776,0)" xlink:href="#be"/><use transform="matrix(0.059259259259259255,0,0,0.059259259259259255,82.84444444444443,0)" xlink:href="#aX"/><use transform="matrix(0.059259259259259255,0,0,0.059259259259259255,89.89629629629628,0)" xlink:href="#aY"/></g><g id="y"><use transform="matrix(0.059259259259259255,0,0,0.059259259259259255,0,0)" xlink:href="#ak"/><use transform="matrix(0.059259259259259255,0,0,0.059259259259259255,11.851851851851851,0)" xlink:href="#ac"/><use transform="matrix(0.059259259259259255,0,0,0.059259259259259255,16.53333333333333,0)" xlink:href="#al"/><use transform="matrix(0.059259259259259255,0,0,0.059259259259259255,27.199999999999996,0)" xlink:href="#aa"/><use transform="matrix(0.059259259259259255,0,0,0.059259259259259255,33.12592592592592,0)" xlink:href="#am"/><use transform="matrix(0.059259259259259255,0,0,0.059259259259259255,45.57037037037036,0)" xlink:href="#av"/><use transform="matrix(0.059259259259259255,0,0,0.059259259259259255,60.91851851851851,0)" xlink:href="#ao"/><use transform="matrix(0.059259259259259255,0,0,0.059259259259259255,72.77037037037036,0)" xlink:href="#aw"/><use transform="matrix(0.059259259259259255,0,0,0.059259259259259255,88.1185185185185,0)" xlink:href="#as"/></g><path fill="#6b2fba" d="M185-189c-5-48-123-54-124 2 14 75 158 14 163 119 3 78-121 87-175 55-17-10-28-26-33-46l33-7c5 56 141 63 141-1 0-78-155-14-162-118-5-82 145-84 179-34 5 7 8 16 11 25" id="bh"/><path fill="#6b2fba" d="M114-163C36-179 61-72 57 0H25l-1-190h30c1 12-1 29 2 39 6-27 23-49 58-41v29" id="bi"/><path fill="#6b2fba" d="M96-169c-40 0-48 33-48 73s9 75 48 75c24 0 41-14 43-38l32 2c-6 37-31 61-74 61-59 0-76-41-82-99-10-93 101-131 147-64 4 7 5 14 7 22l-32 3c-4-21-16-35-41-35" id="bj"/><g id="z"><use transform="matrix(0.059259259259259255,0,0,0.059259259259259255,0,0)" xlink:href="#aR"/><use transform="matrix(0.059259259259259255,0,0,0.059259259259259255,11.851851851851851,0)" xlink:href="#aS"/><use transform="matrix(0.059259259259259255,0,0,0.059259259259259255,23.703703703703702,0)" xlink:href="#aT"/><use transform="matrix(0.059259259259259255,0,0,0.059259259259259255,29.629629629629626,0)" xlink:href="#bh"/><use transform="matrix(0.059259259259259255,0,0,0.059259259259259255,43.85185185185185,0)" xlink:href="#ba"/><use transform="matrix(0.059259259259259255,0,0,0.059259259259259255,55.703703703703695,0)" xlink:href="#bc"/><use transform="matrix(0.059259259259259255,0,0,0.059259259259259255,67.55555555555554,0)" xlink:href="#bi"/><use transform="matrix(0.059259259259259255,0,0,0.059259259259259255,74.6074074074074,0)" xlink:href="#bj"/><use transform="matrix(0.059259259259259255,0,0,0.059259259259259255,85.27407407407406,0)" xlink:href="#aS"/><use transform="matrix(0.059259259259259255,0,0,0.059259259259259255,97.12592592592591,0)" xlink:href="#aX"/><use transform="matrix(0.059259259259259255,0,0,0.059259259259259255,104.17777777777776,0)" xlink:href="#aY"/></g><g id="A"><use transform="matrix(0.059259259259259255,0,0,0.059259259259259255,0,0)" xlink:href="#ax"/><use transform="matrix(0.059259259259259255,0,0,0.059259259259259255,10.607407407407406,0)" xlink:href="#ay"/><use transform="matrix(0.059259259259259255,0,0,0.059259259259259255,22.459259259259255,0)" xlink:href="#az"/><use transform="matrix(0.059259259259259255,0,0,0.059259259259259255,34.3111111111111,0)" xlink:href="#ap"/><use transform="matrix(0.059259259259259255,0,0,0.059259259259259255,38.99259259259259,0)" xlink:href="#aA"/><use transform="matrix(0.059259259259259255,0,0,0.059259259259259255,50.844444444444434,0)" xlink:href="#Z"/><use transform="matrix(0.059259259259259255,0,0,0.059259259259259255,65.06666666666666,0)" xlink:href="#ao"/><use transform="matrix(0.059259259259259255,0,0,0.059259259259259255,76.91851851851851,0)" xlink:href="#aq"/><use transform="matrix(0.059259259259259255,0,0,0.059259259259259255,88.77037037037036,0)" xlink:href="#ab"/><use transform="matrix(0.059259259259259255,0,0,0.059259259259259255,95.82222222222221,0)" xlink:href="#aB"/><use transform="matrix(0.059259259259259255,0,0,0.059259259259259255,106.48888888888888,0)" xlink:href="#aA"/></g><path fill="#6b2fba" d="M85-194c31 0 48 13 60 33l-1-100h32l1 261h-30c-2-10 0-23-3-31C134-8 116 4 85 4 32 4 16-35 15-94c0-66 23-100 70-100zm9 24c-40 0-46 34-46 75 0 40 6 74 45 74 42 0 51-32 51-76 0-42-9-74-50-73" id="bk"/><path fill="#1b6600" d="M96-169c-40 0-48 33-48 73s9 75 48 75c24 0 41-14 43-38l32 2c-6 37-31 61-74 61-59 0-76-41-82-99-10-93 101-131 147-64 4 7 5 14 7 22l-32 3c-4-21-16-35-41-35" id="bl"/><path fill="#1b6600" d="M100-194c62-1 85 37 85 99 1 63-27 99-86 99S16-35 15-95c0-66 28-99 85-99zM99-20c44 1 53-31 53-75 0-43-8-75-51-75s-53 32-53 75 10 74 51 75" id="bm"/><path fill="#1b6600" d="M24 0v-261h32V0H24" id="bn"/><path fill="#1b6600" d="M84 4C-5 8 30-112 23-190h32v120c0 31 7 50 39 49 72-2 45-101 50-169h31l1 190h-30c-1-10 1-25-2-33-11 22-28 36-60 37" id="bo"/><path fill="#1b6600" d="M210-169c-67 3-38 105-44 169h-31v-121c0-29-5-50-35-48C34-165 62-65 56 0H25l-1-190h30c1 10-1 24 2 32 10-44 99-50 107 0 11-21 27-35 58-36 85-2 47 119 55 194h-31v-121c0-29-5-49-35-48" id="bp"/><path fill="#1b6600" d="M117-194c89-4 53 116 60 194h-32v-121c0-31-8-49-39-48C34-167 62-67 57 0H25l-1-190h30c1 10-1 24 2 32 11-22 29-35 61-36" id="bq"/><path fill="#1b6600" d="M190 0L58-211 59 0H30v-248h39L202-35l-2-213h31V0h-41" id="br"/><path fill="#1b6600" d="M141-36C126-15 110 5 73 4 37 3 15-17 15-53c-1-64 63-63 125-63 3-35-9-54-41-54-24 1-41 7-42 31l-33-3c5-37 33-52 76-52 45 0 72 20 72 64v82c-1 20 7 32 28 27v20c-31 9-61-2-59-35zM48-53c0 20 12 33 32 33 41-3 63-29 60-74-43 2-92-5-92 41" id="bs"/><path fill="#1b6600" d="M100-194c63 0 86 42 84 106H49c0 40 14 67 53 68 26 1 43-12 49-29l28 8c-11 28-37 45-77 45C44 4 14-33 15-96c1-61 26-98 85-98zm52 81c6-60-76-77-97-28-3 7-6 17-6 28h103" id="bt"/><g id="B"><use transform="matrix(0.059259259259259255,0,0,0.059259259259259255,0,0)" xlink:href="#aV"/><use transform="matrix(0.059259259259259255,0,0,0.059259259259259255,11.851851851851851,0)" xlink:href="#bk"/><use transform="matrix(0.059259259259259255,0,0,0.059259259259259255,23.703703703703702,0)" xlink:href="#bk"/><use transform="matrix(0.059259259259259255,0,0,0.059259259259259255,35.55555555555556,0)" xlink:href="#aZ"/><use transform="matrix(0.059259259259259255,0,0,0.059259259259259255,50.903703703703705,0)" xlink:href="#ba"/><use transform="matrix(0.059259259259259255,0,0,0.059259259259259255,62.75555555555557,0)" xlink:href="#bb"/><use transform="matrix(0.059259259259259255,0,0,0.059259259259259255,67.43703703703704,0)" xlink:href="#bc"/><use transform="matrix(0.059259259259259255,0,0,0.059259259259259255,79.28888888888889,0)" xlink:href="#aW"/><use transform="matrix(0.059259259259259255,0,0,0.059259259259259255,97.00740740740741,0)" xlink:href="#bd"/><use transform="matrix(0.059259259259259255,0,0,0.059259259259259255,108.85925925925926,0)" xlink:href="#aX"/><use transform="matrix(0.059259259259259255,0,0,0.059259259259259255,115.91111111111111,0)" xlink:href="#bl"/><use transform="matrix(0.059259259259259255,0,0,0.059259259259259255,126.5777777777778,0)" xlink:href="#bm"/><use transform="matrix(0.059259259259259255,0,0,0.059259259259259255,138.42962962962963,0)" xlink:href="#bn"/><use transform="matrix(0.059259259259259255,0,0,0.059259259259259255,143.11111111111111,0)" xlink:href="#bo"/><use transform="matrix(0.059259259259259255,0,0,0.059259259259259255,154.96296296296296,0)" xlink:href="#bp"/><use transform="matrix(0.059259259259259255,0,0,0.059259259259259255,172.68148148148148,0)" xlink:href="#bq"/><use transform="matrix(0.059259259259259255,0,0,0.059259259259259255,184.53333333333333,0)" xlink:href="#br"/><use transform="matrix(0.059259259259259255,0,0,0.059259259259259255,199.88148148148147,0)" xlink:href="#bs"/><use transform="matrix(0.059259259259259255,0,0,0.059259259259259255,211.73333333333332,0)" xlink:href="#bp"/><use transform="matrix(0.059259259259259255,0,0,0.059259259259259255,229.45185185185184,0)" xlink:href="#bt"/></g><use transform="matrix(0.059259259259259255,0,0,0.059259259259259255,0,0)" xlink:href="#Y" id="C"/><g id="D"><use transform="matrix(0.059259259259259255,0,0,0.059259259259259255,0,0)" xlink:href="#Z"/><use transform="matrix(0.059259259259259255,0,0,0.059259259259259255,14.222222222222221,0)" xlink:href="#aa"/><use transform="matrix(0.059259259259259255,0,0,0.059259259259259255,20.148148148148145,0)" xlink:href="#ab"/><use transform="matrix(0.059259259259259255,0,0,0.059259259259259255,27.199999999999996,0)" xlink:href="#ac"/><use transform="matrix(0.059259259259259255,0,0,0.059259259259259255,31.88148148148148,0)" xlink:href="#ad"/><use transform="matrix(0.059259259259259255,0,0,0.059259259259259255,43.73333333333333,0)" xlink:href="#ae"/><use transform="matrix(0.059259259259259255,0,0,0.059259259259259255,55.58518518518518,0)" xlink:href="#aY"/></g><path fill="#0f54d6" d="M115-194c53 0 69 39 70 98 0 66-23 100-70 100C84 3 66-7 56-30L54 0H23l1-261h32v101c10-23 28-34 59-34zm-8 174c40 0 45-34 45-75 0-40-5-75-45-74-42 0-51 32-51 76 0 43 10 73 51 73" id="bu"/><path fill="#0f54d6" d="M100-194c62-1 85 37 85 99 1 63-27 99-86 99S16-35 15-95c0-66 28-99 85-99zM99-20c44 1 53-31 53-75 0-43-8-75-51-75s-53 32-53 75 10 74 51 75" id="bv"/><path fill="#0f54d6" d="M24 0v-261h32V0H24" id="bw"/><path fill="#0f54d6" d="M100-194c63 0 86 42 84 106H49c0 40 14 67 53 68 26 1 43-12 49-29l28 8c-11 28-37 45-77 45C44 4 14-33 15-96c1-61 26-98 85-98zm52 81c6-60-76-77-97-28-3 7-6 17-6 28h103" id="bx"/><path fill="#0f54d6" d="M141-36C126-15 110 5 73 4 37 3 15-17 15-53c-1-64 63-63 125-63 3-35-9-54-41-54-24 1-41 7-42 31l-33-3c5-37 33-52 76-52 45 0 72 20 72 64v82c-1 20 7 32 28 27v20c-31 9-61-2-59-35zM48-53c0 20 12 33 32 33 41-3 63-29 60-74-43 2-92-5-92 41" id="by"/><path fill="#0f54d6" d="M117-194c89-4 53 116 60 194h-32v-121c0-31-8-49-39-48C34-167 62-67 57 0H25l-1-190h30c1 10-1 24 2 32 11-22 29-35 61-36" id="bz"/><g id="E"><use transform="matrix(0.059259259259259255,0,0,0.059259259259259255,0,0)" xlink:href="#bu"/><use transform="matrix(0.059259259259259255,0,0,0.059259259259259255,11.851851851851851,0)" xlink:href="#bv"/><use transform="matrix(0.059259259259259255,0,0,0.059259259259259255,23.703703703703702,0)" xlink:href="#bv"/><use transform="matrix(0.059259259259259255,0,0,0.059259259259259255,35.55555555555556,0)" xlink:href="#bw"/><use transform="matrix(0.059259259259259255,0,0,0.059259259259259255,40.23703703703704,0)" xlink:href="#bx"/><use transform="matrix(0.059259259259259255,0,0,0.059259259259259255,52.08888888888889,0)" xlink:href="#by"/><use transform="matrix(0.059259259259259255,0,0,0.059259259259259255,63.940740740740736,0)" xlink:href="#bz"/></g><use transform="matrix(0.061728395061728385,0,0,0.061728395061728385,0,0)" xlink:href="#aQ" id="F"/><path fill="#1b6600" d="M108 0H70L1-190h34L89-25l56-165h34" id="bA"/><path fill="#1b6600" d="M135-143c-3-34-86-38-87 0 15 53 115 12 119 90S17 21 10-45l28-5c4 36 97 45 98 0-10-56-113-15-118-90-4-57 82-63 122-42 12 7 21 19 24 35" id="bB"/><g id="G"><use transform="matrix(0.059259259259259255,0,0,0.059259259259259255,0,0)" xlink:href="#aV"/><use transform="matrix(0.059259259259259255,0,0,0.059259259259259255,11.851851851851851,0)" xlink:href="#bk"/><use transform="matrix(0.059259259259259255,0,0,0.059259259259259255,23.703703703703702,0)" xlink:href="#bk"/><use transform="matrix(0.059259259259259255,0,0,0.059259259259259255,35.55555555555556,0)" xlink:href="#bf"/><use transform="matrix(0.059259259259259255,0,0,0.059259259259259255,50.903703703703705,0)" xlink:href="#ba"/><use transform="matrix(0.059259259259259255,0,0,0.059259259259259255,62.75555555555557,0)" xlink:href="#bg"/><use transform="matrix(0.059259259259259255,0,0,0.059259259259259255,78.1037037037037,0)" xlink:href="#aX"/><use transform="matrix(0.059259259259259255,0,0,0.059259259259259255,85.15555555555555,0)" xlink:href="#bA"/><use transform="matrix(0.059259259259259255,0,0,0.059259259259259255,95.82222222222222,0)" xlink:href="#bs"/><use transform="matrix(0.059259259259259255,0,0,0.059259259259259255,107.67407407407407,0)" xlink:href="#bn"/><use transform="matrix(0.059259259259259255,0,0,0.059259259259259255,112.35555555555555,0)" xlink:href="#bo"/><use transform="matrix(0.059259259259259255,0,0,0.059259259259259255,124.2074074074074,0)" xlink:href="#bt"/><use transform="matrix(0.059259259259259255,0,0,0.059259259259259255,136.05925925925925,0)" xlink:href="#bB"/></g><g id="H"><use transform="matrix(0.059259259259259255,0,0,0.059259259259259255,0,0)" xlink:href="#ak"/><use transform="matrix(0.059259259259259255,0,0,0.059259259259259255,11.851851851851851,0)" xlink:href="#ac"/><use transform="matrix(0.059259259259259255,0,0,0.059259259259259255,16.53333333333333,0)" xlink:href="#al"/><use transform="matrix(0.059259259259259255,0,0,0.059259259259259255,27.199999999999996,0)" xlink:href="#aa"/><use transform="matrix(0.059259259259259255,0,0,0.059259259259259255,33.12592592592592,0)" xlink:href="#am"/><use transform="matrix(0.059259259259259255,0,0,0.059259259259259255,45.57037037037036,0)" xlink:href="#aF"/><use transform="matrix(0.059259259259259255,0,0,0.059259259259259255,62.16296296296294,0)" xlink:href="#az"/><use transform="matrix(0.059259259259259255,0,0,0.059259259259259255,74.0148148148148,0)" xlink:href="#aG"/><use transform="matrix(0.059259259259259255,0,0,0.059259259259259255,78.69629629629628,0)" xlink:href="#aA"/><use transform="matrix(0.059259259259259255,0,0,0.059259259259259255,90.54814814814813,0)" xlink:href="#aB"/><use transform="matrix(0.059259259259259255,0,0,0.059259259259259255,101.2148148148148,0)" xlink:href="#aa"/><use transform="matrix(0.059259259259259255,0,0,0.059259259259259255,107.14074074074072,0)" xlink:href="#as"/><use transform="matrix(0.059259259259259255,0,0,0.059259259259259255,119.58518518518517,0)" xlink:href="#aY"/></g><path fill="#0f54d6" d="M108 0H70L1-190h34L89-25l56-165h34" id="bC"/><path fill="#0f54d6" d="M24-231v-30h32v30H24zM24 0v-190h32V0H24" id="bD"/><path fill="#0f54d6" d="M85-194c31 0 48 13 60 33l-1-100h32l1 261h-30c-2-10 0-23-3-31C134-8 116 4 85 4 32 4 16-35 15-94c0-66 23-100 70-100zm9 24c-40 0-46 34-46 75 0 40 6 74 45 74 42 0 51-32 51-76 0-42-9-74-50-73" id="bE"/><g id="I"><use transform="matrix(0.059259259259259255,0,0,0.059259259259259255,0,0)" xlink:href="#bC"/><use transform="matrix(0.059259259259259255,0,0,0.059259259259259255,10.666666666666666,0)" xlink:href="#bv"/><use transform="matrix(0.059259259259259255,0,0,0.059259259259259255,22.51851851851852,0)" xlink:href="#bD"/><use transform="matrix(0.059259259259259255,0,0,0.059259259259259255,27.2,0)" xlink:href="#bE"/></g><path d="M240-174c0 40-23 61-54 70L253 0h-59l-57-94H76V0H24v-248c93 4 217-23 216 74zM76-134c48-2 112 12 112-38 0-48-66-32-112-35v73" id="bF"/><path d="M110-194c64 0 96 36 96 99 0 64-35 99-97 99-61 0-95-36-95-99 0-62 34-99 96-99zm-1 164c35 0 45-28 45-65 0-40-10-65-43-65-34 0-45 26-45 65 0 36 10 65 43 65" id="bG"/><path d="M231 0h-52l-39-155L100 0H48L-1-190h46L77-45c9-52 24-97 36-145h53l37 145 32-145h46" id="bH"/><g id="J"><use transform="matrix(0.05,0,0,0.05,0,0)" xlink:href="#bF"/><use transform="matrix(0.05,0,0,0.05,12.950000000000001,0)" xlink:href="#bG"/><use transform="matrix(0.05,0,0,0.05,23.900000000000002,0)" xlink:href="#bH"/></g><g id="K"><use transform="matrix(0.05925925925925927,0,0,0.05925925925925927,0,0)" xlink:href="#aE"/><use transform="matrix(0.05925925925925927,0,0,0.05925925925925927,11.851851851851853,0)" xlink:href="#V"/><use transform="matrix(0.05925925925925927,0,0,0.05925925925925927,23.703703703703706,0)" xlink:href="#ah"/><use transform="matrix(0.05925925925925927,0,0,0.05925925925925927,29.629629629629633,0)" xlink:href="#ai"/><use transform="matrix(0.05925925925925927,0,0,0.05925925925925927,42.607407407407415,0)" xlink:href="#X"/><use transform="matrix(0.05925925925925927,0,0,0.05925925925925927,54.45925925925927,0)" xlink:href="#aj"/></g><path fill="#8c6c41" d="M137 0h-34L2-248h35l83 218 83-218h36" id="bI"/><g id="L"><use transform="matrix(0.059259259259259255,0,0,0.059259259259259255,0,0)" xlink:href="#ak"/><use transform="matrix(0.059259259259259255,0,0,0.059259259259259255,11.851851851851851,0)" xlink:href="#ac"/><use transform="matrix(0.059259259259259255,0,0,0.059259259259259255,16.53333333333333,0)" xlink:href="#al"/><use transform="matrix(0.059259259259259255,0,0,0.059259259259259255,27.199999999999996,0)" xlink:href="#aa"/><use transform="matrix(0.059259259259259255,0,0,0.059259259259259255,33.12592592592592,0)" xlink:href="#am"/><use transform="matrix(0.059259259259259255,0,0,0.059259259259259255,45.57037037037036,0)" xlink:href="#bI"/><use transform="matrix(0.059259259259259255,0,0,0.059259259259259255,58.19259259259258,0)" xlink:href="#ay"/><use transform="matrix(0.059259259259259255,0,0,0.059259259259259255,70.04444444444444,0)" xlink:href="#ap"/><use transform="matrix(0.059259259259259255,0,0,0.059259259259259255,74.72592592592592,0)" xlink:href="#aq"/><use transform="matrix(0.059259259259259255,0,0,0.059259259259259255,86.57777777777777,0)" xlink:href="#aA"/><use transform="matrix(0.059259259259259255,0,0,0.059259259259259255,98.42962962962962,0)" xlink:href="#as"/></g><path d="M67-125c0 53 21 87 73 88 37 1 54-22 65-47l45 17C233-25 199 4 140 4 58 4 20-42 15-125 8-235 124-281 211-232c18 10 29 29 36 50l-46 12c-8-25-30-41-62-41-52 0-71 34-72 86" id="bJ"/><path d="M220-157c-53 9-28 100-34 157h-49v-107c1-27-5-49-29-50C55-147 81-57 75 0H25l-1-190h47c2 12-1 28 3 38 10-53 101-56 108 0 13-22 24-43 59-42 82 1 51 116 57 194h-49v-107c-1-25-5-48-29-50" id="bK"/><g id="M"><use transform="matrix(0.05,0,0,0.05,0,0)" xlink:href="#bJ"/><use transform="matrix(0.05,0,0,0.05,12.950000000000001,0)" xlink:href="#bG"/><use transform="matrix(0.05,0,0,0.05,23.900000000000002,0)" xlink:href="#R"/><use transform="matrix(0.05,0,0,0.05,28.900000000000002,0)" xlink:href="#aD"/><use transform="matrix(0.05,0,0,0.05,39.85,0)" xlink:href="#bK"/><use transform="matrix(0.05,0,0,0.05,55.85,0)" xlink:href="#aJ"/></g><path fill="#660e7a" d="M115-3C79 11 28 4 28-45v-112H4v-33h27l15-45h31v45h36v33H77v99c-1 23 16 31 38 25v30" id="bL"/><path fill="#660e7a" d="M25-224v-37h50v37H25zM25 0v-190h50V0H25" id="bM"/><g id="N"><use transform="matrix(0.05925925925925927,0,0,0.05925925925925927,0,0)" xlink:href="#X"/><use transform="matrix(0.05925925925925927,0,0,0.05925925925925927,11.851851851851853,0)" xlink:href="#U"/><use transform="matrix(0.05925925925925927,0,0,0.05925925925925927,24.829629629629633,0)" xlink:href="#bL"/><use transform="matrix(0.05925925925925927,0,0,0.05925925925925927,31.881481481481487,0)" xlink:href="#at"/><use transform="matrix(0.05925925925925927,0,0,0.05925925925925927,40.177777777777784,0)" xlink:href="#bM"/><use transform="matrix(0.05925925925925927,0,0,0.05925925925925927,46.10370370370371,0)" xlink:href="#X"/><use transform="matrix(0.05925925925925927,0,0,0.05925925925925927,57.95555555555556,0)" xlink:href="#aj"/></g></defs></g></svg>